ply
format ascii 1.0
element vertex 630
property float x
property float y
property float z
property uchar red
property uchar green
property uchar blue
element face 1200
property list uchar int vertex_indices
end_header
-0.139450 -0.085331 0.417440 255 0 0
-0.146787 -0.085331 0.424971 255 0 0
-0.139450 -0.102344 0.417440 255 0 0
-0.146787 -0.102344 0.424971 255 0 0
-0.149211 -0.099095 0.415270 255 0 0
-0.149211 -0.088580 0.415270 255 0 0
-0.137026 -0.099095 0.427142 255 0 0
-0.137026 -0.088580 0.427142 255 0 0
-0.145289 -0.093837 0.430967 255 0 0
-0.152820 -0.093837 0.423630 255 0 0
-0.133417 -0.093837 0.418782 255 0 0
-0.140948 -0.093837 0.411444 255 0 0
-0.139686 -0.088837 0.413255 255 0 0
-0.145424 -0.090747 0.411979 255 0 0
-0.144543 -0.085747 0.415503 255 0 0
-0.148856 -0.085747 0.419930 255 0 0
-0.143119 -0.083838 0.421206 255 0 0
-0.141694 -0.085747 0.426908 255 0 0
-0.137381 -0.085747 0.422482 255 0 0
-0.133835 -0.090747 0.423270 255 0 0
-0.135260 -0.088837 0.417568 255 0 0
-0.136140 -0.093837 0.414043 255 0 0
-0.152402 -0.090747 0.419141 255 0 0
-0.150978 -0.088837 0.424844 255 0 0
-0.145424 -0.096928 0.411979 255 0 0
-0.150281 -0.093837 0.414227 255 0 0
-0.135260 -0.098838 0.417568 255 0 0
-0.139686 -0.098838 0.413255 255 0 0
-0.135956 -0.093837 0.428184 255 0 0
-0.133835 -0.096928 0.423270 255 0 0
-0.146551 -0.088837 0.429157 255 0 0
-0.140813 -0.090747 0.430433 255 0 0
-0.150978 -0.098838 0.424844 255 0 0
-0.152402 -0.096928 0.419141 255 0 0
-0.148856 -0.101928 0.419930 255 0 0
-0.144543 -0.101928 0.415503 255 0 0
-0.143119 -0.103837 0.421206 255 0 0
-0.137381 -0.101928 0.422482 255 0 0
-0.141694 -0.101928 0.426908 255 0 0
-0.140813 -0.096928 0.430433 255 0 0
-0.146551 -0.098838 0.429157 255 0 0
-0.150097 -0.093837 0.428368 255 0 0
-0.178047 0.095494 0.436647 255 0 0
-0.185384 0.095494 0.444178 255 0 0
-0.178047 0.078481 0.436647 255 0 0
-0.185384 0.078481 0.444178 255 0 0
-0.187808 0.081730 0.434476 255 0 0
-0.187808 0.092245 0.434476 255 0 0
-0.175623 0.081730 0.446348 255 0 0
-0.175623 0.092245 0.446348 255 0 0
-0.183886 0.086988 0.450174 255 0 0
-0.191417 0.086988 0.442836 255 0 0
-0.172014 0.086988 0.437988 255 0 0
-0.179545 0.086988 0.430651 255 0 0
-0.178283 0.091988 0.432461 255 0 0
-0.184021 0.090078 0.431185 255 0 0
-0.183140 0.095078 0.434710 255 0 0
-0.187453 0.095078 0.439136 255 0 0
-0.181716 0.096988 0.440412 255 0 0
-0.180291 0.095078 0.446115 255 0 0
-0.175978 0.095078 0.441688 255 0 0
-0.172432 0.090078 0.442477 255 0 0
-0.173857 0.091988 0.436774 255 0 0
-0.174737 0.086988 0.433250 255 0 0
-0.190999 0.090078 0.438348 255 0 0
-0.189575 0.091988 0.444050 255 0 0
-0.184021 0.083898 0.431185 255 0 0
-0.188878 0.086988 0.433434 255 0 0
-0.173857 0.081988 0.436774 255 0 0
-0.178283 0.081988 0.432461 255 0 0
-0.174553 0.086988 0.447391 255 0 0
-0.172432 0.083898 0.442477 255 0 0
-0.185148 0.091988 0.448363 255 0 0
-0.179410 0.090078 0.449639 255 0 0
-0.189575 0.081988 0.444050 255 0 0
-0.190999 0.083898 0.438348 255 0 0
-0.187453 0.078898 0.439136 255 0 0
-0.183140 0.078898 0.434710 255 0 0
-0.181716 0.076988 0.440412 255 0 0
-0.175978 0.078898 0.441688 255 0 0
-0.180291 0.078898 0.446115 255 0 0
-0.179410 0.083898 0.449639 255 0 0
-0.185148 0.081988 0.448363 255 0 0
-0.188694 0.086988 0.447575 255 0 0
-0.201846 0.106381 0.443679 255 0 0
-0.209184 0.106381 0.451210 255 0 0
-0.201846 0.089368 0.443679 255 0 0
-0.209184 0.089368 0.451210 255 0 0
-0.211608 0.092617 0.441508 255 0 0
-0.211608 0.103132 0.441508 255 0 0
-0.199422 0.092617 0.453380 255 0 0
-0.199422 0.103132 0.453380 255 0 0
-0.207686 0.097875 0.457206 255 0 0
-0.215217 0.097875 0.449868 255 0 0
-0.195813 0.097875 0.445020 255 0 0
-0.203344 0.097875 0.437683 255 0 0
-0.202083 0.102875 0.439493 255 0 0
-0.207820 0.100965 0.438217 255 0 0
-0.206940 0.105965 0.441742 255 0 0
-0.211253 0.105965 0.446168 255 0 0
-0.205515 0.107875 0.447444 255 0 0
-0.204090 0.105965 0.453147 255 0 0
-0.199777 0.105965 0.448720 255 0 0
-0.196231 0.100965 0.449509 255 0 0
-0.197656 0.102875 0.443806 255 0 0
-0.198536 0.097875 0.440282 255 0 0
-0.214799 0.100965 0.445380 255 0 0
-0.213374 0.102875 0.451082 255 0 0
-0.207820 0.094784 0.438217 255 0 0
-0.212677 0.097875 0.440466 255 0 0
-0.197656 0.092875 0.443806 255 0 0
-0.202083 0.092875 0.439493 255 0 0
-0.198352 0.097875 0.454423 255 0 0
-0.196231 0.094784 0.449509 255 0 0
-0.208947 0.102875 0.455395 255 0 0
-0.203210 0.100965 0.456671 255 0 0
-0.213374 0.092875 0.451082 255 0 0
-0.214799 0.094784 0.445380 255 0 0
-0.211253 0.089784 0.446168 255 0 0
-0.206940 0.089784 0.441742 255 0 0
-0.205515 0.087875 0.447444 255 0 0
-0.199777 0.089784 0.448720 255 0 0
-0.204090 0.089784 0.453147 255 0 0
-0.203210 0.094784 0.456671 255 0 0
-0.208947 0.092875 0.455395 255 0 0
-0.212493 0.097875 0.454607 255 0 0
-0.063808 0.019793 0.417394 255 0 0
-0.071145 0.019793 0.424925 255 0 0
-0.063808 0.002780 0.417394 255 0 0
-0.071145 0.002780 0.424925 255 0 0
-0.073569 0.006029 0.415223 255 0 0
-0.073569 0.016544 0.415223 255 0 0
-0.061384 0.006029 0.427096 255 0 0
-0.061384 0.016544 0.427096 255 0 0
-0.069647 0.011286 0.430921 255 0 0
-0.077178 0.011286 0.423584 255 0 0
-0.057775 0.011286 0.418736 255 0 0
-0.065306 0.011286 0.411398 255 0 0
-0.064044 0.016286 0.413209 255 0 0
-0.069782 0.014376 0.411933 255 0 0
-0.068901 0.019376 0.415457 255 0 0
-0.073214 0.019376 0.419884 255 0 0
-0.067476 0.021286 0.421160 255 0 0
-0.066052 0.019376 0.426862 255 0 0
-0.061739 0.019376 0.422436 255 0 0
-0.058193 0.014376 0.423224 255 0 0
-0.059617 0.016286 0.417522 255 0 0
-0.060498 0.011286 0.413997 255 0 0
-0.076760 0.014376 0.419095 255 0 0
-0.075335 0.016286 0.424798 255 0 0
-0.069782 0.008196 0.411933 255 0 0
-0.074639 0.011286 0.414181 255 0 0
-0.059617 0.006286 0.417522 255 0 0
-0.064044 0.006286 0.413209 255 0 0
-0.060314 0.011286 0.428138 255 0 0
-0.058193 0.008196 0.423224 255 0 0
-0.070909 0.016286 0.429111 255 0 0
-0.065171 0.014376 0.430387 255 0 0
-0.075335 0.006286 0.424798 255 0 0
-0.076760 0.008196 0.419095 255 0 0
-0.073214 0.003196 0.419884 255 0 0
-0.068901 0.003196 0.415457 255 0 0
-0.067476 0.001286 0.421160 255 0 0
-0.061739 0.003196 0.422436 255 0 0
-0.066052 0.003196 0.426862 255 0 0
-0.065171 0.008196 0.430387 255 0 0
-0.070909 0.006286 0.429111 255 0 0
-0.074455 0.011286 0.428322 255 0 0
-0.124137 0.040747 0.430614 255 0 0
-0.131474 0.040747 0.438145 255 0 0
-0.124137 0.023734 0.430614 255 0 0
-0.131474 0.023734 0.438145 255 0 0
-0.133898 0.026983 0.428443 255 0 0
-0.133898 0.037498 0.428443 255 0 0
-0.121713 0.026983 0.440316 255 0 0
-0.121713 0.037498 0.440316 255 0 0
-0.129976 0.032240 0.444141 255 0 0
-0.137507 0.032240 0.436804 255 0 0
-0.118104 0.032240 0.431956 255 0 0
-0.125635 0.032240 0.424618 255 0 0
-0.124373 0.037240 0.426429 255 0 0
-0.130111 0.035330 0.425153 255 0 0
-0.129230 0.040330 0.428677 255 0 0
-0.133543 0.040330 0.433104 255 0 0
-0.127805 0.042240 0.434380 255 0 0
-0.126381 0.040330 0.440082 255 0 0
-0.122068 0.040330 0.435656 255 0 0
-0.118522 0.035330 0.436444 255 0 0
-0.119946 0.037240 0.430741 255 0 0
-0.120827 0.032240 0.427217 255 0 0
-0.137089 0.035330 0.432315 255 0 0
-0.135664 0.037240 0.438018 255 0 0
-0.130111 0.029150 0.425153 255 0 0
-0.134968 0.032240 0.427401 255 0 0
-0.119946 0.027240 0.430741 255 0 0
-0.124373 0.027240 0.426429 255 0 0
-0.120643 0.032240 0.441358 255 0 0
-0.118522 0.029150 0.436444 255 0 0
-0.131238 0.037240 0.442331 255 0 0
-0.125500 0.035330 0.443607 255 0 0
-0.135664 0.027240 0.438018 255 0 0
-0.137089 0.029150 0.432315 255 0 0
-0.133543 0.024150 0.433104 255 0 0
-0.129230 0.024150 0.428677 255 0 0
-0.127805 0.022240 0.434380 255 0 0
-0.122068 0.024150 0.435656 255 0 0
-0.126381 0.024150 0.440082 255 0 0
-0.125500 0.029150 0.443607 255 0 0
-0.131238 0.027240 0.442331 255 0 0
-0.134784 0.032240 0.441542 255 0 0
-0.147103 0.092020 0.418918 255 0 0
-0.154440 0.092020 0.426449 255 0 0
-0.147103 0.075007 0.418918 255 0 0
-0.154440 0.075007 0.426449 255 0 0
-0.156864 0.078256 0.416747 255 0 0
-0.156864 0.088771 0.416747 255 0 0
-0.144679 0.078256 0.428620 255 0 0
-0.144679 0.088771 0.428620 255 0 0
-0.152942 0.083513 0.432445 255 0 0
-0.160473 0.083513 0.425107 255 0 0
-0.141070 0.083513 0.420260 255 0 0
-0.148601 0.083513 0.412922 255 0 0
-0.147339 0.088513 0.414732 255 0 0
-0.153077 0.086604 0.413457 255 0 0
-0.152196 0.091604 0.416981 255 0 0
-0.156509 0.091604 0.421408 255 0 0
-0.150772 0.093513 0.422683 255 0 0
-0.149347 0.091604 0.428386 255 0 0
-0.145034 0.091604 0.423959 255 0 0
-0.141488 0.086604 0.424748 255 0 0
-0.142912 0.088513 0.419045 255 0 0
-0.143793 0.083513 0.415521 255 0 0
-0.160055 0.086604 0.420619 255 0 0
-0.158631 0.088513 0.426322 255 0 0
-0.153077 0.080423 0.413457 255 0 0
-0.157934 0.083513 0.415705 255 0 0
-0.142912 0.078513 0.419045 255 0 0
-0.147339 0.078513 0.414732 255 0 0
-0.143609 0.083513 0.429662 255 0 0
-0.141488 0.080423 0.424748 255 0 0
-0.154204 0.088513 0.430634 255 0 0
-0.148466 0.086604 0.431910 255 0 0
-0.158631 0.078513 0.426322 255 0 0
-0.160055 0.080423 0.420619 255 0 0
-0.156509 0.075423 0.421408 255 0 0
-0.152196 0.075423 0.416981 255 0 0
-0.150772 0.073513 0.422683 255 0 0
-0.145034 0.075423 0.423959 255 0 0
-0.149347 0.075423 0.428386 255 0 0
-0.148466 0.080423 0.431910 255 0 0
-0.154204 0.078513 0.430634 255 0 0
-0.157750 0.083513 0.429846 255 0 0
0.047074 0.049410 0.439496 255 0 0
0.039737 0.049410 0.447027 255 0 0
0.047074 0.032397 0.439496 255 0 0
0.039737 0.032397 0.447027 255 0 0
0.037313 0.035646 0.437325 255 0 0
0.037313 0.046161 0.437325 255 0 0
0.049498 0.035646 0.449197 255 0 0
0.049498 0.046161 0.449197 255 0 0
0.041235 0.040903 0.453023 255 0 0
0.033704 0.040903 0.445685 255 0 0
0.053107 0.040903 0.440837 255 0 0
0.045576 0.040903 0.433500 255 0 0
0.046838 0.045903 0.435310 255 0 0
0.041100 0.043993 0.434034 255 0 0
0.041981 0.048993 0.437559 255 0 0
0.037668 0.048993 0.441985 255 0 0
0.043405 0.050903 0.443261 255 0 0
0.044830 0.048993 0.448964 255 0 0
0.049143 0.048993 0.444537 255 0 0
0.052689 0.043993 0.445326 255 0 0
0.051264 0.045903 0.439623 255 0 0
0.050384 0.040903 0.436099 255 0 0
0.034122 0.043993 0.441197 255 0 0
0.035546 0.045903 0.446899 255 0 0
0.041100 0.037813 0.434034 255 0 0
0.036243 0.040903 0.436283 255 0 0
0.051264 0.035903 0.439623 255 0 0
0.046838 0.035903 0.435310 255 0 0
0.050568 0.040903 0.450240 255 0 0
0.052689 0.037813 0.445326 255 0 0
0.039973 0.045903 0.451212 255 0 0
0.045711 0.043993 0.452488 255 0 0
0.035546 0.035903 0.446899 255 0 0
0.034122 0.037813 0.441197 255 0 0
0.037668 0.032813 0.441985 255 0 0
0.041981 0.032813 0.437559 255 0 0
0.043405 0.030903 0.443261 255 0 0
0.049143 0.032813 0.444537 255 0 0
0.044830 0.032813 0.448964 255 0 0
0.045711 0.037813 0.452488 255 0 0
0.039973 0.035903 0.451212 255 0 0
0.036427 0.040903 0.450424 255 0 0
0.015670 -0.008601 0.421764 255 0 0
0.008333 -0.008601 0.429295 255 0 0
0.015670 -0.025614 0.421764 255 0 0
0.008333 -0.025614 0.429295 255 0 0
0.005909 -0.022365 0.419593 255 0 0
0.005909 -0.011850 0.419593 255 0 0
0.018094 -0.022365 0.431466 255 0 0
0.018094 -0.011850 0.431466 255 0 0
0.009831 -0.017107 0.435291 255 0 0
0.002300 -0.017107 0.427953 255 0 0
0.021703 -0.017107 0.423105 255 0 0
0.014172 -0.017107 0.415768 255 0 0
0.015434 -0.012107 0.417578 255 0 0
0.009696 -0.014017 0.416302 255 0 0
0.010577 -0.009017 0.419827 255 0 0
0.006264 -0.009017 0.424253 255 0 0
0.012001 -0.007107 0.425529 255 0 0
0.013426 -0.009017 0.431232 255 0 0
0.017739 -0.009017 0.426805 255 0 0
0.021285 -0.014017 0.427594 255 0 0
0.019861 -0.012107 0.421891 255 0 0
0.018980 -0.017107 0.418367 255 0 0
0.002718 -0.014017 0.423465 255 0 0
0.004142 -0.012107 0.429167 255 0 0
0.009696 -0.020198 0.416302 255 0 0
0.004839 -0.017107 0.418551 255 0 0
0.019861 -0.022107 0.421891 255 0 0
0.015434 -0.022107 0.417578 255 0 0
0.019164 -0.017107 0.432508 255 0 0
0.021285 -0.020198 0.427594 255 0 0
0.008569 -0.012107 0.433480 255 0 0
0.014307 -0.014017 0.434756 255 0 0
0.004142 -0.022107 0.429167 255 0 0
0.002718 -0.020198 0.423465 255 0 0
0.006264 -0.025198 0.424253 255 0 0
0.010577 -0.025198 0.419827 255 0 0
0.012001 -0.027107 0.425529 255 0 0
0.017739 -0.025198 0.426805 255 0 0
0.013426 -0.025198 0.431232 255 0 0
0.014307 -0.020198 0.434756 255 0 0
0.008569 -0.022107 0.433480 255 0 0
0.005023 -0.017107 0.432692 255 0 0
-0.081875 -0.017949 0.418187 255 0 0
-0.089213 -0.017949 0.425718 255 0 0
-0.081875 -0.034962 0.418187 255 0 0
-0.089213 -0.034962 0.425718 255 0 0
-0.091637 -0.031713 0.416016 255 0 0
-0.091637 -0.021198 0.416016 255 0 0
-0.079451 -0.031713 0.427889 255 0 0
-0.079451 -0.021198 0.427889 255 0 0
-0.087715 -0.026455 0.431714 255 0 0
-0.095246 -0.026455 0.424377 255 0 0
-0.075842 -0.026455 0.419529 255 0 0
-0.083373 -0.026455 0.412191 255 0 0
-0.082112 -0.021455 0.414002 255 0 0
-0.087849 -0.023365 0.412726 255 0 0
-0.086969 -0.018365 0.416250 255 0 0
-0.091282 -0.018365 0.420677 255 0 0
-0.085544 -0.016455 0.421953 255 0 0
-0.084119 -0.018365 0.427655 255 0 0
-0.079806 -0.018365 0.423229 255 0 0
-0.076260 -0.023365 0.424017 255 0 0
-0.077685 -0.021455 0.418315 255 0 0
-0.078566 -0.026455 0.414790 255 0 0
-0.094828 -0.023365 0.419888 255 0 0
-0.093403 -0.021455 0.425591 255 0 0
-0.087849 -0.029545 0.412726 255 0 0
-0.092707 -0.026455 0.414974 255 0 0
-0.077685 -0.031455 0.418315 255 0 0
-0.082112 -0.031455 0.414002 255 0 0
-0.078382 -0.026455 0.428931 255 0 0
-0.076260 -0.029545 0.424017 255 0 0
-0.088977 -0.021455 0.429904 255 0 0
-0.083239 -0.023365 0.431180 255 0 0
-0.093403 -0.031455 0.425591 255 0 0
-0.094828 -0.029545 0.419888 255 0 0
-0.091282 -0.034545 0.420677 255 0 0
-0.086969 -0.034545 0.416250 255 0 0
-0.085544 -0.036455 0.421953 255 0 0
-0.079806 -0.034545 0.423229 255 0 0
-0.084119 -0.034545 0.427655 255 0 0
-0.083239 -0.029545 0.431180 255 0 0
-0.088977 -0.031455 0.429904 255 0 0
-0.092523 -0.026455 0.429115 255 0 0
0.003036 0.010929 0.411486 255 0 0
-0.004302 0.010929 0.419017 255 0 0
0.003036 -0.006084 0.411486 255 0 0
-0.004302 -0.006084 0.419017 255 0 0
-0.006726 -0.002835 0.409315 255 0 0
-0.006726 0.007680 0.409315 255 0 0
0.005460 -0.002835 0.421188 255 0 0
0.005460 0.007680 0.421188 255 0 0
-0.002804 0.002422 0.425013 255 0 0
-0.010335 0.002422 0.417676 255 0 0
0.009069 0.002422 0.412828 255 0 0
0.001538 0.002422 0.405490 255 0 0
0.002799 0.007422 0.407301 255 0 0
-0.002938 0.005512 0.406025 255 0 0
-0.002058 0.010512 0.409549 255 0 0
-0.006371 0.010512 0.413976 255 0 0
-0.000633 0.012422 0.415252 255 0 0
0.000792 0.010512 0.420954 255 0 0
0.005105 0.010512 0.416528 255 0 0
0.008651 0.005512 0.417316 255 0 0
0.007226 0.007422 0.411614 255 0 0
0.006345 0.002422 0.408089 255 0 0
-0.009917 0.005512 0.413187 255 0 0
-0.008492 0.007422 0.418890 255 0 0
-0.002938 -0.000668 0.406025 255 0 0
-0.007796 0.002422 0.408273 255 0 0
0.007226 -0.002578 0.411614 255 0 0
0.002799 -0.002578 0.407301 255 0 0
0.006529 0.002422 0.422230 255 0 0
0.008651 -0.000668 0.417316 255 0 0
-0.004065 0.007422 0.423203 255 0 0
0.001672 0.005512 0.424479 255 0 0
-0.008492 -0.002578 0.418890 255 0 0
-0.009917 -0.000668 0.413187 255 0 0
-0.006371 -0.005668 0.413976 255 0 0
-0.002058 -0.005668 0.409549 255 0 0
-0.000633 -0.007578 0.415252 255 0 0
0.005105 -0.005668 0.416528 255 0 0
0.000792 -0.005668 0.420954 255 0 0
0.001672 -0.000668 0.424479 255 0 0
-0.004065 -0.002578 0.423203 255 0 0
-0.007612 0.002422 0.422414 255 0 0
0.013015 -0.035339 0.412339 255 0 0
0.005678 -0.035339 0.419870 255 0 0
0.013015 -0.052352 0.412339 255 0 0
0.005678 -0.052352 0.419870 255 0 0
0.003254 -0.049103 0.410169 255 0 0
0.003254 -0.038588 0.410169 255 0 0
0.015439 -0.049103 0.422041 255 0 0
0.015439 -0.038588 0.422041 255 0 0
0.007176 -0.043845 0.425866 255 0 0
-0.000355 -0.043845 0.418529 255 0 0
0.019048 -0.043845 0.413681 255 0 0
0.011517 -0.043845 0.406343 255 0 0
0.012779 -0.038845 0.408154 255 0 0
0.007041 -0.040755 0.406878 255 0 0
0.007922 -0.035755 0.410402 255 0 0
0.003609 -0.035755 0.414829 255 0 0
0.009346 -0.033845 0.416105 255 0 0
0.010771 -0.035755 0.421807 255 0 0
0.015084 -0.035755 0.417381 255 0 0
0.018630 -0.040755 0.418169 255 0 0
0.017206 -0.038845 0.412467 255 0 0
0.016325 -0.043845 0.408942 255 0 0
0.000063 -0.040755 0.414040 255 0 0
0.001487 -0.038845 0.419743 255 0 0
0.007041 -0.046935 0.406878 255 0 0
0.002184 -0.043845 0.409126 255 0 0
0.017206 -0.048845 0.412467 255 0 0
0.012779 -0.048845 0.408154 255 0 0
0.016509 -0.043845 0.423083 255 0 0
0.018630 -0.046935 0.418169 255 0 0
0.005914 -0.038845 0.424056 255 0 0
0.011652 -0.040755 0.425332 255 0 0
0.001487 -0.048845 0.419743 255 0 0
0.000063 -0.046935 0.414040 255 0 0
0.003609 -0.051935 0.414829 255 0 0
0.007922 -0.051935 0.410402 255 0 0
0.009346 -0.053845 0.416105 255 0 0
0.015084 -0.051935 0.417381 255 0 0
0.010771 -0.051935 0.421807 255 0 0
0.011652 -0.046935 0.425332 255 0 0
0.005914 -0.048845 0.424056 255 0 0
0.002368 -0.043845 0.423267 255 0 0
0.042916 0.071233 0.431206 255 0 0
0.035579 0.071233 0.438738 255 0 0
0.042916 0.054220 0.431206 255 0 0
0.035579 0.054220 0.438738 255 0 0
0.033155 0.057469 0.429036 255 0 0
0.033155 0.067984 0.429036 255 0 0
0.045340 0.057469 0.440908 255 0 0
0.045340 0.067984 0.440908 255 0 0
0.037077 0.062727 0.444734 255 0 0
0.029546 0.062727 0.437396 255 0 0
0.048949 0.062727 0.432548 255 0 0
0.041418 0.062727 0.425210 255 0 0
0.042680 0.067727 0.427021 255 0 0
0.036942 0.065817 0.425745 255 0 0
0.037823 0.070817 0.429269 255 0 0
0.033510 0.070817 0.433696 255 0 0
0.039248 0.072727 0.434972 255 0 0
0.040672 0.070817 0.440675 255 0 0
0.044985 0.070817 0.436248 255 0 0
0.048531 0.065817 0.437036 255 0 0
0.047107 0.067727 0.431334 255 0 0
0.046226 0.062727 0.427810 255 0 0
0.029964 0.065817 0.432907 255 0 0
0.031389 0.067727 0.438610 255 0 0
0.036942 0.059636 0.425745 255 0 0
0.032085 0.062727 0.427994 255 0 0
0.047107 0.057727 0.431334 255 0 0
0.042680 0.057727 0.427021 255 0 0
0.046410 0.062727 0.441950 255 0 0
0.048531 0.059636 0.437036 255 0 0
0.035815 0.067727 0.442923 255 0 0
0.041553 0.065817 0.444199 255 0 0
0.031389 0.057727 0.438610 255 0 0
0.029964 0.059636 0.432907 255 0 0
0.033510 0.054636 0.433696 255 0 0
0.037823 0.054636 0.429269 255 0 0
0.039248 0.052727 0.434972 255 0 0
0.044985 0.054636 0.436248 255 0 0
0.040672 0.054636 0.440675 255 0 0
0.041553 0.059636 0.444199 255 0 0
0.035815 0.057727 0.442923 255 0 0
0.032269 0.062727 0.442134 255 0 0
0.039406 -0.071945 0.421571 255 0 0
0.032069 -0.071945 0.429102 255 0 0
0.039406 -0.088958 0.421571 255 0 0
0.032069 -0.088958 0.429102 255 0 0
0.029645 -0.085709 0.419400 255 0 0
0.029645 -0.075194 0.419400 255 0 0
0.041830 -0.085709 0.431273 255 0 0
0.041830 -0.075194 0.431273 255 0 0
0.033567 -0.080451 0.435098 255 0 0
0.026036 -0.080451 0.427761 255 0 0
0.045439 -0.080451 0.422913 255 0 0
0.037908 -0.080451 0.415575 255 0 0
0.039170 -0.075451 0.417386 255 0 0
0.033432 -0.077361 0.416110 255 0 0
0.034313 -0.072361 0.419634 255 0 0
0.030000 -0.072361 0.424061 255 0 0
0.035738 -0.070451 0.425337 255 0 0
0.037162 -0.072361 0.431039 255 0 0
0.041475 -0.072361 0.426613 255 0 0
0.045021 -0.077361 0.427401 255 0 0
0.043597 -0.075451 0.421699 255 0 0
0.042716 -0.080451 0.418174 255 0 0
0.026454 -0.077361 0.423272 255 0 0
0.027879 -0.075451 0.428975 255 0 0
0.033432 -0.083542 0.416110 255 0 0
0.028575 -0.080451 0.418358 255 0 0
0.043597 -0.085451 0.421699 255 0 0
0.039170 -0.085451 0.417386 255 0 0
0.042900 -0.080451 0.432315 255 0 0
0.045021 -0.083542 0.427401 255 0 0
0.032305 -0.075451 0.433288 255 0 0
0.038043 -0.077361 0.434564 255 0 0
0.027879 -0.085451 0.428975 255 0 0
0.026454 -0.083542 0.423272 255 0 0
0.030000 -0.088542 0.424061 255 0 0
0.034313 -0.088542 0.419634 255 0 0
0.035738 -0.090451 0.425337 255 0 0
0.041475 -0.088542 0.426613 255 0 0
0.037162 -0.088542 0.431039 255 0 0
0.038043 -0.083542 0.434564 255 0 0
0.032305 -0.085451 0.433288 255 0 0
0.028759 -0.080451 0.432499 255 0 0
0.052319 0.051278 0.445056 255 0 0
0.044981 0.051278 0.452587 255 0 0
0.052319 0.034265 0.445056 255 0 0
0.044981 0.034265 0.452587 255 0 0
0.042557 0.037515 0.442885 255 0 0
0.042557 0.048029 0.442885 255 0 0
0.054743 0.037515 0.454758 255 0 0
0.054743 0.048029 0.454758 255 0 0
0.046479 0.042772 0.458583 255 0 0
0.038948 0.042772 0.451245 255 0 0
0.058352 0.042772 0.446397 255 0 0
0.050821 0.042772 0.439060 255 0 0
0.052083 0.047772 0.440870 255 0 0
0.046345 0.045862 0.439594 255 0 0
0.047225 0.050862 0.443119 255 0 0
0.042912 0.050862 0.447545 255 0 0
0.048650 0.052772 0.448821 255 0 0
0.050075 0.050862 0.454524 255 0 0
0.054388 0.050862 0.450097 255 0 0
0.057934 0.045862 0.450886 255 0 0
0.056509 0.047772 0.445183 255 0 0
0.055629 0.042772 0.441659 255 0 0
0.039366 0.045862 0.446757 255 0 0
0.040791 0.047772 0.452460 255 0 0
0.046345 0.039682 0.439594 255 0 0
0.041488 0.042772 0.441843 255 0 0
0.056509 0.037772 0.445183 255 0 0
0.052083 0.037772 0.440870 255 0 0
0.055813 0.042772 0.455800 255 0 0
0.057934 0.039682 0.450886 255 0 0
0.045218 0.047772 0.456772 255 0 0
0.050955 0.045862 0.458048 255 0 0
0.040791 0.037772 0.452460 255 0 0
0.039366 0.039682 0.446757 255 0 0
0.042912 0.034682 0.447545 255 0 0
0.047225 0.034682 0.443119 255 0 0
0.048650 0.032772 0.448821 255 0 0
0.054388 0.034682 0.450097 255 0 0
0.050075 0.034682 0.454524 255 0 0
0.050955 0.039682 0.458048 255 0 0
0.045218 0.037772 0.456772 255 0 0
0.041672 0.042772 0.455984 255 0 0
-0.045257 0.008178 0.409724 255 0 0
-0.052595 0.008178 0.417255 255 0 0
-0.045257 -0.008835 0.409724 255 0 0
-0.052595 -0.008835 0.417255 255 0 0
-0.055019 -0.005586 0.407553 255 0 0
-0.055019 0.004929 0.407553 255 0 0
-0.042833 -0.005586 0.419426 255 0 0
-0.042833 0.004929 0.419426 255 0 0
-0.051097 -0.000329 0.423251 255 0 0
-0.058628 -0.000329 0.415913 255 0 0
-0.039224 -0.000329 0.411066 255 0 0
-0.046755 -0.000329 0.403728 255 0 0
-0.045494 0.004671 0.405538 255 0 0
-0.051231 0.002762 0.404263 255 0 0
-0.050351 0.007762 0.407787 255 0 0
-0.054664 0.007762 0.412214 255 0 0
-0.048926 0.009671 0.413489 255 0 0
-0.047501 0.007762 0.419192 255 0 0
-0.043188 0.007762 0.414765 255 0 0
-0.039642 0.002762 0.415554 255 0 0
-0.041067 0.004671 0.409851 255 0 0
-0.041948 -0.000329 0.406327 255 0 0
-0.058210 0.002762 0.411425 255 0 0
-0.056785 0.004671 0.417128 255 0 0
-0.051231 -0.003419 0.404263 255 0 0
-0.056088 -0.000329 0.406511 255 0 0
-0.041067 -0.005329 0.409851 255 0 0
-0.045494 -0.005329 0.405538 255 0 0
-0.041764 -0.000329 0.420468 255 0 0
-0.039642 -0.003419 0.415554 255 0 0
-0.052358 0.004671 0.421441 255 0 0
-0.046621 0.002762 0.422716 255 0 0
-0.056785 -0.005329 0.417128 255 0 0
-0.058210 -0.003419 0.411425 255 0 0
-0.054664 -0.008419 0.412214 255 0 0
-0.050351 -0.008419 0.407787 255 0 0
-0.048926 -0.010329 0.413489 255 0 0
-0.043188 -0.008419 0.414765 255 0 0
-0.047501 -0.008419 0.419192 255 0 0
-0.046621 -0.003419 0.422716 255 0 0
-0.052358 -0.005329 0.421441 255 0 0
-0.055905 -0.000329 0.420652 255 0 0
3 0 12 14
3 11 13 12
3 5 14 13
3 12 13 14
3 0 14 16
3 5 15 14
3 1 16 15
3 14 15 16
3 0 16 18
3 1 17 16
3 7 18 17
3 16 17 18
3 0 18 20
3 7 19 18
3 10 20 19
3 18 19 20
3 0 20 12
3 10 21 20
3 11 12 21
3 20 21 12
3 1 15 23
3 5 22 15
3 9 23 22
3 15 22 23
3 5 13 25
3 11 24 13
3 4 25 24
3 13 24 25
3 11 21 27
3 10 26 21
3 2 27 26
3 21 26 27
3 10 19 29
3 7 28 19
3 6 29 28
3 19 28 29
3 7 17 31
3 1 30 17
3 8 31 30
3 17 30 31
3 3 32 34
3 9 33 32
3 4 34 33
3 32 33 34
3 3 34 36
3 4 35 34
3 2 36 35
3 34 35 36
3 3 36 38
3 2 37 36
3 6 38 37
3 36 37 38
3 3 38 40
3 6 39 38
3 8 40 39
3 38 39 40
3 3 40 32
3 8 41 40
3 9 32 41
3 40 41 32
3 4 33 25
3 9 22 33
3 5 25 22
3 33 22 25
3 2 35 27
3 4 24 35
3 11 27 24
3 35 24 27
3 6 37 29
3 2 26 37
3 10 29 26
3 37 26 29
3 8 39 31
3 6 28 39
3 7 31 28
3 39 28 31
3 9 41 23
3 8 30 41
3 1 23 30
3 41 30 23
3 42 54 56
3 53 55 54
3 47 56 55
3 54 55 56
3 42 56 58
3 47 57 56
3 43 58 57
3 56 57 58
3 42 58 60
3 43 59 58
3 49 60 59
3 58 59 60
3 42 60 62
3 49 61 60
3 52 62 61
3 60 61 62
3 42 62 54
3 52 63 62
3 53 54 63
3 62 63 54
3 43 57 65
3 47 64 57
3 51 65 64
3 57 64 65
3 47 55 67
3 53 66 55
3 46 67 66
3 55 66 67
3 53 63 69
3 52 68 63
3 44 69 68
3 63 68 69
3 52 61 71
3 49 70 61
3 48 71 70
3 61 70 71
3 49 59 73
3 43 72 59
3 50 73 72
3 59 72 73
3 45 74 76
3 51 75 74
3 46 76 75
3 74 75 76
3 45 76 78
3 46 77 76
3 44 78 77
3 76 77 78
3 45 78 80
3 44 79 78
3 48 80 79
3 78 79 80
3 45 80 82
3 48 81 80
3 50 82 81
3 80 81 82
3 45 82 74
3 50 83 82
3 51 74 83
3 82 83 74
3 46 75 67
3 51 64 75
3 47 67 64
3 75 64 67
3 44 77 69
3 46 66 77
3 53 69 66
3 77 66 69
3 48 79 71
3 44 68 79
3 52 71 68
3 79 68 71
3 50 81 73
3 48 70 81
3 49 73 70
3 81 70 73
3 51 83 65
3 50 72 83
3 43 65 72
3 83 72 65
3 84 96 98
3 95 97 96
3 89 98 97
3 96 97 98
3 84 98 100
3 89 99 98
3 85 100 99
3 98 99 100
3 84 100 102
3 85 101 100
3 91 102 101
3 100 101 102
3 84 102 104
3 91 103 102
3 94 104 103
3 102 103 104
3 84 104 96
3 94 105 104
3 95 96 105
3 104 105 96
3 85 99 107
3 89 106 99
3 93 107 106
3 99 106 107
3 89 97 109
3 95 108 97
3 88 109 108
3 97 108 109
3 95 105 111
3 94 110 105
3 86 111 110
3 105 110 111
3 94 103 113
3 91 112 103
3 90 113 112
3 103 112 113
3 91 101 115
3 85 114 101
3 92 115 114
3 101 114 115
3 87 116 118
3 93 117 116
3 88 118 117
3 116 117 118
3 87 118 120
3 88 119 118
3 86 120 119
3 118 119 120
3 87 120 122
3 86 121 120
3 90 122 121
3 120 121 122
3 87 122 124
3 90 123 122
3 92 124 123
3 122 123 124
3 87 124 116
3 92 125 124
3 93 116 125
3 124 125 116
3 88 117 109
3 93 106 117
3 89 109 106
3 117 106 109
3 86 119 111
3 88 108 119
3 95 111 108
3 119 108 111
3 90 121 113
3 86 110 121
3 94 113 110
3 121 110 113
3 92 123 115
3 90 112 123
3 91 115 112
3 123 112 115
3 93 125 107
3 92 114 125
3 85 107 114
3 125 114 107
3 126 138 140
3 137 139 138
3 131 140 139
3 138 139 140
3 126 140 142
3 131 141 140
3 127 142 141
3 140 141 142
3 126 142 144
3 127 143 142
3 133 144 143
3 142 143 144
3 126 144 146
3 133 145 144
3 136 146 145
3 144 145 146
3 126 146 138
3 136 147 146
3 137 138 147
3 146 147 138
3 127 141 149
3 131 148 141
3 135 149 148
3 141 148 149
3 131 139 151
3 137 150 139
3 130 151 150
3 139 150 151
3 137 147 153
3 136 152 147
3 128 153 152
3 147 152 153
3 136 145 155
3 133 154 145
3 132 155 154
3 145 154 155
3 133 143 157
3 127 156 143
3 134 157 156
3 143 156 157
3 129 158 160
3 135 159 158
3 130 160 159
3 158 159 160
3 129 160 162
3 130 161 160
3 128 162 161
3 160 161 162
3 129 162 164
3 128 163 162
3 132 164 163
3 162 163 164
3 129 164 166
3 132 165 164
3 134 166 165
3 164 165 166
3 129 166 158
3 134 167 166
3 135 158 167
3 166 167 158
3 130 159 151
3 135 148 159
3 131 151 148
3 159 148 151
3 128 161 153
3 130 150 161
3 137 153 150
3 161 150 153
3 132 163 155
3 128 152 163
3 136 155 152
3 163 152 155
3 134 165 157
3 132 154 165
3 133 157 154
3 165 154 157
3 135 167 149
3 134 156 167
3 127 149 156
3 167 156 149
3 168 180 182
3 179 181 180
3 173 182 181
3 180 181 182
3 168 182 184
3 173 183 182
3 169 184 183
3 182 183 184
3 168 184 186
3 169 185 184
3 175 186 185
3 184 185 186
3 168 186 188
3 175 187 186
3 178 188 187
3 186 187 188
3 168 188 180
3 178 189 188
3 179 180 189
3 188 189 180
3 169 183 191
3 173 190 183
3 177 191 190
3 183 190 191
3 173 181 193
3 179 192 181
3 172 193 192
3 181 192 193
3 179 189 195
3 178 194 189
3 170 195 194
3 189 194 195
3 178 187 197
3 175 196 187
3 174 197 196
3 187 196 197
3 175 185 199
3 169 198 185
3 176 199 198
3 185 198 199
3 171 200 202
3 177 201 200
3 172 202 201
3 200 201 202
3 171 202 204
3 172 203 202
3 170 204 203
3 202 203 204
3 171 204 206
3 170 205 204
3 174 206 205
3 204 205 206
3 171 206 208
3 174 207 206
3 176 208 207
3 206 207 208
3 171 208 200
3 176 209 208
3 177 200 209
3 208 209 200
3 172 201 193
3 177 190 201
3 173 193 190
3 201 190 193
3 170 203 195
3 172 192 203
3 179 195 192
3 203 192 195
3 174 205 197
3 170 194 205
3 178 197 194
3 205 194 197
3 176 207 199
3 174 196 207
3 175 199 196
3 207 196 199
3 177 209 191
3 176 198 209
3 169 191 198
3 209 198 191
3 210 222 224
3 221 223 222
3 215 224 223
3 222 223 224
3 210 224 226
3 215 225 224
3 211 226 225
3 224 225 226
3 210 226 228
3 211 227 226
3 217 228 227
3 226 227 228
3 210 228 230
3 217 229 228
3 220 230 229
3 228 229 230
3 210 230 222
3 220 231 230
3 221 222 231
3 230 231 222
3 211 225 233
3 215 232 225
3 219 233 232
3 225 232 233
3 215 223 235
3 221 234 223
3 214 235 234
3 223 234 235
3 221 231 237
3 220 236 231
3 212 237 236
3 231 236 237
3 220 229 239
3 217 238 229
3 216 239 238
3 229 238 239
3 217 227 241
3 211 240 227
3 218 241 240
3 227 240 241
3 213 242 244
3 219 243 242
3 214 244 243
3 242 243 244
3 213 244 246
3 214 245 244
3 212 246 245
3 244 245 246
3 213 246 248
3 212 247 246
3 216 248 247
3 246 247 248
3 213 248 250
3 216 249 248
3 218 250 249
3 248 249 250
3 213 250 242
3 218 251 250
3 219 242 251
3 250 251 242
3 214 243 235
3 219 232 243
3 215 235 232
3 243 232 235
3 212 245 237
3 214 234 245
3 221 237 234
3 245 234 237
3 216 247 239
3 212 236 247
3 220 239 236
3 247 236 239
3 218 249 241
3 216 238 249
3 217 241 238
3 249 238 241
3 219 251 233
3 218 240 251
3 211 233 240
3 251 240 233
3 252 264 266
3 263 265 264
3 257 266 265
3 264 265 266
3 252 266 268
3 257 267 266
3 253 268 267
3 266 267 268
3 252 268 270
3 253 269 268
3 259 270 269
3 268 269 270
3 252 270 272
3 259 271 270
3 262 272 271
3 270 271 272
3 252 272 264
3 262 273 272
3 263 264 273
3 272 273 264
3 253 267 275
3 257 274 267
3 261 275 274
3 267 274 275
3 257 265 277
3 263 276 265
3 256 277 276
3 265 276 277
3 263 273 279
3 262 278 273
3 254 279 278
3 273 278 279
3 262 271 281
3 259 280 271
3 258 281 280
3 271 280 281
3 259 269 283
3 253 282 269
3 260 283 282
3 269 282 283
3 255 284 286
3 261 285 284
3 256 286 285
3 284 285 286
3 255 286 288
3 256 287 286
3 254 288 287
3 286 287 288
3 255 288 290
3 254 289 288
3 258 290 289
3 288 289 290
3 255 290 292
3 258 291 290
3 260 292 291
3 290 291 292
3 255 292 284
3 260 293 292
3 261 284 293
3 292 293 284
3 256 285 277
3 261 274 285
3 257 277 274
3 285 274 277
3 254 287 279
3 256 276 287
3 263 279 276
3 287 276 279
3 258 289 281
3 254 278 289
3 262 281 278
3 289 278 281
3 260 291 283
3 258 280 291
3 259 283 280
3 291 280 283
3 261 293 275
3 260 282 293
3 253 275 282
3 293 282 275
3 294 306 308
3 305 307 306
3 299 308 307
3 306 307 308
3 294 308 310
3 299 309 308
3 295 310 309
3 308 309 310
3 294 310 312
3 295 311 310
3 301 312 311
3 310 311 312
3 294 312 314
3 301 313 312
3 304 314 313
3 312 313 314
3 294 314 306
3 304 315 314
3 305 306 315
3 314 315 306
3 295 309 317
3 299 316 309
3 303 317 316
3 309 316 317
3 299 307 319
3 305 318 307
3 298 319 318
3 307 318 319
3 305 315 321
3 304 320 315
3 296 321 320
3 315 320 321
3 304 313 323
3 301 322 313
3 300 323 322
3 313 322 323
3 301 311 325
3 295 324 311
3 302 325 324
3 311 324 325
3 297 326 328
3 303 327 326
3 298 328 327
3 326 327 328
3 297 328 330
3 298 329 328
3 296 330 329
3 328 329 330
3 297 330 332
3 296 331 330
3 300 332 331
3 330 331 332
3 297 332 334
3 300 333 332
3 302 334 333
3 332 333 334
3 297 334 326
3 302 335 334
3 303 326 335
3 334 335 326
3 298 327 319
3 303 316 327
3 299 319 316
3 327 316 319
3 296 329 321
3 298 318 329
3 305 321 318
3 329 318 321
3 300 331 323
3 296 320 331
3 304 323 320
3 331 320 323
3 302 333 325
3 300 322 333
3 301 325 322
3 333 322 325
3 303 335 317
3 302 324 335
3 295 317 324
3 335 324 317
3 336 348 350
3 347 349 348
3 341 350 349
3 348 349 350
3 336 350 352
3 341 351 350
3 337 352 351
3 350 351 352
3 336 352 354
3 337 353 352
3 343 354 353
3 352 353 354
3 336 354 356
3 343 355 354
3 346 356 355
3 354 355 356
3 336 356 348
3 346 357 356
3 347 348 357
3 356 357 348
3 337 351 359
3 341 358 351
3 345 359 358
3 351 358 359
3 341 349 361
3 347 360 349
3 340 361 360
3 349 360 361
3 347 357 363
3 346 362 357
3 338 363 362
3 357 362 363
3 346 355 365
3 343 364 355
3 342 365 364
3 355 364 365
3 343 353 367
3 337 366 353
3 344 367 366
3 353 366 367
3 339 368 370
3 345 369 368
3 340 370 369
3 368 369 370
3 339 370 372
3 340 371 370
3 338 372 371
3 370 371 372
3 339 372 374
3 338 373 372
3 342 374 373
3 372 373 374
3 339 374 376
3 342 375 374
3 344 376 375
3 374 375 376
3 339 376 368
3 344 377 376
3 345 368 377
3 376 377 368
3 340 369 361
3 345 358 369
3 341 361 358
3 369 358 361
3 338 371 363
3 340 360 371
3 347 363 360
3 371 360 363
3 342 373 365
3 338 362 373
3 346 365 362
3 373 362 365
3 344 375 367
3 342 364 375
3 343 367 364
3 375 364 367
3 345 377 359
3 344 366 377
3 337 359 366
3 377 366 359
3 378 390 392
3 389 391 390
3 383 392 391
3 390 391 392
3 378 392 394
3 383 393 392
3 379 394 393
3 392 393 394
3 378 394 396
3 379 395 394
3 385 396 395
3 394 395 396
3 378 396 398
3 385 397 396
3 388 398 397
3 396 397 398
3 378 398 390
3 388 399 398
3 389 390 399
3 398 399 390
3 379 393 401
3 383 400 393
3 387 401 400
3 393 400 401
3 383 391 403
3 389 402 391
3 382 403 402
3 391 402 403
3 389 399 405
3 388 404 399
3 380 405 404
3 399 404 405
3 388 397 407
3 385 406 397
3 384 407 406
3 397 406 407
3 385 395 409
3 379 408 395
3 386 409 408
3 395 408 409
3 381 410 412
3 387 411 410
3 382 412 411
3 410 411 412
3 381 412 414
3 382 413 412
3 380 414 413
3 412 413 414
3 381 414 416
3 380 415 414
3 384 416 415
3 414 415 416
3 381 416 418
3 384 417 416
3 386 418 417
3 416 417 418
3 381 418 410
3 386 419 418
3 387 410 419
3 418 419 410
3 382 411 403
3 387 400 411
3 383 403 400
3 411 400 403
3 380 413 405
3 382 402 413
3 389 405 402
3 413 402 405
3 384 415 407
3 380 404 415
3 388 407 404
3 415 404 407
3 386 417 409
3 384 406 417
3 385 409 406
3 417 406 409
3 387 419 401
3 386 408 419
3 379 401 408
3 419 408 401
3 420 432 434
3 431 433 432
3 425 434 433
3 432 433 434
3 420 434 436
3 425 435 434
3 421 436 435
3 434 435 436
3 420 436 438
3 421 437 436
3 427 438 437
3 436 437 438
3 420 438 440
3 427 439 438
3 430 440 439
3 438 439 440
3 420 440 432
3 430 441 440
3 431 432 441
3 440 441 432
3 421 435 443
3 425 442 435
3 429 443 442
3 435 442 443
3 425 433 445
3 431 444 433
3 424 445 444
3 433 444 445
3 431 441 447
3 430 446 441
3 422 447 446
3 441 446 447
3 430 439 449
3 427 448 439
3 426 449 448
3 439 448 449
3 427 437 451
3 421 450 437
3 428 451 450
3 437 450 451
3 423 452 454
3 429 453 452
3 424 454 453
3 452 453 454
3 423 454 456
3 424 455 454
3 422 456 455
3 454 455 456
3 423 456 458
3 422 457 456
3 426 458 457
3 456 457 458
3 423 458 460
3 426 459 458
3 428 460 459
3 458 459 460
3 423 460 452
3 428 461 460
3 429 452 461
3 460 461 452
3 424 453 445
3 429 442 453
3 425 445 442
3 453 442 445
3 422 455 447
3 424 444 455
3 431 447 444
3 455 444 447
3 426 457 449
3 422 446 457
3 430 449 446
3 457 446 449
3 428 459 451
3 426 448 459
3 427 451 448
3 459 448 451
3 429 461 443
3 428 450 461
3 421 443 450
3 461 450 443
3 462 474 476
3 473 475 474
3 467 476 475
3 474 475 476
3 462 476 478
3 467 477 476
3 463 478 477
3 476 477 478
3 462 478 480
3 463 479 478
3 469 480 479
3 478 479 480
3 462 480 482
3 469 481 480
3 472 482 481
3 480 481 482
3 462 482 474
3 472 483 482
3 473 474 483
3 482 483 474
3 463 477 485
3 467 484 477
3 471 485 484
3 477 484 485
3 467 475 487
3 473 486 475
3 466 487 486
3 475 486 487
3 473 483 489
3 472 488 483
3 464 489 488
3 483 488 489
3 472 481 491
3 469 490 481
3 468 491 490
3 481 490 491
3 469 479 493
3 463 492 479
3 470 493 492
3 479 492 493
3 465 494 496
3 471 495 494
3 466 496 495
3 494 495 496
3 465 496 498
3 466 497 496
3 464 498 497
3 496 497 498
3 465 498 500
3 464 499 498
3 468 500 499
3 498 499 500
3 465 500 502
3 468 501 500
3 470 502 501
3 500 501 502
3 465 502 494
3 470 503 502
3 471 494 503
3 502 503 494
3 466 495 487
3 471 484 495
3 467 487 484
3 495 484 487
3 464 497 489
3 466 486 497
3 473 489 486
3 497 486 489
3 468 499 491
3 464 488 499
3 472 491 488
3 499 488 491
3 470 501 493
3 468 490 501
3 469 493 490
3 501 490 493
3 471 503 485
3 470 492 503
3 463 485 492
3 503 492 485
3 504 516 518
3 515 517 516
3 509 518 517
3 516 517 518
3 504 518 520
3 509 519 518
3 505 520 519
3 518 519 520
3 504 520 522
3 505 521 520
3 511 522 521
3 520 521 522
3 504 522 524
3 511 523 522
3 514 524 523
3 522 523 524
3 504 524 516
3 514 525 524
3 515 516 525
3 524 525 516
3 505 519 527
3 509 526 519
3 513 527 526
3 519 526 527
3 509 517 529
3 515 528 517
3 508 529 528
3 517 528 529
3 515 525 531
3 514 530 525
3 506 531 530
3 525 530 531
3 514 523 533
3 511 532 523
3 510 533 532
3 523 532 533
3 511 521 535
3 505 534 521
3 512 535 534
3 521 534 535
3 507 536 538
3 513 537 536
3 508 538 537
3 536 537 538
3 507 538 540
3 508 539 538
3 506 540 539
3 538 539 540
3 507 540 542
3 506 541 540
3 510 542 541
3 540 541 542
3 507 542 544
3 510 543 542
3 512 544 543
3 542 543 544
3 507 544 536
3 512 545 544
3 513 536 545
3 544 545 536
3 508 537 529
3 513 526 537
3 509 529 526
3 537 526 529
3 506 539 531
3 508 528 539
3 515 531 528
3 539 528 531
3 510 541 533
3 506 530 541
3 514 533 530
3 541 530 533
3 512 543 535
3 510 532 543
3 511 535 532
3 543 532 535
3 513 545 527
3 512 534 545
3 505 527 534
3 545 534 527
3 546 558 560
3 557 559 558
3 551 560 559
3 558 559 560
3 546 560 562
3 551 561 560
3 547 562 561
3 560 561 562
3 546 562 564
3 547 563 562
3 553 564 563
3 562 563 564
3 546 564 566
3 553 565 564
3 556 566 565
3 564 565 566
3 546 566 558
3 556 567 566
3 557 558 567
3 566 567 558
3 547 561 569
3 551 568 561
3 555 569 568
3 561 568 569
3 551 559 571
3 557 570 559
3 550 571 570
3 559 570 571
3 557 567 573
3 556 572 567
3 548 573 572
3 567 572 573
3 556 565 575
3 553 574 565
3 552 575 574
3 565 574 575
3 553 563 577
3 547 576 563
3 554 577 576
3 563 576 577
3 549 578 580
3 555 579 578
3 550 580 579
3 578 579 580
3 549 580 582
3 550 581 580
3 548 582 581
3 580 581 582
3 549 582 584
3 548 583 582
3 552 584 583
3 582 583 584
3 549 584 586
3 552 585 584
3 554 586 585
3 584 585 586
3 549 586 578
3 554 587 586
3 555 578 587
3 586 587 578
3 550 579 571
3 555 568 579
3 551 571 568
3 579 568 571
3 548 581 573
3 550 570 581
3 557 573 570
3 581 570 573
3 552 583 575
3 548 572 583
3 556 575 572
3 583 572 575
3 554 585 577
3 552 574 585
3 553 577 574
3 585 574 577
3 555 587 569
3 554 576 587
3 547 569 576
3 587 576 569
3 588 600 602
3 599 601 600
3 593 602 601
3 600 601 602
3 588 602 604
3 593 603 602
3 589 604 603
3 602 603 604
3 588 604 606
3 589 605 604
3 595 606 605
3 604 605 606
3 588 606 608
3 595 607 606
3 598 608 607
3 606 607 608
3 588 608 600
3 598 609 608
3 599 600 609
3 608 609 600
3 589 603 611
3 593 610 603
3 597 611 610
3 603 610 611
3 593 601 613
3 599 612 601
3 592 613 612
3 601 612 613
3 599 609 615
3 598 614 609
3 590 615 614
3 609 614 615
3 598 607 617
3 595 616 607
3 594 617 616
3 607 616 617
3 595 605 619
3 589 618 605
3 596 619 618
3 605 618 619
3 591 620 622
3 597 621 620
3 592 622 621
3 620 621 622
3 591 622 624
3 592 623 622
3 590 624 623
3 622 623 624
3 591 624 626
3 590 625 624
3 594 626 625
3 624 625 626
3 591 626 628
3 594 627 626
3 596 628 627
3 626 627 628
3 591 628 620
3 596 629 628
3 597 620 629
3 628 629 620
3 592 621 613
3 597 610 621
3 593 613 610
3 621 610 613
3 590 623 615
3 592 612 623
3 599 615 612
3 623 612 615
3 594 625 617
3 590 614 625
3 598 617 614
3 625 614 617
3 596 627 619
3 594 616 627
3 595 619 616
3 627 616 619
3 597 629 611
3 596 618 629
3 589 611 618
3 629 618 611
