ply
format ascii 1.0
element vertex 630
property float x
property float y
property float z
property uchar red
property uchar green
property uchar blue
element face 1200
property list uchar int vertex_indices
end_header
-0.163925 -0.060333 0.434991 255 0 0
-0.174305 -0.059299 0.443027 255 0 0
-0.166894 -0.080956 0.433809 255 0 0
-0.177274 -0.079922 0.441846 255 0 0
-0.174832 -0.075773 0.433678 255 0 0
-0.172997 -0.063027 0.434408 255 0 0
-0.168202 -0.077229 0.442428 255 0 0
-0.166367 -0.064483 0.443159 255 0 0
-0.176949 -0.069741 0.447624 255 0 0
-0.181046 -0.068841 0.442216 255 0 0
-0.160153 -0.071414 0.434620 255 0 0
-0.164251 -0.070514 0.429213 255 0 0
-0.162944 -0.064598 0.430993 255 0 0
-0.168277 -0.066181 0.430650 255 0 0
-0.168085 -0.060197 0.434047 255 0 0
-0.174187 -0.059589 0.438771 255 0 0
-0.168854 -0.058006 0.439113 255 0 0
-0.170290 -0.060445 0.443914 255 0 0
-0.164188 -0.061053 0.439190 255 0 0
-0.161972 -0.067566 0.438972 255 0 0
-0.160536 -0.065127 0.434171 255 0 0
-0.160728 -0.071111 0.430775 255 0 0
-0.178149 -0.065198 0.438294 255 0 0
-0.178918 -0.063007 0.443360 255 0 0
-0.169356 -0.073673 0.430221 255 0 0
-0.174496 -0.069272 0.433275 255 0 0
-0.162281 -0.077249 0.433477 255 0 0
-0.164690 -0.076720 0.430298 255 0 0
-0.166703 -0.070984 0.443562 255 0 0
-0.163050 -0.075058 0.438543 255 0 0
-0.176509 -0.063536 0.446539 255 0 0
-0.171844 -0.066582 0.446616 255 0 0
-0.180663 -0.075129 0.442665 255 0 0
-0.179228 -0.072690 0.437864 255 0 0
-0.177011 -0.079203 0.437647 255 0 0
-0.170909 -0.079811 0.432923 255 0 0
-0.172345 -0.082250 0.437724 255 0 0
-0.167013 -0.080667 0.438066 255 0 0
-0.173114 -0.080059 0.442790 255 0 0
-0.172922 -0.074074 0.446186 255 0 0
-0.178255 -0.075658 0.445844 255 0 0
-0.180472 -0.069144 0.446062 255 0 0
-0.126434 0.071708 0.422852 255 0 0
-0.134054 0.072337 0.428443 255 0 0
-0.125304 0.047399 0.427127 255 0 0
-0.132924 0.048028 0.432718 255 0 0
-0.133181 0.051275 0.423980 255 0 0
-0.133879 0.066299 0.421337 255 0 0
-0.125479 0.053437 0.434233 255 0 0
-0.126178 0.068460 0.431591 255 0 0
-0.133464 0.061045 0.435477 255 0 0
-0.138224 0.059709 0.429140 255 0 0
-0.121135 0.060027 0.426430 255 0 0
-0.125895 0.058691 0.420093 255 0 0
-0.125548 0.066136 0.420364 255 0 0
-0.129924 0.062956 0.419474 255 0 0
-0.130241 0.070607 0.421096 255 0 0
-0.134719 0.070977 0.424382 255 0 0
-0.130343 0.074156 0.425272 255 0 0
-0.130192 0.072247 0.430409 255 0 0
-0.125714 0.071878 0.427122 255 0 0
-0.122599 0.065012 0.429225 255 0 0
-0.122750 0.066921 0.424089 255 0 0
-0.122432 0.059270 0.422468 255 0 0
-0.137170 0.063555 0.424792 255 0 0
-0.137273 0.067104 0.428968 255 0 0
-0.129513 0.054126 0.421027 255 0 0
-0.134206 0.058598 0.421758 255 0 0
-0.122085 0.052632 0.426602 255 0 0
-0.124883 0.051847 0.422877 255 0 0
-0.125152 0.061138 0.433812 255 0 0
-0.122188 0.056181 0.430778 255 0 0
-0.134475 0.067889 0.432693 255 0 0
-0.129845 0.065610 0.434543 255 0 0
-0.136609 0.052815 0.431481 255 0 0
-0.136760 0.054724 0.426345 255 0 0
-0.133645 0.047858 0.428448 255 0 0
-0.129166 0.047488 0.425161 255 0 0
-0.129015 0.045579 0.430298 255 0 0
-0.124639 0.048759 0.431188 255 0 0
-0.129118 0.049128 0.434474 255 0 0
-0.129435 0.056779 0.436096 255 0 0
-0.133811 0.053600 0.435206 255 0 0
-0.136926 0.060466 0.433102 255 0 0
-0.174501 0.079434 0.437553 255 0 0
-0.184956 0.079847 0.445312 255 0 0
-0.172844 0.058591 0.440897 255 0 0
-0.183299 0.059005 0.448656 255 0 0
-0.181651 0.061822 0.439793 255 0 0
-0.182675 0.074703 0.437726 255 0 0
-0.175125 0.063735 0.448483 255 0 0
-0.176150 0.076617 0.446416 255 0 0
-0.185342 0.070145 0.452067 255 0 0
-0.189374 0.068963 0.446697 255 0 0
-0.168426 0.069476 0.439512 255 0 0
-0.172458 0.068293 0.434142 255 0 0
-0.172528 0.074679 0.434573 255 0 0
-0.177332 0.071899 0.434675 255 0 0
-0.178533 0.078447 0.436680 255 0 0
-0.184678 0.078690 0.441241 255 0 0
-0.179874 0.081470 0.441139 255 0 0
-0.180843 0.079814 0.446348 255 0 0
-0.174698 0.079571 0.441787 255 0 0
-0.171127 0.073718 0.442939 255 0 0
-0.170158 0.075374 0.437730 255 0 0
-0.168957 0.068826 0.435725 255 0 0
-0.187275 0.072292 0.442055 255 0 0
-0.188616 0.075316 0.446514 255 0 0
-0.176730 0.064327 0.435890 255 0 0
-0.182735 0.068095 0.437997 255 0 0
-0.169184 0.063123 0.439695 255 0 0
-0.171554 0.062428 0.436538 255 0 0
-0.175065 0.070344 0.448212 255 0 0
-0.170525 0.066146 0.444154 255 0 0
-0.186246 0.076011 0.449670 255 0 0
-0.181070 0.074111 0.450319 255 0 0
-0.187642 0.063065 0.448479 255 0 0
-0.186673 0.064720 0.443270 255 0 0
-0.183102 0.058867 0.444421 255 0 0
-0.176957 0.058624 0.439860 255 0 0
-0.177926 0.056968 0.445070 255 0 0
-0.173122 0.059749 0.444968 255 0 0
-0.179267 0.059992 0.449529 255 0 0
-0.180468 0.066540 0.451534 255 0 0
-0.185272 0.063760 0.451636 255 0 0
-0.188843 0.069613 0.450484 255 0 0
-0.060347 -0.049956 0.407054 255 0 0
-0.068861 -0.050852 0.413141 255 0 0
-0.061074 -0.072976 0.402650 255 0 0
-0.069588 -0.073872 0.408738 255 0 0
-0.068806 -0.067976 0.401636 255 0 0
-0.068357 -0.053749 0.404357 255 0 0
-0.061579 -0.070079 0.411434 255 0 0
-0.061129 -0.055852 0.414156 255 0 0
-0.069622 -0.063288 0.415849 255 0 0
-0.074089 -0.061989 0.409793 255 0 0
-0.055846 -0.061839 0.405999 255 0 0
-0.060313 -0.060540 0.399943 255 0 0
-0.059516 -0.054078 0.402726 255 0 0
-0.064224 -0.056307 0.401141 255 0 0
-0.064244 -0.050087 0.405321 255 0 0
-0.069248 -0.050613 0.408899 255 0 0
-0.064541 -0.048384 0.410484 255 0 0
-0.065000 -0.051849 0.414658 255 0 0
-0.059996 -0.051322 0.411080 255 0 0
-0.057350 -0.058307 0.410460 255 0 0
-0.056890 -0.054841 0.406286 255 0 0
-0.056870 -0.061062 0.402106 255 0 0
-0.072321 -0.057159 0.406931 255 0 0
-0.072618 -0.055456 0.412094 255 0 0
-0.064488 -0.064669 0.399542 255 0 0
-0.069216 -0.060678 0.402136 255 0 0
-0.057318 -0.068372 0.403698 255 0 0
-0.059943 -0.067608 0.400138 255 0 0
-0.060720 -0.063150 0.413655 255 0 0
-0.057614 -0.066669 0.408861 255 0 0
-0.069992 -0.056220 0.415654 255 0 0
-0.065448 -0.059159 0.416250 255 0 0
-0.073045 -0.068987 0.409506 255 0 0
-0.072585 -0.065521 0.405331 255 0 0
-0.069939 -0.072506 0.404711 255 0 0
-0.064935 -0.071979 0.401133 255 0 0
-0.065395 -0.075444 0.405308 255 0 0
-0.060687 -0.073215 0.406893 255 0 0
-0.065691 -0.073741 0.410471 255 0 0
-0.065712 -0.067521 0.414650 255 0 0
-0.070419 -0.069750 0.413065 255 0 0
-0.073065 -0.062766 0.413685 255 0 0
-0.082597 0.076105 0.417467 255 0 0
-0.090280 0.077420 0.423046 255 0 0
-0.082935 0.052400 0.422591 255 0 0
-0.090618 0.053716 0.428170 255 0 0
-0.090625 0.056530 0.419262 255 0 0
-0.090416 0.071180 0.416095 255 0 0
-0.082799 0.058640 0.429542 255 0 0
-0.082590 0.073291 0.426375 255 0 0
-0.090405 0.066627 0.430508 255 0 0
-0.095241 0.065322 0.424155 255 0 0
-0.077974 0.064498 0.421482 255 0 0
-0.082810 0.063194 0.415129 255 0 0
-0.082018 0.070481 0.415153 255 0 0
-0.086614 0.067587 0.414347 255 0 0
-0.086489 0.075176 0.415721 255 0 0
-0.091005 0.075949 0.419000 255 0 0
-0.086409 0.078844 0.419807 255 0 0
-0.086405 0.077189 0.425042 255 0 0
-0.081889 0.076416 0.421763 255 0 0
-0.079172 0.069594 0.424123 255 0 0
-0.079176 0.071248 0.418887 255 0 0
-0.079301 0.063659 0.417513 255 0 0
-0.093921 0.068838 0.419652 255 0 0
-0.093841 0.072506 0.423737 255 0 0
-0.086737 0.058976 0.416208 255 0 0
-0.091207 0.063670 0.416776 255 0 0
-0.079374 0.057315 0.421899 255 0 0
-0.082217 0.056548 0.418165 255 0 0
-0.082008 0.066151 0.428861 255 0 0
-0.079294 0.060983 0.425985 255 0 0
-0.090998 0.073272 0.427472 255 0 0
-0.086478 0.070845 0.429429 255 0 0
-0.094040 0.058573 0.426749 255 0 0
-0.094044 0.060227 0.421513 255 0 0
-0.091326 0.053405 0.423873 255 0 0
-0.086810 0.052631 0.420594 255 0 0
-0.086807 0.050977 0.425830 255 0 0
-0.082211 0.053872 0.426637 255 0 0
-0.086727 0.054645 0.429916 255 0 0
-0.086601 0.062234 0.431290 255 0 0
-0.091197 0.059339 0.430484 255 0 0
-0.093915 0.066161 0.428124 255 0 0
-0.087005 0.011426 0.424319 255 0 0
-0.095680 0.010542 0.430511 255 0 0
-0.086581 -0.011464 0.421645 255 0 0
-0.095255 -0.012348 0.427837 255 0 0
-0.094608 -0.007019 0.420270 255 0 0
-0.094870 0.007128 0.421923 255 0 0
-0.087390 -0.008049 0.430234 255 0 0
-0.087653 0.006098 0.431886 255 0 0
-0.095918 -0.001494 0.434167 255 0 0
-0.100378 -0.000858 0.428009 255 0 0
-0.081882 -0.000064 0.424148 255 0 0
-0.086342 0.000573 0.417990 255 0 0
-0.085891 0.007134 0.420290 255 0 0
-0.090514 0.004607 0.418881 255 0 0
-0.090904 0.010987 0.422602 255 0 0
-0.096003 0.010467 0.426241 255 0 0
-0.091380 0.012994 0.427650 255 0 0
-0.091760 0.009862 0.432098 255 0 0
-0.086662 0.010381 0.428458 255 0 0
-0.083650 0.003628 0.428357 255 0 0
-0.083270 0.006760 0.423909 255 0 0
-0.082880 0.000380 0.420189 255 0 0
-0.098764 0.003766 0.424770 255 0 0
-0.099240 0.005773 0.429819 255 0 0
-0.090360 -0.003708 0.417910 255 0 0
-0.095372 0.000145 0.420222 255 0 0
-0.083020 -0.006695 0.422338 255 0 0
-0.085642 -0.006320 0.418718 255 0 0
-0.086888 -0.001066 0.431935 255 0 0
-0.083496 -0.004688 0.427386 255 0 0
-0.096619 0.005399 0.433438 255 0 0
-0.091900 0.002787 0.434246 255 0 0
-0.098991 -0.007681 0.428247 255 0 0
-0.098610 -0.004549 0.423799 255 0 0
-0.095599 -0.011303 0.423698 255 0 0
-0.090500 -0.010783 0.420059 255 0 0
-0.090881 -0.013915 0.424507 255 0 0
-0.086258 -0.011388 0.425915 255 0 0
-0.091357 -0.011908 0.429555 255 0 0
-0.091746 -0.005529 0.433275 255 0 0
-0.096369 -0.008055 0.431866 255 0 0
-0.099380 -0.001302 0.431967 255 0 0
0.025830 0.010545 0.437153 255 0 0
0.020879 0.010332 0.441884 255 0 0
0.027771 -0.010112 0.438257 255 0 0
0.022820 -0.010324 0.442988 255 0 0
0.017604 -0.007373 0.432701 255 0 0
0.016404 0.005393 0.432018 255 0 0
0.032247 -0.005173 0.448123 255 0 0
0.031047 0.007594 0.447441 255 0 0
0.024845 0.000619 0.448664 255 0 0
0.015795 -0.000742 0.439132 255 0 0
0.032856 0.000962 0.441009 255 0 0
0.023806 -0.000398 0.431477 255 0 0
0.024905 0.005945 0.433305 255 0 0
0.019364 0.002917 0.430286 255 0 0
0.020554 0.009349 0.433623 255 0 0
0.017644 0.009224 0.436403 255 0 0
0.023184 0.012252 0.439422 255 0 0
0.026251 0.010517 0.445468 255 0 0
0.029161 0.010642 0.442688 255 0 0
0.033290 0.005010 0.444954 255 0 0
0.030224 0.006744 0.438907 255 0 0
0.029034 0.000312 0.435571 255 0 0
0.014655 0.002715 0.434786 255 0 0
0.017286 0.005618 0.440585 255 0 0
0.020069 -0.004587 0.430688 255 0 0
0.015719 -0.001183 0.431006 255 0 0
0.031365 -0.005397 0.439556 255 0 0
0.026046 -0.006197 0.433954 255 0 0
0.032932 0.001404 0.449136 255 0 0
0.033995 -0.002494 0.445355 255 0 0
0.022605 0.006417 0.446187 255 0 0
0.028581 0.004808 0.449454 255 0 0
0.018427 -0.006524 0.441234 255 0 0
0.015361 -0.004789 0.435187 255 0 0
0.019490 -0.010422 0.437454 255 0 0
0.022400 -0.010297 0.434673 255 0 0
0.025466 -0.012031 0.440720 255 0 0
0.031007 -0.009003 0.443738 255 0 0
0.028097 -0.009128 0.446519 255 0 0
0.029287 -0.002696 0.449855 255 0 0
0.023746 -0.005724 0.446837 255 0 0
0.019617 -0.000092 0.444570 255 0 0
-0.028247 0.008370 0.412190 255 0 0
-0.032651 0.007521 0.418586 255 0 0
-0.028103 -0.014685 0.409229 255 0 0
-0.032507 -0.015534 0.415625 255 0 0
-0.037254 -0.010147 0.408302 255 0 0
-0.037343 0.004101 0.410132 255 0 0
-0.023411 -0.011266 0.417683 255 0 0
-0.023500 0.002983 0.419513 255 0 0
-0.029662 -0.004615 0.421981 255 0 0
-0.038217 -0.003923 0.416183 255 0 0
-0.022537 -0.003241 0.411631 255 0 0
-0.031092 -0.002549 0.405833 255 0 0
-0.029546 0.004050 0.408152 255 0 0
-0.034892 0.001541 0.406942 255 0 0
-0.033220 0.007959 0.410678 255 0 0
-0.035808 0.007460 0.414438 255 0 0
-0.030462 0.009969 0.415648 255 0 0
-0.027671 0.006803 0.419953 255 0 0
-0.025083 0.007302 0.416193 255 0 0
-0.021726 0.000477 0.415865 255 0 0
-0.024517 0.003644 0.411560 255 0 0
-0.026189 -0.002774 0.407824 255 0 0
-0.039080 0.000734 0.413026 255 0 0
-0.036322 0.002743 0.417995 255 0 0
-0.034840 -0.006834 0.405867 255 0 0
-0.038514 -0.002925 0.408393 255 0 0
-0.024432 -0.009907 0.409819 255 0 0
-0.029461 -0.009501 0.406411 255 0 0
-0.022240 -0.004239 0.419422 255 0 0
-0.021674 -0.007898 0.414789 255 0 0
-0.031293 0.002337 0.421403 255 0 0
-0.025915 -0.000330 0.421948 255 0 0
-0.036237 -0.010808 0.416255 255 0 0
-0.039028 -0.007641 0.411950 255 0 0
-0.035671 -0.014466 0.411622 255 0 0
-0.033083 -0.013967 0.407862 255 0 0
-0.030292 -0.017133 0.412167 255 0 0
-0.024946 -0.014624 0.413377 255 0 0
-0.027534 -0.015123 0.417136 255 0 0
-0.025862 -0.008705 0.420872 255 0 0
-0.031209 -0.011214 0.419663 255 0 0
-0.034565 -0.004390 0.419991 255 0 0
-0.149668 0.006877 0.433928 255 0 0
-0.160165 0.009184 0.441628 255 0 0
-0.153633 -0.013514 0.434634 255 0 0
-0.164130 -0.011207 0.442334 255 0 0
-0.161321 -0.008000 0.433852 255 0 0
-0.158871 0.004602 0.433416 255 0 0
-0.154928 -0.008932 0.442846 255 0 0
-0.152477 0.003670 0.442411 255 0 0
-0.163416 -0.000587 0.447140 255 0 0
-0.167367 -0.000011 0.441581 255 0 0
-0.146431 -0.004320 0.434681 255 0 0
-0.150383 -0.003744 0.429122 255 0 0
-0.148819 0.002222 0.430365 255 0 0
-0.154228 0.000885 0.430064 255 0 0
-0.153808 0.007127 0.432889 255 0 0
-0.159978 0.008483 0.437415 255 0 0
-0.154569 0.009820 0.437717 255 0 0
-0.156220 0.007936 0.442702 255 0 0
-0.150050 0.006579 0.438176 255 0 0
-0.148147 -0.000002 0.438619 255 0 0
-0.146496 0.001883 0.433633 255 0 0
-0.146916 -0.004360 0.430808 255 0 0
-0.164211 0.003079 0.437387 255 0 0
-0.164972 0.005772 0.442215 255 0 0
-0.155668 -0.006523 0.430320 255 0 0
-0.160657 -0.001617 0.432844 255 0 0
-0.148827 -0.010103 0.434047 255 0 0
-0.151149 -0.009764 0.430780 255 0 0
-0.153141 -0.002713 0.443418 255 0 0
-0.149588 -0.007409 0.438875 255 0 0
-0.162649 0.005434 0.445482 255 0 0
-0.158131 0.002193 0.445942 255 0 0
-0.167302 -0.006214 0.442629 255 0 0
-0.165651 -0.004329 0.437643 255 0 0
-0.163749 -0.010910 0.438086 255 0 0
-0.157579 -0.012266 0.433560 255 0 0
-0.159230 -0.014151 0.438546 255 0 0
-0.153821 -0.012814 0.438847 255 0 0
-0.159991 -0.011458 0.443373 255 0 0
-0.159571 -0.005215 0.446198 255 0 0
-0.164980 -0.006552 0.445897 255 0 0
-0.166883 0.000029 0.445454 255 0 0
-0.040848 0.071399 0.410278 255 0 0
-0.045822 0.072827 0.417005 255 0 0
-0.042281 0.046345 0.414539 255 0 0
-0.047255 0.047773 0.421265 255 0 0
-0.050188 0.051467 0.412958 255 0 0
-0.049302 0.066951 0.410325 255 0 0
-0.038800 0.052221 0.421219 255 0 0
-0.037915 0.067705 0.418586 255 0 0
-0.044556 0.060974 0.423766 255 0 0
-0.051594 0.060509 0.418661 255 0 0
-0.036508 0.058663 0.412883 255 0 0
-0.043546 0.058198 0.407777 255 0 0
-0.041872 0.065713 0.407844 255 0 0
-0.046841 0.063099 0.407871 255 0 0
-0.045255 0.070858 0.409341 255 0 0
-0.048179 0.071698 0.413295 255 0 0
-0.043209 0.074312 0.413267 255 0 0
-0.041485 0.072141 0.418150 255 0 0
-0.038561 0.071301 0.414197 255 0 0
-0.036011 0.063816 0.415728 255 0 0
-0.037735 0.065987 0.410845 255 0 0
-0.039321 0.058228 0.409375 255 0 0
-0.051572 0.064457 0.414268 255 0 0
-0.049526 0.067911 0.418194 255 0 0
-0.047362 0.053998 0.409419 255 0 0
-0.050745 0.059143 0.410916 255 0 0
-0.038577 0.051261 0.413349 255 0 0
-0.042714 0.050987 0.410348 255 0 0
-0.037358 0.060029 0.420627 255 0 0
-0.036531 0.054714 0.417275 255 0 0
-0.045389 0.068185 0.421195 255 0 0
-0.040741 0.065174 0.422125 255 0 0
-0.050368 0.053185 0.420699 255 0 0
-0.052092 0.055356 0.415816 255 0 0
-0.049541 0.047870 0.417347 255 0 0
-0.046618 0.047031 0.413393 255 0 0
-0.044894 0.044860 0.418276 255 0 0
-0.039924 0.047474 0.418249 255 0 0
-0.042848 0.048313 0.422202 255 0 0
-0.041262 0.056073 0.423672 255 0 0
-0.046231 0.053459 0.423700 255 0 0
-0.048782 0.060944 0.422169 255 0 0
-0.011535 -0.052614 0.408234 255 0 0
-0.015548 -0.053668 0.414068 255 0 0
-0.011201 -0.074204 0.404563 255 0 0
-0.015215 -0.075258 0.410397 255 0 0
-0.021307 -0.069816 0.402797 255 0 0
-0.021513 -0.056473 0.405066 255 0 0
-0.005237 -0.071399 0.413566 255 0 0
-0.005443 -0.058055 0.415835 255 0 0
-0.011656 -0.065278 0.417363 255 0 0
-0.021588 -0.064299 0.410708 255 0 0
-0.005162 -0.063572 0.407924 255 0 0
-0.015094 -0.062594 0.401268 255 0 0
-0.013304 -0.056492 0.403950 255 0 0
-0.019169 -0.058760 0.402088 255 0 0
-0.017077 -0.052894 0.406182 255 0 0
-0.019436 -0.053514 0.409611 255 0 0
-0.013571 -0.051245 0.411474 255 0 0
-0.009990 -0.054444 0.415941 255 0 0
-0.007631 -0.053824 0.412512 255 0 0
-0.003885 -0.060266 0.412329 255 0 0
-0.007466 -0.057067 0.407862 255 0 0
-0.009558 -0.062933 0.403767 255 0 0
-0.022986 -0.059763 0.407636 255 0 0
-0.019480 -0.058114 0.412928 255 0 0
-0.019048 -0.066603 0.400754 255 0 0
-0.022820 -0.063005 0.402986 255 0 0
-0.007270 -0.069757 0.405704 255 0 0
-0.013108 -0.069182 0.401792 255 0 0
-0.003929 -0.064866 0.415645 255 0 0
-0.003764 -0.068109 0.410995 255 0 0
-0.013642 -0.058689 0.416840 255 0 0
-0.007702 -0.061268 0.417878 255 0 0
-0.019284 -0.070804 0.410770 255 0 0
-0.022864 -0.067606 0.406303 255 0 0
-0.019118 -0.074047 0.406120 255 0 0
-0.016760 -0.073427 0.402691 255 0 0
-0.013179 -0.076626 0.407158 255 0 0
-0.007314 -0.074358 0.409020 255 0 0
-0.009673 -0.074977 0.412449 255 0 0
-0.007581 -0.069111 0.416544 255 0 0
-0.013446 -0.071379 0.414682 255 0 0
-0.017192 -0.064938 0.414864 255 0 0
0.004039 0.072985 0.413764 255 0 0
-0.000153 0.074293 0.419786 255 0 0
0.002839 0.050414 0.417832 255 0 0
-0.001353 0.051722 0.423853 255 0 0
-0.006364 0.054869 0.415069 255 0 0
-0.005622 0.068818 0.412556 255 0 0
0.008308 0.055889 0.425062 255 0 0
0.009050 0.069839 0.422548 255 0 0
0.002486 0.063727 0.426768 255 0 0
-0.006582 0.063097 0.420592 255 0 0
0.009268 0.061611 0.417025 255 0 0
0.000201 0.060980 0.410849 255 0 0
0.002256 0.067796 0.411165 255 0 0
-0.003423 0.065346 0.410455 255 0 0
-0.001166 0.072403 0.412168 255 0 0
-0.003630 0.073171 0.415708 255 0 0
0.002048 0.075621 0.416418 255 0 0
0.004994 0.073771 0.421581 255 0 0
0.007458 0.073003 0.418042 255 0 0
0.010531 0.066317 0.419958 255 0 0
0.007586 0.068166 0.414795 255 0 0
0.005330 0.061110 0.413082 255 0 0
-0.007409 0.066590 0.416182 255 0 0
-0.004195 0.069808 0.420432 255 0 0
-0.003858 0.057147 0.411932 255 0 0
-0.007281 0.061754 0.412935 255 0 0
0.006881 0.054900 0.417186 255 0 0
0.001551 0.054529 0.413556 255 0 0
0.009967 0.062954 0.424682 255 0 0
0.010096 0.058118 0.421436 255 0 0
0.001135 0.070179 0.424062 255 0 0
0.006545 0.067561 0.425685 255 0 0
-0.004900 0.056541 0.422822 255 0 0
-0.007845 0.058391 0.417659 255 0 0
-0.004772 0.051705 0.419576 255 0 0
-0.002308 0.050936 0.416036 255 0 0
0.000638 0.049087 0.421199 255 0 0
0.006317 0.051536 0.421910 255 0 0
0.003852 0.052305 0.425449 255 0 0
0.006109 0.059361 0.427163 255 0 0
0.000430 0.056912 0.426452 255 0 0
-0.002644 0.063598 0.424536 255 0 0
0.035351 -0.059171 0.437650 255 0 0
0.030135 -0.060337 0.442024 255 0 0
0.036160 -0.079563 0.433181 255 0 0
0.030945 -0.080728 0.437555 255 0 0
0.026497 -0.074806 0.428378 255 0 0
0.025996 -0.062203 0.431140 255 0 0
0.040299 -0.077696 0.444066 255 0 0
0.039799 -0.065093 0.446828 255 0 0
0.033194 -0.071786 0.445989 255 0 0
0.024663 -0.069999 0.436294 255 0 0
0.041632 -0.069900 0.438912 255 0 0
0.033102 -0.068114 0.429216 255 0 0
0.034416 -0.062535 0.432701 255 0 0
0.028917 -0.064317 0.428875 255 0 0
0.030239 -0.059061 0.433832 255 0 0
0.027174 -0.059746 0.436403 255 0 0
0.032672 -0.057964 0.440229 255 0 0
0.035287 -0.061445 0.445624 255 0 0
0.038352 -0.060760 0.443053 255 0 0
0.042044 -0.067066 0.443794 255 0 0
0.039430 -0.063585 0.438400 255 0 0
0.038108 -0.068841 0.433443 255 0 0
0.023957 -0.065426 0.433035 255 0 0
0.026390 -0.064328 0.439432 255 0 0
0.029211 -0.071725 0.427251 255 0 0
0.025035 -0.068251 0.428382 255 0 0
0.039906 -0.075571 0.435773 255 0 0
0.034891 -0.074521 0.430075 255 0 0
0.041261 -0.071648 0.446824 255 0 0
0.042338 -0.074474 0.442171 255 0 0
0.031404 -0.065378 0.445131 255 0 0
0.037084 -0.068174 0.447954 255 0 0
0.026866 -0.076314 0.436806 255 0 0
0.024251 -0.072833 0.431411 255 0 0
0.027943 -0.079140 0.432153 255 0 0
0.031009 -0.078455 0.429582 255 0 0
0.033623 -0.081936 0.434976 255 0 0
0.039122 -0.080153 0.438803 255 0 0
0.036056 -0.080838 0.441374 255 0 0
0.037378 -0.075582 0.446331 255 0 0
0.031880 -0.077364 0.442504 255 0 0
0.028188 -0.071058 0.441763 255 0 0
0.052773 0.081020 0.441694 255 0 0
0.047680 0.082218 0.446152 255 0 0
0.051062 0.060298 0.445309 255 0 0
0.045969 0.061497 0.449767 255 0 0
0.041848 0.064075 0.439067 255 0 0
0.042906 0.076882 0.436834 255 0 0
0.055836 0.065635 0.454628 255 0 0
0.056894 0.078441 0.452394 255 0 0
0.049573 0.072709 0.454146 255 0 0
0.040929 0.071746 0.444529 255 0 0
0.057813 0.070771 0.446933 255 0 0
0.049169 0.069807 0.437316 255 0 0
0.051252 0.076143 0.438412 255 0 0
0.045452 0.073711 0.435555 255 0 0
0.047571 0.080301 0.438129 255 0 0
0.044577 0.081006 0.440749 255 0 0
0.050377 0.083438 0.443606 255 0 0
0.052799 0.081922 0.449895 255 0 0
0.055792 0.081218 0.447275 255 0 0
0.058755 0.075193 0.450354 255 0 0
0.056333 0.076709 0.444065 255 0 0
0.054214 0.070119 0.441491 255 0 0
0.040609 0.074850 0.439795 255 0 0
0.043415 0.077987 0.445272 255 0 0
0.044830 0.066183 0.436868 255 0 0
0.041149 0.070342 0.436584 255 0 0
0.055327 0.064530 0.446189 255 0 0
0.050246 0.063963 0.440537 255 0 0
0.057593 0.072175 0.454877 255 0 0
0.058133 0.067666 0.451667 255 0 0
0.048496 0.078553 0.450925 255 0 0
0.053912 0.076333 0.454593 255 0 0
0.042409 0.065807 0.447397 255 0 0
0.039987 0.067323 0.441108 255 0 0
0.042950 0.061299 0.444186 255 0 0
0.045943 0.060594 0.441566 255 0 0
0.048365 0.059079 0.447855 255 0 0
0.054165 0.061511 0.450712 255 0 0
0.051171 0.062215 0.453333 255 0 0
0.053290 0.068806 0.455906 255 0 0
0.047490 0.066373 0.453049 255 0 0
0.044528 0.072398 0.449970 255 0 0
-0.113111 -0.047767 0.417935 255 0 0
-0.120814 -0.049268 0.423394 255 0 0
-0.112207 -0.071823 0.412596 255 0 0
-0.119910 -0.073324 0.418055 255 0 0
-0.120047 -0.066988 0.411233 255 0 0
-0.120606 -0.052121 0.414533 255 0 0
-0.112415 -0.068970 0.421457 255 0 0
-0.112974 -0.054103 0.424757 255 0 0
-0.120384 -0.062372 0.425571 255 0 0
-0.125101 -0.061147 0.419252 255 0 0
-0.107921 -0.059944 0.416738 255 0 0
-0.112637 -0.058718 0.410420 255 0 0
-0.112236 -0.051961 0.413507 255 0 0
-0.116641 -0.054520 0.411507 255 0 0
-0.116920 -0.048082 0.415925 255 0 0
-0.121447 -0.048965 0.419134 255 0 0
-0.117042 -0.046406 0.421133 255 0 0
-0.116962 -0.050130 0.425143 255 0 0
-0.112434 -0.049248 0.421935 255 0 0
-0.109383 -0.056405 0.421231 255 0 0
-0.109464 -0.052681 0.417221 255 0 0
-0.109185 -0.059118 0.412804 255 0 0
-0.123967 -0.055947 0.416699 255 0 0
-0.124089 -0.054270 0.421907 255 0 0
-0.116313 -0.063258 0.409568 255 0 0
-0.120997 -0.059380 0.411986 255 0 0
-0.108932 -0.066820 0.414083 255 0 0
-0.111705 -0.066100 0.410369 255 0 0
-0.112025 -0.061711 0.424005 255 0 0
-0.109055 -0.065144 0.419292 255 0 0
-0.121317 -0.054991 0.425621 255 0 0
-0.116709 -0.057832 0.426423 255 0 0
-0.123558 -0.068410 0.418769 255 0 0
-0.123639 -0.064686 0.414759 255 0 0
-0.120587 -0.071843 0.414056 255 0 0
-0.116060 -0.070961 0.410847 255 0 0
-0.115979 -0.074685 0.414857 255 0 0
-0.111574 -0.072126 0.416857 255 0 0
-0.116102 -0.073008 0.420065 255 0 0
-0.116380 -0.066571 0.424483 255 0 0
-0.120785 -0.069130 0.422483 255 0 0
-0.123836 -0.061973 0.423187 255 0 0
3 0 12 14
3 11 13 12
3 5 14 13
3 12 13 14
3 0 14 16
3 5 15 14
3 1 16 15
3 14 15 16
3 0 16 18
3 1 17 16
3 7 18 17
3 16 17 18
3 0 18 20
3 7 19 18
3 10 20 19
3 18 19 20
3 0 20 12
3 10 21 20
3 11 12 21
3 20 21 12
3 1 15 23
3 5 22 15
3 9 23 22
3 15 22 23
3 5 13 25
3 11 24 13
3 4 25 24
3 13 24 25
3 11 21 27
3 10 26 21
3 2 27 26
3 21 26 27
3 10 19 29
3 7 28 19
3 6 29 28
3 19 28 29
3 7 17 31
3 1 30 17
3 8 31 30
3 17 30 31
3 3 32 34
3 9 33 32
3 4 34 33
3 32 33 34
3 3 34 36
3 4 35 34
3 2 36 35
3 34 35 36
3 3 36 38
3 2 37 36
3 6 38 37
3 36 37 38
3 3 38 40
3 6 39 38
3 8 40 39
3 38 39 40
3 3 40 32
3 8 41 40
3 9 32 41
3 40 41 32
3 4 33 25
3 9 22 33
3 5 25 22
3 33 22 25
3 2 35 27
3 4 24 35
3 11 27 24
3 35 24 27
3 6 37 29
3 2 26 37
3 10 29 26
3 37 26 29
3 8 39 31
3 6 28 39
3 7 31 28
3 39 28 31
3 9 41 23
3 8 30 41
3 1 23 30
3 41 30 23
3 42 54 56
3 53 55 54
3 47 56 55
3 54 55 56
3 42 56 58
3 47 57 56
3 43 58 57
3 56 57 58
3 42 58 60
3 43 59 58
3 49 60 59
3 58 59 60
3 42 60 62
3 49 61 60
3 52 62 61
3 60 61 62
3 42 62 54
3 52 63 62
3 53 54 63
3 62 63 54
3 43 57 65
3 47 64 57
3 51 65 64
3 57 64 65
3 47 55 67
3 53 66 55
3 46 67 66
3 55 66 67
3 53 63 69
3 52 68 63
3 44 69 68
3 63 68 69
3 52 61 71
3 49 70 61
3 48 71 70
3 61 70 71
3 49 59 73
3 43 72 59
3 50 73 72
3 59 72 73
3 45 74 76
3 51 75 74
3 46 76 75
3 74 75 76
3 45 76 78
3 46 77 76
3 44 78 77
3 76 77 78
3 45 78 80
3 44 79 78
3 48 80 79
3 78 79 80
3 45 80 82
3 48 81 80
3 50 82 81
3 80 81 82
3 45 82 74
3 50 83 82
3 51 74 83
3 82 83 74
3 46 75 67
3 51 64 75
3 47 67 64
3 75 64 67
3 44 77 69
3 46 66 77
3 53 69 66
3 77 66 69
3 48 79 71
3 44 68 79
3 52 71 68
3 79 68 71
3 50 81 73
3 48 70 81
3 49 73 70
3 81 70 73
3 51 83 65
3 50 72 83
3 43 65 72
3 83 72 65
3 84 96 98
3 95 97 96
3 89 98 97
3 96 97 98
3 84 98 100
3 89 99 98
3 85 100 99
3 98 99 100
3 84 100 102
3 85 101 100
3 91 102 101
3 100 101 102
3 84 102 104
3 91 103 102
3 94 104 103
3 102 103 104
3 84 104 96
3 94 105 104
3 95 96 105
3 104 105 96
3 85 99 107
3 89 106 99
3 93 107 106
3 99 106 107
3 89 97 109
3 95 108 97
3 88 109 108
3 97 108 109
3 95 105 111
3 94 110 105
3 86 111 110
3 105 110 111
3 94 103 113
3 91 112 103
3 90 113 112
3 103 112 113
3 91 101 115
3 85 114 101
3 92 115 114
3 101 114 115
3 87 116 118
3 93 117 116
3 88 118 117
3 116 117 118
3 87 118 120
3 88 119 118
3 86 120 119
3 118 119 120
3 87 120 122
3 86 121 120
3 90 122 121
3 120 121 122
3 87 122 124
3 90 123 122
3 92 124 123
3 122 123 124
3 87 124 116
3 92 125 124
3 93 116 125
3 124 125 116
3 88 117 109
3 93 106 117
3 89 109 106
3 117 106 109
3 86 119 111
3 88 108 119
3 95 111 108
3 119 108 111
3 90 121 113
3 86 110 121
3 94 113 110
3 121 110 113
3 92 123 115
3 90 112 123
3 91 115 112
3 123 112 115
3 93 125 107
3 92 114 125
3 85 107 114
3 125 114 107
3 126 138 140
3 137 139 138
3 131 140 139
3 138 139 140
3 126 140 142
3 131 141 140
3 127 142 141
3 140 141 142
3 126 142 144
3 127 143 142
3 133 144 143
3 142 143 144
3 126 144 146
3 133 145 144
3 136 146 145
3 144 145 146
3 126 146 138
3 136 147 146
3 137 138 147
3 146 147 138
3 127 141 149
3 131 148 141
3 135 149 148
3 141 148 149
3 131 139 151
3 137 150 139
3 130 151 150
3 139 150 151
3 137 147 153
3 136 152 147
3 128 153 152
3 147 152 153
3 136 145 155
3 133 154 145
3 132 155 154
3 145 154 155
3 133 143 157
3 127 156 143
3 134 157 156
3 143 156 157
3 129 158 160
3 135 159 158
3 130 160 159
3 158 159 160
3 129 160 162
3 130 161 160
3 128 162 161
3 160 161 162
3 129 162 164
3 128 163 162
3 132 164 163
3 162 163 164
3 129 164 166
3 132 165 164
3 134 166 165
3 164 165 166
3 129 166 158
3 134 167 166
3 135 158 167
3 166 167 158
3 130 159 151
3 135 148 159
3 131 151 148
3 159 148 151
3 128 161 153
3 130 150 161
3 137 153 150
3 161 150 153
3 132 163 155
3 128 152 163
3 136 155 152
3 163 152 155
3 134 165 157
3 132 154 165
3 133 157 154
3 165 154 157
3 135 167 149
3 134 156 167
3 127 149 156
3 167 156 149
3 168 180 182
3 179 181 180
3 173 182 181
3 180 181 182
3 168 182 184
3 173 183 182
3 169 184 183
3 182 183 184
3 168 184 186
3 169 185 184
3 175 186 185
3 184 185 186
3 168 186 188
3 175 187 186
3 178 188 187
3 186 187 188
3 168 188 180
3 178 189 188
3 179 180 189
3 188 189 180
3 169 183 191
3 173 190 183
3 177 191 190
3 183 190 191
3 173 181 193
3 179 192 181
3 172 193 192
3 181 192 193
3 179 189 195
3 178 194 189
3 170 195 194
3 189 194 195
3 178 187 197
3 175 196 187
3 174 197 196
3 187 196 197
3 175 185 199
3 169 198 185
3 176 199 198
3 185 198 199
3 171 200 202
3 177 201 200
3 172 202 201
3 200 201 202
3 171 202 204
3 172 203 202
3 170 204 203
3 202 203 204
3 171 204 206
3 170 205 204
3 174 206 205
3 204 205 206
3 171 206 208
3 174 207 206
3 176 208 207
3 206 207 208
3 171 208 200
3 176 209 208
3 177 200 209
3 208 209 200
3 172 201 193
3 177 190 201
3 173 193 190
3 201 190 193
3 170 203 195
3 172 192 203
3 179 195 192
3 203 192 195
3 174 205 197
3 170 194 205
3 178 197 194
3 205 194 197
3 176 207 199
3 174 196 207
3 175 199 196
3 207 196 199
3 177 209 191
3 176 198 209
3 169 191 198
3 209 198 191
3 210 222 224
3 221 223 222
3 215 224 223
3 222 223 224
3 210 224 226
3 215 225 224
3 211 226 225
3 224 225 226
3 210 226 228
3 211 227 226
3 217 228 227
3 226 227 228
3 210 228 230
3 217 229 228
3 220 230 229
3 228 229 230
3 210 230 222
3 220 231 230
3 221 222 231
3 230 231 222
3 211 225 233
3 215 232 225
3 219 233 232
3 225 232 233
3 215 223 235
3 221 234 223
3 214 235 234
3 223 234 235
3 221 231 237
3 220 236 231
3 212 237 236
3 231 236 237
3 220 229 239
3 217 238 229
3 216 239 238
3 229 238 239
3 217 227 241
3 211 240 227
3 218 241 240
3 227 240 241
3 213 242 244
3 219 243 242
3 214 244 243
3 242 243 244
3 213 244 246
3 214 245 244
3 212 246 245
3 244 245 246
3 213 246 248
3 212 247 246
3 216 248 247
3 246 247 248
3 213 248 250
3 216 249 248
3 218 250 249
3 248 249 250
3 213 250 242
3 218 251 250
3 219 242 251
3 250 251 242
3 214 243 235
3 219 232 243
3 215 235 232
3 243 232 235
3 212 245 237
3 214 234 245
3 221 237 234
3 245 234 237
3 216 247 239
3 212 236 247
3 220 239 236
3 247 236 239
3 218 249 241
3 216 238 249
3 217 241 238
3 249 238 241
3 219 251 233
3 218 240 251
3 211 233 240
3 251 240 233
3 252 264 266
3 263 265 264
3 257 266 265
3 264 265 266
3 252 266 268
3 257 267 266
3 253 268 267
3 266 267 268
3 252 268 270
3 253 269 268
3 259 270 269
3 268 269 270
3 252 270 272
3 259 271 270
3 262 272 271
3 270 271 272
3 252 272 264
3 262 273 272
3 263 264 273
3 272 273 264
3 253 267 275
3 257 274 267
3 261 275 274
3 267 274 275
3 257 265 277
3 263 276 265
3 256 277 276
3 265 276 277
3 263 273 279
3 262 278 273
3 254 279 278
3 273 278 279
3 262 271 281
3 259 280 271
3 258 281 280
3 271 280 281
3 259 269 283
3 253 282 269
3 260 283 282
3 269 282 283
3 255 284 286
3 261 285 284
3 256 286 285
3 284 285 286
3 255 286 288
3 256 287 286
3 254 288 287
3 286 287 288
3 255 288 290
3 254 289 288
3 258 290 289
3 288 289 290
3 255 290 292
3 258 291 290
3 260 292 291
3 290 291 292
3 255 292 284
3 260 293 292
3 261 284 293
3 292 293 284
3 256 285 277
3 261 274 285
3 257 277 274
3 285 274 277
3 254 287 279
3 256 276 287
3 263 279 276
3 287 276 279
3 258 289 281
3 254 278 289
3 262 281 278
3 289 278 281
3 260 291 283
3 258 280 291
3 259 283 280
3 291 280 283
3 261 293 275
3 260 282 293
3 253 275 282
3 293 282 275
3 294 306 308
3 305 307 306
3 299 308 307
3 306 307 308
3 294 308 310
3 299 309 308
3 295 310 309
3 308 309 310
3 294 310 312
3 295 311 310
3 301 312 311
3 310 311 312
3 294 312 314
3 301 313 312
3 304 314 313
3 312 313 314
3 294 314 306
3 304 315 314
3 305 306 315
3 314 315 306
3 295 309 317
3 299 316 309
3 303 317 316
3 309 316 317
3 299 307 319
3 305 318 307
3 298 319 318
3 307 318 319
3 305 315 321
3 304 320 315
3 296 321 320
3 315 320 321
3 304 313 323
3 301 322 313
3 300 323 322
3 313 322 323
3 301 311 325
3 295 324 311
3 302 325 324
3 311 324 325
3 297 326 328
3 303 327 326
3 298 328 327
3 326 327 328
3 297 328 330
3 298 329 328
3 296 330 329
3 328 329 330
3 297 330 332
3 296 331 330
3 300 332 331
3 330 331 332
3 297 332 334
3 300 333 332
3 302 334 333
3 332 333 334
3 297 334 326
3 302 335 334
3 303 326 335
3 334 335 326
3 298 327 319
3 303 316 327
3 299 319 316
3 327 316 319
3 296 329 321
3 298 318 329
3 305 321 318
3 329 318 321
3 300 331 323
3 296 320 331
3 304 323 320
3 331 320 323
3 302 333 325
3 300 322 333
3 301 325 322
3 333 322 325
3 303 335 317
3 302 324 335
3 295 317 324
3 335 324 317
3 336 348 350
3 347 349 348
3 341 350 349
3 348 349 350
3 336 350 352
3 341 351 350
3 337 352 351
3 350 351 352
3 336 352 354
3 337 353 352
3 343 354 353
3 352 353 354
3 336 354 356
3 343 355 354
3 346 356 355
3 354 355 356
3 336 356 348
3 346 357 356
3 347 348 357
3 356 357 348
3 337 351 359
3 341 358 351
3 345 359 358
3 351 358 359
3 341 349 361
3 347 360 349
3 340 361 360
3 349 360 361
3 347 357 363
3 346 362 357
3 338 363 362
3 357 362 363
3 346 355 365
3 343 364 355
3 342 365 364
3 355 364 365
3 343 353 367
3 337 366 353
3 344 367 366
3 353 366 367
3 339 368 370
3 345 369 368
3 340 370 369
3 368 369 370
3 339 370 372
3 340 371 370
3 338 372 371
3 370 371 372
3 339 372 374
3 338 373 372
3 342 374 373
3 372 373 374
3 339 374 376
3 342 375 374
3 344 376 375
3 374 375 376
3 339 376 368
3 344 377 376
3 345 368 377
3 376 377 368
3 340 369 361
3 345 358 369
3 341 361 358
3 369 358 361
3 338 371 363
3 340 360 371
3 347 363 360
3 371 360 363
3 342 373 365
3 338 362 373
3 346 365 362
3 373 362 365
3 344 375 367
3 342 364 375
3 343 367 364
3 375 364 367
3 345 377 359
3 344 366 377
3 337 359 366
3 377 366 359
3 378 390 392
3 389 391 390
3 383 392 391
3 390 391 392
3 378 392 394
3 383 393 392
3 379 394 393
3 392 393 394
3 378 394 396
3 379 395 394
3 385 396 395
3 394 395 396
3 378 396 398
3 385 397 396
3 388 398 397
3 396 397 398
3 378 398 390
3 388 399 398
3 389 390 399
3 398 399 390
3 379 393 401
3 383 400 393
3 387 401 400
3 393 400 401
3 383 391 403
3 389 402 391
3 382 403 402
3 391 402 403
3 389 399 405
3 388 404 399
3 380 405 404
3 399 404 405
3 388 397 407
3 385 406 397
3 384 407 406
3 397 406 407
3 385 395 409
3 379 408 395
3 386 409 408
3 395 408 409
3 381 410 412
3 387 411 410
3 382 412 411
3 410 411 412
3 381 412 414
3 382 413 412
3 380 414 413
3 412 413 414
3 381 414 416
3 380 415 414
3 384 416 415
3 414 415 416
3 381 416 418
3 384 417 416
3 386 418 417
3 416 417 418
3 381 418 410
3 386 419 418
3 387 410 419
3 418 419 410
3 382 411 403
3 387 400 411
3 383 403 400
3 411 400 403
3 380 413 405
3 382 402 413
3 389 405 402
3 413 402 405
3 384 415 407
3 380 404 415
3 388 407 404
3 415 404 407
3 386 417 409
3 384 406 417
3 385 409 406
3 417 406 409
3 387 419 401
3 386 408 419
3 379 401 408
3 419 408 401
3 420 432 434
3 431 433 432
3 425 434 433
3 432 433 434
3 420 434 436
3 425 435 434
3 421 436 435
3 434 435 436
3 420 436 438
3 421 437 436
3 427 438 437
3 436 437 438
3 420 438 440
3 427 439 438
3 430 440 439
3 438 439 440
3 420 440 432
3 430 441 440
3 431 432 441
3 440 441 432
3 421 435 443
3 425 442 435
3 429 443 442
3 435 442 443
3 425 433 445
3 431 444 433
3 424 445 444
3 433 444 445
3 431 441 447
3 430 446 441
3 422 447 446
3 441 446 447
3 430 439 449
3 427 448 439
3 426 449 448
3 439 448 449
3 427 437 451
3 421 450 437
3 428 451 450
3 437 450 451
3 423 452 454
3 429 453 452
3 424 454 453
3 452 453 454
3 423 454 456
3 424 455 454
3 422 456 455
3 454 455 456
3 423 456 458
3 422 457 456
3 426 458 457
3 456 457 458
3 423 458 460
3 426 459 458
3 428 460 459
3 458 459 460
3 423 460 452
3 428 461 460
3 429 452 461
3 460 461 452
3 424 453 445
3 429 442 453
3 425 445 442
3 453 442 445
3 422 455 447
3 424 444 455
3 431 447 444
3 455 444 447
3 426 457 449
3 422 446 457
3 430 449 446
3 457 446 449
3 428 459 451
3 426 448 459
3 427 451 448
3 459 448 451
3 429 461 443
3 428 450 461
3 421 443 450
3 461 450 443
3 462 474 476
3 473 475 474
3 467 476 475
3 474 475 476
3 462 476 478
3 467 477 476
3 463 478 477
3 476 477 478
3 462 478 480
3 463 479 478
3 469 480 479
3 478 479 480
3 462 480 482
3 469 481 480
3 472 482 481
3 480 481 482
3 462 482 474
3 472 483 482
3 473 474 483
3 482 483 474
3 463 477 485
3 467 484 477
3 471 485 484
3 477 484 485
3 467 475 487
3 473 486 475
3 466 487 486
3 475 486 487
3 473 483 489
3 472 488 483
3 464 489 488
3 483 488 489
3 472 481 491
3 469 490 481
3 468 491 490
3 481 490 491
3 469 479 493
3 463 492 479
3 470 493 492
3 479 492 493
3 465 494 496
3 471 495 494
3 466 496 495
3 494 495 496
3 465 496 498
3 466 497 496
3 464 498 497
3 496 497 498
3 465 498 500
3 464 499 498
3 468 500 499
3 498 499 500
3 465 500 502
3 468 501 500
3 470 502 501
3 500 501 502
3 465 502 494
3 470 503 502
3 471 494 503
3 502 503 494
3 466 495 487
3 471 484 495
3 467 487 484
3 495 484 487
3 464 497 489
3 466 486 497
3 473 489 486
3 497 486 489
3 468 499 491
3 464 488 499
3 472 491 488
3 499 488 491
3 470 501 493
3 468 490 501
3 469 493 490
3 501 490 493
3 471 503 485
3 470 492 503
3 463 485 492
3 503 492 485
3 504 516 518
3 515 517 516
3 509 518 517
3 516 517 518
3 504 518 520
3 509 519 518
3 505 520 519
3 518 519 520
3 504 520 522
3 505 521 520
3 511 522 521
3 520 521 522
3 504 522 524
3 511 523 522
3 514 524 523
3 522 523 524
3 504 524 516
3 514 525 524
3 515 516 525
3 524 525 516
3 505 519 527
3 509 526 519
3 513 527 526
3 519 526 527
3 509 517 529
3 515 528 517
3 508 529 528
3 517 528 529
3 515 525 531
3 514 530 525
3 506 531 530
3 525 530 531
3 514 523 533
3 511 532 523
3 510 533 532
3 523 532 533
3 511 521 535
3 505 534 521
3 512 535 534
3 521 534 535
3 507 536 538
3 513 537 536
3 508 538 537
3 536 537 538
3 507 538 540
3 508 539 538
3 506 540 539
3 538 539 540
3 507 540 542
3 506 541 540
3 510 542 541
3 540 541 542
3 507 542 544
3 510 543 542
3 512 544 543
3 542 543 544
3 507 544 536
3 512 545 544
3 513 536 545
3 544 545 536
3 508 537 529
3 513 526 537
3 509 529 526
3 537 526 529
3 506 539 531
3 508 528 539
3 515 531 528
3 539 528 531
3 510 541 533
3 506 530 541
3 514 533 530
3 541 530 533
3 512 543 535
3 510 532 543
3 511 535 532
3 543 532 535
3 513 545 527
3 512 534 545
3 505 527 534
3 545 534 527
3 546 558 560
3 557 559 558
3 551 560 559
3 558 559 560
3 546 560 562
3 551 561 560
3 547 562 561
3 560 561 562
3 546 562 564
3 547 563 562
3 553 564 563
3 562 563 564
3 546 564 566
3 553 565 564
3 556 566 565
3 564 565 566
3 546 566 558
3 556 567 566
3 557 558 567
3 566 567 558
3 547 561 569
3 551 568 561
3 555 569 568
3 561 568 569
3 551 559 571
3 557 570 559
3 550 571 570
3 559 570 571
3 557 567 573
3 556 572 567
3 548 573 572
3 567 572 573
3 556 565 575
3 553 574 565
3 552 575 574
3 565 574 575
3 553 563 577
3 547 576 563
3 554 577 576
3 563 576 577
3 549 578 580
3 555 579 578
3 550 580 579
3 578 579 580
3 549 580 582
3 550 581 580
3 548 582 581
3 580 581 582
3 549 582 584
3 548 583 582
3 552 584 583
3 582 583 584
3 549 584 586
3 552 585 584
3 554 586 585
3 584 585 586
3 549 586 578
3 554 587 586
3 555 578 587
3 586 587 578
3 550 579 571
3 555 568 579
3 551 571 568
3 579 568 571
3 548 581 573
3 550 570 581
3 557 573 570
3 581 570 573
3 552 583 575
3 548 572 583
3 556 575 572
3 583 572 575
3 554 585 577
3 552 574 585
3 553 577 574
3 585 574 577
3 555 587 569
3 554 576 587
3 547 569 576
3 587 576 569
3 588 600 602
3 599 601 600
3 593 602 601
3 600 601 602
3 588 602 604
3 593 603 602
3 589 604 603
3 602 603 604
3 588 604 606
3 589 605 604
3 595 606 605
3 604 605 606
3 588 606 608
3 595 607 606
3 598 608 607
3 606 607 608
3 588 608 600
3 598 609 608
3 599 600 609
3 608 609 600
3 589 603 611
3 593 610 603
3 597 611 610
3 603 610 611
3 593 601 613
3 599 612 601
3 592 613 612
3 601 612 613
3 599 609 615
3 598 614 609
3 590 615 614
3 609 614 615
3 598 607 617
3 595 616 607
3 594 617 616
3 607 616 617
3 595 605 619
3 589 618 605
3 596 619 618
3 605 618 619
3 591 620 622
3 597 621 620
3 592 622 621
3 620 621 622
3 591 622 624
3 592 623 622
3 590 624 623
3 622 623 624
3 591 624 626
3 590 625 624
3 594 626 625
3 624 625 626
3 591 626 628
3 594 627 626
3 596 628 627
3 626 627 628
3 591 628 620
3 596 629 628
3 597 620 629
3 628 629 620
3 592 621 613
3 597 610 621
3 593 613 610
3 621 610 613
3 590 623 615
3 592 612 623
3 599 615 612
3 623 612 615
3 594 625 617
3 590 614 625
3 598 617 614
3 625 614 617
3 596 627 619
3 594 616 627
3 595 619 616
3 627 616 619
3 597 629 611
3 596 618 629
3 589 611 618
3 629 618 611
