ply
format ascii 1.0
element vertex 546
property float x
property float y
property float z
property uchar red
property uchar green
property uchar blue
element face 1040
property list uchar int vertex_indices
end_header
-0.155186 0.031645 0.440649 255 0 0
-0.162523 0.031645 0.448180 255 0 0
-0.155186 0.014632 0.440649 255 0 0
-0.162523 0.014632 0.448180 255 0 0
-0.164947 0.017881 0.438478 255 0 0
-0.164947 0.028395 0.438478 255 0 0
-0.152762 0.017881 0.450350 255 0 0
-0.152762 0.028395 0.450350 255 0 0
-0.161025 0.023138 0.454176 255 0 0
-0.168556 0.023138 0.446838 255 0 0
-0.149153 0.023138 0.441990 255 0 0
-0.156684 0.023138 0.434653 255 0 0
-0.155422 0.028138 0.436463 255 0 0
-0.161160 0.026228 0.435187 255 0 0
-0.160279 0.031228 0.438712 255 0 0
-0.164592 0.031228 0.443138 255 0 0
-0.158855 0.033138 0.444414 255 0 0
-0.157430 0.031228 0.450117 255 0 0
-0.153117 0.031228 0.445690 255 0 0
-0.149571 0.026228 0.446479 255 0 0
-0.150995 0.028138 0.440776 255 0 0
-0.151876 0.023138 0.437252 255 0 0
-0.168138 0.026228 0.442350 255 0 0
-0.166714 0.028138 0.448052 255 0 0
-0.161160 0.020048 0.435187 255 0 0
-0.166017 0.023138 0.437436 255 0 0
-0.150995 0.018138 0.440776 255 0 0
-0.155422 0.018138 0.436463 255 0 0
-0.151692 0.023138 0.451393 255 0 0
-0.149571 0.020048 0.446479 255 0 0
-0.162287 0.028138 0.452365 255 0 0
-0.156549 0.026228 0.453641 255 0 0
-0.166714 0.018138 0.448052 255 0 0
-0.168138 0.020048 0.442350 255 0 0
-0.164592 0.015048 0.443138 255 0 0
-0.160279 0.015048 0.438712 255 0 0
-0.158855 0.013138 0.444414 255 0 0
-0.153117 0.015048 0.445690 255 0 0
-0.157430 0.015048 0.450117 255 0 0
-0.156549 0.020048 0.453641 255 0 0
-0.162287 0.018138 0.452365 255 0 0
-0.165833 0.023138 0.451577 255 0 0
-0.187425 -0.013685 0.451526 255 0 0
-0.194763 -0.013685 0.459057 255 0 0
-0.187425 -0.030698 0.451526 255 0 0
-0.194763 -0.030698 0.459057 255 0 0
-0.197187 -0.027449 0.449356 255 0 0
-0.197187 -0.016934 0.449356 255 0 0
-0.185001 -0.027449 0.461228 255 0 0
-0.185001 -0.016934 0.461228 255 0 0
-0.193265 -0.022191 0.465053 255 0 0
-0.200796 -0.022191 0.457716 255 0 0
-0.181392 -0.022191 0.452868 255 0 0
-0.188923 -0.022191 0.445530 255 0 0
-0.187662 -0.017191 0.447341 255 0 0
-0.193399 -0.019101 0.446065 255 0 0
-0.192519 -0.014101 0.449589 255 0 0
-0.196832 -0.014101 0.454016 255 0 0
-0.191094 -0.012191 0.455292 255 0 0
-0.189669 -0.014101 0.460995 255 0 0
-0.185356 -0.014101 0.456568 255 0 0
-0.181810 -0.019101 0.457356 255 0 0
-0.183235 -0.017191 0.451654 255 0 0
-0.184116 -0.022191 0.448130 255 0 0
-0.200378 -0.019101 0.453227 255 0 0
-0.198953 -0.017191 0.458930 255 0 0
-0.193399 -0.025282 0.446065 255 0 0
-0.198257 -0.022191 0.448313 255 0 0
-0.183235 -0.027191 0.451654 255 0 0
-0.187662 -0.027191 0.447341 255 0 0
-0.183932 -0.022191 0.462270 255 0 0
-0.181810 -0.025282 0.457356 255 0 0
-0.194527 -0.017191 0.463243 255 0 0
-0.188789 -0.019101 0.464519 255 0 0
-0.198953 -0.027191 0.458930 255 0 0
-0.200378 -0.025282 0.453227 255 0 0
-0.196832 -0.030282 0.454016 255 0 0
-0.192519 -0.030282 0.449589 255 0 0
-0.191094 -0.032191 0.455292 255 0 0
-0.185356 -0.030282 0.456568 255 0 0
-0.189669 -0.030282 0.460995 255 0 0
-0.188789 -0.025282 0.464519 255 0 0
-0.194527 -0.027191 0.463243 255 0 0
-0.198073 -0.022191 0.462454 255 0 0
-0.148843 0.061661 0.439035 255 0 0
-0.156180 0.061661 0.446566 255 0 0
-0.148843 0.044648 0.439035 255 0 0
-0.156180 0.044648 0.446566 255 0 0
-0.158604 0.047897 0.436864 255 0 0
-0.158604 0.058411 0.436864 255 0 0
-0.146419 0.047897 0.448737 255 0 0
-0.146419 0.058411 0.448737 255 0 0
-0.154682 0.053154 0.452562 255 0 0
-0.162213 0.053154 0.445224 255 0 0
-0.142810 0.053154 0.440376 255 0 0
-0.150341 0.053154 0.433039 255 0 0
-0.149079 0.058154 0.434849 255 0 0
-0.154817 0.056244 0.433573 255 0 0
-0.153936 0.061244 0.437098 255 0 0
-0.158249 0.061244 0.441524 255 0 0
-0.152511 0.063154 0.442800 255 0 0
-0.151087 0.061244 0.448503 255 0 0
-0.146774 0.061244 0.444076 255 0 0
-0.143228 0.056244 0.444865 255 0 0
-0.144652 0.058154 0.439162 255 0 0
-0.145533 0.053154 0.435638 255 0 0
-0.161795 0.056244 0.440736 255 0 0
-0.160370 0.058154 0.446438 255 0 0
-0.154817 0.050064 0.433573 255 0 0
-0.159674 0.053154 0.435822 255 0 0
-0.144652 0.048154 0.439162 255 0 0
-0.149079 0.048154 0.434849 255 0 0
-0.145349 0.053154 0.449779 255 0 0
-0.143228 0.050064 0.444865 255 0 0
-0.155944 0.058154 0.450751 255 0 0
-0.150206 0.056244 0.452027 255 0 0
-0.160370 0.048154 0.446438 255 0 0
-0.161795 0.050064 0.440736 255 0 0
-0.158249 0.045064 0.441524 255 0 0
-0.153936 0.045064 0.437098 255 0 0
-0.152511 0.043154 0.442800 255 0 0
-0.146774 0.045064 0.444076 255 0 0
-0.151087 0.045064 0.448503 255 0 0
-0.150206 0.050064 0.452027 255 0 0
-0.155944 0.048154 0.450751 255 0 0
-0.159490 0.053154 0.449963 255 0 0
-0.183512 0.019996 0.452029 255 0 0
-0.190850 0.019996 0.459560 255 0 0
-0.183512 0.002983 0.452029 255 0 0
-0.190850 0.002983 0.459560 255 0 0
-0.193274 0.006232 0.449858 255 0 0
-0.193274 0.016746 0.449858 255 0 0
-0.181088 0.006232 0.461730 255 0 0
-0.181088 0.016746 0.461730 255 0 0
-0.189351 0.011489 0.465556 255 0 0
-0.196883 0.011489 0.458218 255 0 0
-0.177479 0.011489 0.453370 255 0 0
-0.185010 0.011489 0.446033 255 0 0
-0.183748 0.016489 0.447843 255 0 0
-0.189486 0.014579 0.446567 255 0 0
-0.188606 0.019579 0.450092 255 0 0
-0.192918 0.019579 0.454518 255 0 0
-0.187181 0.021489 0.455794 255 0 0
-0.185756 0.019579 0.461497 255 0 0
-0.181443 0.019579 0.457070 255 0 0
-0.177897 0.014579 0.457859 255 0 0
-0.179322 0.016489 0.452156 255 0 0
-0.180202 0.011489 0.448632 255 0 0
-0.196465 0.014579 0.453730 255 0 0
-0.195040 0.016489 0.459432 255 0 0
-0.189486 0.008399 0.446567 255 0 0
-0.194343 0.011489 0.448816 255 0 0
-0.179322 0.006489 0.452156 255 0 0
-0.183748 0.006489 0.447843 255 0 0
-0.180018 0.011489 0.462773 255 0 0
-0.177897 0.008399 0.457859 255 0 0
-0.190613 0.016489 0.463745 255 0 0
-0.184875 0.014579 0.465021 255 0 0
-0.195040 0.006489 0.459432 255 0 0
-0.196465 0.008399 0.453730 255 0 0
-0.192918 0.003399 0.454518 255 0 0
-0.188606 0.003399 0.450092 255 0 0
-0.187181 0.001489 0.455794 255 0 0
-0.181443 0.003399 0.457070 255 0 0
-0.185756 0.003399 0.461497 255 0 0
-0.184875 0.008399 0.465021 255 0 0
-0.190613 0.006489 0.463745 255 0 0
-0.194159 0.011489 0.462957 255 0 0
0.037656 -0.066483 0.422614 255 0 0
0.030318 -0.066483 0.430145 255 0 0
0.037656 -0.083496 0.422614 255 0 0
0.030318 -0.083496 0.430145 255 0 0
0.027894 -0.080247 0.420443 255 0 0
0.027894 -0.069732 0.420443 255 0 0
0.040080 -0.080247 0.432316 255 0 0
0.040080 -0.069732 0.432316 255 0 0
0.031816 -0.074990 0.436141 255 0 0
0.024285 -0.074990 0.428803 255 0 0
0.043689 -0.074990 0.423955 255 0 0
0.036158 -0.074990 0.416618 255 0 0
0.037419 -0.069990 0.418428 255 0 0
0.031682 -0.071900 0.417152 255 0 0
0.032562 -0.066900 0.420677 255 0 0
0.028249 -0.066900 0.425103 255 0 0
0.033987 -0.064990 0.426379 255 0 0
0.035412 -0.066900 0.432082 255 0 0
0.039725 -0.066900 0.427655 255 0 0
0.043271 -0.071900 0.428444 255 0 0
0.041846 -0.069990 0.422741 255 0 0
0.040966 -0.074990 0.419217 255 0 0
0.024703 -0.071900 0.424315 255 0 0
0.026128 -0.069990 0.430017 255 0 0
0.031682 -0.078080 0.417152 255 0 0
0.026825 -0.074990 0.419401 255 0 0
0.041846 -0.079990 0.422741 255 0 0
0.037419 -0.079990 0.418428 255 0 0
0.041150 -0.074990 0.433358 255 0 0
0.043271 -0.078080 0.428444 255 0 0
0.030555 -0.069990 0.434330 255 0 0
0.036292 -0.071900 0.435606 255 0 0
0.026128 -0.079990 0.430017 255 0 0
0.024703 -0.078080 0.424315 255 0 0
0.028249 -0.083080 0.425103 255 0 0
0.032562 -0.083080 0.420677 255 0 0
0.033987 -0.084990 0.426379 255 0 0
0.039725 -0.083080 0.427655 255 0 0
0.035412 -0.083080 0.432082 255 0 0
0.036292 -0.078080 0.435606 255 0 0
0.030555 -0.079990 0.434330 255 0 0
0.027009 -0.074990 0.433542 255 0 0
-0.038959 -0.013416 0.412075 255 0 0
-0.046297 -0.013416 0.419606 255 0 0
-0.038959 -0.030429 0.412075 255 0 0
-0.046297 -0.030429 0.419606 255 0 0
-0.048721 -0.027180 0.409904 255 0 0
-0.048721 -0.016665 0.409904 255 0 0
-0.036535 -0.027180 0.421777 255 0 0
-0.036535 -0.016665 0.421777 255 0 0
-0.044799 -0.021923 0.425602 255 0 0
-0.052330 -0.021923 0.418265 255 0 0
-0.032926 -0.021923 0.413417 255 0 0
-0.040457 -0.021923 0.406079 255 0 0
-0.039196 -0.016923 0.407890 255 0 0
-0.044933 -0.018833 0.406614 255 0 0
-0.044053 -0.013833 0.410138 255 0 0
-0.048366 -0.013833 0.414565 255 0 0
-0.042628 -0.011923 0.415841 255 0 0
-0.041203 -0.013833 0.421543 255 0 0
-0.036890 -0.013833 0.417117 255 0 0
-0.033344 -0.018833 0.417905 255 0 0
-0.034769 -0.016923 0.412203 255 0 0
-0.035650 -0.021923 0.408678 255 0 0
-0.051912 -0.018833 0.413776 255 0 0
-0.050487 -0.016923 0.419479 255 0 0
-0.044933 -0.025013 0.406614 255 0 0
-0.049790 -0.021923 0.408862 255 0 0
-0.034769 -0.026923 0.412203 255 0 0
-0.039196 -0.026923 0.407890 255 0 0
-0.035466 -0.021923 0.422819 255 0 0
-0.033344 -0.025013 0.417905 255 0 0
-0.046060 -0.016923 0.423792 255 0 0
-0.040323 -0.018833 0.425068 255 0 0
-0.050487 -0.026923 0.419479 255 0 0
-0.051912 -0.025013 0.413776 255 0 0
-0.048366 -0.030013 0.414565 255 0 0
-0.044053 -0.030013 0.410138 255 0 0
-0.042628 -0.031923 0.415841 255 0 0
-0.036890 -0.030013 0.417117 255 0 0
-0.041203 -0.030013 0.421543 255 0 0
-0.040323 -0.025013 0.425068 255 0 0
-0.046060 -0.026923 0.423792 255 0 0
-0.049606 -0.021923 0.423003 255 0 0
0.063237 0.033585 0.490777 255 0 0
0.055900 0.033585 0.498308 255 0 0
0.063237 0.016572 0.490777 255 0 0
0.055900 0.016572 0.498308 255 0 0
0.053476 0.019821 0.488606 255 0 0
0.053476 0.030336 0.488606 255 0 0
0.065661 0.019821 0.500478 255 0 0
0.065661 0.030336 0.500478 255 0 0
0.057398 0.025078 0.504304 255 0 0
0.049867 0.025078 0.496966 255 0 0
0.069270 0.025078 0.492118 255 0 0
0.061739 0.025078 0.484781 255 0 0
0.063001 0.030078 0.486591 255 0 0
0.057263 0.028168 0.485315 255 0 0
0.058144 0.033168 0.488840 255 0 0
0.053831 0.033168 0.493266 255 0 0
0.059569 0.035078 0.494542 255 0 0
0.060993 0.033168 0.500245 255 0 0
0.065306 0.033168 0.495818 255 0 0
0.068852 0.028168 0.496607 255 0 0
0.067428 0.030078 0.490904 255 0 0
0.066547 0.025078 0.487380 255 0 0
0.050285 0.028168 0.492478 255 0 0
0.051710 0.030078 0.498180 255 0 0
0.057263 0.021988 0.485315 255 0 0
0.052406 0.025078 0.487564 255 0 0
0.067428 0.020078 0.490904 255 0 0
0.063001 0.020078 0.486591 255 0 0
0.066731 0.025078 0.501521 255 0 0
0.068852 0.021988 0.496607 255 0 0
0.056136 0.030078 0.502493 255 0 0
0.061874 0.028168 0.503769 255 0 0
0.051710 0.020078 0.498180 255 0 0
0.050285 0.021988 0.492478 255 0 0
0.053831 0.016988 0.493266 255 0 0
0.058144 0.016988 0.488840 255 0 0
0.059569 0.015078 0.494542 255 0 0
0.065306 0.016988 0.495818 255 0 0
0.060993 0.016988 0.500245 255 0 0
0.061874 0.021988 0.503769 255 0 0
0.056136 0.020078 0.502493 255 0 0
0.052590 0.025078 0.501705 255 0 0
-0.034410 -0.015243 0.408131 255 0 0
-0.041748 -0.015243 0.415662 255 0 0
-0.034410 -0.032256 0.408131 255 0 0
-0.041748 -0.032256 0.415662 255 0 0
-0.044172 -0.029007 0.405960 255 0 0
-0.044172 -0.018492 0.405960 255 0 0
-0.031986 -0.029007 0.417833 255 0 0
-0.031986 -0.018492 0.417833 255 0 0
-0.040250 -0.023750 0.421658 255 0 0
-0.047781 -0.023750 0.414320 255 0 0
-0.028377 -0.023750 0.409472 255 0 0
-0.035908 -0.023750 0.402135 255 0 0
-0.034647 -0.018750 0.403945 255 0 0
-0.040384 -0.020660 0.402669 255 0 0
-0.039504 -0.015660 0.406194 255 0 0
-0.043817 -0.015660 0.410620 255 0 0
-0.038079 -0.013750 0.411896 255 0 0
-0.036654 -0.015660 0.417599 255 0 0
-0.032341 -0.015660 0.413172 255 0 0
-0.028795 -0.020660 0.413961 255 0 0
-0.030220 -0.018750 0.408258 255 0 0
-0.031100 -0.023750 0.404734 255 0 0
-0.047363 -0.020660 0.409832 255 0 0
-0.045938 -0.018750 0.415534 255 0 0
-0.040384 -0.026840 0.402669 255 0 0
-0.045241 -0.023750 0.404918 255 0 0
-0.030220 -0.028750 0.408258 255 0 0
-0.034647 -0.028750 0.403945 255 0 0
-0.030916 -0.023750 0.418875 255 0 0
-0.028795 -0.026840 0.413961 255 0 0
-0.041511 -0.018750 0.419847 255 0 0
-0.035774 -0.020660 0.421123 255 0 0
-0.045938 -0.028750 0.415534 255 0 0
-0.047363 -0.026840 0.409832 255 0 0
-0.043817 -0.031840 0.410620 255 0 0
-0.039504 -0.031840 0.406194 255 0 0
-0.038079 -0.033750 0.411896 255 0 0
-0.032341 -0.031840 0.413172 255 0 0
-0.036654 -0.031840 0.417599 255 0 0
-0.035774 -0.026840 0.421123 255 0 0
-0.041511 -0.028750 0.419847 255 0 0
-0.045057 -0.023750 0.419059 255 0 0
0.038532 0.005164 0.448910 255 0 0
0.031194 0.005164 0.456441 255 0 0
0.038532 -0.011849 0.448910 255 0 0
0.031194 -0.011849 0.456441 255 0 0
0.028770 -0.008600 0.446739 255 0 0
0.028770 0.001915 0.446739 255 0 0
0.040956 -0.008600 0.458612 255 0 0
0.040956 0.001915 0.458612 255 0 0
0.032692 -0.003343 0.462437 255 0 0
0.025161 -0.003343 0.455100 255 0 0
0.044565 -0.003343 0.450252 255 0 0
0.037034 -0.003343 0.442914 255 0 0
0.038295 0.001657 0.444725 255 0 0
0.032558 -0.000253 0.443449 255 0 0
0.033438 0.004747 0.446973 255 0 0
0.029125 0.004747 0.451400 255 0 0
0.034863 0.006657 0.452676 255 0 0
0.036288 0.004747 0.458378 255 0 0
0.040601 0.004747 0.453952 255 0 0
0.044147 -0.000253 0.454740 255 0 0
0.042722 0.001657 0.449038 255 0 0
0.041841 -0.003343 0.445513 255 0 0
0.025579 -0.000253 0.450611 255 0 0
0.027004 0.001657 0.456314 255 0 0
0.032558 -0.006433 0.443449 255 0 0
0.027700 -0.003343 0.445697 255 0 0
0.042722 -0.008343 0.449038 255 0 0
0.038295 -0.008343 0.444725 255 0 0
0.042025 -0.003343 0.459654 255 0 0
0.044147 -0.006433 0.454740 255 0 0
0.031431 0.001657 0.460627 255 0 0
0.037168 -0.000253 0.461903 255 0 0
0.027004 -0.008343 0.456314 255 0 0
0.025579 -0.006433 0.450611 255 0 0
0.029125 -0.011433 0.451400 255 0 0
0.033438 -0.011433 0.446973 255 0 0
0.034863 -0.013343 0.452676 255 0 0
0.040601 -0.011433 0.453952 255 0 0
0.036288 -0.011433 0.458378 255 0 0
0.037168 -0.006433 0.461903 255 0 0
0.031431 -0.008343 0.460627 255 0 0
0.027884 -0.003343 0.459838 255 0 0
-0.049422 -0.033347 0.397379 255 0 0
-0.056759 -0.033347 0.404910 255 0 0
-0.049422 -0.050360 0.397379 255 0 0
-0.056759 -0.050360 0.404910 255 0 0
-0.059183 -0.047111 0.395208 255 0 0
-0.059183 -0.036596 0.395208 255 0 0
-0.046998 -0.047111 0.407081 255 0 0
-0.046998 -0.036596 0.407081 255 0 0
-0.055261 -0.041854 0.410906 255 0 0
-0.062792 -0.041854 0.403568 255 0 0
-0.043389 -0.041854 0.398720 255 0 0
-0.050920 -0.041854 0.391383 255 0 0
-0.049658 -0.036854 0.393193 255 0 0
-0.055396 -0.038763 0.391917 255 0 0
-0.054515 -0.033763 0.395442 255 0 0
-0.058828 -0.033763 0.399868 255 0 0
-0.053091 -0.031854 0.401144 255 0 0
-0.051666 -0.033763 0.406847 255 0 0
-0.047353 -0.033763 0.402420 255 0 0
-0.043807 -0.038763 0.403209 255 0 0
-0.045232 -0.036854 0.397506 255 0 0
-0.046112 -0.041854 0.393982 255 0 0
-0.062374 -0.038763 0.399080 255 0 0
-0.060950 -0.036854 0.404782 255 0 0
-0.055396 -0.044944 0.391917 255 0 0
-0.060253 -0.041854 0.394166 255 0 0
-0.045232 -0.046854 0.397506 255 0 0
-0.049658 -0.046854 0.393193 255 0 0
-0.045928 -0.041854 0.408123 255 0 0
-0.043807 -0.044944 0.403209 255 0 0
-0.056523 -0.036854 0.409095 255 0 0
-0.050785 -0.038763 0.410371 255 0 0
-0.060950 -0.046854 0.404782 255 0 0
-0.062374 -0.044944 0.399080 255 0 0
-0.058828 -0.049944 0.399868 255 0 0
-0.054515 -0.049944 0.395442 255 0 0
-0.053091 -0.051854 0.401144 255 0 0
-0.047353 -0.049944 0.402420 255 0 0
-0.051666 -0.049944 0.406847 255 0 0
-0.050785 -0.044944 0.410371 255 0 0
-0.056523 -0.046854 0.409095 255 0 0
-0.060069 -0.041854 0.408307 255 0 0
-0.064276 0.078841 0.409422 255 0 0
-0.071614 0.078841 0.416953 255 0 0
-0.064276 0.061828 0.409422 255 0 0
-0.071614 0.061828 0.416953 255 0 0
-0.074038 0.065077 0.407251 255 0 0
-0.074038 0.075591 0.407251 255 0 0
-0.061852 0.065077 0.419124 255 0 0
-0.061852 0.075591 0.419124 255 0 0
-0.070116 0.070334 0.422949 255 0 0
-0.077647 0.070334 0.415611 255 0 0
-0.058243 0.070334 0.410764 255 0 0
-0.065774 0.070334 0.403426 255 0 0
-0.064513 0.075334 0.405236 255 0 0
-0.070250 0.073424 0.403961 255 0 0
-0.069370 0.078424 0.407485 255 0 0
-0.073683 0.078424 0.411912 255 0 0
-0.067945 0.080334 0.413188 255 0 0
-0.066520 0.078424 0.418890 255 0 0
-0.062207 0.078424 0.414463 255 0 0
-0.058661 0.073424 0.415252 255 0 0
-0.060086 0.075334 0.409549 255 0 0
-0.060967 0.070334 0.406025 255 0 0
-0.077229 0.073424 0.411123 255 0 0
-0.075804 0.075334 0.416826 255 0 0
-0.070250 0.067244 0.403961 255 0 0
-0.075107 0.070334 0.406209 255 0 0
-0.060086 0.065334 0.409549 255 0 0
-0.064513 0.065334 0.405236 255 0 0
-0.060783 0.070334 0.420166 255 0 0
-0.058661 0.067244 0.415252 255 0 0
-0.071377 0.075334 0.421139 255 0 0
-0.065640 0.073424 0.422414 255 0 0
-0.075804 0.065334 0.416826 255 0 0
-0.077229 0.067244 0.411123 255 0 0
-0.073683 0.062244 0.411912 255 0 0
-0.069370 0.062244 0.407485 255 0 0
-0.067945 0.060334 0.413188 255 0 0
-0.062207 0.062244 0.414463 255 0 0
-0.066520 0.062244 0.418890 255 0 0
-0.065640 0.067244 0.422414 255 0 0
-0.071377 0.065334 0.421139 255 0 0
-0.074924 0.070334 0.420350 255 0 0
-0.009559 0.008855 0.412004 255 0 0
-0.016897 0.008855 0.419535 255 0 0
-0.009559 -0.008158 0.412004 255 0 0
-0.016897 -0.008158 0.419535 255 0 0
-0.019321 -0.004908 0.409834 255 0 0
-0.019321 0.005606 0.409834 255 0 0
-0.007135 -0.004908 0.421706 255 0 0
-0.007135 0.005606 0.421706 255 0 0
-0.015399 0.000349 0.425531 255 0 0
-0.022930 0.000349 0.418194 255 0 0
-0.003526 0.000349 0.413346 255 0 0
-0.011057 0.000349 0.406008 255 0 0
-0.009796 0.005349 0.407819 255 0 0
-0.015533 0.003439 0.406543 255 0 0
-0.014653 0.008439 0.410067 255 0 0
-0.018966 0.008439 0.414494 255 0 0
-0.013228 0.010349 0.415770 255 0 0
-0.011803 0.008439 0.421472 255 0 0
-0.007490 0.008439 0.417046 255 0 0
-0.003944 0.003439 0.417834 255 0 0
-0.005369 0.005349 0.412132 255 0 0
-0.006250 0.000349 0.408607 255 0 0
-0.022512 0.003439 0.413705 255 0 0
-0.021087 0.005349 0.419408 255 0 0
-0.015533 -0.002741 0.406543 255 0 0
-0.020391 0.000349 0.408791 255 0 0
-0.005369 -0.004651 0.412132 255 0 0
-0.009796 -0.004651 0.407819 255 0 0
-0.006066 0.000349 0.422748 255 0 0
-0.003944 -0.002741 0.417834 255 0 0
-0.016661 0.005349 0.423721 255 0 0
-0.010923 0.003439 0.424997 255 0 0
-0.021087 -0.004651 0.419408 255 0 0
-0.022512 -0.002741 0.413705 255 0 0
-0.018966 -0.007741 0.414494 255 0 0
-0.014653 -0.007741 0.410067 255 0 0
-0.013228 -0.009651 0.415770 255 0 0
-0.007490 -0.007741 0.417046 255 0 0
-0.011803 -0.007741 0.421472 255 0 0
-0.010923 -0.002741 0.424997 255 0 0
-0.016661 -0.004651 0.423721 255 0 0
-0.020207 0.000349 0.422932 255 0 0
0.011093 0.098971 0.405983 255 0 0
0.003755 0.098971 0.413514 255 0 0
0.011093 0.081958 0.405983 255 0 0
0.003755 0.081958 0.413514 255 0 0
0.001331 0.085208 0.403812 255 0 0
0.001331 0.095722 0.403812 255 0 0
0.013517 0.085208 0.415685 255 0 0
0.013517 0.095722 0.415685 255 0 0
0.005253 0.090465 0.419510 255 0 0
-0.002278 0.090465 0.412172 255 0 0
0.017126 0.090465 0.407324 255 0 0
0.009595 0.090465 0.399987 255 0 0
0.010857 0.095465 0.401797 255 0 0
0.005119 0.093555 0.400521 255 0 0
0.005999 0.098555 0.404046 255 0 0
0.001686 0.098555 0.408472 255 0 0
0.007424 0.100465 0.409748 255 0 0
0.008849 0.098555 0.415451 255 0 0
0.013162 0.098555 0.411024 255 0 0
0.016708 0.093555 0.411813 255 0 0
0.015283 0.095465 0.406110 255 0 0
0.014403 0.090465 0.402586 255 0 0
-0.001860 0.093555 0.407684 255 0 0
-0.000435 0.095465 0.413386 255 0 0
0.005119 0.087375 0.400521 255 0 0
0.000262 0.090465 0.402770 255 0 0
0.015283 0.085465 0.406110 255 0 0
0.010857 0.085465 0.401797 255 0 0
0.014587 0.090465 0.416727 255 0 0
0.016708 0.087375 0.411813 255 0 0
0.003992 0.095465 0.417699 255 0 0
0.009729 0.093555 0.418975 255 0 0
-0.000435 0.085465 0.413386 255 0 0
-0.001860 0.087375 0.407684 255 0 0
0.001686 0.082375 0.408472 255 0 0
0.005999 0.082375 0.404046 255 0 0
0.007424 0.080465 0.409748 255 0 0
0.013162 0.082375 0.411024 255 0 0
0.008849 0.082375 0.415451 255 0 0
0.009729 0.087375 0.418975 255 0 0
0.003992 0.085465 0.417699 255 0 0
0.000446 0.090465 0.416911 255 0 0
3 0 12 14
3 11 13 12
3 5 14 13
3 12 13 14
3 0 14 16
3 5 15 14
3 1 16 15
3 14 15 16
3 0 16 18
3 1 17 16
3 7 18 17
3 16 17 18
3 0 18 20
3 7 19 18
3 10 20 19
3 18 19 20
3 0 20 12
3 10 21 20
3 11 12 21
3 20 21 12
3 1 15 23
3 5 22 15
3 9 23 22
3 15 22 23
3 5 13 25
3 11 24 13
3 4 25 24
3 13 24 25
3 11 21 27
3 10 26 21
3 2 27 26
3 21 26 27
3 10 19 29
3 7 28 19
3 6 29 28
3 19 28 29
3 7 17 31
3 1 30 17
3 8 31 30
3 17 30 31
3 3 32 34
3 9 33 32
3 4 34 33
3 32 33 34
3 3 34 36
3 4 35 34
3 2 36 35
3 34 35 36
3 3 36 38
3 2 37 36
3 6 38 37
3 36 37 38
3 3 38 40
3 6 39 38
3 8 40 39
3 38 39 40
3 3 40 32
3 8 41 40
3 9 32 41
3 40 41 32
3 4 33 25
3 9 22 33
3 5 25 22
3 33 22 25
3 2 35 27
3 4 24 35
3 11 27 24
3 35 24 27
3 6 37 29
3 2 26 37
3 10 29 26
3 37 26 29
3 8 39 31
3 6 28 39
3 7 31 28
3 39 28 31
3 9 41 23
3 8 30 41
3 1 23 30
3 41 30 23
3 42 54 56
3 53 55 54
3 47 56 55
3 54 55 56
3 42 56 58
3 47 57 56
3 43 58 57
3 56 57 58
3 42 58 60
3 43 59 58
3 49 60 59
3 58 59 60
3 42 60 62
3 49 61 60
3 52 62 61
3 60 61 62
3 42 62 54
3 52 63 62
3 53 54 63
3 62 63 54
3 43 57 65
3 47 64 57
3 51 65 64
3 57 64 65
3 47 55 67
3 53 66 55
3 46 67 66
3 55 66 67
3 53 63 69
3 52 68 63
3 44 69 68
3 63 68 69
3 52 61 71
3 49 70 61
3 48 71 70
3 61 70 71
3 49 59 73
3 43 72 59
3 50 73 72
3 59 72 73
3 45 74 76
3 51 75 74
3 46 76 75
3 74 75 76
3 45 76 78
3 46 77 76
3 44 78 77
3 76 77 78
3 45 78 80
3 44 79 78
3 48 80 79
3 78 79 80
3 45 80 82
3 48 81 80
3 50 82 81
3 80 81 82
3 45 82 74
3 50 83 82
3 51 74 83
3 82 83 74
3 46 75 67
3 51 64 75
3 47 67 64
3 75 64 67
3 44 77 69
3 46 66 77
3 53 69 66
3 77 66 69
3 48 79 71
3 44 68 79
3 52 71 68
3 79 68 71
3 50 81 73
3 48 70 81
3 49 73 70
3 81 70 73
3 51 83 65
3 50 72 83
3 43 65 72
3 83 72 65
3 84 96 98
3 95 97 96
3 89 98 97
3 96 97 98
3 84 98 100
3 89 99 98
3 85 100 99
3 98 99 100
3 84 100 102
3 85 101 100
3 91 102 101
3 100 101 102
3 84 102 104
3 91 103 102
3 94 104 103
3 102 103 104
3 84 104 96
3 94 105 104
3 95 96 105
3 104 105 96
3 85 99 107
3 89 106 99
3 93 107 106
3 99 106 107
3 89 97 109
3 95 108 97
3 88 109 108
3 97 108 109
3 95 105 111
3 94 110 105
3 86 111 110
3 105 110 111
3 94 103 113
3 91 112 103
3 90 113 112
3 103 112 113
3 91 101 115
3 85 114 101
3 92 115 114
3 101 114 115
3 87 116 118
3 93 117 116
3 88 118 117
3 116 117 118
3 87 118 120
3 88 119 118
3 86 120 119
3 118 119 120
3 87 120 122
3 86 121 120
3 90 122 121
3 120 121 122
3 87 122 124
3 90 123 122
3 92 124 123
3 122 123 124
3 87 124 116
3 92 125 124
3 93 116 125
3 124 125 116
3 88 117 109
3 93 106 117
3 89 109 106
3 117 106 109
3 86 119 111
3 88 108 119
3 95 111 108
3 119 108 111
3 90 121 113
3 86 110 121
3 94 113 110
3 121 110 113
3 92 123 115
3 90 112 123
3 91 115 112
3 123 112 115
3 93 125 107
3 92 114 125
3 85 107 114
3 125 114 107
3 126 138 140
3 137 139 138
3 131 140 139
3 138 139 140
3 126 140 142
3 131 141 140
3 127 142 141
3 140 141 142
3 126 142 144
3 127 143 142
3 133 144 143
3 142 143 144
3 126 144 146
3 133 145 144
3 136 146 145
3 144 145 146
3 126 146 138
3 136 147 146
3 137 138 147
3 146 147 138
3 127 141 149
3 131 148 141
3 135 149 148
3 141 148 149
3 131 139 151
3 137 150 139
3 130 151 150
3 139 150 151
3 137 147 153
3 136 152 147
3 128 153 152
3 147 152 153
3 136 145 155
3 133 154 145
3 132 155 154
3 145 154 155
3 133 143 157
3 127 156 143
3 134 157 156
3 143 156 157
3 129 158 160
3 135 159 158
3 130 160 159
3 158 159 160
3 129 160 162
3 130 161 160
3 128 162 161
3 160 161 162
3 129 162 164
3 128 163 162
3 132 164 163
3 162 163 164
3 129 164 166
3 132 165 164
3 134 166 165
3 164 165 166
3 129 166 158
3 134 167 166
3 135 158 167
3 166 167 158
3 130 159 151
3 135 148 159
3 131 151 148
3 159 148 151
3 128 161 153
3 130 150 161
3 137 153 150
3 161 150 153
3 132 163 155
3 128 152 163
3 136 155 152
3 163 152 155
3 134 165 157
3 132 154 165
3 133 157 154
3 165 154 157
3 135 167 149
3 134 156 167
3 127 149 156
3 167 156 149
3 168 180 182
3 179 181 180
3 173 182 181
3 180 181 182
3 168 182 184
3 173 183 182
3 169 184 183
3 182 183 184
3 168 184 186
3 169 185 184
3 175 186 185
3 184 185 186
3 168 186 188
3 175 187 186
3 178 188 187
3 186 187 188
3 168 188 180
3 178 189 188
3 179 180 189
3 188 189 180
3 169 183 191
3 173 190 183
3 177 191 190
3 183 190 191
3 173 181 193
3 179 192 181
3 172 193 192
3 181 192 193
3 179 189 195
3 178 194 189
3 170 195 194
3 189 194 195
3 178 187 197
3 175 196 187
3 174 197 196
3 187 196 197
3 175 185 199
3 169 198 185
3 176 199 198
3 185 198 199
3 171 200 202
3 177 201 200
3 172 202 201
3 200 201 202
3 171 202 204
3 172 203 202
3 170 204 203
3 202 203 204
3 171 204 206
3 170 205 204
3 174 206 205
3 204 205 206
3 171 206 208
3 174 207 206
3 176 208 207
3 206 207 208
3 171 208 200
3 176 209 208
3 177 200 209
3 208 209 200
3 172 201 193
3 177 190 201
3 173 193 190
3 201 190 193
3 170 203 195
3 172 192 203
3 179 195 192
3 203 192 195
3 174 205 197
3 170 194 205
3 178 197 194
3 205 194 197
3 176 207 199
3 174 196 207
3 175 199 196
3 207 196 199
3 177 209 191
3 176 198 209
3 169 191 198
3 209 198 191
3 210 222 224
3 221 223 222
3 215 224 223
3 222 223 224
3 210 224 226
3 215 225 224
3 211 226 225
3 224 225 226
3 210 226 228
3 211 227 226
3 217 228 227
3 226 227 228
3 210 228 230
3 217 229 228
3 220 230 229
3 228 229 230
3 210 230 222
3 220 231 230
3 221 222 231
3 230 231 222
3 211 225 233
3 215 232 225
3 219 233 232
3 225 232 233
3 215 223 235
3 221 234 223
3 214 235 234
3 223 234 235
3 221 231 237
3 220 236 231
3 212 237 236
3 231 236 237
3 220 229 239
3 217 238 229
3 216 239 238
3 229 238 239
3 217 227 241
3 211 240 227
3 218 241 240
3 227 240 241
3 213 242 244
3 219 243 242
3 214 244 243
3 242 243 244
3 213 244 246
3 214 245 244
3 212 246 245
3 244 245 246
3 213 246 248
3 212 247 246
3 216 248 247
3 246 247 248
3 213 248 250
3 216 249 248
3 218 250 249
3 248 249 250
3 213 250 242
3 218 251 250
3 219 242 251
3 250 251 242
3 214 243 235
3 219 232 243
3 215 235 232
3 243 232 235
3 212 245 237
3 214 234 245
3 221 237 234
3 245 234 237
3 216 247 239
3 212 236 247
3 220 239 236
3 247 236 239
3 218 249 241
3 216 238 249
3 217 241 238
3 249 238 241
3 219 251 233
3 218 240 251
3 211 233 240
3 251 240 233
3 252 264 266
3 263 265 264
3 257 266 265
3 264 265 266
3 252 266 268
3 257 267 266
3 253 268 267
3 266 267 268
3 252 268 270
3 253 269 268
3 259 270 269
3 268 269 270
3 252 270 272
3 259 271 270
3 262 272 271
3 270 271 272
3 252 272 264
3 262 273 272
3 263 264 273
3 272 273 264
3 253 267 275
3 257 274 267
3 261 275 274
3 267 274 275
3 257 265 277
3 263 276 265
3 256 277 276
3 265 276 277
3 263 273 279
3 262 278 273
3 254 279 278
3 273 278 279
3 262 271 281
3 259 280 271
3 258 281 280
3 271 280 281
3 259 269 283
3 253 282 269
3 260 283 282
3 269 282 283
3 255 284 286
3 261 285 284
3 256 286 285
3 284 285 286
3 255 286 288
3 256 287 286
3 254 288 287
3 286 287 288
3 255 288 290
3 254 289 288
3 258 290 289
3 288 289 290
3 255 290 292
3 258 291 290
3 260 292 291
3 290 291 292
3 255 292 284
3 260 293 292
3 261 284 293
3 292 293 284
3 256 285 277
3 261 274 285
3 257 277 274
3 285 274 277
3 254 287 279
3 256 276 287
3 263 279 276
3 287 276 279
3 258 289 281
3 254 278 289
3 262 281 278
3 289 278 281
3 260 291 283
3 258 280 291
3 259 283 280
3 291 280 283
3 261 293 275
3 260 282 293
3 253 275 282
3 293 282 275
3 294 306 308
3 305 307 306
3 299 308 307
3 306 307 308
3 294 308 310
3 299 309 308
3 295 310 309
3 308 309 310
3 294 310 312
3 295 311 310
3 301 312 311
3 310 311 312
3 294 312 314
3 301 313 312
3 304 314 313
3 312 313 314
3 294 314 306
3 304 315 314
3 305 306 315
3 314 315 306
3 295 309 317
3 299 316 309
3 303 317 316
3 309 316 317
3 299 307 319
3 305 318 307
3 298 319 318
3 307 318 319
3 305 315 321
3 304 320 315
3 296 321 320
3 315 320 321
3 304 313 323
3 301 322 313
3 300 323 322
3 313 322 323
3 301 311 325
3 295 324 311
3 302 325 324
3 311 324 325
3 297 326 328
3 303 327 326
3 298 328 327
3 326 327 328
3 297 328 330
3 298 329 328
3 296 330 329
3 328 329 330
3 297 330 332
3 296 331 330
3 300 332 331
3 330 331 332
3 297 332 334
3 300 333 332
3 302 334 333
3 332 333 334
3 297 334 326
3 302 335 334
3 303 326 335
3 334 335 326
3 298 327 319
3 303 316 327
3 299 319 316
3 327 316 319
3 296 329 321
3 298 318 329
3 305 321 318
3 329 318 321
3 300 331 323
3 296 320 331
3 304 323 320
3 331 320 323
3 302 333 325
3 300 322 333
3 301 325 322
3 333 322 325
3 303 335 317
3 302 324 335
3 295 317 324
3 335 324 317
3 336 348 350
3 347 349 348
3 341 350 349
3 348 349 350
3 336 350 352
3 341 351 350
3 337 352 351
3 350 351 352
3 336 352 354
3 337 353 352
3 343 354 353
3 352 353 354
3 336 354 356
3 343 355 354
3 346 356 355
3 354 355 356
3 336 356 348
3 346 357 356
3 347 348 357
3 356 357 348
3 337 351 359
3 341 358 351
3 345 359 358
3 351 358 359
3 341 349 361
3 347 360 349
3 340 361 360
3 349 360 361
3 347 357 363
3 346 362 357
3 338 363 362
3 357 362 363
3 346 355 365
3 343 364 355
3 342 365 364
3 355 364 365
3 343 353 367
3 337 366 353
3 344 367 366
3 353 366 367
3 339 368 370
3 345 369 368
3 340 370 369
3 368 369 370
3 339 370 372
3 340 371 370
3 338 372 371
3 370 371 372
3 339 372 374
3 338 373 372
3 342 374 373
3 372 373 374
3 339 374 376
3 342 375 374
3 344 376 375
3 374 375 376
3 339 376 368
3 344 377 376
3 345 368 377
3 376 377 368
3 340 369 361
3 345 358 369
3 341 361 358
3 369 358 361
3 338 371 363
3 340 360 371
3 347 363 360
3 371 360 363
3 342 373 365
3 338 362 373
3 346 365 362
3 373 362 365
3 344 375 367
3 342 364 375
3 343 367 364
3 375 364 367
3 345 377 359
3 344 366 377
3 337 359 366
3 377 366 359
3 378 390 392
3 389 391 390
3 383 392 391
3 390 391 392
3 378 392 394
3 383 393 392
3 379 394 393
3 392 393 394
3 378 394 396
3 379 395 394
3 385 396 395
3 394 395 396
3 378 396 398
3 385 397 396
3 388 398 397
3 396 397 398
3 378 398 390
3 388 399 398
3 389 390 399
3 398 399 390
3 379 393 401
3 383 400 393
3 387 401 400
3 393 400 401
3 383 391 403
3 389 402 391
3 382 403 402
3 391 402 403
3 389 399 405
3 388 404 399
3 380 405 404
3 399 404 405
3 388 397 407
3 385 406 397
3 384 407 406
3 397 406 407
3 385 395 409
3 379 408 395
3 386 409 408
3 395 408 409
3 381 410 412
3 387 411 410
3 382 412 411
3 410 411 412
3 381 412 414
3 382 413 412
3 380 414 413
3 412 413 414
3 381 414 416
3 380 415 414
3 384 416 415
3 414 415 416
3 381 416 418
3 384 417 416
3 386 418 417
3 416 417 418
3 381 418 410
3 386 419 418
3 387 410 419
3 418 419 410
3 382 411 403
3 387 400 411
3 383 403 400
3 411 400 403
3 380 413 405
3 382 402 413
3 389 405 402
3 413 402 405
3 384 415 407
3 380 404 415
3 388 407 404
3 415 404 407
3 386 417 409
3 384 406 417
3 385 409 406
3 417 406 409
3 387 419 401
3 386 408 419
3 379 401 408
3 419 408 401
3 420 432 434
3 431 433 432
3 425 434 433
3 432 433 434
3 420 434 436
3 425 435 434
3 421 436 435
3 434 435 436
3 420 436 438
3 421 437 436
3 427 438 437
3 436 437 438
3 420 438 440
3 427 439 438
3 430 440 439
3 438 439 440
3 420 440 432
3 430 441 440
3 431 432 441
3 440 441 432
3 421 435 443
3 425 442 435
3 429 443 442
3 435 442 443
3 425 433 445
3 431 444 433
3 424 445 444
3 433 444 445
3 431 441 447
3 430 446 441
3 422 447 446
3 441 446 447
3 430 439 449
3 427 448 439
3 426 449 448
3 439 448 449
3 427 437 451
3 421 450 437
3 428 451 450
3 437 450 451
3 423 452 454
3 429 453 452
3 424 454 453
3 452 453 454
3 423 454 456
3 424 455 454
3 422 456 455
3 454 455 456
3 423 456 458
3 422 457 456
3 426 458 457
3 456 457 458
3 423 458 460
3 426 459 458
3 428 460 459
3 458 459 460
3 423 460 452
3 428 461 460
3 429 452 461
3 460 461 452
3 424 453 445
3 429 442 453
3 425 445 442
3 453 442 445
3 422 455 447
3 424 444 455
3 431 447 444
3 455 444 447
3 426 457 449
3 422 446 457
3 430 449 446
3 457 446 449
3 428 459 451
3 426 448 459
3 427 451 448
3 459 448 451
3 429 461 443
3 428 450 461
3 421 443 450
3 461 450 443
3 462 474 476
3 473 475 474
3 467 476 475
3 474 475 476
3 462 476 478
3 467 477 476
3 463 478 477
3 476 477 478
3 462 478 480
3 463 479 478
3 469 480 479
3 478 479 480
3 462 480 482
3 469 481 480
3 472 482 481
3 480 481 482
3 462 482 474
3 472 483 482
3 473 474 483
3 482 483 474
3 463 477 485
3 467 484 477
3 471 485 484
3 477 484 485
3 467 475 487
3 473 486 475
3 466 487 486
3 475 486 487
3 473 483 489
3 472 488 483
3 464 489 488
3 483 488 489
3 472 481 491
3 469 490 481
3 468 491 490
3 481 490 491
3 469 479 493
3 463 492 479
3 470 493 492
3 479 492 493
3 465 494 496
3 471 495 494
3 466 496 495
3 494 495 496
3 465 496 498
3 466 497 496
3 464 498 497
3 496 497 498
3 465 498 500
3 464 499 498
3 468 500 499
3 498 499 500
3 465 500 502
3 468 501 500
3 470 502 501
3 500 501 502
3 465 502 494
3 470 503 502
3 471 494 503
3 502 503 494
3 466 495 487
3 471 484 495
3 467 487 484
3 495 484 487
3 464 497 489
3 466 486 497
3 473 489 486
3 497 486 489
3 468 499 491
3 464 488 499
3 472 491 488
3 499 488 491
3 470 501 493
3 468 490 501
3 469 493 490
3 501 490 493
3 471 503 485
3 470 492 503
3 463 485 492
3 503 492 485
3 504 516 518
3 515 517 516
3 509 518 517
3 516 517 518
3 504 518 520
3 509 519 518
3 505 520 519
3 518 519 520
3 504 520 522
3 505 521 520
3 511 522 521
3 520 521 522
3 504 522 524
3 511 523 522
3 514 524 523
3 522 523 524
3 504 524 516
3 514 525 524
3 515 516 525
3 524 525 516
3 505 519 527
3 509 526 519
3 513 527 526
3 519 526 527
3 509 517 529
3 515 528 517
3 508 529 528
3 517 528 529
3 515 525 531
3 514 530 525
3 506 531 530
3 525 530 531
3 514 523 533
3 511 532 523
3 510 533 532
3 523 532 533
3 511 521 535
3 505 534 521
3 512 535 534
3 521 534 535
3 507 536 538
3 513 537 536
3 508 538 537
3 536 537 538
3 507 538 540
3 508 539 538
3 506 540 539
3 538 539 540
3 507 540 542
3 506 541 540
3 510 542 541
3 540 541 542
3 507 542 544
3 510 543 542
3 512 544 543
3 542 543 544
3 507 544 536
3 512 545 544
3 513 536 545
3 544 545 536
3 508 537 529
3 513 526 537
3 509 529 526
3 537 526 529
3 506 539 531
3 508 528 539
3 515 531 528
3 539 528 531
3 510 541 533
3 506 530 541
3 514 533 530
3 541 530 533
3 512 543 535
3 510 532 543
3 511 535 532
3 543 532 535
3 513 545 527
3 512 534 545
3 505 527 534
3 545 534 527
