ply
format ascii 1.0
element vertex 546
property float x
property float y
property float z
property uchar red
property uchar green
property uchar blue
element face 1040
property list uchar int vertex_indices
end_header
-0.078845 0.021964 0.424162 255 0 0
-0.083959 0.022487 0.431298 255 0 0
-0.082325 -0.001228 0.423370 255 0 0
-0.087438 -0.000704 0.430506 255 0 0
-0.090116 0.004495 0.422786 255 0 0
-0.087966 0.018828 0.423276 255 0 0
-0.078318 0.002431 0.431392 255 0 0
-0.076168 0.016765 0.431881 255 0 0
-0.083633 0.010416 0.435766 255 0 0
-0.090925 0.011691 0.430447 255 0 0
-0.075359 0.009569 0.424220 255 0 0
-0.082650 0.010844 0.418901 255 0 0
-0.080328 0.017418 0.420513 255 0 0
-0.085688 0.015575 0.419992 255 0 0
-0.083452 0.022111 0.423084 255 0 0
-0.086458 0.022419 0.427278 255 0 0
-0.081097 0.024262 0.427799 255 0 0
-0.079523 0.021206 0.432337 255 0 0
-0.076517 0.020898 0.428142 255 0 0
-0.074468 0.013612 0.428177 255 0 0
-0.076042 0.016668 0.423639 255 0 0
-0.078279 0.010132 0.420547 255 0 0
-0.090552 0.016073 0.426778 255 0 0
-0.088197 0.018223 0.431494 255 0 0
-0.086952 0.007150 0.419704 255 0 0
-0.090076 0.011843 0.422275 255 0 0
-0.078087 0.003036 0.423174 255 0 0
-0.082373 0.003786 0.420047 255 0 0
-0.076207 0.009417 0.432392 255 0 0
-0.075732 0.005187 0.427889 255 0 0
-0.083911 0.017474 0.434620 255 0 0
-0.079332 0.014110 0.434963 255 0 0
-0.090242 0.004592 0.431028 255 0 0
-0.091816 0.007648 0.426491 255 0 0
-0.089766 0.000362 0.426525 255 0 0
-0.086761 0.000054 0.422331 255 0 0
-0.085187 -0.003002 0.426868 255 0 0
-0.079826 -0.001159 0.427389 255 0 0
-0.082832 -0.000851 0.431583 255 0 0
-0.080595 0.005685 0.434675 255 0 0
-0.085956 0.003842 0.434154 255 0 0
-0.088005 0.011128 0.434120 255 0 0
-0.161450 -0.055862 0.436586 255 0 0
-0.171396 -0.055051 0.444190 255 0 0
-0.164029 -0.075721 0.435330 255 0 0
-0.173975 -0.074910 0.442935 255 0 0
-0.172111 -0.070752 0.434579 255 0 0
-0.170517 -0.058479 0.435355 255 0 0
-0.164908 -0.072293 0.444165 255 0 0
-0.163314 -0.060020 0.444941 255 0 0
-0.173534 -0.065206 0.448875 255 0 0
-0.177985 -0.064254 0.442950 255 0 0
-0.157440 -0.066518 0.436570 255 0 0
-0.161891 -0.065566 0.430646 255 0 0
-0.160610 -0.059894 0.432537 255 0 0
-0.165940 -0.061431 0.431814 255 0 0
-0.165680 -0.055728 0.435305 255 0 0
-0.171526 -0.055251 0.439775 255 0 0
-0.166197 -0.053713 0.440498 255 0 0
-0.167292 -0.056157 0.445409 255 0 0
-0.161446 -0.056634 0.440940 255 0 0
-0.159089 -0.062898 0.440930 255 0 0
-0.157993 -0.060454 0.436019 255 0 0
-0.158253 -0.066157 0.432528 255 0 0
-0.175399 -0.060660 0.439046 255 0 0
-0.175916 -0.058646 0.444239 255 0 0
-0.166876 -0.068645 0.431358 255 0 0
-0.171946 -0.064480 0.434126 255 0 0
-0.159509 -0.072126 0.435281 255 0 0
-0.162126 -0.071566 0.431799 255 0 0
-0.163479 -0.066292 0.445395 255 0 0
-0.160026 -0.070112 0.440474 255 0 0
-0.173299 -0.059206 0.447721 255 0 0
-0.168549 -0.062126 0.448163 255 0 0
-0.177432 -0.070318 0.443501 255 0 0
-0.176336 -0.067874 0.438590 255 0 0
-0.173979 -0.074138 0.438581 255 0 0
-0.168133 -0.074614 0.434111 255 0 0
-0.169228 -0.077058 0.439022 255 0 0
-0.163899 -0.075520 0.439745 255 0 0
-0.169745 -0.075044 0.444215 255 0 0
-0.169485 -0.069340 0.447707 255 0 0
-0.174815 -0.070878 0.446983 255 0 0
-0.177172 -0.064615 0.446993 255 0 0
-0.166955 0.080961 0.438309 255 0 0
-0.177261 0.079995 0.446080 255 0 0
-0.164057 0.062083 0.439807 255 0 0
-0.174362 0.061117 0.447579 255 0 0
-0.173358 0.064266 0.438523 255 0 0
-0.175149 0.075933 0.437597 255 0 0
-0.166168 0.066145 0.448291 255 0 0
-0.167959 0.077812 0.447365 255 0 0
-0.176774 0.070839 0.452250 255 0 0
-0.181217 0.069677 0.446213 255 0 0
-0.160100 0.072401 0.439675 255 0 0
-0.164543 0.071239 0.433638 255 0 0
-0.164888 0.076989 0.434750 255 0 0
-0.169704 0.074033 0.434331 255 0 0
-0.171122 0.079747 0.437077 255 0 0
-0.177179 0.079180 0.441645 255 0 0
-0.172363 0.082135 0.442063 255 0 0
-0.172953 0.080285 0.447386 255 0 0
-0.166895 0.080852 0.442818 255 0 0
-0.162866 0.075821 0.443621 255 0 0
-0.162276 0.077671 0.438298 255 0 0
-0.160858 0.071957 0.435553 255 0 0
-0.179505 0.073115 0.441722 255 0 0
-0.180745 0.075503 0.446709 255 0 0
-0.168651 0.067176 0.434876 255 0 0
-0.174885 0.069934 0.437203 255 0 0
-0.160572 0.066575 0.439179 255 0 0
-0.163184 0.065893 0.435631 255 0 0
-0.166432 0.072144 0.448685 255 0 0
-0.161812 0.068963 0.444165 255 0 0
-0.178133 0.076186 0.450257 255 0 0
-0.172666 0.074903 0.451012 255 0 0
-0.179041 0.064407 0.447590 255 0 0
-0.178451 0.066257 0.442267 255 0 0
-0.174422 0.061226 0.443070 255 0 0
-0.168365 0.061793 0.438502 255 0 0
-0.168955 0.059943 0.443825 255 0 0
-0.164138 0.062898 0.444243 255 0 0
-0.170195 0.062331 0.448811 255 0 0
-0.171613 0.068045 0.451556 255 0 0
-0.176429 0.065089 0.451138 255 0 0
-0.180459 0.070121 0.450335 255 0 0
-0.142161 0.015916 0.433644 255 0 0
-0.152240 0.016992 0.441080 255 0 0
-0.144651 -0.003850 0.433130 255 0 0
-0.154730 -0.002774 0.440565 255 0 0
-0.152765 0.001038 0.432051 255 0 0
-0.151226 0.013253 0.432369 255 0 0
-0.145665 -0.000112 0.441841 255 0 0
-0.144126 0.012104 0.442159 255 0 0
-0.154406 0.007086 0.446146 255 0 0
-0.158794 0.007797 0.440095 255 0 0
-0.138097 0.005345 0.434115 255 0 0
-0.142485 0.006055 0.428064 255 0 0
-0.141248 0.011760 0.429757 255 0 0
-0.146576 0.010196 0.429007 255 0 0
-0.146385 0.015991 0.432287 255 0 0
-0.152310 0.016624 0.436658 255 0 0
-0.146982 0.018189 0.437407 255 0 0
-0.148137 0.015948 0.442412 255 0 0
-0.142212 0.015316 0.438041 255 0 0
-0.139824 0.009103 0.438318 255 0 0
-0.138669 0.011343 0.433313 255 0 0
-0.138859 0.005547 0.430033 255 0 0
-0.156162 0.011219 0.436079 255 0 0
-0.156758 0.013417 0.441199 255 0 0
-0.147481 0.003015 0.428820 255 0 0
-0.152618 0.007246 0.431351 255 0 0
-0.140132 -0.000275 0.433011 255 0 0
-0.142711 0.000142 0.429454 255 0 0
-0.144272 0.005895 0.442859 255 0 0
-0.140729 0.001922 0.438131 255 0 0
-0.154179 0.012999 0.444756 255 0 0
-0.149410 0.010126 0.445390 255 0 0
-0.158222 0.001799 0.440897 255 0 0
-0.157067 0.004039 0.435892 255 0 0
-0.154678 -0.002174 0.436168 255 0 0
-0.148754 -0.002807 0.431798 255 0 0
-0.149909 -0.005047 0.436802 255 0 0
-0.144581 -0.003482 0.437552 255 0 0
-0.150505 -0.002850 0.441923 255 0 0
-0.150315 0.002946 0.445203 255 0 0
-0.155643 0.001381 0.444453 255 0 0
-0.158031 0.007594 0.444177 255 0 0
0.033438 -0.060341 0.436580 255 0 0
0.027933 -0.061503 0.441507 255 0 0
0.034437 -0.079914 0.433078 255 0 0
0.028932 -0.081077 0.438005 255 0 0
0.024595 -0.075772 0.428735 255 0 0
0.023977 -0.063675 0.430900 255 0 0
0.038392 -0.077742 0.443685 255 0 0
0.037775 -0.065645 0.445850 255 0 0
0.030995 -0.072258 0.445899 255 0 0
0.022467 -0.071040 0.436659 255 0 0
0.039902 -0.070377 0.437926 255 0 0
0.031374 -0.069159 0.428686 255 0 0
0.032620 -0.063704 0.431815 255 0 0
0.027060 -0.065664 0.428476 255 0 0
0.028272 -0.060480 0.433116 255 0 0
0.025037 -0.061163 0.436012 255 0 0
0.030597 -0.059203 0.439351 255 0 0
0.033147 -0.062321 0.444800 255 0 0
0.036382 -0.061638 0.441903 255 0 0
0.040182 -0.067538 0.442695 255 0 0
0.037633 -0.064419 0.437246 255 0 0
0.036420 -0.069603 0.432606 255 0 0
0.021824 -0.066769 0.433162 255 0 0
0.024149 -0.065493 0.439397 255 0 0
0.027423 -0.072774 0.427204 255 0 0
0.023075 -0.069550 0.428505 255 0 0
0.038220 -0.075925 0.435188 255 0 0
0.033208 -0.075209 0.429757 255 0 0
0.039295 -0.071867 0.446080 255 0 0
0.040545 -0.074648 0.441423 255 0 0
0.029162 -0.066208 0.444828 255 0 0
0.034946 -0.068643 0.447381 255 0 0
0.024736 -0.076998 0.437339 255 0 0
0.022187 -0.073880 0.431890 255 0 0
0.025987 -0.079779 0.432682 255 0 0
0.029223 -0.079096 0.429786 255 0 0
0.031772 -0.082214 0.435234 255 0 0
0.037332 -0.080254 0.438573 255 0 0
0.034097 -0.080937 0.441469 255 0 0
0.035309 -0.075754 0.446109 255 0 0
0.029749 -0.077713 0.442770 255 0 0
0.025949 -0.071814 0.441979 255 0 0
-0.105585 -0.048426 0.418004 255 0 0
-0.113918 -0.049695 0.424135 255 0 0
-0.105605 -0.069924 0.413525 255 0 0
-0.113938 -0.071194 0.419655 255 0 0
-0.113761 -0.065365 0.412243 255 0 0
-0.113749 -0.052079 0.415011 255 0 0
-0.105774 -0.067541 0.422648 255 0 0
-0.105762 -0.054254 0.425417 255 0 0
-0.114035 -0.061509 0.427005 255 0 0
-0.118971 -0.060165 0.420574 255 0 0
-0.100552 -0.059455 0.417085 255 0 0
-0.105488 -0.058110 0.410654 255 0 0
-0.104795 -0.052120 0.413539 255 0 0
-0.109593 -0.054267 0.411780 255 0 0
-0.109650 -0.048574 0.416100 255 0 0
-0.114548 -0.049320 0.419703 255 0 0
-0.109750 -0.047173 0.421463 255 0 0
-0.109853 -0.050599 0.425820 255 0 0
-0.104956 -0.049853 0.422216 255 0 0
-0.101997 -0.056336 0.421676 255 0 0
-0.101893 -0.052910 0.417319 255 0 0
-0.101837 -0.058603 0.412999 255 0 0
-0.117518 -0.055474 0.417610 255 0 0
-0.117618 -0.054073 0.422973 255 0 0
-0.109601 -0.062076 0.410153 255 0 0
-0.114456 -0.058531 0.412713 255 0 0
-0.101905 -0.065547 0.414686 255 0 0
-0.104807 -0.064756 0.410906 255 0 0
-0.105067 -0.061089 0.424946 255 0 0
-0.102005 -0.064146 0.420049 255 0 0
-0.114716 -0.054864 0.426753 255 0 0
-0.109922 -0.057543 0.427507 255 0 0
-0.117630 -0.066710 0.420340 255 0 0
-0.117526 -0.063284 0.415983 255 0 0
-0.114568 -0.069767 0.415443 255 0 0
-0.109670 -0.069020 0.411840 255 0 0
-0.109774 -0.072446 0.416197 255 0 0
-0.104975 -0.070299 0.417956 255 0 0
-0.109873 -0.071046 0.421559 255 0 0
-0.109930 -0.065353 0.425879 255 0 0
-0.114728 -0.067500 0.424120 255 0 0
-0.117687 -0.061017 0.424660 255 0 0
0.039786 0.079080 0.433332 255 0 0
0.035089 0.080243 0.438886 255 0 0
0.037286 0.059111 0.435400 255 0 0
0.032588 0.060275 0.440955 255 0 0
0.027652 0.063793 0.431157 255 0 0
0.029197 0.076134 0.429879 255 0 0
0.043177 0.063221 0.444408 255 0 0
0.044723 0.075562 0.443129 255 0 0
0.037184 0.070442 0.445732 255 0 0
0.027589 0.070795 0.437543 255 0 0
0.044786 0.068559 0.436744 255 0 0
0.035190 0.068913 0.428555 255 0 0
0.037717 0.074754 0.429855 255 0 0
0.031492 0.073023 0.427825 255 0 0
0.034194 0.078999 0.430633 255 0 0
0.031433 0.079683 0.433898 255 0 0
0.037657 0.081414 0.435928 255 0 0
0.040559 0.079347 0.441686 255 0 0
0.043320 0.078663 0.438421 255 0 0
0.046258 0.072479 0.440427 255 0 0
0.043357 0.074547 0.434668 255 0 0
0.040655 0.068571 0.431861 255 0 0
0.027025 0.074129 0.433108 255 0 0
0.030488 0.076545 0.438403 255 0 0
0.030584 0.065769 0.428577 255 0 0
0.027061 0.070013 0.429355 255 0 0
0.041887 0.062810 0.435884 255 0 0
0.036247 0.063017 0.431071 255 0 0
0.045313 0.069341 0.444932 255 0 0
0.045350 0.065225 0.441179 255 0 0
0.036128 0.076337 0.443216 255 0 0
0.041790 0.073586 0.445710 255 0 0
0.029018 0.064808 0.439618 255 0 0
0.026116 0.066876 0.433859 255 0 0
0.029055 0.060692 0.435865 255 0 0
0.031816 0.060008 0.432600 255 0 0
0.034717 0.057940 0.438359 255 0 0
0.040942 0.059672 0.440389 255 0 0
0.038180 0.060356 0.443654 255 0 0
0.040882 0.066332 0.446461 255 0 0
0.034658 0.064600 0.444432 255 0 0
0.031719 0.070784 0.442426 255 0 0
-0.006835 -0.047545 0.412754 255 0 0
-0.012637 -0.048115 0.419264 255 0 0
-0.008482 -0.070233 0.409301 255 0 0
-0.014284 -0.070803 0.415811 255 0 0
-0.016702 -0.065027 0.408297 255 0 0
-0.015684 -0.051005 0.410431 255 0 0
-0.005435 -0.067343 0.418134 255 0 0
-0.004417 -0.053321 0.420268 255 0 0
-0.011772 -0.060350 0.422590 255 0 0
-0.018735 -0.058919 0.416510 255 0 0
-0.002384 -0.059428 0.412055 255 0 0
-0.009347 -0.057998 0.405975 255 0 0
-0.007657 -0.051647 0.408501 255 0 0
-0.012859 -0.053681 0.407136 255 0 0
-0.011382 -0.047537 0.411120 255 0 0
-0.014792 -0.047872 0.414947 255 0 0
-0.009591 -0.045838 0.416312 255 0 0
-0.008170 -0.049233 0.420729 255 0 0
-0.004760 -0.048898 0.416902 255 0 0
-0.002144 -0.055883 0.416492 255 0 0
-0.003565 -0.052488 0.412075 255 0 0
-0.005041 -0.058632 0.408090 255 0 0
-0.018377 -0.054223 0.413328 255 0 0
-0.016586 -0.052524 0.418520 255 0 0
-0.013457 -0.061923 0.405881 255 0 0
-0.017182 -0.057813 0.408500 255 0 0
-0.004533 -0.065824 0.410045 255 0 0
-0.008626 -0.064983 0.406471 255 0 0
-0.003937 -0.060535 0.420065 255 0 0
-0.002742 -0.064125 0.415237 255 0 0
-0.012493 -0.053365 0.422094 255 0 0
-0.007662 -0.056425 0.422684 255 0 0
-0.017554 -0.065860 0.416490 255 0 0
-0.018975 -0.062465 0.412073 255 0 0
-0.016359 -0.069450 0.411663 255 0 0
-0.012949 -0.069115 0.407836 255 0 0
-0.011528 -0.072510 0.412253 255 0 0
-0.006326 -0.070476 0.413618 255 0 0
-0.009737 -0.070811 0.417445 255 0 0
-0.008260 -0.064667 0.421429 255 0 0
-0.013461 -0.066701 0.420064 255 0 0
-0.016077 -0.059716 0.420475 255 0 0
0.037308 0.002047 0.453853 255 0 0
0.031280 0.002326 0.458467 255 0 0
0.037888 -0.017628 0.455800 255 0 0
0.031860 -0.017349 0.460414 255 0 0
0.028608 -0.014702 0.449751 255 0 0
0.028249 -0.002542 0.448548 255 0 0
0.040919 -0.012760 0.465719 255 0 0
0.040560 -0.000600 0.464516 255 0 0
0.033512 -0.006825 0.465800 255 0 0
0.025903 -0.008026 0.455932 255 0 0
0.043265 -0.007276 0.458335 255 0 0
0.035656 -0.008477 0.448467 255 0 0
0.036816 -0.002436 0.450111 255 0 0
0.031491 -0.005134 0.446993 255 0 0
0.032462 0.001052 0.450159 255 0 0
0.028919 0.001216 0.452871 255 0 0
0.034243 0.003914 0.455989 255 0 0
0.036155 0.002358 0.462256 255 0 0
0.039698 0.002194 0.459544 255 0 0
0.043199 -0.003286 0.462179 255 0 0
0.041288 -0.001730 0.455912 255 0 0
0.040317 -0.007916 0.452746 255 0 0
0.025758 -0.004868 0.451381 255 0 0
0.027539 -0.002007 0.457211 255 0 0
0.031702 -0.012281 0.447700 255 0 0
0.027348 -0.008793 0.447748 255 0 0
0.041629 -0.013295 0.457056 255 0 0
0.037156 -0.014001 0.451255 255 0 0
0.041820 -0.006509 0.466519 255 0 0
0.043410 -0.010433 0.462886 255 0 0
0.032012 -0.001301 0.463011 255 0 0
0.037466 -0.003021 0.466567 255 0 0
0.027880 -0.013572 0.458355 255 0 0
0.025969 -0.012016 0.452088 255 0 0
0.029470 -0.017496 0.454722 255 0 0
0.033013 -0.017660 0.452010 255 0 0
0.034925 -0.019216 0.458278 255 0 0
0.040249 -0.016518 0.461396 255 0 0
0.036706 -0.016354 0.464108 255 0 0
0.037677 -0.010168 0.467274 255 0 0
0.032352 -0.012866 0.464156 255 0 0
0.028851 -0.007386 0.461521 255 0 0
-0.048799 -0.033555 0.403238 255 0 0
-0.054119 -0.033639 0.410121 255 0 0
-0.051658 -0.057744 0.400732 255 0 0
-0.056979 -0.057828 0.407615 255 0 0
-0.059362 -0.052060 0.400345 255 0 0
-0.057595 -0.037110 0.401894 255 0 0
-0.048183 -0.054274 0.408959 255 0 0
-0.046415 -0.039324 0.410508 255 0 0
-0.053738 -0.046444 0.413657 255 0 0
-0.060648 -0.045076 0.408333 255 0 0
-0.045130 -0.046308 0.402520 255 0 0
-0.052039 -0.044940 0.397196 255 0 0
-0.049985 -0.038116 0.399303 255 0 0
-0.055156 -0.040205 0.398513 255 0 0
-0.053251 -0.033514 0.402064 255 0 0
-0.056378 -0.033563 0.406110 255 0 0
-0.051208 -0.031474 0.406900 255 0 0
-0.049807 -0.034864 0.411173 255 0 0
-0.046680 -0.034815 0.407127 255 0 0
-0.044523 -0.042311 0.406705 255 0 0
-0.045924 -0.038920 0.402432 255 0 0
-0.047829 -0.045612 0.398880 255 0 0
-0.060215 -0.040285 0.405059 255 0 0
-0.058172 -0.038245 0.409895 255 0 0
-0.056194 -0.048993 0.397602 255 0 0
-0.059460 -0.044390 0.400364 255 0 0
-0.047605 -0.053138 0.400959 255 0 0
-0.051666 -0.052334 0.397830 255 0 0
-0.046317 -0.046993 0.410490 255 0 0
-0.045562 -0.051098 0.405795 255 0 0
-0.054111 -0.039050 0.413024 255 0 0
-0.049583 -0.042391 0.413251 255 0 0
-0.059853 -0.052463 0.408422 255 0 0
-0.061254 -0.049073 0.404148 255 0 0
-0.059098 -0.056569 0.403726 255 0 0
-0.055971 -0.056519 0.399681 255 0 0
-0.054570 -0.059910 0.403954 255 0 0
-0.049399 -0.057820 0.404744 255 0 0
-0.052526 -0.057870 0.408790 255 0 0
-0.050622 -0.051178 0.412341 255 0 0
-0.055792 -0.053268 0.411551 255 0 0
-0.057949 -0.045772 0.411973 255 0 0
-0.100922 0.079095 0.419370 255 0 0
-0.110953 0.078169 0.426803 255 0 0
-0.097981 0.059464 0.420895 255 0 0
-0.108012 0.058539 0.428327 255 0 0
-0.107098 0.061841 0.419429 255 0 0
-0.108916 0.073973 0.418487 255 0 0
-0.100018 0.063661 0.429211 255 0 0
-0.101836 0.075793 0.428269 255 0 0
-0.110394 0.068631 0.432885 255 0 0
-0.114770 0.067505 0.426839 255 0 0
-0.094164 0.070128 0.420858 255 0 0
-0.098540 0.069003 0.414813 255 0 0
-0.098900 0.074967 0.415905 255 0 0
-0.103598 0.071957 0.415386 255 0 0
-0.104998 0.077889 0.418065 255 0 0
-0.110894 0.077344 0.422434 255 0 0
-0.106196 0.080355 0.422953 255 0 0
-0.106733 0.078414 0.428183 255 0 0
-0.100837 0.078958 0.423814 255 0 0
-0.096865 0.073688 0.424689 255 0 0
-0.096328 0.075629 0.419459 255 0 0
-0.094927 0.069697 0.416780 255 0 0
-0.113138 0.071077 0.422455 255 0 0
-0.114335 0.073543 0.427343 255 0 0
-0.102530 0.064826 0.415940 255 0 0
-0.108629 0.067747 0.418099 255 0 0
-0.094599 0.064090 0.420355 255 0 0
-0.097171 0.063429 0.416801 255 0 0
-0.100306 0.069887 0.429598 255 0 0
-0.095796 0.066557 0.425243 255 0 0
-0.111763 0.074204 0.430896 255 0 0
-0.106405 0.072808 0.431758 255 0 0
-0.112607 0.062005 0.428239 255 0 0
-0.112070 0.063945 0.423009 255 0 0
-0.108097 0.058675 0.423883 255 0 0
-0.102201 0.059219 0.419515 255 0 0
-0.102739 0.057278 0.424745 255 0 0
-0.098040 0.060289 0.425264 255 0 0
-0.103936 0.059745 0.429633 255 0 0
-0.105336 0.065677 0.432312 255 0 0
-0.110035 0.062666 0.431792 255 0 0
-0.114007 0.067937 0.430918 255 0 0
-0.012441 0.026456 0.415893 255 0 0
-0.018336 0.025945 0.421901 255 0 0
-0.011842 0.005014 0.414660 255 0 0
-0.017737 0.004504 0.420668 255 0 0
-0.020905 0.009024 0.412026 255 0 0
-0.021276 0.022276 0.412788 255 0 0
-0.008903 0.008684 0.423773 255 0 0
-0.009273 0.021935 0.424535 255 0 0
-0.016150 0.014962 0.426771 255 0 0
-0.023567 0.015172 0.419511 255 0 0
-0.006611 0.015788 0.417050 255 0 0
-0.014029 0.015998 0.409790 255 0 0
-0.012910 0.022236 0.411886 255 0 0
-0.018102 0.019779 0.410061 255 0 0
-0.017169 0.025926 0.413649 255 0 0
-0.020634 0.025626 0.417180 255 0 0
-0.015441 0.028083 0.419005 255 0 0
-0.013579 0.025426 0.424085 255 0 0
-0.010114 0.025726 0.420554 255 0 0
-0.006687 0.019455 0.421234 255 0 0
-0.008549 0.022112 0.416154 255 0 0
-0.009483 0.015965 0.412567 255 0 0
-0.023709 0.019294 0.415775 255 0 0
-0.021981 0.021451 0.421132 255 0 0
-0.017885 0.011990 0.409613 255 0 0
-0.022144 0.015680 0.411375 255 0 0
-0.008197 0.009509 0.415429 255 0 0
-0.012557 0.009633 0.411162 255 0 0
-0.008035 0.015280 0.425186 255 0 0
-0.006470 0.011666 0.420786 255 0 0
-0.017621 0.021327 0.425400 255 0 0
-0.012294 0.018970 0.426948 255 0 0
-0.021629 0.008848 0.420407 255 0 0
-0.023491 0.011505 0.415327 255 0 0
-0.020064 0.005234 0.416007 255 0 0
-0.016599 0.005534 0.412476 255 0 0
-0.014737 0.002877 0.417556 255 0 0
-0.009544 0.005334 0.419381 255 0 0
-0.013010 0.005034 0.422912 255 0 0
-0.012076 0.011181 0.426500 255 0 0
-0.017269 0.008724 0.424675 255 0 0
-0.020696 0.014995 0.423995 255 0 0
-0.030005 0.078602 0.412355 255 0 0
-0.034531 0.079854 0.418946 255 0 0
-0.032768 0.058799 0.414219 255 0 0
-0.037294 0.060051 0.420811 255 0 0
-0.042157 0.063770 0.411796 255 0 0
-0.040450 0.076009 0.410644 255 0 0
-0.026849 0.062644 0.422522 255 0 0
-0.025141 0.074883 0.421369 255 0 0
-0.032580 0.069991 0.425230 255 0 0
-0.042042 0.070687 0.418601 255 0 0
-0.025257 0.067966 0.414564 255 0 0
-0.034718 0.068661 0.407936 255 0 0
-0.032136 0.074388 0.409015 255 0 0
-0.038275 0.072863 0.408009 255 0 0
-0.035505 0.078706 0.410607 255 0 0
-0.038165 0.079442 0.414481 255 0 0
-0.032026 0.080966 0.415487 255 0 0
-0.029167 0.078780 0.420785 255 0 0
-0.026506 0.078044 0.416911 255 0 0
-0.023716 0.071793 0.418210 255 0 0
-0.026574 0.073979 0.412911 255 0 0
-0.029345 0.068136 0.410314 255 0 0
-0.042580 0.074054 0.414278 255 0 0
-0.039100 0.076314 0.419158 255 0 0
-0.039279 0.065670 0.408687 255 0 0
-0.042648 0.069988 0.410278 255 0 0
-0.028198 0.062339 0.414007 255 0 0
-0.033760 0.062748 0.410111 255 0 0
-0.024651 0.068665 0.422887 255 0 0
-0.024719 0.064599 0.418887 255 0 0
-0.033539 0.075905 0.423054 255 0 0
-0.028020 0.072983 0.424479 255 0 0
-0.040724 0.064674 0.420254 255 0 0
-0.043583 0.066860 0.414955 255 0 0
-0.040792 0.060608 0.416254 255 0 0
-0.038132 0.059872 0.412380 255 0 0
-0.035273 0.057687 0.417678 255 0 0
-0.029134 0.059211 0.418684 255 0 0
-0.031794 0.059947 0.422559 255 0 0
-0.029024 0.065789 0.425156 255 0 0
-0.035163 0.064265 0.424150 255 0 0
-0.037954 0.070517 0.422851 255 0 0
3 0 12 14
3 11 13 12
3 5 14 13
3 12 13 14
3 0 14 16
3 5 15 14
3 1 16 15
3 14 15 16
3 0 16 18
3 1 17 16
3 7 18 17
3 16 17 18
3 0 18 20
3 7 19 18
3 10 20 19
3 18 19 20
3 0 20 12
3 10 21 20
3 11 12 21
3 20 21 12
3 1 15 23
3 5 22 15
3 9 23 22
3 15 22 23
3 5 13 25
3 11 24 13
3 4 25 24
3 13 24 25
3 11 21 27
3 10 26 21
3 2 27 26
3 21 26 27
3 10 19 29
3 7 28 19
3 6 29 28
3 19 28 29
3 7 17 31
3 1 30 17
3 8 31 30
3 17 30 31
3 3 32 34
3 9 33 32
3 4 34 33
3 32 33 34
3 3 34 36
3 4 35 34
3 2 36 35
3 34 35 36
3 3 36 38
3 2 37 36
3 6 38 37
3 36 37 38
3 3 38 40
3 6 39 38
3 8 40 39
3 38 39 40
3 3 40 32
3 8 41 40
3 9 32 41
3 40 41 32
3 4 33 25
3 9 22 33
3 5 25 22
3 33 22 25
3 2 35 27
3 4 24 35
3 11 27 24
3 35 24 27
3 6 37 29
3 2 26 37
3 10 29 26
3 37 26 29
3 8 39 31
3 6 28 39
3 7 31 28
3 39 28 31
3 9 41 23
3 8 30 41
3 1 23 30
3 41 30 23
3 42 54 56
3 53 55 54
3 47 56 55
3 54 55 56
3 42 56 58
3 47 57 56
3 43 58 57
3 56 57 58
3 42 58 60
3 43 59 58
3 49 60 59
3 58 59 60
3 42 60 62
3 49 61 60
3 52 62 61
3 60 61 62
3 42 62 54
3 52 63 62
3 53 54 63
3 62 63 54
3 43 57 65
3 47 64 57
3 51 65 64
3 57 64 65
3 47 55 67
3 53 66 55
3 46 67 66
3 55 66 67
3 53 63 69
3 52 68 63
3 44 69 68
3 63 68 69
3 52 61 71
3 49 70 61
3 48 71 70
3 61 70 71
3 49 59 73
3 43 72 59
3 50 73 72
3 59 72 73
3 45 74 76
3 51 75 74
3 46 76 75
3 74 75 76
3 45 76 78
3 46 77 76
3 44 78 77
3 76 77 78
3 45 78 80
3 44 79 78
3 48 80 79
3 78 79 80
3 45 80 82
3 48 81 80
3 50 82 81
3 80 81 82
3 45 82 74
3 50 83 82
3 51 74 83
3 82 83 74
3 46 75 67
3 51 64 75
3 47 67 64
3 75 64 67
3 44 77 69
3 46 66 77
3 53 69 66
3 77 66 69
3 48 79 71
3 44 68 79
3 52 71 68
3 79 68 71
3 50 81 73
3 48 70 81
3 49 73 70
3 81 70 73
3 51 83 65
3 50 72 83
3 43 65 72
3 83 72 65
3 84 96 98
3 95 97 96
3 89 98 97
3 96 97 98
3 84 98 100
3 89 99 98
3 85 100 99
3 98 99 100
3 84 100 102
3 85 101 100
3 91 102 101
3 100 101 102
3 84 102 104
3 91 103 102
3 94 104 103
3 102 103 104
3 84 104 96
3 94 105 104
3 95 96 105
3 104 105 96
3 85 99 107
3 89 106 99
3 93 107 106
3 99 106 107
3 89 97 109
3 95 108 97
3 88 109 108
3 97 108 109
3 95 105 111
3 94 110 105
3 86 111 110
3 105 110 111
3 94 103 113
3 91 112 103
3 90 113 112
3 103 112 113
3 91 101 115
3 85 114 101
3 92 115 114
3 101 114 115
3 87 116 118
3 93 117 116
3 88 118 117
3 116 117 118
3 87 118 120
3 88 119 118
3 86 120 119
3 118 119 120
3 87 120 122
3 86 121 120
3 90 122 121
3 120 121 122
3 87 122 124
3 90 123 122
3 92 124 123
3 122 123 124
3 87 124 116
3 92 125 124
3 93 116 125
3 124 125 116
3 88 117 109
3 93 106 117
3 89 109 106
3 117 106 109
3 86 119 111
3 88 108 119
3 95 111 108
3 119 108 111
3 90 121 113
3 86 110 121
3 94 113 110
3 121 110 113
3 92 123 115
3 90 112 123
3 91 115 112
3 123 112 115
3 93 125 107
3 92 114 125
3 85 107 114
3 125 114 107
3 126 138 140
3 137 139 138
3 131 140 139
3 138 139 140
3 126 140 142
3 131 141 140
3 127 142 141
3 140 141 142
3 126 142 144
3 127 143 142
3 133 144 143
3 142 143 144
3 126 144 146
3 133 145 144
3 136 146 145
3 144 145 146
3 126 146 138
3 136 147 146
3 137 138 147
3 146 147 138
3 127 141 149
3 131 148 141
3 135 149 148
3 141 148 149
3 131 139 151
3 137 150 139
3 130 151 150
3 139 150 151
3 137 147 153
3 136 152 147
3 128 153 152
3 147 152 153
3 136 145 155
3 133 154 145
3 132 155 154
3 145 154 155
3 133 143 157
3 127 156 143
3 134 157 156
3 143 156 157
3 129 158 160
3 135 159 158
3 130 160 159
3 158 159 160
3 129 160 162
3 130 161 160
3 128 162 161
3 160 161 162
3 129 162 164
3 128 163 162
3 132 164 163
3 162 163 164
3 129 164 166
3 132 165 164
3 134 166 165
3 164 165 166
3 129 166 158
3 134 167 166
3 135 158 167
3 166 167 158
3 130 159 151
3 135 148 159
3 131 151 148
3 159 148 151
3 128 161 153
3 130 150 161
3 137 153 150
3 161 150 153
3 132 163 155
3 128 152 163
3 136 155 152
3 163 152 155
3 134 165 157
3 132 154 165
3 133 157 154
3 165 154 157
3 135 167 149
3 134 156 167
3 127 149 156
3 167 156 149
3 168 180 182
3 179 181 180
3 173 182 181
3 180 181 182
3 168 182 184
3 173 183 182
3 169 184 183
3 182 183 184
3 168 184 186
3 169 185 184
3 175 186 185
3 184 185 186
3 168 186 188
3 175 187 186
3 178 188 187
3 186 187 188
3 168 188 180
3 178 189 188
3 179 180 189
3 188 189 180
3 169 183 191
3 173 190 183
3 177 191 190
3 183 190 191
3 173 181 193
3 179 192 181
3 172 193 192
3 181 192 193
3 179 189 195
3 178 194 189
3 170 195 194
3 189 194 195
3 178 187 197
3 175 196 187
3 174 197 196
3 187 196 197
3 175 185 199
3 169 198 185
3 176 199 198
3 185 198 199
3 171 200 202
3 177 201 200
3 172 202 201
3 200 201 202
3 171 202 204
3 172 203 202
3 170 204 203
3 202 203 204
3 171 204 206
3 170 205 204
3 174 206 205
3 204 205 206
3 171 206 208
3 174 207 206
3 176 208 207
3 206 207 208
3 171 208 200
3 176 209 208
3 177 200 209
3 208 209 200
3 172 201 193
3 177 190 201
3 173 193 190
3 201 190 193
3 170 203 195
3 172 192 203
3 179 195 192
3 203 192 195
3 174 205 197
3 170 194 205
3 178 197 194
3 205 194 197
3 176 207 199
3 174 196 207
3 175 199 196
3 207 196 199
3 177 209 191
3 176 198 209
3 169 191 198
3 209 198 191
3 210 222 224
3 221 223 222
3 215 224 223
3 222 223 224
3 210 224 226
3 215 225 224
3 211 226 225
3 224 225 226
3 210 226 228
3 211 227 226
3 217 228 227
3 226 227 228
3 210 228 230
3 217 229 228
3 220 230 229
3 228 229 230
3 210 230 222
3 220 231 230
3 221 222 231
3 230 231 222
3 211 225 233
3 215 232 225
3 219 233 232
3 225 232 233
3 215 223 235
3 221 234 223
3 214 235 234
3 223 234 235
3 221 231 237
3 220 236 231
3 212 237 236
3 231 236 237
3 220 229 239
3 217 238 229
3 216 239 238
3 229 238 239
3 217 227 241
3 211 240 227
3 218 241 240
3 227 240 241
3 213 242 244
3 219 243 242
3 214 244 243
3 242 243 244
3 213 244 246
3 214 245 244
3 212 246 245
3 244 245 246
3 213 246 248
3 212 247 246
3 216 248 247
3 246 247 248
3 213 248 250
3 216 249 248
3 218 250 249
3 248 249 250
3 213 250 242
3 218 251 250
3 219 242 251
3 250 251 242
3 214 243 235
3 219 232 243
3 215 235 232
3 243 232 235
3 212 245 237
3 214 234 245
3 221 237 234
3 245 234 237
3 216 247 239
3 212 236 247
3 220 239 236
3 247 236 239
3 218 249 241
3 216 238 249
3 217 241 238
3 249 238 241
3 219 251 233
3 218 240 251
3 211 233 240
3 251 240 233
3 252 264 266
3 263 265 264
3 257 266 265
3 264 265 266
3 252 266 268
3 257 267 266
3 253 268 267
3 266 267 268
3 252 268 270
3 253 269 268
3 259 270 269
3 268 269 270
3 252 270 272
3 259 271 270
3 262 272 271
3 270 271 272
3 252 272 264
3 262 273 272
3 263 264 273
3 272 273 264
3 253 267 275
3 257 274 267
3 261 275 274
3 267 274 275
3 257 265 277
3 263 276 265
3 256 277 276
3 265 276 277
3 263 273 279
3 262 278 273
3 254 279 278
3 273 278 279
3 262 271 281
3 259 280 271
3 258 281 280
3 271 280 281
3 259 269 283
3 253 282 269
3 260 283 282
3 269 282 283
3 255 284 286
3 261 285 284
3 256 286 285
3 284 285 286
3 255 286 288
3 256 287 286
3 254 288 287
3 286 287 288
3 255 288 290
3 254 289 288
3 258 290 289
3 288 289 290
3 255 290 292
3 258 291 290
3 260 292 291
3 290 291 292
3 255 292 284
3 260 293 292
3 261 284 293
3 292 293 284
3 256 285 277
3 261 274 285
3 257 277 274
3 285 274 277
3 254 287 279
3 256 276 287
3 263 279 276
3 287 276 279
3 258 289 281
3 254 278 289
3 262 281 278
3 289 278 281
3 260 291 283
3 258 280 291
3 259 283 280
3 291 280 283
3 261 293 275
3 260 282 293
3 253 275 282
3 293 282 275
3 294 306 308
3 305 307 306
3 299 308 307
3 306 307 308
3 294 308 310
3 299 309 308
3 295 310 309
3 308 309 310
3 294 310 312
3 295 311 310
3 301 312 311
3 310 311 312
3 294 312 314
3 301 313 312
3 304 314 313
3 312 313 314
3 294 314 306
3 304 315 314
3 305 306 315
3 314 315 306
3 295 309 317
3 299 316 309
3 303 317 316
3 309 316 317
3 299 307 319
3 305 318 307
3 298 319 318
3 307 318 319
3 305 315 321
3 304 320 315
3 296 321 320
3 315 320 321
3 304 313 323
3 301 322 313
3 300 323 322
3 313 322 323
3 301 311 325
3 295 324 311
3 302 325 324
3 311 324 325
3 297 326 328
3 303 327 326
3 298 328 327
3 326 327 328
3 297 328 330
3 298 329 328
3 296 330 329
3 328 329 330
3 297 330 332
3 296 331 330
3 300 332 331
3 330 331 332
3 297 332 334
3 300 333 332
3 302 334 333
3 332 333 334
3 297 334 326
3 302 335 334
3 303 326 335
3 334 335 326
3 298 327 319
3 303 316 327
3 299 319 316
3 327 316 319
3 296 329 321
3 298 318 329
3 305 321 318
3 329 318 321
3 300 331 323
3 296 320 331
3 304 323 320
3 331 320 323
3 302 333 325
3 300 322 333
3 301 325 322
3 333 322 325
3 303 335 317
3 302 324 335
3 295 317 324
3 335 324 317
3 336 348 350
3 347 349 348
3 341 350 349
3 348 349 350
3 336 350 352
3 341 351 350
3 337 352 351
3 350 351 352
3 336 352 354
3 337 353 352
3 343 354 353
3 352 353 354
3 336 354 356
3 343 355 354
3 346 356 355
3 354 355 356
3 336 356 348
3 346 357 356
3 347 348 357
3 356 357 348
3 337 351 359
3 341 358 351
3 345 359 358
3 351 358 359
3 341 349 361
3 347 360 349
3 340 361 360
3 349 360 361
3 347 357 363
3 346 362 357
3 338 363 362
3 357 362 363
3 346 355 365
3 343 364 355
3 342 365 364
3 355 364 365
3 343 353 367
3 337 366 353
3 344 367 366
3 353 366 367
3 339 368 370
3 345 369 368
3 340 370 369
3 368 369 370
3 339 370 372
3 340 371 370
3 338 372 371
3 370 371 372
3 339 372 374
3 338 373 372
3 342 374 373
3 372 373 374
3 339 374 376
3 342 375 374
3 344 376 375
3 374 375 376
3 339 376 368
3 344 377 376
3 345 368 377
3 376 377 368
3 340 369 361
3 345 358 369
3 341 361 358
3 369 358 361
3 338 371 363
3 340 360 371
3 347 363 360
3 371 360 363
3 342 373 365
3 338 362 373
3 346 365 362
3 373 362 365
3 344 375 367
3 342 364 375
3 343 367 364
3 375 364 367
3 345 377 359
3 344 366 377
3 337 359 366
3 377 366 359
3 378 390 392
3 389 391 390
3 383 392 391
3 390 391 392
3 378 392 394
3 383 393 392
3 379 394 393
3 392 393 394
3 378 394 396
3 379 395 394
3 385 396 395
3 394 395 396
3 378 396 398
3 385 397 396
3 388 398 397
3 396 397 398
3 378 398 390
3 388 399 398
3 389 390 399
3 398 399 390
3 379 393 401
3 383 400 393
3 387 401 400
3 393 400 401
3 383 391 403
3 389 402 391
3 382 403 402
3 391 402 403
3 389 399 405
3 388 404 399
3 380 405 404
3 399 404 405
3 388 397 407
3 385 406 397
3 384 407 406
3 397 406 407
3 385 395 409
3 379 408 395
3 386 409 408
3 395 408 409
3 381 410 412
3 387 411 410
3 382 412 411
3 410 411 412
3 381 412 414
3 382 413 412
3 380 414 413
3 412 413 414
3 381 414 416
3 380 415 414
3 384 416 415
3 414 415 416
3 381 416 418
3 384 417 416
3 386 418 417
3 416 417 418
3 381 418 410
3 386 419 418
3 387 410 419
3 418 419 410
3 382 411 403
3 387 400 411
3 383 403 400
3 411 400 403
3 380 413 405
3 382 402 413
3 389 405 402
3 413 402 405
3 384 415 407
3 380 404 415
3 388 407 404
3 415 404 407
3 386 417 409
3 384 406 417
3 385 409 406
3 417 406 409
3 387 419 401
3 386 408 419
3 379 401 408
3 419 408 401
3 420 432 434
3 431 433 432
3 425 434 433
3 432 433 434
3 420 434 436
3 425 435 434
3 421 436 435
3 434 435 436
3 420 436 438
3 421 437 436
3 427 438 437
3 436 437 438
3 420 438 440
3 427 439 438
3 430 440 439
3 438 439 440
3 420 440 432
3 430 441 440
3 431 432 441
3 440 441 432
3 421 435 443
3 425 442 435
3 429 443 442
3 435 442 443
3 425 433 445
3 431 444 433
3 424 445 444
3 433 444 445
3 431 441 447
3 430 446 441
3 422 447 446
3 441 446 447
3 430 439 449
3 427 448 439
3 426 449 448
3 439 448 449
3 427 437 451
3 421 450 437
3 428 451 450
3 437 450 451
3 423 452 454
3 429 453 452
3 424 454 453
3 452 453 454
3 423 454 456
3 424 455 454
3 422 456 455
3 454 455 456
3 423 456 458
3 422 457 456
3 426 458 457
3 456 457 458
3 423 458 460
3 426 459 458
3 428 460 459
3 458 459 460
3 423 460 452
3 428 461 460
3 429 452 461
3 460 461 452
3 424 453 445
3 429 442 453
3 425 445 442
3 453 442 445
3 422 455 447
3 424 444 455
3 431 447 444
3 455 444 447
3 426 457 449
3 422 446 457
3 430 449 446
3 457 446 449
3 428 459 451
3 426 448 459
3 427 451 448
3 459 448 451
3 429 461 443
3 428 450 461
3 421 443 450
3 461 450 443
3 462 474 476
3 473 475 474
3 467 476 475
3 474 475 476
3 462 476 478
3 467 477 476
3 463 478 477
3 476 477 478
3 462 478 480
3 463 479 478
3 469 480 479
3 478 479 480
3 462 480 482
3 469 481 480
3 472 482 481
3 480 481 482
3 462 482 474
3 472 483 482
3 473 474 483
3 482 483 474
3 463 477 485
3 467 484 477
3 471 485 484
3 477 484 485
3 467 475 487
3 473 486 475
3 466 487 486
3 475 486 487
3 473 483 489
3 472 488 483
3 464 489 488
3 483 488 489
3 472 481 491
3 469 490 481
3 468 491 490
3 481 490 491
3 469 479 493
3 463 492 479
3 470 493 492
3 479 492 493
3 465 494 496
3 471 495 494
3 466 496 495
3 494 495 496
3 465 496 498
3 466 497 496
3 464 498 497
3 496 497 498
3 465 498 500
3 464 499 498
3 468 500 499
3 498 499 500
3 465 500 502
3 468 501 500
3 470 502 501
3 500 501 502
3 465 502 494
3 470 503 502
3 471 494 503
3 502 503 494
3 466 495 487
3 471 484 495
3 467 487 484
3 495 484 487
3 464 497 489
3 466 486 497
3 473 489 486
3 497 486 489
3 468 499 491
3 464 488 499
3 472 491 488
3 499 488 491
3 470 501 493
3 468 490 501
3 469 493 490
3 501 490 493
3 471 503 485
3 470 492 503
3 463 485 492
3 503 492 485
3 504 516 518
3 515 517 516
3 509 518 517
3 516 517 518
3 504 518 520
3 509 519 518
3 505 520 519
3 518 519 520
3 504 520 522
3 505 521 520
3 511 522 521
3 520 521 522
3 504 522 524
3 511 523 522
3 514 524 523
3 522 523 524
3 504 524 516
3 514 525 524
3 515 516 525
3 524 525 516
3 505 519 527
3 509 526 519
3 513 527 526
3 519 526 527
3 509 517 529
3 515 528 517
3 508 529 528
3 517 528 529
3 515 525 531
3 514 530 525
3 506 531 530
3 525 530 531
3 514 523 533
3 511 532 523
3 510 533 532
3 523 532 533
3 511 521 535
3 505 534 521
3 512 535 534
3 521 534 535
3 507 536 538
3 513 537 536
3 508 538 537
3 536 537 538
3 507 538 540
3 508 539 538
3 506 540 539
3 538 539 540
3 507 540 542
3 506 541 540
3 510 542 541
3 540 541 542
3 507 542 544
3 510 543 542
3 512 544 543
3 542 543 544
3 507 544 536
3 512 545 544
3 513 536 545
3 544 545 536
3 508 537 529
3 513 526 537
3 509 529 526
3 537 526 529
3 506 539 531
3 508 528 539
3 515 531 528
3 539 528 531
3 510 541 533
3 506 530 541
3 514 533 530
3 541 530 533
3 512 543 535
3 510 532 543
3 511 535 532
3 543 532 535
3 513 545 527
3 512 534 545
3 505 527 534
3 545 534 527
