ply
format ascii 1.0
element vertex 630
property float x
property float y
property float z
property uchar red
property uchar green
property uchar blue
element face 1200
property list uchar int vertex_indices
end_header
-0.168326 -0.057998 0.434643 255 0 0
-0.177421 -0.057998 0.443978 255 0 0
-0.168326 -0.078909 0.434643 255 0 0
-0.177421 -0.078909 0.443978 255 0 0
-0.176873 -0.074915 0.435414 255 0 0
-0.176873 -0.061992 0.435414 255 0 0
-0.168874 -0.074915 0.443207 255 0 0
-0.168874 -0.061992 0.443207 255 0 0
-0.177760 -0.068454 0.449270 255 0 0
-0.182703 -0.068454 0.444454 255 0 0
-0.163044 -0.068454 0.434167 255 0 0
-0.167988 -0.068454 0.429350 255 0 0
-0.167329 -0.062308 0.430713 255 0 0
-0.172353 -0.064655 0.431166 255 0 0
-0.172552 -0.058510 0.434277 255 0 0
-0.177897 -0.058510 0.439763 255 0 0
-0.172874 -0.056162 0.439310 255 0 0
-0.173196 -0.058510 0.444344 255 0 0
-0.167850 -0.058510 0.438857 255 0 0
-0.164745 -0.064655 0.438578 255 0 0
-0.164423 -0.062308 0.433544 255 0 0
-0.164224 -0.068454 0.430433 255 0 0
-0.181002 -0.064655 0.440043 255 0 0
-0.181324 -0.062308 0.445077 255 0 0
-0.172353 -0.072252 0.431166 255 0 0
-0.177575 -0.068454 0.434730 255 0 0
-0.164423 -0.074599 0.433544 255 0 0
-0.167329 -0.074599 0.430713 255 0 0
-0.168172 -0.068454 0.443891 255 0 0
-0.164745 -0.072252 0.438578 255 0 0
-0.178419 -0.062308 0.447908 255 0 0
-0.173395 -0.064655 0.447455 255 0 0
-0.181324 -0.074599 0.445077 255 0 0
-0.181002 -0.072252 0.440043 255 0 0
-0.177897 -0.078397 0.439763 255 0 0
-0.172552 -0.078397 0.434277 255 0 0
-0.172874 -0.080745 0.439310 255 0 0
-0.167850 -0.078397 0.438857 255 0 0
-0.173196 -0.078397 0.444344 255 0 0
-0.173395 -0.072252 0.447455 255 0 0
-0.178419 -0.074599 0.447908 255 0 0
-0.181523 -0.068454 0.448188 255 0 0
-0.154723 0.011990 0.435573 255 0 0
-0.163738 0.011990 0.444826 255 0 0
-0.154723 -0.008884 0.435573 255 0 0
-0.163738 -0.008884 0.444826 255 0 0
-0.163272 -0.004898 0.436261 255 0 0
-0.163272 0.008003 0.436261 255 0 0
-0.155189 -0.004898 0.444137 255 0 0
-0.155189 0.008003 0.444137 255 0 0
-0.164026 0.001553 0.450119 255 0 0
-0.169022 0.001553 0.445251 255 0 0
-0.149439 0.001553 0.435147 255 0 0
-0.154435 0.001553 0.430280 255 0 0
-0.153762 0.007688 0.431649 255 0 0
-0.158787 0.005344 0.432054 255 0 0
-0.158956 0.011479 0.435165 255 0 0
-0.164256 0.011479 0.440604 255 0 0
-0.159230 0.013822 0.440199 255 0 0
-0.159504 0.011479 0.445233 255 0 0
-0.154205 0.011479 0.439794 255 0 0
-0.151100 0.005344 0.439544 255 0 0
-0.150826 0.007688 0.434510 255 0 0
-0.150656 0.001553 0.431399 255 0 0
-0.167361 0.005344 0.440854 255 0 0
-0.167635 0.007688 0.445888 255 0 0
-0.158787 -0.002239 0.432054 255 0 0
-0.163982 0.001553 0.435570 255 0 0
-0.150826 -0.004582 0.434510 255 0 0
-0.153762 -0.004582 0.431649 255 0 0
-0.154479 0.001553 0.444828 255 0 0
-0.151100 -0.002239 0.439544 255 0 0
-0.164699 0.007688 0.448749 255 0 0
-0.159674 0.005344 0.448344 255 0 0
-0.167635 -0.004582 0.445888 255 0 0
-0.167361 -0.002239 0.440854 255 0 0
-0.164256 -0.008374 0.440604 255 0 0
-0.158956 -0.008374 0.435165 255 0 0
-0.159230 -0.010717 0.440199 255 0 0
-0.154205 -0.008374 0.439794 255 0 0
-0.159504 -0.008374 0.445233 255 0 0
-0.159674 -0.002239 0.448344 255 0 0
-0.164699 -0.004582 0.448749 255 0 0
-0.167804 0.001553 0.448999 255 0 0
-0.096981 0.013474 0.424747 255 0 0
-0.103444 0.013474 0.431381 255 0 0
-0.096981 -0.010811 0.424747 255 0 0
-0.103444 -0.010811 0.431381 255 0 0
-0.105058 -0.006173 0.423343 255 0 0
-0.105058 0.008836 0.423343 255 0 0
-0.095366 -0.006173 0.432785 255 0 0
-0.095366 0.008836 0.432785 255 0 0
-0.102446 0.001332 0.436349 255 0 0
-0.108436 0.001332 0.430513 255 0 0
-0.091989 0.001332 0.425615 255 0 0
-0.097978 0.001332 0.419779 255 0 0
-0.097000 0.008469 0.421245 255 0 0
-0.101747 0.005743 0.420419 255 0 0
-0.101161 0.012880 0.423339 255 0 0
-0.104960 0.012880 0.427238 255 0 0
-0.100212 0.015606 0.428064 255 0 0
-0.099263 0.012880 0.432789 255 0 0
-0.095464 0.012880 0.428890 255 0 0
-0.092530 0.005743 0.429400 255 0 0
-0.093479 0.008469 0.424675 255 0 0
-0.094065 0.001332 0.421755 255 0 0
-0.107894 0.005743 0.426728 255 0 0
-0.106945 0.008469 0.431453 255 0 0
-0.101747 -0.003079 0.420419 255 0 0
-0.105909 0.001332 0.422514 255 0 0
-0.093479 -0.005806 0.424675 255 0 0
-0.097000 -0.005806 0.421245 255 0 0
-0.094516 0.001332 0.433614 255 0 0
-0.092530 -0.003079 0.429400 255 0 0
-0.103425 0.008469 0.434883 255 0 0
-0.098677 0.005743 0.435709 255 0 0
-0.106945 -0.005806 0.431453 255 0 0
-0.107894 -0.003079 0.426728 255 0 0
-0.104960 -0.010217 0.427238 255 0 0
-0.101161 -0.010217 0.423339 255 0 0
-0.100212 -0.012943 0.428064 255 0 0
-0.095464 -0.010217 0.428890 255 0 0
-0.099263 -0.010217 0.432789 255 0 0
-0.098677 -0.003079 0.435709 255 0 0
-0.103425 -0.005806 0.434883 255 0 0
-0.106359 0.001332 0.434373 255 0 0
-0.171744 0.081751 0.437849 255 0 0
-0.180872 0.081751 0.447218 255 0 0
-0.171744 0.060946 0.437849 255 0 0
-0.180872 0.060946 0.447218 255 0 0
-0.180313 0.064919 0.438631 255 0 0
-0.180313 0.077777 0.438631 255 0 0
-0.172303 0.064919 0.446435 255 0 0
-0.172303 0.077777 0.446435 255 0 0
-0.181218 0.071348 0.452524 255 0 0
-0.186168 0.071348 0.447701 255 0 0
-0.166448 0.071348 0.437365 255 0 0
-0.171398 0.071348 0.432542 255 0 0
-0.170740 0.077463 0.433907 255 0 0
-0.175776 0.075127 0.434367 255 0 0
-0.175979 0.081242 0.437486 255 0 0
-0.181345 0.081242 0.442993 255 0 0
-0.176308 0.083577 0.442533 255 0 0
-0.176637 0.081242 0.447580 255 0 0
-0.171271 0.081242 0.442073 255 0 0
-0.168159 0.075127 0.441789 255 0 0
-0.167830 0.077463 0.436742 255 0 0
-0.167627 0.071348 0.433623 255 0 0
-0.184458 0.075127 0.443277 255 0 0
-0.184787 0.077463 0.448324 255 0 0
-0.175776 0.067569 0.434367 255 0 0
-0.181016 0.071348 0.437946 255 0 0
-0.167830 0.065234 0.436742 255 0 0
-0.170740 0.065234 0.433907 255 0 0
-0.171600 0.071348 0.447120 255 0 0
-0.168159 0.067569 0.441789 255 0 0
-0.181877 0.077463 0.451159 255 0 0
-0.176840 0.075127 0.450699 255 0 0
-0.184787 0.065234 0.448324 255 0 0
-0.184458 0.067569 0.443277 255 0 0
-0.181345 0.061455 0.442993 255 0 0
-0.175979 0.061455 0.437486 255 0 0
-0.176308 0.059119 0.442533 255 0 0
-0.171271 0.061455 0.442073 255 0 0
-0.176637 0.061455 0.447580 255 0 0
-0.176840 0.067569 0.450699 255 0 0
-0.181877 0.065234 0.451159 255 0 0
-0.184990 0.071348 0.451444 255 0 0
-0.118670 -0.048824 0.415110 255 0 0
-0.125212 -0.048824 0.421824 255 0 0
-0.118670 -0.073304 0.415110 255 0 0
-0.125212 -0.073304 0.421824 255 0 0
-0.126691 -0.068629 0.413840 255 0 0
-0.126691 -0.053499 0.413840 255 0 0
-0.117192 -0.068629 0.423094 255 0 0
-0.117192 -0.053499 0.423094 255 0 0
-0.124299 -0.061064 0.426759 255 0 0
-0.130169 -0.061064 0.421039 255 0 0
-0.113714 -0.061064 0.415894 255 0 0
-0.119584 -0.061064 0.410175 255 0 0
-0.118633 -0.053869 0.411620 255 0 0
-0.123347 -0.056617 0.410873 255 0 0
-0.122810 -0.049423 0.413774 255 0 0
-0.126656 -0.049423 0.417720 255 0 0
-0.121941 -0.046675 0.418467 255 0 0
-0.121073 -0.049423 0.423160 255 0 0
-0.117227 -0.049423 0.419213 255 0 0
-0.114314 -0.056617 0.419675 255 0 0
-0.115183 -0.053869 0.414982 255 0 0
-0.115720 -0.061064 0.412081 255 0 0
-0.129569 -0.056617 0.417259 255 0 0
-0.128700 -0.053869 0.421952 255 0 0
-0.123347 -0.065511 0.410873 255 0 0
-0.127524 -0.061064 0.413027 255 0 0
-0.115183 -0.068259 0.414982 255 0 0
-0.118633 -0.068259 0.411620 255 0 0
-0.116358 -0.061064 0.423906 255 0 0
-0.114314 -0.065511 0.419675 255 0 0
-0.125250 -0.053869 0.425314 255 0 0
-0.120536 -0.056617 0.426060 255 0 0
-0.128700 -0.068259 0.421952 255 0 0
-0.129569 -0.065511 0.417259 255 0 0
-0.126656 -0.072705 0.417720 255 0 0
-0.122810 -0.072705 0.413774 255 0 0
-0.121941 -0.075453 0.418467 255 0 0
-0.117227 -0.072705 0.419213 255 0 0
-0.121073 -0.072705 0.423160 255 0 0
-0.120536 -0.065511 0.426060 255 0 0
-0.125250 -0.068259 0.425314 255 0 0
-0.128163 -0.061064 0.424853 255 0 0
-0.118780 0.075922 0.422955 255 0 0
-0.125247 0.075922 0.429593 255 0 0
-0.118780 0.051495 0.422955 255 0 0
-0.125247 0.051495 0.429593 255 0 0
-0.126828 0.056160 0.421583 255 0 0
-0.126828 0.071257 0.421583 255 0 0
-0.117199 0.056160 0.430964 255 0 0
-0.117199 0.071257 0.430964 255 0 0
-0.124271 0.063709 0.434543 255 0 0
-0.130221 0.063709 0.428745 255 0 0
-0.113806 0.063709 0.423802 255 0 0
-0.119756 0.063709 0.418004 255 0 0
-0.118786 0.070887 0.419462 255 0 0
-0.123517 0.068145 0.418656 255 0 0
-0.122942 0.075324 0.421566 255 0 0
-0.126744 0.075324 0.425468 255 0 0
-0.122013 0.078066 0.426274 255 0 0
-0.121084 0.075324 0.430982 255 0 0
-0.117283 0.075324 0.427080 255 0 0
-0.114359 0.068145 0.427578 255 0 0
-0.115288 0.070887 0.422870 255 0 0
-0.115862 0.063709 0.419960 255 0 0
-0.129668 0.068145 0.424969 255 0 0
-0.128739 0.070887 0.429677 255 0 0
-0.123517 0.059272 0.418656 255 0 0
-0.127673 0.063709 0.420760 255 0 0
-0.115288 0.056530 0.422870 255 0 0
-0.118786 0.056530 0.419462 255 0 0
-0.116354 0.063709 0.431788 255 0 0
-0.114359 0.059272 0.427578 255 0 0
-0.125241 0.070887 0.433085 255 0 0
-0.120510 0.068145 0.433892 255 0 0
-0.128739 0.056530 0.429677 255 0 0
-0.129668 0.059272 0.424969 255 0 0
-0.126744 0.052093 0.425468 255 0 0
-0.122942 0.052093 0.421566 255 0 0
-0.122013 0.049351 0.426274 255 0 0
-0.117283 0.052093 0.427080 255 0 0
-0.121084 0.052093 0.430982 255 0 0
-0.120510 0.059272 0.433892 255 0 0
-0.125241 0.056530 0.433085 255 0 0
-0.128165 0.063709 0.432587 255 0 0
0.044552 0.085650 0.434384 255 0 0
0.039115 0.085650 0.439965 255 0 0
0.044552 0.069347 0.434384 255 0 0
0.039115 0.069347 0.439965 255 0 0
0.033254 0.072461 0.428815 255 0 0
0.033254 0.082537 0.428815 255 0 0
0.050414 0.072461 0.445534 255 0 0
0.050414 0.082537 0.445534 255 0 0
0.042737 0.077499 0.446856 255 0 0
0.032132 0.077499 0.436523 255 0 0
0.051535 0.077499 0.437826 255 0 0
0.040930 0.077499 0.427493 255 0 0
0.042901 0.082290 0.429844 255 0 0
0.036259 0.080460 0.426570 255 0 0
0.038389 0.085251 0.430621 255 0 0
0.035192 0.085251 0.433901 255 0 0
0.041834 0.087081 0.437175 255 0 0
0.045279 0.085251 0.443728 255 0 0
0.048475 0.085251 0.440448 255 0 0
0.052579 0.080460 0.442471 255 0 0
0.049134 0.082290 0.435917 255 0 0
0.047005 0.077499 0.431867 255 0 0
0.031088 0.080460 0.431878 255 0 0
0.034533 0.082290 0.438432 255 0 0
0.036259 0.074538 0.426570 255 0 0
0.031747 0.077499 0.427347 255 0 0
0.049134 0.072708 0.435917 255 0 0
0.042901 0.072708 0.429844 255 0 0
0.051920 0.077499 0.447002 255 0 0
0.052579 0.074538 0.442471 255 0 0
0.040767 0.082290 0.444505 255 0 0
0.047408 0.080460 0.447779 255 0 0
0.034533 0.072708 0.438432 255 0 0
0.031088 0.074538 0.431878 255 0 0
0.035192 0.069746 0.433901 255 0 0
0.038389 0.069746 0.430621 255 0 0
0.041834 0.067916 0.437175 255 0 0
0.048475 0.069746 0.440448 255 0 0
0.045279 0.069746 0.443728 255 0 0
0.047408 0.074538 0.447779 255 0 0
0.040767 0.072708 0.444505 255 0 0
0.036662 0.077499 0.442482 255 0 0
-0.065722 0.077300 0.416411 255 0 0
-0.073326 0.077300 0.424216 255 0 0
-0.065722 0.054707 0.416411 255 0 0
-0.073326 0.054707 0.424216 255 0 0
-0.073951 0.059022 0.416000 255 0 0
-0.073951 0.072985 0.416000 255 0 0
-0.065097 0.059022 0.424627 255 0 0
-0.065097 0.072985 0.424627 255 0 0
-0.072940 0.066003 0.429294 255 0 0
-0.078412 0.066003 0.423962 255 0 0
-0.060636 0.066003 0.416665 255 0 0
-0.066108 0.066003 0.411334 255 0 0
-0.065281 0.072643 0.412742 255 0 0
-0.070118 0.070107 0.412500 255 0 0
-0.069891 0.076747 0.415485 255 0 0
-0.074361 0.076747 0.420072 255 0 0
-0.069524 0.079283 0.420314 255 0 0
-0.069156 0.076747 0.425143 255 0 0
-0.064687 0.076747 0.420555 255 0 0
-0.061697 0.070107 0.420704 255 0 0
-0.062065 0.072643 0.415875 255 0 0
-0.062292 0.066003 0.412891 255 0 0
-0.077350 0.070107 0.419923 255 0 0
-0.076983 0.072643 0.424752 255 0 0
-0.070118 0.061900 0.412500 255 0 0
-0.074728 0.066003 0.415243 255 0 0
-0.062065 0.059363 0.415875 255 0 0
-0.065281 0.059363 0.412742 255 0 0
-0.064319 0.066003 0.425384 255 0 0
-0.061697 0.061900 0.420704 255 0 0
-0.073766 0.072643 0.427886 255 0 0
-0.068929 0.070107 0.428127 255 0 0
-0.076983 0.059363 0.424752 255 0 0
-0.077350 0.061900 0.419923 255 0 0
-0.074361 0.055260 0.420072 255 0 0
-0.069891 0.055260 0.415485 255 0 0
-0.069524 0.052724 0.420314 255 0 0
-0.064687 0.055260 0.420555 255 0 0
-0.069156 0.055260 0.425143 255 0 0
-0.068929 0.061900 0.428127 255 0 0
-0.073766 0.059363 0.427886 255 0 0
-0.076756 0.066003 0.427736 255 0 0
-0.019637 -0.055347 0.404165 255 0 0
-0.025048 -0.055347 0.409719 255 0 0
-0.019637 -0.077361 0.404165 255 0 0
-0.025048 -0.077361 0.409719 255 0 0
-0.028728 -0.073157 0.400721 255 0 0
-0.028728 -0.059551 0.400721 255 0 0
-0.015958 -0.073157 0.413163 255 0 0
-0.015958 -0.059551 0.413163 255 0 0
-0.022774 -0.066354 0.415280 255 0 0
-0.030667 -0.066354 0.407590 255 0 0
-0.014019 -0.066354 0.406294 255 0 0
-0.021911 -0.066354 0.398604 255 0 0
-0.020499 -0.059884 0.400409 255 0 0
-0.025842 -0.062356 0.398385 255 0 0
-0.024506 -0.055886 0.401653 255 0 0
-0.027686 -0.055886 0.404918 255 0 0
-0.022343 -0.053415 0.406942 255 0 0
-0.020180 -0.055886 0.412231 255 0 0
-0.016999 -0.055886 0.408967 255 0 0
-0.013697 -0.062356 0.410218 255 0 0
-0.015860 -0.059884 0.404929 255 0 0
-0.017196 -0.066354 0.401660 255 0 0
-0.030988 -0.062356 0.403666 255 0 0
-0.028826 -0.059884 0.408955 255 0 0
-0.025842 -0.070353 0.398385 255 0 0
-0.029849 -0.066354 0.399629 255 0 0
-0.015860 -0.072824 0.404929 255 0 0
-0.020499 -0.072824 0.400409 255 0 0
-0.014837 -0.066354 0.414255 255 0 0
-0.013697 -0.070353 0.410218 255 0 0
-0.024187 -0.059884 0.413475 255 0 0
-0.018843 -0.062356 0.415500 255 0 0
-0.028826 -0.072824 0.408955 255 0 0
-0.030988 -0.070353 0.403666 255 0 0
-0.027686 -0.076822 0.404918 255 0 0
-0.024506 -0.076822 0.401653 255 0 0
-0.022343 -0.079293 0.406942 255 0 0
-0.016999 -0.076822 0.408967 255 0 0
-0.020180 -0.076822 0.412231 255 0 0
-0.018843 -0.070353 0.415500 255 0 0
-0.024187 -0.072824 0.413475 255 0 0
-0.027489 -0.066354 0.412224 255 0 0
0.032515 -0.058081 0.432319 255 0 0
0.027681 -0.058081 0.437280 255 0 0
0.032515 -0.078818 0.432319 255 0 0
0.027681 -0.078818 0.437280 255 0 0
0.022509 -0.074857 0.427406 255 0 0
0.022509 -0.062042 0.427406 255 0 0
0.037687 -0.074857 0.442193 255 0 0
0.037687 -0.062042 0.442193 255 0 0
0.030878 -0.068450 0.443382 255 0 0
0.021498 -0.068450 0.434243 255 0 0
0.038698 -0.068450 0.435355 255 0 0
0.029318 -0.068450 0.426216 255 0 0
0.031060 -0.062355 0.428296 255 0 0
0.025179 -0.064683 0.425409 255 0 0
0.027058 -0.058589 0.428996 255 0 0
0.024217 -0.058589 0.431911 255 0 0
0.030098 -0.056261 0.434799 255 0 0
0.033138 -0.058589 0.440603 255 0 0
0.035979 -0.058589 0.437687 255 0 0
0.039614 -0.064683 0.439472 255 0 0
0.036574 -0.062355 0.433668 255 0 0
0.034695 -0.068450 0.430081 255 0 0
0.020582 -0.064683 0.430127 255 0 0
0.023622 -0.062355 0.435930 255 0 0
0.025179 -0.072216 0.425409 255 0 0
0.021177 -0.068450 0.426108 255 0 0
0.036574 -0.074544 0.433668 255 0 0
0.031060 -0.074544 0.428296 255 0 0
0.039019 -0.068450 0.443491 255 0 0
0.039614 -0.072216 0.439472 255 0 0
0.029136 -0.062355 0.441302 255 0 0
0.035017 -0.064683 0.444190 255 0 0
0.023622 -0.074544 0.435930 255 0 0
0.020582 -0.072216 0.430127 255 0 0
0.024217 -0.078310 0.431911 255 0 0
0.027058 -0.078310 0.428996 255 0 0
0.030098 -0.080638 0.434799 255 0 0
0.035979 -0.078310 0.437687 255 0 0
0.033138 -0.078310 0.440603 255 0 0
0.035017 -0.072216 0.444190 255 0 0
0.029136 -0.074544 0.441302 255 0 0
0.025501 -0.068450 0.439517 255 0 0
-0.001129 0.001122 0.416288 255 0 0
-0.006484 0.001122 0.421784 255 0 0
-0.001129 -0.021756 0.416288 255 0 0
-0.006484 -0.021756 0.421784 255 0 0
-0.010015 -0.017386 0.412987 255 0 0
-0.010015 -0.003247 0.412987 255 0 0
0.002402 -0.017386 0.425085 255 0 0
0.002402 -0.003247 0.425085 255 0 0
-0.004302 -0.010317 0.427221 255 0 0
-0.011976 -0.010317 0.419744 255 0 0
0.004363 -0.010317 0.418328 255 0 0
-0.003312 -0.010317 0.410851 255 0 0
-0.001942 -0.003593 0.412610 255 0 0
-0.007165 -0.006161 0.410670 255 0 0
-0.005882 0.000562 0.413865 255 0 0
-0.009030 0.000562 0.417096 255 0 0
-0.003807 0.003131 0.419036 255 0 0
-0.001731 0.000562 0.424207 255 0 0
0.001416 0.000562 0.420976 255 0 0
0.004644 -0.006161 0.422176 255 0 0
0.002569 -0.003593 0.417005 255 0 0
0.001286 -0.010317 0.413809 255 0 0
-0.012258 -0.006161 0.415897 255 0 0
-0.010182 -0.003593 0.421067 255 0 0
-0.007165 -0.014472 0.410670 255 0 0
-0.011105 -0.010317 0.411925 255 0 0
0.002569 -0.017040 0.417005 255 0 0
-0.001942 -0.017040 0.412610 255 0 0
0.003492 -0.010317 0.426147 255 0 0
0.004644 -0.014472 0.422176 255 0 0
-0.005671 -0.003593 0.425462 255 0 0
-0.000448 -0.006161 0.427403 255 0 0
-0.010182 -0.017040 0.421067 255 0 0
-0.012258 -0.014472 0.415897 255 0 0
-0.009030 -0.021196 0.417096 255 0 0
-0.005882 -0.021196 0.413865 255 0 0
-0.003807 -0.023764 0.419036 255 0 0
0.001416 -0.021196 0.420976 255 0 0
-0.001731 -0.021196 0.424207 255 0 0
-0.000448 -0.014472 0.427403 255 0 0
-0.005671 -0.017040 0.425462 255 0 0
-0.008899 -0.010317 0.424263 255 0 0
-0.068304 -0.052145 0.405357 255 0 0
-0.075237 -0.052145 0.412473 255 0 0
-0.068304 -0.075174 0.405357 255 0 0
-0.075237 -0.075174 0.412473 255 0 0
-0.076534 -0.070776 0.404274 255 0 0
-0.076534 -0.056543 0.404274 255 0 0
-0.067007 -0.070776 0.413556 255 0 0
-0.067007 -0.056543 0.413556 255 0 0
-0.074436 -0.063660 0.417540 255 0 0
-0.080324 -0.063660 0.411804 255 0 0
-0.063217 -0.063660 0.406026 255 0 0
-0.069105 -0.063660 0.400289 255 0 0
-0.068166 -0.056892 0.401753 255 0 0
-0.073004 -0.059477 0.401117 255 0 0
-0.072533 -0.052709 0.404095 255 0 0
-0.076608 -0.052709 0.408278 255 0 0
-0.071771 -0.050124 0.408915 255 0 0
-0.071008 -0.052709 0.413734 255 0 0
-0.066933 -0.052709 0.409552 255 0 0
-0.063943 -0.059477 0.409945 255 0 0
-0.064705 -0.056892 0.405125 255 0 0
-0.065177 -0.063660 0.402147 255 0 0
-0.079598 -0.059477 0.407885 255 0 0
-0.078836 -0.056892 0.412704 255 0 0
-0.073004 -0.067842 0.401117 255 0 0
-0.077371 -0.063660 0.403459 255 0 0
-0.064705 -0.070427 0.405125 255 0 0
-0.068166 -0.070427 0.401753 255 0 0
-0.066171 -0.063660 0.414371 255 0 0
-0.063943 -0.067842 0.409945 255 0 0
-0.075375 -0.056892 0.416076 255 0 0
-0.070537 -0.059477 0.416713 255 0 0
-0.078836 -0.070427 0.412704 255 0 0
-0.079598 -0.067842 0.407885 255 0 0
-0.076608 -0.074610 0.408278 255 0 0
-0.072533 -0.074610 0.404095 255 0 0
-0.071771 -0.077195 0.408915 255 0 0
-0.066933 -0.074610 0.409552 255 0 0
-0.071008 -0.074610 0.413734 255 0 0
-0.070537 -0.067842 0.416713 255 0 0
-0.075375 -0.070427 0.416076 255 0 0
-0.078365 -0.063660 0.415683 255 0 0
-0.045403 0.012336 0.410790 255 0 0
-0.051520 0.012336 0.417068 255 0 0
-0.045403 -0.012415 0.410790 255 0 0
-0.051520 -0.012415 0.417068 255 0 0
-0.053486 -0.007688 0.409035 255 0 0
-0.053486 0.007609 0.409035 255 0 0
-0.043438 -0.007688 0.418824 255 0 0
-0.043438 0.007609 0.418824 255 0 0
-0.050306 -0.000040 0.422034 255 0 0
-0.056515 -0.000040 0.415983 255 0 0
-0.040408 -0.000040 0.411876 255 0 0
-0.046618 -0.000040 0.405825 255 0 0
-0.045580 0.007234 0.407321 255 0 0
-0.050331 0.004456 0.406289 255 0 0
-0.049617 0.011730 0.409207 255 0 0
-0.053212 0.011730 0.412897 255 0 0
-0.048462 0.014508 0.413929 255 0 0
-0.047307 0.011730 0.418652 255 0 0
-0.043711 0.011730 0.414961 255 0 0
-0.040775 0.004456 0.415599 255 0 0
-0.041930 0.007234 0.410877 255 0 0
-0.042644 -0.000040 0.407959 255 0 0
-0.056148 0.004456 0.412260 255 0 0
-0.054993 0.007234 0.416982 255 0 0
-0.050331 -0.004535 0.406289 255 0 0
-0.054368 -0.000040 0.408175 255 0 0
-0.041930 -0.007314 0.410877 255 0 0
-0.045580 -0.007314 0.407321 255 0 0
-0.042556 -0.000040 0.419684 255 0 0
-0.040775 -0.004535 0.415599 255 0 0
-0.051343 0.007234 0.420538 255 0 0
-0.046593 0.004456 0.421570 255 0 0
-0.054993 -0.007314 0.416982 255 0 0
-0.056148 -0.004535 0.412260 255 0 0
-0.053212 -0.011810 0.412897 255 0 0
-0.049617 -0.011810 0.409207 255 0 0
-0.048462 -0.014588 0.413929 255 0 0
-0.043711 -0.011810 0.414961 255 0 0
-0.047307 -0.011810 0.418652 255 0 0
-0.046593 -0.004535 0.421570 255 0 0
-0.051343 -0.007314 0.420538 255 0 0
-0.054279 -0.000040 0.419900 255 0 0
0.036231 0.027902 0.445120 255 0 0
0.031390 0.027902 0.450089 255 0 0
0.036231 0.006873 0.445120 255 0 0
0.031390 0.006873 0.450089 255 0 0
0.026340 0.010889 0.440326 255 0 0
0.026340 0.023886 0.440326 255 0 0
0.041282 0.010889 0.454884 255 0 0
0.041282 0.023886 0.454884 255 0 0
0.034511 0.017388 0.456123 255 0 0
0.025277 0.017388 0.447126 255 0 0
0.042345 0.017388 0.448084 255 0 0
0.033110 0.017388 0.439086 255 0 0
0.034822 0.023568 0.441138 255 0 0
0.029008 0.021207 0.438319 255 0 0
0.030842 0.027388 0.441866 255 0 0
0.027997 0.027388 0.444787 255 0 0
0.033811 0.029748 0.447605 255 0 0
0.036779 0.027388 0.453344 255 0 0
0.039625 0.027388 0.450423 255 0 0
0.043218 0.021207 0.452165 255 0 0
0.040250 0.023568 0.446426 255 0 0
0.038415 0.017388 0.442879 255 0 0
0.024403 0.021207 0.443045 255 0 0
0.027372 0.023568 0.448784 255 0 0
0.029008 0.013568 0.438319 255 0 0
0.025028 0.017388 0.439048 255 0 0
0.040250 0.011207 0.446426 255 0 0
0.034822 0.011207 0.441138 255 0 0
0.042593 0.017388 0.456162 255 0 0
0.043218 0.013568 0.452165 255 0 0
0.032800 0.023568 0.454072 255 0 0
0.038614 0.021207 0.456890 255 0 0
0.027372 0.011207 0.448784 255 0 0
0.024403 0.013568 0.443045 255 0 0
0.027997 0.007388 0.444787 255 0 0
0.030842 0.007388 0.441866 255 0 0
0.033811 0.005027 0.447605 255 0 0
0.039625 0.007388 0.450423 255 0 0
0.036779 0.007388 0.453344 255 0 0
0.038614 0.013568 0.456890 255 0 0
0.032800 0.011207 0.454072 255 0 0
0.029206 0.017388 0.452331 255 0 0
-0.012129 0.073352 0.413241 255 0 0
-0.017816 0.073352 0.419078 255 0 0
-0.012129 0.049777 0.413241 255 0 0
-0.017816 0.049777 0.419078 255 0 0
-0.020645 0.054279 0.410632 255 0 0
-0.020645 0.068850 0.410632 255 0 0
-0.009299 0.054279 0.421687 255 0 0
-0.009299 0.068850 0.421687 255 0 0
-0.016067 0.061565 0.424297 255 0 0
-0.023079 0.061565 0.417465 255 0 0
-0.006865 0.061565 0.414853 255 0 0
-0.013878 0.061565 0.408021 255 0 0
-0.012657 0.068493 0.409660 255 0 0
-0.017663 0.065847 0.408127 255 0 0
-0.016635 0.072775 0.411195 255 0 0
-0.019978 0.072775 0.414626 255 0 0
-0.014972 0.075422 0.416159 255 0 0
-0.013309 0.072775 0.421123 255 0 0
-0.009966 0.072775 0.417693 255 0 0
-0.006872 0.065847 0.418640 255 0 0
-0.008536 0.068493 0.413676 255 0 0
-0.009564 0.061565 0.410608 255 0 0
-0.023072 0.065847 0.413678 255 0 0
-0.021409 0.068493 0.418642 255 0 0
-0.017663 0.057283 0.408127 255 0 0
-0.021641 0.061565 0.409661 255 0 0
-0.008536 0.054636 0.413676 255 0 0
-0.012657 0.054636 0.409660 255 0 0
-0.008303 0.061565 0.422657 255 0 0
-0.006872 0.057283 0.418640 255 0 0
-0.017287 0.068493 0.422658 255 0 0
-0.012281 0.065847 0.424192 255 0 0
-0.021409 0.054636 0.418642 255 0 0
-0.023072 0.057283 0.413678 255 0 0
-0.019978 0.050354 0.414626 255 0 0
-0.016635 0.050354 0.411195 255 0 0
-0.014972 0.047707 0.416159 255 0 0
-0.009966 0.050354 0.417693 255 0 0
-0.013309 0.050354 0.421123 255 0 0
-0.012281 0.057283 0.424192 255 0 0
-0.017287 0.054636 0.422658 255 0 0
-0.020381 0.061565 0.421710 255 0 0
3 0 12 14
3 11 13 12
3 5 14 13
3 12 13 14
3 0 14 16
3 5 15 14
3 1 16 15
3 14 15 16
3 0 16 18
3 1 17 16
3 7 18 17
3 16 17 18
3 0 18 20
3 7 19 18
3 10 20 19
3 18 19 20
3 0 20 12
3 10 21 20
3 11 12 21
3 20 21 12
3 1 15 23
3 5 22 15
3 9 23 22
3 15 22 23
3 5 13 25
3 11 24 13
3 4 25 24
3 13 24 25
3 11 21 27
3 10 26 21
3 2 27 26
3 21 26 27
3 10 19 29
3 7 28 19
3 6 29 28
3 19 28 29
3 7 17 31
3 1 30 17
3 8 31 30
3 17 30 31
3 3 32 34
3 9 33 32
3 4 34 33
3 32 33 34
3 3 34 36
3 4 35 34
3 2 36 35
3 34 35 36
3 3 36 38
3 2 37 36
3 6 38 37
3 36 37 38
3 3 38 40
3 6 39 38
3 8 40 39
3 38 39 40
3 3 40 32
3 8 41 40
3 9 32 41
3 40 41 32
3 4 33 25
3 9 22 33
3 5 25 22
3 33 22 25
3 2 35 27
3 4 24 35
3 11 27 24
3 35 24 27
3 6 37 29
3 2 26 37
3 10 29 26
3 37 26 29
3 8 39 31
3 6 28 39
3 7 31 28
3 39 28 31
3 9 41 23
3 8 30 41
3 1 23 30
3 41 30 23
3 42 54 56
3 53 55 54
3 47 56 55
3 54 55 56
3 42 56 58
3 47 57 56
3 43 58 57
3 56 57 58
3 42 58 60
3 43 59 58
3 49 60 59
3 58 59 60
3 42 60 62
3 49 61 60
3 52 62 61
3 60 61 62
3 42 62 54
3 52 63 62
3 53 54 63
3 62 63 54
3 43 57 65
3 47 64 57
3 51 65 64
3 57 64 65
3 47 55 67
3 53 66 55
3 46 67 66
3 55 66 67
3 53 63 69
3 52 68 63
3 44 69 68
3 63 68 69
3 52 61 71
3 49 70 61
3 48 71 70
3 61 70 71
3 49 59 73
3 43 72 59
3 50 73 72
3 59 72 73
3 45 74 76
3 51 75 74
3 46 76 75
3 74 75 76
3 45 76 78
3 46 77 76
3 44 78 77
3 76 77 78
3 45 78 80
3 44 79 78
3 48 80 79
3 78 79 80
3 45 80 82
3 48 81 80
3 50 82 81
3 80 81 82
3 45 82 74
3 50 83 82
3 51 74 83
3 82 83 74
3 46 75 67
3 51 64 75
3 47 67 64
3 75 64 67
3 44 77 69
3 46 66 77
3 53 69 66
3 77 66 69
3 48 79 71
3 44 68 79
3 52 71 68
3 79 68 71
3 50 81 73
3 48 70 81
3 49 73 70
3 81 70 73
3 51 83 65
3 50 72 83
3 43 65 72
3 83 72 65
3 84 96 98
3 95 97 96
3 89 98 97
3 96 97 98
3 84 98 100
3 89 99 98
3 85 100 99
3 98 99 100
3 84 100 102
3 85 101 100
3 91 102 101
3 100 101 102
3 84 102 104
3 91 103 102
3 94 104 103
3 102 103 104
3 84 104 96
3 94 105 104
3 95 96 105
3 104 105 96
3 85 99 107
3 89 106 99
3 93 107 106
3 99 106 107
3 89 97 109
3 95 108 97
3 88 109 108
3 97 108 109
3 95 105 111
3 94 110 105
3 86 111 110
3 105 110 111
3 94 103 113
3 91 112 103
3 90 113 112
3 103 112 113
3 91 101 115
3 85 114 101
3 92 115 114
3 101 114 115
3 87 116 118
3 93 117 116
3 88 118 117
3 116 117 118
3 87 118 120
3 88 119 118
3 86 120 119
3 118 119 120
3 87 120 122
3 86 121 120
3 90 122 121
3 120 121 122
3 87 122 124
3 90 123 122
3 92 124 123
3 122 123 124
3 87 124 116
3 92 125 124
3 93 116 125
3 124 125 116
3 88 117 109
3 93 106 117
3 89 109 106
3 117 106 109
3 86 119 111
3 88 108 119
3 95 111 108
3 119 108 111
3 90 121 113
3 86 110 121
3 94 113 110
3 121 110 113
3 92 123 115
3 90 112 123
3 91 115 112
3 123 112 115
3 93 125 107
3 92 114 125
3 85 107 114
3 125 114 107
3 126 138 140
3 137 139 138
3 131 140 139
3 138 139 140
3 126 140 142
3 131 141 140
3 127 142 141
3 140 141 142
3 126 142 144
3 127 143 142
3 133 144 143
3 142 143 144
3 126 144 146
3 133 145 144
3 136 146 145
3 144 145 146
3 126 146 138
3 136 147 146
3 137 138 147
3 146 147 138
3 127 141 149
3 131 148 141
3 135 149 148
3 141 148 149
3 131 139 151
3 137 150 139
3 130 151 150
3 139 150 151
3 137 147 153
3 136 152 147
3 128 153 152
3 147 152 153
3 136 145 155
3 133 154 145
3 132 155 154
3 145 154 155
3 133 143 157
3 127 156 143
3 134 157 156
3 143 156 157
3 129 158 160
3 135 159 158
3 130 160 159
3 158 159 160
3 129 160 162
3 130 161 160
3 128 162 161
3 160 161 162
3 129 162 164
3 128 163 162
3 132 164 163
3 162 163 164
3 129 164 166
3 132 165 164
3 134 166 165
3 164 165 166
3 129 166 158
3 134 167 166
3 135 158 167
3 166 167 158
3 130 159 151
3 135 148 159
3 131 151 148
3 159 148 151
3 128 161 153
3 130 150 161
3 137 153 150
3 161 150 153
3 132 163 155
3 128 152 163
3 136 155 152
3 163 152 155
3 134 165 157
3 132 154 165
3 133 157 154
3 165 154 157
3 135 167 149
3 134 156 167
3 127 149 156
3 167 156 149
3 168 180 182
3 179 181 180
3 173 182 181
3 180 181 182
3 168 182 184
3 173 183 182
3 169 184 183
3 182 183 184
3 168 184 186
3 169 185 184
3 175 186 185
3 184 185 186
3 168 186 188
3 175 187 186
3 178 188 187
3 186 187 188
3 168 188 180
3 178 189 188
3 179 180 189
3 188 189 180
3 169 183 191
3 173 190 183
3 177 191 190
3 183 190 191
3 173 181 193
3 179 192 181
3 172 193 192
3 181 192 193
3 179 189 195
3 178 194 189
3 170 195 194
3 189 194 195
3 178 187 197
3 175 196 187
3 174 197 196
3 187 196 197
3 175 185 199
3 169 198 185
3 176 199 198
3 185 198 199
3 171 200 202
3 177 201 200
3 172 202 201
3 200 201 202
3 171 202 204
3 172 203 202
3 170 204 203
3 202 203 204
3 171 204 206
3 170 205 204
3 174 206 205
3 204 205 206
3 171 206 208
3 174 207 206
3 176 208 207
3 206 207 208
3 171 208 200
3 176 209 208
3 177 200 209
3 208 209 200
3 172 201 193
3 177 190 201
3 173 193 190
3 201 190 193
3 170 203 195
3 172 192 203
3 179 195 192
3 203 192 195
3 174 205 197
3 170 194 205
3 178 197 194
3 205 194 197
3 176 207 199
3 174 196 207
3 175 199 196
3 207 196 199
3 177 209 191
3 176 198 209
3 169 191 198
3 209 198 191
3 210 222 224
3 221 223 222
3 215 224 223
3 222 223 224
3 210 224 226
3 215 225 224
3 211 226 225
3 224 225 226
3 210 226 228
3 211 227 226
3 217 228 227
3 226 227 228
3 210 228 230
3 217 229 228
3 220 230 229
3 228 229 230
3 210 230 222
3 220 231 230
3 221 222 231
3 230 231 222
3 211 225 233
3 215 232 225
3 219 233 232
3 225 232 233
3 215 223 235
3 221 234 223
3 214 235 234
3 223 234 235
3 221 231 237
3 220 236 231
3 212 237 236
3 231 236 237
3 220 229 239
3 217 238 229
3 216 239 238
3 229 238 239
3 217 227 241
3 211 240 227
3 218 241 240
3 227 240 241
3 213 242 244
3 219 243 242
3 214 244 243
3 242 243 244
3 213 244 246
3 214 245 244
3 212 246 245
3 244 245 246
3 213 246 248
3 212 247 246
3 216 248 247
3 246 247 248
3 213 248 250
3 216 249 248
3 218 250 249
3 248 249 250
3 213 250 242
3 218 251 250
3 219 242 251
3 250 251 242
3 214 243 235
3 219 232 243
3 215 235 232
3 243 232 235
3 212 245 237
3 214 234 245
3 221 237 234
3 245 234 237
3 216 247 239
3 212 236 247
3 220 239 236
3 247 236 239
3 218 249 241
3 216 238 249
3 217 241 238
3 249 238 241
3 219 251 233
3 218 240 251
3 211 233 240
3 251 240 233
3 252 264 266
3 263 265 264
3 257 266 265
3 264 265 266
3 252 266 268
3 257 267 266
3 253 268 267
3 266 267 268
3 252 268 270
3 253 269 268
3 259 270 269
3 268 269 270
3 252 270 272
3 259 271 270
3 262 272 271
3 270 271 272
3 252 272 264
3 262 273 272
3 263 264 273
3 272 273 264
3 253 267 275
3 257 274 267
3 261 275 274
3 267 274 275
3 257 265 277
3 263 276 265
3 256 277 276
3 265 276 277
3 263 273 279
3 262 278 273
3 254 279 278
3 273 278 279
3 262 271 281
3 259 280 271
3 258 281 280
3 271 280 281
3 259 269 283
3 253 282 269
3 260 283 282
3 269 282 283
3 255 284 286
3 261 285 284
3 256 286 285
3 284 285 286
3 255 286 288
3 256 287 286
3 254 288 287
3 286 287 288
3 255 288 290
3 254 289 288
3 258 290 289
3 288 289 290
3 255 290 292
3 258 291 290
3 260 292 291
3 290 291 292
3 255 292 284
3 260 293 292
3 261 284 293
3 292 293 284
3 256 285 277
3 261 274 285
3 257 277 274
3 285 274 277
3 254 287 279
3 256 276 287
3 263 279 276
3 287 276 279
3 258 289 281
3 254 278 289
3 262 281 278
3 289 278 281
3 260 291 283
3 258 280 291
3 259 283 280
3 291 280 283
3 261 293 275
3 260 282 293
3 253 275 282
3 293 282 275
3 294 306 308
3 305 307 306
3 299 308 307
3 306 307 308
3 294 308 310
3 299 309 308
3 295 310 309
3 308 309 310
3 294 310 312
3 295 311 310
3 301 312 311
3 310 311 312
3 294 312 314
3 301 313 312
3 304 314 313
3 312 313 314
3 294 314 306
3 304 315 314
3 305 306 315
3 314 315 306
3 295 309 317
3 299 316 309
3 303 317 316
3 309 316 317
3 299 307 319
3 305 318 307
3 298 319 318
3 307 318 319
3 305 315 321
3 304 320 315
3 296 321 320
3 315 320 321
3 304 313 323
3 301 322 313
3 300 323 322
3 313 322 323
3 301 311 325
3 295 324 311
3 302 325 324
3 311 324 325
3 297 326 328
3 303 327 326
3 298 328 327
3 326 327 328
3 297 328 330
3 298 329 328
3 296 330 329
3 328 329 330
3 297 330 332
3 296 331 330
3 300 332 331
3 330 331 332
3 297 332 334
3 300 333 332
3 302 334 333
3 332 333 334
3 297 334 326
3 302 335 334
3 303 326 335
3 334 335 326
3 298 327 319
3 303 316 327
3 299 319 316
3 327 316 319
3 296 329 321
3 298 318 329
3 305 321 318
3 329 318 321
3 300 331 323
3 296 320 331
3 304 323 320
3 331 320 323
3 302 333 325
3 300 322 333
3 301 325 322
3 333 322 325
3 303 335 317
3 302 324 335
3 295 317 324
3 335 324 317
3 336 348 350
3 347 349 348
3 341 350 349
3 348 349 350
3 336 350 352
3 341 351 350
3 337 352 351
3 350 351 352
3 336 352 354
3 337 353 352
3 343 354 353
3 352 353 354
3 336 354 356
3 343 355 354
3 346 356 355
3 354 355 356
3 336 356 348
3 346 357 356
3 347 348 357
3 356 357 348
3 337 351 359
3 341 358 351
3 345 359 358
3 351 358 359
3 341 349 361
3 347 360 349
3 340 361 360
3 349 360 361
3 347 357 363
3 346 362 357
3 338 363 362
3 357 362 363
3 346 355 365
3 343 364 355
3 342 365 364
3 355 364 365
3 343 353 367
3 337 366 353
3 344 367 366
3 353 366 367
3 339 368 370
3 345 369 368
3 340 370 369
3 368 369 370
3 339 370 372
3 340 371 370
3 338 372 371
3 370 371 372
3 339 372 374
3 338 373 372
3 342 374 373
3 372 373 374
3 339 374 376
3 342 375 374
3 344 376 375
3 374 375 376
3 339 376 368
3 344 377 376
3 345 368 377
3 376 377 368
3 340 369 361
3 345 358 369
3 341 361 358
3 369 358 361
3 338 371 363
3 340 360 371
3 347 363 360
3 371 360 363
3 342 373 365
3 338 362 373
3 346 365 362
3 373 362 365
3 344 375 367
3 342 364 375
3 343 367 364
3 375 364 367
3 345 377 359
3 344 366 377
3 337 359 366
3 377 366 359
3 378 390 392
3 389 391 390
3 383 392 391
3 390 391 392
3 378 392 394
3 383 393 392
3 379 394 393
3 392 393 394
3 378 394 396
3 379 395 394
3 385 396 395
3 394 395 396
3 378 396 398
3 385 397 396
3 388 398 397
3 396 397 398
3 378 398 390
3 388 399 398
3 389 390 399
3 398 399 390
3 379 393 401
3 383 400 393
3 387 401 400
3 393 400 401
3 383 391 403
3 389 402 391
3 382 403 402
3 391 402 403
3 389 399 405
3 388 404 399
3 380 405 404
3 399 404 405
3 388 397 407
3 385 406 397
3 384 407 406
3 397 406 407
3 385 395 409
3 379 408 395
3 386 409 408
3 395 408 409
3 381 410 412
3 387 411 410
3 382 412 411
3 410 411 412
3 381 412 414
3 382 413 412
3 380 414 413
3 412 413 414
3 381 414 416
3 380 415 414
3 384 416 415
3 414 415 416
3 381 416 418
3 384 417 416
3 386 418 417
3 416 417 418
3 381 418 410
3 386 419 418
3 387 410 419
3 418 419 410
3 382 411 403
3 387 400 411
3 383 403 400
3 411 400 403
3 380 413 405
3 382 402 413
3 389 405 402
3 413 402 405
3 384 415 407
3 380 404 415
3 388 407 404
3 415 404 407
3 386 417 409
3 384 406 417
3 385 409 406
3 417 406 409
3 387 419 401
3 386 408 419
3 379 401 408
3 419 408 401
3 420 432 434
3 431 433 432
3 425 434 433
3 432 433 434
3 420 434 436
3 425 435 434
3 421 436 435
3 434 435 436
3 420 436 438
3 421 437 436
3 427 438 437
3 436 437 438
3 420 438 440
3 427 439 438
3 430 440 439
3 438 439 440
3 420 440 432
3 430 441 440
3 431 432 441
3 440 441 432
3 421 435 443
3 425 442 435
3 429 443 442
3 435 442 443
3 425 433 445
3 431 444 433
3 424 445 444
3 433 444 445
3 431 441 447
3 430 446 441
3 422 447 446
3 441 446 447
3 430 439 449
3 427 448 439
3 426 449 448
3 439 448 449
3 427 437 451
3 421 450 437
3 428 451 450
3 437 450 451
3 423 452 454
3 429 453 452
3 424 454 453
3 452 453 454
3 423 454 456
3 424 455 454
3 422 456 455
3 454 455 456
3 423 456 458
3 422 457 456
3 426 458 457
3 456 457 458
3 423 458 460
3 426 459 458
3 428 460 459
3 458 459 460
3 423 460 452
3 428 461 460
3 429 452 461
3 460 461 452
3 424 453 445
3 429 442 453
3 425 445 442
3 453 442 445
3 422 455 447
3 424 444 455
3 431 447 444
3 455 444 447
3 426 457 449
3 422 446 457
3 430 449 446
3 457 446 449
3 428 459 451
3 426 448 459
3 427 451 448
3 459 448 451
3 429 461 443
3 428 450 461
3 421 443 450
3 461 450 443
3 462 474 476
3 473 475 474
3 467 476 475
3 474 475 476
3 462 476 478
3 467 477 476
3 463 478 477
3 476 477 478
3 462 478 480
3 463 479 478
3 469 480 479
3 478 479 480
3 462 480 482
3 469 481 480
3 472 482 481
3 480 481 482
3 462 482 474
3 472 483 482
3 473 474 483
3 482 483 474
3 463 477 485
3 467 484 477
3 471 485 484
3 477 484 485
3 467 475 487
3 473 486 475
3 466 487 486
3 475 486 487
3 473 483 489
3 472 488 483
3 464 489 488
3 483 488 489
3 472 481 491
3 469 490 481
3 468 491 490
3 481 490 491
3 469 479 493
3 463 492 479
3 470 493 492
3 479 492 493
3 465 494 496
3 471 495 494
3 466 496 495
3 494 495 496
3 465 496 498
3 466 497 496
3 464 498 497
3 496 497 498
3 465 498 500
3 464 499 498
3 468 500 499
3 498 499 500
3 465 500 502
3 468 501 500
3 470 502 501
3 500 501 502
3 465 502 494
3 470 503 502
3 471 494 503
3 502 503 494
3 466 495 487
3 471 484 495
3 467 487 484
3 495 484 487
3 464 497 489
3 466 486 497
3 473 489 486
3 497 486 489
3 468 499 491
3 464 488 499
3 472 491 488
3 499 488 491
3 470 501 493
3 468 490 501
3 469 493 490
3 501 490 493
3 471 503 485
3 470 492 503
3 463 485 492
3 503 492 485
3 504 516 518
3 515 517 516
3 509 518 517
3 516 517 518
3 504 518 520
3 509 519 518
3 505 520 519
3 518 519 520
3 504 520 522
3 505 521 520
3 511 522 521
3 520 521 522
3 504 522 524
3 511 523 522
3 514 524 523
3 522 523 524
3 504 524 516
3 514 525 524
3 515 516 525
3 524 525 516
3 505 519 527
3 509 526 519
3 513 527 526
3 519 526 527
3 509 517 529
3 515 528 517
3 508 529 528
3 517 528 529
3 515 525 531
3 514 530 525
3 506 531 530
3 525 530 531
3 514 523 533
3 511 532 523
3 510 533 532
3 523 532 533
3 511 521 535
3 505 534 521
3 512 535 534
3 521 534 535
3 507 536 538
3 513 537 536
3 508 538 537
3 536 537 538
3 507 538 540
3 508 539 538
3 506 540 539
3 538 539 540
3 507 540 542
3 506 541 540
3 510 542 541
3 540 541 542
3 507 542 544
3 510 543 542
3 512 544 543
3 542 543 544
3 507 544 536
3 512 545 544
3 513 536 545
3 544 545 536
3 508 537 529
3 513 526 537
3 509 529 526
3 537 526 529
3 506 539 531
3 508 528 539
3 515 531 528
3 539 528 531
3 510 541 533
3 506 530 541
3 514 533 530
3 541 530 533
3 512 543 535
3 510 532 543
3 511 535 532
3 543 532 535
3 513 545 527
3 512 534 545
3 505 527 534
3 545 534 527
3 546 558 560
3 557 559 558
3 551 560 559
3 558 559 560
3 546 560 562
3 551 561 560
3 547 562 561
3 560 561 562
3 546 562 564
3 547 563 562
3 553 564 563
3 562 563 564
3 546 564 566
3 553 565 564
3 556 566 565
3 564 565 566
3 546 566 558
3 556 567 566
3 557 558 567
3 566 567 558
3 547 561 569
3 551 568 561
3 555 569 568
3 561 568 569
3 551 559 571
3 557 570 559
3 550 571 570
3 559 570 571
3 557 567 573
3 556 572 567
3 548 573 572
3 567 572 573
3 556 565 575
3 553 574 565
3 552 575 574
3 565 574 575
3 553 563 577
3 547 576 563
3 554 577 576
3 563 576 577
3 549 578 580
3 555 579 578
3 550 580 579
3 578 579 580
3 549 580 582
3 550 581 580
3 548 582 581
3 580 581 582
3 549 582 584
3 548 583 582
3 552 584 583
3 582 583 584
3 549 584 586
3 552 585 584
3 554 586 585
3 584 585 586
3 549 586 578
3 554 587 586
3 555 578 587
3 586 587 578
3 550 579 571
3 555 568 579
3 551 571 568
3 579 568 571
3 548 581 573
3 550 570 581
3 557 573 570
3 581 570 573
3 552 583 575
3 548 572 583
3 556 575 572
3 583 572 575
3 554 585 577
3 552 574 585
3 553 577 574
3 585 574 577
3 555 587 569
3 554 576 587
3 547 569 576
3 587 576 569
3 588 600 602
3 599 601 600
3 593 602 601
3 600 601 602
3 588 602 604
3 593 603 602
3 589 604 603
3 602 603 604
3 588 604 606
3 589 605 604
3 595 606 605
3 604 605 606
3 588 606 608
3 595 607 606
3 598 608 607
3 606 607 608
3 588 608 600
3 598 609 608
3 599 600 609
3 608 609 600
3 589 603 611
3 593 610 603
3 597 611 610
3 603 610 611
3 593 601 613
3 599 612 601
3 592 613 612
3 601 612 613
3 599 609 615
3 598 614 609
3 590 615 614
3 609 614 615
3 598 607 617
3 595 616 607
3 594 617 616
3 607 616 617
3 595 605 619
3 589 618 605
3 596 619 618
3 605 618 619
3 591 620 622
3 597 621 620
3 592 622 621
3 620 621 622
3 591 622 624
3 592 623 622
3 590 624 623
3 622 623 624
3 591 624 626
3 590 625 624
3 594 626 625
3 624 625 626
3 591 626 628
3 594 627 626
3 596 628 627
3 626 627 628
3 591 628 620
3 596 629 628
3 597 620 629
3 628 629 620
3 592 621 613
3 597 610 621
3 593 613 610
3 621 610 613
3 590 623 615
3 592 612 623
3 599 615 612
3 623 612 615
3 594 625 617
3 590 614 625
3 598 617 614
3 625 614 617
3 596 627 619
3 594 616 627
3 595 619 616
3 627 616 619
3 597 629 611
3 596 618 629
3 589 611 618
3 629 618 611
