ply
format ascii 1.0
element vertex 630
property float x
property float y
property float z
property uchar red
property uchar green
property uchar blue
element face 1200
property list uchar int vertex_indices
end_header
-0.152827 -0.047391 0.429205 255 0 0
-0.160165 -0.047391 0.436736 255 0 0
-0.152827 -0.064404 0.429205 255 0 0
-0.160165 -0.064404 0.436736 255 0 0
-0.162589 -0.061155 0.427034 255 0 0
-0.162589 -0.050640 0.427034 255 0 0
-0.150403 -0.061155 0.438906 255 0 0
-0.150403 -0.050640 0.438906 255 0 0
-0.158667 -0.055898 0.442732 255 0 0
-0.166198 -0.055898 0.435394 255 0 0
-0.146794 -0.055898 0.430546 255 0 0
-0.154325 -0.055898 0.423209 255 0 0
-0.153064 -0.050898 0.425019 255 0 0
-0.158801 -0.052808 0.423743 255 0 0
-0.157921 -0.047808 0.427268 255 0 0
-0.162234 -0.047808 0.431694 255 0 0
-0.156496 -0.045898 0.432970 255 0 0
-0.155071 -0.047808 0.438673 255 0 0
-0.150758 -0.047808 0.434246 255 0 0
-0.147212 -0.052808 0.435035 255 0 0
-0.148637 -0.050898 0.429332 255 0 0
-0.149518 -0.055898 0.425808 255 0 0
-0.165780 -0.052808 0.430906 255 0 0
-0.164355 -0.050898 0.436608 255 0 0
-0.158801 -0.058988 0.423743 255 0 0
-0.163659 -0.055898 0.425992 255 0 0
-0.148637 -0.060898 0.429332 255 0 0
-0.153064 -0.060898 0.425019 255 0 0
-0.149334 -0.055898 0.439949 255 0 0
-0.147212 -0.058988 0.435035 255 0 0
-0.159929 -0.050898 0.440921 255 0 0
-0.154191 -0.052808 0.442197 255 0 0
-0.164355 -0.060898 0.436608 255 0 0
-0.165780 -0.058988 0.430906 255 0 0
-0.162234 -0.063988 0.431694 255 0 0
-0.157921 -0.063988 0.427268 255 0 0
-0.156496 -0.065898 0.432970 255 0 0
-0.150758 -0.063988 0.434246 255 0 0
-0.155071 -0.063988 0.438673 255 0 0
-0.154191 -0.058988 0.442197 255 0 0
-0.159929 -0.060898 0.440921 255 0 0
-0.163475 -0.055898 0.440133 255 0 0
-0.135464 0.023392 0.427990 255 0 0
-0.142801 0.023392 0.435521 255 0 0
-0.135464 0.006379 0.427990 255 0 0
-0.142801 0.006379 0.435521 255 0 0
-0.145225 0.009628 0.425820 255 0 0
-0.145225 0.020143 0.425820 255 0 0
-0.133040 0.009628 0.437692 255 0 0
-0.133040 0.020143 0.437692 255 0 0
-0.141303 0.014885 0.441517 255 0 0
-0.148834 0.014885 0.434180 255 0 0
-0.129431 0.014885 0.429332 255 0 0
-0.136962 0.014885 0.421994 255 0 0
-0.135700 0.019885 0.423805 255 0 0
-0.141438 0.017976 0.422529 255 0 0
-0.140557 0.022976 0.426053 255 0 0
-0.144870 0.022976 0.430480 255 0 0
-0.139132 0.024885 0.431756 255 0 0
-0.137708 0.022976 0.437458 255 0 0
-0.133395 0.022976 0.433032 255 0 0
-0.129849 0.017976 0.433820 255 0 0
-0.131273 0.019885 0.428118 255 0 0
-0.132154 0.014885 0.424593 255 0 0
-0.148416 0.017976 0.429691 255 0 0
-0.146991 0.019885 0.435394 255 0 0
-0.141438 0.011795 0.422529 255 0 0
-0.146295 0.014885 0.424777 255 0 0
-0.131273 0.009885 0.428118 255 0 0
-0.135700 0.009885 0.423805 255 0 0
-0.131970 0.014885 0.438734 255 0 0
-0.129849 0.011795 0.433820 255 0 0
-0.142565 0.019885 0.439707 255 0 0
-0.136827 0.017976 0.440983 255 0 0
-0.146991 0.009885 0.435394 255 0 0
-0.148416 0.011795 0.429691 255 0 0
-0.144870 0.006795 0.430480 255 0 0
-0.140557 0.006795 0.426053 255 0 0
-0.139132 0.004885 0.431756 255 0 0
-0.133395 0.006795 0.433032 255 0 0
-0.137708 0.006795 0.437458 255 0 0
-0.136827 0.011795 0.440983 255 0 0
-0.142565 0.009885 0.439707 255 0 0
-0.146111 0.014885 0.438918 255 0 0
-0.150728 -0.045823 0.423054 255 0 0
-0.158066 -0.045823 0.430585 255 0 0
-0.150728 -0.062836 0.423054 255 0 0
-0.158066 -0.062836 0.430585 255 0 0
-0.160489 -0.059587 0.420884 255 0 0
-0.160489 -0.049073 0.420884 255 0 0
-0.148304 -0.059587 0.432756 255 0 0
-0.148304 -0.049073 0.432756 255 0 0
-0.156567 -0.054330 0.436581 255 0 0
-0.164099 -0.054330 0.429244 255 0 0
-0.144695 -0.054330 0.424396 255 0 0
-0.152226 -0.054330 0.417058 255 0 0
-0.150964 -0.049330 0.418869 255 0 0
-0.156702 -0.051240 0.417593 255 0 0
-0.155821 -0.046240 0.421117 255 0 0
-0.160134 -0.046240 0.425544 255 0 0
-0.154397 -0.044330 0.426820 255 0 0
-0.152972 -0.046240 0.432522 255 0 0
-0.148659 -0.046240 0.428096 255 0 0
-0.145113 -0.051240 0.428884 255 0 0
-0.146538 -0.049330 0.423182 255 0 0
-0.147418 -0.054330 0.419657 255 0 0
-0.163681 -0.051240 0.424755 255 0 0
-0.162256 -0.049330 0.430458 255 0 0
-0.156702 -0.057420 0.417593 255 0 0
-0.161559 -0.054330 0.419841 255 0 0
-0.146538 -0.059330 0.423182 255 0 0
-0.150964 -0.059330 0.418869 255 0 0
-0.147234 -0.054330 0.433798 255 0 0
-0.145113 -0.057420 0.428884 255 0 0
-0.157829 -0.049330 0.434771 255 0 0
-0.152091 -0.051240 0.436047 255 0 0
-0.162256 -0.059330 0.430458 255 0 0
-0.163681 -0.057420 0.424755 255 0 0
-0.160134 -0.062420 0.425544 255 0 0
-0.155821 -0.062420 0.421117 255 0 0
-0.154397 -0.064330 0.426820 255 0 0
-0.148659 -0.062420 0.428096 255 0 0
-0.152972 -0.062420 0.432522 255 0 0
-0.152091 -0.057420 0.436047 255 0 0
-0.157829 -0.059330 0.434771 255 0 0
-0.161375 -0.054330 0.433982 255 0 0
-0.122880 0.102111 0.419982 255 0 0
-0.130218 0.102111 0.427513 255 0 0
-0.122880 0.085098 0.419982 255 0 0
-0.130218 0.085098 0.427513 255 0 0
-0.132642 0.088347 0.417811 255 0 0
-0.132642 0.098862 0.417811 255 0 0
-0.120456 0.088347 0.429684 255 0 0
-0.120456 0.098862 0.429684 255 0 0
-0.128720 0.093604 0.433509 255 0 0
-0.136251 0.093604 0.426171 255 0 0
-0.116847 0.093604 0.421324 255 0 0
-0.124378 0.093604 0.413986 255 0 0
-0.123117 0.098604 0.415796 255 0 0
-0.128854 0.096694 0.414521 255 0 0
-0.127974 0.101694 0.418045 255 0 0
-0.132287 0.101694 0.422472 255 0 0
-0.126549 0.103604 0.423747 255 0 0
-0.125124 0.101694 0.429450 255 0 0
-0.120811 0.101694 0.425023 255 0 0
-0.117265 0.096694 0.425812 255 0 0
-0.118690 0.098604 0.420109 255 0 0
-0.119570 0.093604 0.416585 255 0 0
-0.135833 0.096694 0.421683 255 0 0
-0.134408 0.098604 0.427386 255 0 0
-0.128854 0.090514 0.414521 255 0 0
-0.133711 0.093604 0.416769 255 0 0
-0.118690 0.088604 0.420109 255 0 0
-0.123117 0.088604 0.415796 255 0 0
-0.119386 0.093604 0.430726 255 0 0
-0.117265 0.090514 0.425812 255 0 0
-0.129981 0.098604 0.431698 255 0 0
-0.124244 0.096694 0.432974 255 0 0
-0.134408 0.088604 0.427386 255 0 0
-0.135833 0.090514 0.421683 255 0 0
-0.132287 0.085514 0.422472 255 0 0
-0.127974 0.085514 0.418045 255 0 0
-0.126549 0.083604 0.423747 255 0 0
-0.120811 0.085514 0.425023 255 0 0
-0.125124 0.085514 0.429450 255 0 0
-0.124244 0.090514 0.432974 255 0 0
-0.129981 0.088604 0.431698 255 0 0
-0.133527 0.093604 0.430910 255 0 0
-0.099700 -0.075097 0.412486 255 0 0
-0.107038 -0.075097 0.420017 255 0 0
-0.099700 -0.092110 0.412486 255 0 0
-0.107038 -0.092110 0.420017 255 0 0
-0.109461 -0.088861 0.410315 255 0 0
-0.109461 -0.078346 0.410315 255 0 0
-0.097276 -0.088861 0.422187 255 0 0
-0.097276 -0.078346 0.422187 255 0 0
-0.105539 -0.083604 0.426013 255 0 0
-0.113071 -0.083604 0.418675 255 0 0
-0.093667 -0.083604 0.413827 255 0 0
-0.101198 -0.083604 0.406490 255 0 0
-0.099936 -0.078604 0.408300 255 0 0
-0.105674 -0.080513 0.407024 255 0 0
-0.104794 -0.075513 0.410549 255 0 0
-0.109106 -0.075513 0.414975 255 0 0
-0.103369 -0.073604 0.416251 255 0 0
-0.101944 -0.075513 0.421954 255 0 0
-0.097631 -0.075513 0.417527 255 0 0
-0.094085 -0.080513 0.418316 255 0 0
-0.095510 -0.078604 0.412613 255 0 0
-0.096390 -0.083604 0.409089 255 0 0
-0.112653 -0.080513 0.414187 255 0 0
-0.111228 -0.078604 0.419889 255 0 0
-0.105674 -0.086694 0.407024 255 0 0
-0.110531 -0.083604 0.409273 255 0 0
-0.095510 -0.088604 0.412613 255 0 0
-0.099936 -0.088604 0.408300 255 0 0
-0.096206 -0.083604 0.423230 255 0 0
-0.094085 -0.086694 0.418316 255 0 0
-0.106801 -0.078604 0.424202 255 0 0
-0.101063 -0.080513 0.425478 255 0 0
-0.111228 -0.088604 0.419889 255 0 0
-0.112653 -0.086694 0.414187 255 0 0
-0.109106 -0.091694 0.414975 255 0 0
-0.104794 -0.091694 0.410549 255 0 0
-0.103369 -0.093604 0.416251 255 0 0
-0.097631 -0.091694 0.417527 255 0 0
-0.101944 -0.091694 0.421954 255 0 0
-0.101063 -0.086694 0.425478 255 0 0
-0.106801 -0.088604 0.424202 255 0 0
-0.110347 -0.083604 0.423414 255 0 0
-0.064524 0.093824 0.403438 255 0 0
-0.071861 0.093824 0.410969 255 0 0
-0.064524 0.076811 0.403438 255 0 0
-0.071861 0.076811 0.410969 255 0 0
-0.074285 0.080060 0.401268 255 0 0
-0.074285 0.090575 0.401268 255 0 0
-0.062100 0.080060 0.413140 255 0 0
-0.062100 0.090575 0.413140 255 0 0
-0.070363 0.085317 0.416965 255 0 0
-0.077894 0.085317 0.409628 255 0 0
-0.058491 0.085317 0.404780 255 0 0
-0.066022 0.085317 0.397442 255 0 0
-0.064760 0.090317 0.399253 255 0 0
-0.070498 0.088408 0.397977 255 0 0
-0.069617 0.093408 0.401501 255 0 0
-0.073930 0.093408 0.405928 255 0 0
-0.068192 0.095317 0.407204 255 0 0
-0.066768 0.093408 0.412906 255 0 0
-0.062455 0.093408 0.408480 255 0 0
-0.058909 0.088408 0.409268 255 0 0
-0.060333 0.090317 0.403566 255 0 0
-0.061214 0.085317 0.400041 255 0 0
-0.077476 0.088408 0.405139 255 0 0
-0.076051 0.090317 0.410842 255 0 0
-0.070498 0.082227 0.397977 255 0 0
-0.075355 0.085317 0.400225 255 0 0
-0.060333 0.080317 0.403566 255 0 0
-0.064760 0.080317 0.399253 255 0 0
-0.061030 0.085317 0.414182 255 0 0
-0.058909 0.082227 0.409268 255 0 0
-0.071625 0.090317 0.415155 255 0 0
-0.065887 0.088408 0.416431 255 0 0
-0.076051 0.080317 0.410842 255 0 0
-0.077476 0.082227 0.405139 255 0 0
-0.073930 0.077227 0.405928 255 0 0
-0.069617 0.077227 0.401501 255 0 0
-0.068192 0.075317 0.407204 255 0 0
-0.062455 0.077227 0.408480 255 0 0
-0.066768 0.077227 0.412906 255 0 0
-0.065887 0.082227 0.416431 255 0 0
-0.071625 0.080317 0.415155 255 0 0
-0.075171 0.085317 0.414366 255 0 0
0.052979 0.095026 0.435002 255 0 0
0.045642 0.095026 0.442533 255 0 0
0.052979 0.078013 0.435002 255 0 0
0.045642 0.078013 0.442533 255 0 0
0.043218 0.081262 0.432832 255 0 0
0.043218 0.091777 0.432832 255 0 0
0.055403 0.081262 0.444704 255 0 0
0.055403 0.091777 0.444704 255 0 0
0.047140 0.086519 0.448529 255 0 0
0.039609 0.086519 0.441192 255 0 0
0.059012 0.086519 0.436344 255 0 0
0.051481 0.086519 0.429006 255 0 0
0.052743 0.091519 0.430817 255 0 0
0.047005 0.089610 0.429541 255 0 0
0.047886 0.094610 0.433065 255 0 0
0.043573 0.094610 0.437492 255 0 0
0.049311 0.096519 0.438768 255 0 0
0.050735 0.094610 0.444470 255 0 0
0.055048 0.094610 0.440044 255 0 0
0.058594 0.089610 0.440832 255 0 0
0.057170 0.091519 0.435130 255 0 0
0.056289 0.086519 0.431605 255 0 0
0.040027 0.089610 0.436703 255 0 0
0.041452 0.091519 0.442406 255 0 0
0.047005 0.083429 0.429541 255 0 0
0.042148 0.086519 0.431789 255 0 0
0.057170 0.081519 0.435130 255 0 0
0.052743 0.081519 0.430817 255 0 0
0.056473 0.086519 0.445746 255 0 0
0.058594 0.083429 0.440832 255 0 0
0.045878 0.091519 0.446719 255 0 0
0.051616 0.089610 0.447995 255 0 0
0.041452 0.081519 0.442406 255 0 0
0.040027 0.083429 0.436703 255 0 0
0.043573 0.078429 0.437492 255 0 0
0.047886 0.078429 0.433065 255 0 0
0.049311 0.076519 0.438768 255 0 0
0.055048 0.078429 0.440044 255 0 0
0.050735 0.078429 0.444470 255 0 0
0.051616 0.083429 0.447995 255 0 0
0.045878 0.081519 0.446719 255 0 0
0.042332 0.086519 0.445930 255 0 0
-0.043752 0.097990 0.410190 255 0 0
-0.051090 0.097990 0.417721 255 0 0
-0.043752 0.080977 0.410190 255 0 0
-0.051090 0.080977 0.417721 255 0 0
-0.053514 0.084226 0.408019 255 0 0
-0.053514 0.094741 0.408019 255 0 0
-0.041329 0.084226 0.419892 255 0 0
-0.041329 0.094741 0.419892 255 0 0
-0.049592 0.089484 0.423717 255 0 0
-0.057123 0.089484 0.416380 255 0 0
-0.037719 0.089484 0.411532 255 0 0
-0.045251 0.089484 0.404194 255 0 0
-0.043989 0.094484 0.406005 255 0 0
-0.049727 0.092574 0.404729 255 0 0
-0.048846 0.097574 0.408253 255 0 0
-0.053159 0.097574 0.412680 255 0 0
-0.047421 0.099484 0.413956 255 0 0
-0.045997 0.097574 0.419658 255 0 0
-0.041684 0.097574 0.415231 255 0 0
-0.038137 0.092574 0.416020 255 0 0
-0.039562 0.094484 0.410317 255 0 0
-0.040443 0.089484 0.406793 255 0 0
-0.056705 0.092574 0.411891 255 0 0
-0.055280 0.094484 0.417594 255 0 0
-0.049727 0.086394 0.404729 255 0 0
-0.054584 0.089484 0.406977 255 0 0
-0.039562 0.084484 0.410317 255 0 0
-0.043989 0.084484 0.406005 255 0 0
-0.040259 0.089484 0.420934 255 0 0
-0.038137 0.086394 0.416020 255 0 0
-0.050854 0.094484 0.421907 255 0 0
-0.045116 0.092574 0.423183 255 0 0
-0.055280 0.084484 0.417594 255 0 0
-0.056705 0.086394 0.411891 255 0 0
-0.053159 0.081394 0.412680 255 0 0
-0.048846 0.081394 0.408253 255 0 0
-0.047421 0.079484 0.413956 255 0 0
-0.041684 0.081394 0.415231 255 0 0
-0.045997 0.081394 0.419658 255 0 0
-0.045116 0.086394 0.423183 255 0 0
-0.050854 0.084484 0.421907 255 0 0
-0.054400 0.089484 0.421118 255 0 0
0.041586 -0.089635 0.422878 255 0 0
0.034249 -0.089635 0.430409 255 0 0
0.041586 -0.106648 0.422878 255 0 0
0.034249 -0.106648 0.430409 255 0 0
0.031825 -0.103399 0.420708 255 0 0
0.031825 -0.092884 0.420708 255 0 0
0.044010 -0.103399 0.432580 255 0 0
0.044010 -0.092884 0.432580 255 0 0
0.035747 -0.098141 0.436406 255 0 0
0.028216 -0.098141 0.429068 255 0 0
0.047619 -0.098141 0.424220 255 0 0
0.040088 -0.098141 0.416882 255 0 0
0.041350 -0.093141 0.418693 255 0 0
0.035612 -0.095051 0.417417 255 0 0
0.036493 -0.090051 0.420941 255 0 0
0.032180 -0.090051 0.425368 255 0 0
0.037917 -0.088141 0.426644 255 0 0
0.039342 -0.090051 0.432347 255 0 0
0.043655 -0.090051 0.427920 255 0 0
0.047201 -0.095051 0.428708 255 0 0
0.045776 -0.093141 0.423006 255 0 0
0.044896 -0.098141 0.419482 255 0 0
0.028634 -0.095051 0.424579 255 0 0
0.030058 -0.093141 0.430282 255 0 0
0.035612 -0.101232 0.417417 255 0 0
0.030755 -0.098141 0.419665 255 0 0
0.045776 -0.103141 0.423006 255 0 0
0.041350 -0.103141 0.418693 255 0 0
0.045080 -0.098141 0.433622 255 0 0
0.047201 -0.101232 0.428708 255 0 0
0.034485 -0.093141 0.434595 255 0 0
0.040223 -0.095051 0.435871 255 0 0
0.030058 -0.103141 0.430282 255 0 0
0.028634 -0.101232 0.424579 255 0 0
0.032180 -0.106232 0.425368 255 0 0
0.036493 -0.106232 0.420941 255 0 0
0.037917 -0.108141 0.426644 255 0 0
0.043655 -0.106232 0.427920 255 0 0
0.039342 -0.106232 0.432347 255 0 0
0.040223 -0.101232 0.435871 255 0 0
0.034485 -0.103141 0.434595 255 0 0
0.030939 -0.098141 0.433806 255 0 0
0.048943 -0.083836 0.442612 255 0 0
0.041606 -0.083836 0.450143 255 0 0
0.048943 -0.100849 0.442612 255 0 0
0.041606 -0.100849 0.450143 255 0 0
0.039182 -0.097600 0.440441 255 0 0
0.039182 -0.087085 0.440441 255 0 0
0.051367 -0.097600 0.452314 255 0 0
0.051367 -0.087085 0.452314 255 0 0
0.043104 -0.092342 0.456139 255 0 0
0.035573 -0.092342 0.448802 255 0 0
0.054976 -0.092342 0.443954 255 0 0
0.047445 -0.092342 0.436616 255 0 0
0.048707 -0.087342 0.438427 255 0 0
0.042969 -0.089252 0.437151 255 0 0
0.043850 -0.084252 0.440675 255 0 0
0.039537 -0.084252 0.445102 255 0 0
0.045274 -0.082342 0.446378 255 0 0
0.046699 -0.084252 0.452080 255 0 0
0.051012 -0.084252 0.447654 255 0 0
0.054558 -0.089252 0.448442 255 0 0
0.053133 -0.087342 0.442740 255 0 0
0.052253 -0.092342 0.439215 255 0 0
0.035991 -0.089252 0.444313 255 0 0
0.037415 -0.087342 0.450016 255 0 0
0.042969 -0.095433 0.437151 255 0 0
0.038112 -0.092342 0.439399 255 0 0
0.053133 -0.097342 0.442740 255 0 0
0.048707 -0.097342 0.438427 255 0 0
0.052437 -0.092342 0.453356 255 0 0
0.054558 -0.095433 0.448442 255 0 0
0.041842 -0.087342 0.454329 255 0 0
0.047580 -0.089252 0.455605 255 0 0
0.037415 -0.097342 0.450016 255 0 0
0.035991 -0.095433 0.444313 255 0 0
0.039537 -0.100433 0.445102 255 0 0
0.043850 -0.100433 0.440675 255 0 0
0.045274 -0.102342 0.446378 255 0 0
0.051012 -0.100433 0.447654 255 0 0
0.046699 -0.100433 0.452080 255 0 0
0.047580 -0.095433 0.455605 255 0 0
0.041842 -0.097342 0.454329 255 0 0
0.038296 -0.092342 0.453540 255 0 0
-0.029181 0.040271 0.415869 255 0 0
-0.036519 0.040271 0.423400 255 0 0
-0.029181 0.023258 0.415869 255 0 0
-0.036519 0.023258 0.423400 255 0 0
-0.038943 0.026507 0.413698 255 0 0
-0.038943 0.037021 0.413698 255 0 0
-0.026758 0.026507 0.425571 255 0 0
-0.026758 0.037021 0.425571 255 0 0
-0.035021 0.031764 0.429396 255 0 0
-0.042552 0.031764 0.422058 255 0 0
-0.023148 0.031764 0.417210 255 0 0
-0.030680 0.031764 0.409873 255 0 0
-0.029418 0.036764 0.411683 255 0 0
-0.035156 0.034854 0.410407 255 0 0
-0.034275 0.039854 0.413932 255 0 0
-0.038588 0.039854 0.418358 255 0 0
-0.032850 0.041764 0.419634 255 0 0
-0.031426 0.039854 0.425337 255 0 0
-0.027113 0.039854 0.420910 255 0 0
-0.023566 0.034854 0.421699 255 0 0
-0.024991 0.036764 0.415996 255 0 0
-0.025872 0.031764 0.412472 255 0 0
-0.042134 0.034854 0.417570 255 0 0
-0.040709 0.036764 0.423272 255 0 0
-0.035156 0.028674 0.410407 255 0 0
-0.040013 0.031764 0.412656 255 0 0
-0.024991 0.026764 0.415996 255 0 0
-0.029418 0.026764 0.411683 255 0 0
-0.025688 0.031764 0.426613 255 0 0
-0.023566 0.028674 0.421699 255 0 0
-0.036283 0.036764 0.427585 255 0 0
-0.030545 0.034854 0.428861 255 0 0
-0.040709 0.026764 0.423272 255 0 0
-0.042134 0.028674 0.417570 255 0 0
-0.038588 0.023674 0.418358 255 0 0
-0.034275 0.023674 0.413932 255 0 0
-0.032850 0.021764 0.419634 255 0 0
-0.027113 0.023674 0.420910 255 0 0
-0.031426 0.023674 0.425337 255 0 0
-0.030545 0.028674 0.428861 255 0 0
-0.036283 0.026764 0.427585 255 0 0
-0.039829 0.031764 0.426797 255 0 0
-0.026850 -0.032853 0.401594 255 0 0
-0.034187 -0.032853 0.409125 255 0 0
-0.026850 -0.049866 0.401594 255 0 0
-0.034187 -0.049866 0.409125 255 0 0
-0.036611 -0.046617 0.399424 255 0 0
-0.036611 -0.036102 0.399424 255 0 0
-0.024426 -0.046617 0.411296 255 0 0
-0.024426 -0.036102 0.411296 255 0 0
-0.032689 -0.041359 0.415121 255 0 0
-0.040220 -0.041359 0.407784 255 0 0
-0.020817 -0.041359 0.402936 255 0 0
-0.028348 -0.041359 0.395598 255 0 0
-0.027086 -0.036359 0.397409 255 0 0
-0.032824 -0.038269 0.396133 255 0 0
-0.031943 -0.033269 0.399657 255 0 0
-0.036256 -0.033269 0.404084 255 0 0
-0.030518 -0.031359 0.405360 255 0 0
-0.029094 -0.033269 0.411062 255 0 0
-0.024781 -0.033269 0.406636 255 0 0
-0.021235 -0.038269 0.407424 255 0 0
-0.022659 -0.036359 0.401722 255 0 0
-0.023540 -0.041359 0.398197 255 0 0
-0.039802 -0.038269 0.403295 255 0 0
-0.038377 -0.036359 0.408998 255 0 0
-0.032824 -0.044450 0.396133 255 0 0
-0.037681 -0.041359 0.398381 255 0 0
-0.022659 -0.046359 0.401722 255 0 0
-0.027086 -0.046359 0.397409 255 0 0
-0.023356 -0.041359 0.412338 255 0 0
-0.021235 -0.044450 0.407424 255 0 0
-0.033951 -0.036359 0.413311 255 0 0
-0.028213 -0.038269 0.414587 255 0 0
-0.038377 -0.046359 0.408998 255 0 0
-0.039802 -0.044450 0.403295 255 0 0
-0.036256 -0.049450 0.404084 255 0 0
-0.031943 -0.049450 0.399657 255 0 0
-0.030518 -0.051359 0.405360 255 0 0
-0.024781 -0.049450 0.406636 255 0 0
-0.029094 -0.049450 0.411062 255 0 0
-0.028213 -0.044450 0.414587 255 0 0
-0.033951 -0.046359 0.413311 255 0 0
-0.037497 -0.041359 0.412522 255 0 0
0.030842 -0.014587 0.425438 255 0 0
0.023504 -0.014587 0.432969 255 0 0
0.030842 -0.031600 0.425438 255 0 0
0.023504 -0.031600 0.432969 255 0 0
0.021080 -0.028351 0.423268 255 0 0
0.021080 -0.017836 0.423268 255 0 0
0.033266 -0.028351 0.435140 255 0 0
0.033266 -0.017836 0.435140 255 0 0
0.025002 -0.023094 0.438965 255 0 0
0.017471 -0.023094 0.431628 255 0 0
0.036875 -0.023094 0.426780 255 0 0
0.029344 -0.023094 0.419442 255 0 0
0.030605 -0.018094 0.421253 255 0 0
0.024867 -0.020003 0.419977 255 0 0
0.025748 -0.015003 0.423501 255 0 0
0.021435 -0.015003 0.427928 255 0 0
0.027173 -0.013094 0.429204 255 0 0
0.028598 -0.015003 0.434906 255 0 0
0.032911 -0.015003 0.430480 255 0 0
0.036457 -0.020003 0.431268 255 0 0
0.035032 -0.018094 0.425566 255 0 0
0.034151 -0.023094 0.422041 255 0 0
0.017889 -0.020003 0.427139 255 0 0
0.019314 -0.018094 0.432842 255 0 0
0.024867 -0.026184 0.419977 255 0 0
0.020010 -0.023094 0.422225 255 0 0
0.035032 -0.028094 0.425566 255 0 0
0.030605 -0.028094 0.421253 255 0 0
0.034335 -0.023094 0.436182 255 0 0
0.036457 -0.026184 0.431268 255 0 0
0.023740 -0.018094 0.437155 255 0 0
0.029478 -0.020003 0.438431 255 0 0
0.019314 -0.028094 0.432842 255 0 0
0.017889 -0.026184 0.427139 255 0 0
0.021435 -0.031184 0.427928 255 0 0
0.025748 -0.031184 0.423501 255 0 0
0.027173 -0.033094 0.429204 255 0 0
0.032911 -0.031184 0.430480 255 0 0
0.028598 -0.031184 0.434906 255 0 0
0.029478 -0.026184 0.438431 255 0 0
0.023740 -0.028094 0.437155 255 0 0
0.020194 -0.023094 0.436366 255 0 0
0.056484 0.063314 0.458262 255 0 0
0.049146 0.063314 0.465793 255 0 0
0.056484 0.046301 0.458262 255 0 0
0.049146 0.046301 0.465793 255 0 0
0.046722 0.049550 0.456092 255 0 0
0.046722 0.060065 0.456092 255 0 0
0.058908 0.049550 0.467964 255 0 0
0.058908 0.060065 0.467964 255 0 0
0.050644 0.054808 0.471789 255 0 0
0.043113 0.054808 0.464452 255 0 0
0.062517 0.054808 0.459604 255 0 0
0.054986 0.054808 0.452266 255 0 0
0.056247 0.059808 0.454077 255 0 0
0.050510 0.057898 0.452801 255 0 0
0.051390 0.062898 0.456325 255 0 0
0.047077 0.062898 0.460752 255 0 0
0.052815 0.064808 0.462028 255 0 0
0.054240 0.062898 0.467730 255 0 0
0.058553 0.062898 0.463304 255 0 0
0.062099 0.057898 0.464092 255 0 0
0.060674 0.059808 0.458390 255 0 0
0.059793 0.054808 0.454865 255 0 0
0.043531 0.057898 0.459963 255 0 0
0.044956 0.059808 0.465666 255 0 0
0.050510 0.051717 0.452801 255 0 0
0.045652 0.054808 0.455049 255 0 0
0.060674 0.049808 0.458390 255 0 0
0.056247 0.049808 0.454077 255 0 0
0.059977 0.054808 0.469006 255 0 0
0.062099 0.051717 0.464092 255 0 0
0.049383 0.059808 0.469979 255 0 0
0.055120 0.057898 0.471255 255 0 0
0.044956 0.049808 0.465666 255 0 0
0.043531 0.051717 0.459963 255 0 0
0.047077 0.046717 0.460752 255 0 0
0.051390 0.046717 0.456325 255 0 0
0.052815 0.044808 0.462028 255 0 0
0.058553 0.046717 0.463304 255 0 0
0.054240 0.046717 0.467730 255 0 0
0.055120 0.051717 0.471255 255 0 0
0.049383 0.049808 0.469979 255 0 0
0.045836 0.054808 0.469190 255 0 0
0.004456 0.050901 0.424427 255 0 0
-0.002881 0.050901 0.431958 255 0 0
0.004456 0.033888 0.424427 255 0 0
-0.002881 0.033888 0.431958 255 0 0
-0.005305 0.037138 0.422256 255 0 0
-0.005305 0.047652 0.422256 255 0 0
0.006880 0.037138 0.434129 255 0 0
0.006880 0.047652 0.434129 255 0 0
-0.001383 0.042395 0.437954 255 0 0
-0.008914 0.042395 0.430616 255 0 0
0.010489 0.042395 0.425768 255 0 0
0.002958 0.042395 0.418431 255 0 0
0.004220 0.047395 0.420241 255 0 0
-0.001518 0.045485 0.418965 255 0 0
-0.000637 0.050485 0.422490 255 0 0
-0.004950 0.050485 0.426917 255 0 0
0.000788 0.052395 0.428192 255 0 0
0.002212 0.050485 0.433895 255 0 0
0.006525 0.050485 0.429468 255 0 0
0.010071 0.045485 0.430257 255 0 0
0.008647 0.047395 0.424554 255 0 0
0.007766 0.042395 0.421030 255 0 0
-0.008496 0.045485 0.426128 255 0 0
-0.007071 0.047395 0.431831 255 0 0
-0.001518 0.039305 0.418965 255 0 0
-0.006375 0.042395 0.421214 255 0 0
0.008647 0.037395 0.424554 255 0 0
0.004220 0.037395 0.420241 255 0 0
0.007950 0.042395 0.435171 255 0 0
0.010071 0.039305 0.430257 255 0 0
-0.002645 0.047395 0.436143 255 0 0
0.003093 0.045485 0.437419 255 0 0
-0.007071 0.037395 0.431831 255 0 0
-0.008496 0.039305 0.426128 255 0 0
-0.004950 0.034305 0.426917 255 0 0
-0.000637 0.034305 0.422490 255 0 0
0.000788 0.032395 0.428192 255 0 0
0.006525 0.034305 0.429468 255 0 0
0.002212 0.034305 0.433895 255 0 0
0.003093 0.039305 0.437419 255 0 0
-0.002645 0.037395 0.436143 255 0 0
-0.006191 0.042395 0.435355 255 0 0
3 0 12 14
3 11 13 12
3 5 14 13
3 12 13 14
3 0 14 16
3 5 15 14
3 1 16 15
3 14 15 16
3 0 16 18
3 1 17 16
3 7 18 17
3 16 17 18
3 0 18 20
3 7 19 18
3 10 20 19
3 18 19 20
3 0 20 12
3 10 21 20
3 11 12 21
3 20 21 12
3 1 15 23
3 5 22 15
3 9 23 22
3 15 22 23
3 5 13 25
3 11 24 13
3 4 25 24
3 13 24 25
3 11 21 27
3 10 26 21
3 2 27 26
3 21 26 27
3 10 19 29
3 7 28 19
3 6 29 28
3 19 28 29
3 7 17 31
3 1 30 17
3 8 31 30
3 17 30 31
3 3 32 34
3 9 33 32
3 4 34 33
3 32 33 34
3 3 34 36
3 4 35 34
3 2 36 35
3 34 35 36
3 3 36 38
3 2 37 36
3 6 38 37
3 36 37 38
3 3 38 40
3 6 39 38
3 8 40 39
3 38 39 40
3 3 40 32
3 8 41 40
3 9 32 41
3 40 41 32
3 4 33 25
3 9 22 33
3 5 25 22
3 33 22 25
3 2 35 27
3 4 24 35
3 11 27 24
3 35 24 27
3 6 37 29
3 2 26 37
3 10 29 26
3 37 26 29
3 8 39 31
3 6 28 39
3 7 31 28
3 39 28 31
3 9 41 23
3 8 30 41
3 1 23 30
3 41 30 23
3 42 54 56
3 53 55 54
3 47 56 55
3 54 55 56
3 42 56 58
3 47 57 56
3 43 58 57
3 56 57 58
3 42 58 60
3 43 59 58
3 49 60 59
3 58 59 60
3 42 60 62
3 49 61 60
3 52 62 61
3 60 61 62
3 42 62 54
3 52 63 62
3 53 54 63
3 62 63 54
3 43 57 65
3 47 64 57
3 51 65 64
3 57 64 65
3 47 55 67
3 53 66 55
3 46 67 66
3 55 66 67
3 53 63 69
3 52 68 63
3 44 69 68
3 63 68 69
3 52 61 71
3 49 70 61
3 48 71 70
3 61 70 71
3 49 59 73
3 43 72 59
3 50 73 72
3 59 72 73
3 45 74 76
3 51 75 74
3 46 76 75
3 74 75 76
3 45 76 78
3 46 77 76
3 44 78 77
3 76 77 78
3 45 78 80
3 44 79 78
3 48 80 79
3 78 79 80
3 45 80 82
3 48 81 80
3 50 82 81
3 80 81 82
3 45 82 74
3 50 83 82
3 51 74 83
3 82 83 74
3 46 75 67
3 51 64 75
3 47 67 64
3 75 64 67
3 44 77 69
3 46 66 77
3 53 69 66
3 77 66 69
3 48 79 71
3 44 68 79
3 52 71 68
3 79 68 71
3 50 81 73
3 48 70 81
3 49 73 70
3 81 70 73
3 51 83 65
3 50 72 83
3 43 65 72
3 83 72 65
3 84 96 98
3 95 97 96
3 89 98 97
3 96 97 98
3 84 98 100
3 89 99 98
3 85 100 99
3 98 99 100
3 84 100 102
3 85 101 100
3 91 102 101
3 100 101 102
3 84 102 104
3 91 103 102
3 94 104 103
3 102 103 104
3 84 104 96
3 94 105 104
3 95 96 105
3 104 105 96
3 85 99 107
3 89 106 99
3 93 107 106
3 99 106 107
3 89 97 109
3 95 108 97
3 88 109 108
3 97 108 109
3 95 105 111
3 94 110 105
3 86 111 110
3 105 110 111
3 94 103 113
3 91 112 103
3 90 113 112
3 103 112 113
3 91 101 115
3 85 114 101
3 92 115 114
3 101 114 115
3 87 116 118
3 93 117 116
3 88 118 117
3 116 117 118
3 87 118 120
3 88 119 118
3 86 120 119
3 118 119 120
3 87 120 122
3 86 121 120
3 90 122 121
3 120 121 122
3 87 122 124
3 90 123 122
3 92 124 123
3 122 123 124
3 87 124 116
3 92 125 124
3 93 116 125
3 124 125 116
3 88 117 109
3 93 106 117
3 89 109 106
3 117 106 109
3 86 119 111
3 88 108 119
3 95 111 108
3 119 108 111
3 90 121 113
3 86 110 121
3 94 113 110
3 121 110 113
3 92 123 115
3 90 112 123
3 91 115 112
3 123 112 115
3 93 125 107
3 92 114 125
3 85 107 114
3 125 114 107
3 126 138 140
3 137 139 138
3 131 140 139
3 138 139 140
3 126 140 142
3 131 141 140
3 127 142 141
3 140 141 142
3 126 142 144
3 127 143 142
3 133 144 143
3 142 143 144
3 126 144 146
3 133 145 144
3 136 146 145
3 144 145 146
3 126 146 138
3 136 147 146
3 137 138 147
3 146 147 138
3 127 141 149
3 131 148 141
3 135 149 148
3 141 148 149
3 131 139 151
3 137 150 139
3 130 151 150
3 139 150 151
3 137 147 153
3 136 152 147
3 128 153 152
3 147 152 153
3 136 145 155
3 133 154 145
3 132 155 154
3 145 154 155
3 133 143 157
3 127 156 143
3 134 157 156
3 143 156 157
3 129 158 160
3 135 159 158
3 130 160 159
3 158 159 160
3 129 160 162
3 130 161 160
3 128 162 161
3 160 161 162
3 129 162 164
3 128 163 162
3 132 164 163
3 162 163 164
3 129 164 166
3 132 165 164
3 134 166 165
3 164 165 166
3 129 166 158
3 134 167 166
3 135 158 167
3 166 167 158
3 130 159 151
3 135 148 159
3 131 151 148
3 159 148 151
3 128 161 153
3 130 150 161
3 137 153 150
3 161 150 153
3 132 163 155
3 128 152 163
3 136 155 152
3 163 152 155
3 134 165 157
3 132 154 165
3 133 157 154
3 165 154 157
3 135 167 149
3 134 156 167
3 127 149 156
3 167 156 149
3 168 180 182
3 179 181 180
3 173 182 181
3 180 181 182
3 168 182 184
3 173 183 182
3 169 184 183
3 182 183 184
3 168 184 186
3 169 185 184
3 175 186 185
3 184 185 186
3 168 186 188
3 175 187 186
3 178 188 187
3 186 187 188
3 168 188 180
3 178 189 188
3 179 180 189
3 188 189 180
3 169 183 191
3 173 190 183
3 177 191 190
3 183 190 191
3 173 181 193
3 179 192 181
3 172 193 192
3 181 192 193
3 179 189 195
3 178 194 189
3 170 195 194
3 189 194 195
3 178 187 197
3 175 196 187
3 174 197 196
3 187 196 197
3 175 185 199
3 169 198 185
3 176 199 198
3 185 198 199
3 171 200 202
3 177 201 200
3 172 202 201
3 200 201 202
3 171 202 204
3 172 203 202
3 170 204 203
3 202 203 204
3 171 204 206
3 170 205 204
3 174 206 205
3 204 205 206
3 171 206 208
3 174 207 206
3 176 208 207
3 206 207 208
3 171 208 200
3 176 209 208
3 177 200 209
3 208 209 200
3 172 201 193
3 177 190 201
3 173 193 190
3 201 190 193
3 170 203 195
3 172 192 203
3 179 195 192
3 203 192 195
3 174 205 197
3 170 194 205
3 178 197 194
3 205 194 197
3 176 207 199
3 174 196 207
3 175 199 196
3 207 196 199
3 177 209 191
3 176 198 209
3 169 191 198
3 209 198 191
3 210 222 224
3 221 223 222
3 215 224 223
3 222 223 224
3 210 224 226
3 215 225 224
3 211 226 225
3 224 225 226
3 210 226 228
3 211 227 226
3 217 228 227
3 226 227 228
3 210 228 230
3 217 229 228
3 220 230 229
3 228 229 230
3 210 230 222
3 220 231 230
3 221 222 231
3 230 231 222
3 211 225 233
3 215 232 225
3 219 233 232
3 225 232 233
3 215 223 235
3 221 234 223
3 214 235 234
3 223 234 235
3 221 231 237
3 220 236 231
3 212 237 236
3 231 236 237
3 220 229 239
3 217 238 229
3 216 239 238
3 229 238 239
3 217 227 241
3 211 240 227
3 218 241 240
3 227 240 241
3 213 242 244
3 219 243 242
3 214 244 243
3 242 243 244
3 213 244 246
3 214 245 244
3 212 246 245
3 244 245 246
3 213 246 248
3 212 247 246
3 216 248 247
3 246 247 248
3 213 248 250
3 216 249 248
3 218 250 249
3 248 249 250
3 213 250 242
3 218 251 250
3 219 242 251
3 250 251 242
3 214 243 235
3 219 232 243
3 215 235 232
3 243 232 235
3 212 245 237
3 214 234 245
3 221 237 234
3 245 234 237
3 216 247 239
3 212 236 247
3 220 239 236
3 247 236 239
3 218 249 241
3 216 238 249
3 217 241 238
3 249 238 241
3 219 251 233
3 218 240 251
3 211 233 240
3 251 240 233
3 252 264 266
3 263 265 264
3 257 266 265
3 264 265 266
3 252 266 268
3 257 267 266
3 253 268 267
3 266 267 268
3 252 268 270
3 253 269 268
3 259 270 269
3 268 269 270
3 252 270 272
3 259 271 270
3 262 272 271
3 270 271 272
3 252 272 264
3 262 273 272
3 263 264 273
3 272 273 264
3 253 267 275
3 257 274 267
3 261 275 274
3 267 274 275
3 257 265 277
3 263 276 265
3 256 277 276
3 265 276 277
3 263 273 279
3 262 278 273
3 254 279 278
3 273 278 279
3 262 271 281
3 259 280 271
3 258 281 280
3 271 280 281
3 259 269 283
3 253 282 269
3 260 283 282
3 269 282 283
3 255 284 286
3 261 285 284
3 256 286 285
3 284 285 286
3 255 286 288
3 256 287 286
3 254 288 287
3 286 287 288
3 255 288 290
3 254 289 288
3 258 290 289
3 288 289 290
3 255 290 292
3 258 291 290
3 260 292 291
3 290 291 292
3 255 292 284
3 260 293 292
3 261 284 293
3 292 293 284
3 256 285 277
3 261 274 285
3 257 277 274
3 285 274 277
3 254 287 279
3 256 276 287
3 263 279 276
3 287 276 279
3 258 289 281
3 254 278 289
3 262 281 278
3 289 278 281
3 260 291 283
3 258 280 291
3 259 283 280
3 291 280 283
3 261 293 275
3 260 282 293
3 253 275 282
3 293 282 275
3 294 306 308
3 305 307 306
3 299 308 307
3 306 307 308
3 294 308 310
3 299 309 308
3 295 310 309
3 308 309 310
3 294 310 312
3 295 311 310
3 301 312 311
3 310 311 312
3 294 312 314
3 301 313 312
3 304 314 313
3 312 313 314
3 294 314 306
3 304 315 314
3 305 306 315
3 314 315 306
3 295 309 317
3 299 316 309
3 303 317 316
3 309 316 317
3 299 307 319
3 305 318 307
3 298 319 318
3 307 318 319
3 305 315 321
3 304 320 315
3 296 321 320
3 315 320 321
3 304 313 323
3 301 322 313
3 300 323 322
3 313 322 323
3 301 311 325
3 295 324 311
3 302 325 324
3 311 324 325
3 297 326 328
3 303 327 326
3 298 328 327
3 326 327 328
3 297 328 330
3 298 329 328
3 296 330 329
3 328 329 330
3 297 330 332
3 296 331 330
3 300 332 331
3 330 331 332
3 297 332 334
3 300 333 332
3 302 334 333
3 332 333 334
3 297 334 326
3 302 335 334
3 303 326 335
3 334 335 326
3 298 327 319
3 303 316 327
3 299 319 316
3 327 316 319
3 296 329 321
3 298 318 329
3 305 321 318
3 329 318 321
3 300 331 323
3 296 320 331
3 304 323 320
3 331 320 323
3 302 333 325
3 300 322 333
3 301 325 322
3 333 322 325
3 303 335 317
3 302 324 335
3 295 317 324
3 335 324 317
3 336 348 350
3 347 349 348
3 341 350 349
3 348 349 350
3 336 350 352
3 341 351 350
3 337 352 351
3 350 351 352
3 336 352 354
3 337 353 352
3 343 354 353
3 352 353 354
3 336 354 356
3 343 355 354
3 346 356 355
3 354 355 356
3 336 356 348
3 346 357 356
3 347 348 357
3 356 357 348
3 337 351 359
3 341 358 351
3 345 359 358
3 351 358 359
3 341 349 361
3 347 360 349
3 340 361 360
3 349 360 361
3 347 357 363
3 346 362 357
3 338 363 362
3 357 362 363
3 346 355 365
3 343 364 355
3 342 365 364
3 355 364 365
3 343 353 367
3 337 366 353
3 344 367 366
3 353 366 367
3 339 368 370
3 345 369 368
3 340 370 369
3 368 369 370
3 339 370 372
3 340 371 370
3 338 372 371
3 370 371 372
3 339 372 374
3 338 373 372
3 342 374 373
3 372 373 374
3 339 374 376
3 342 375 374
3 344 376 375
3 374 375 376
3 339 376 368
3 344 377 376
3 345 368 377
3 376 377 368
3 340 369 361
3 345 358 369
3 341 361 358
3 369 358 361
3 338 371 363
3 340 360 371
3 347 363 360
3 371 360 363
3 342 373 365
3 338 362 373
3 346 365 362
3 373 362 365
3 344 375 367
3 342 364 375
3 343 367 364
3 375 364 367
3 345 377 359
3 344 366 377
3 337 359 366
3 377 366 359
3 378 390 392
3 389 391 390
3 383 392 391
3 390 391 392
3 378 392 394
3 383 393 392
3 379 394 393
3 392 393 394
3 378 394 396
3 379 395 394
3 385 396 395
3 394 395 396
3 378 396 398
3 385 397 396
3 388 398 397
3 396 397 398
3 378 398 390
3 388 399 398
3 389 390 399
3 398 399 390
3 379 393 401
3 383 400 393
3 387 401 400
3 393 400 401
3 383 391 403
3 389 402 391
3 382 403 402
3 391 402 403
3 389 399 405
3 388 404 399
3 380 405 404
3 399 404 405
3 388 397 407
3 385 406 397
3 384 407 406
3 397 406 407
3 385 395 409
3 379 408 395
3 386 409 408
3 395 408 409
3 381 410 412
3 387 411 410
3 382 412 411
3 410 411 412
3 381 412 414
3 382 413 412
3 380 414 413
3 412 413 414
3 381 414 416
3 380 415 414
3 384 416 415
3 414 415 416
3 381 416 418
3 384 417 416
3 386 418 417
3 416 417 418
3 381 418 410
3 386 419 418
3 387 410 419
3 418 419 410
3 382 411 403
3 387 400 411
3 383 403 400
3 411 400 403
3 380 413 405
3 382 402 413
3 389 405 402
3 413 402 405
3 384 415 407
3 380 404 415
3 388 407 404
3 415 404 407
3 386 417 409
3 384 406 417
3 385 409 406
3 417 406 409
3 387 419 401
3 386 408 419
3 379 401 408
3 419 408 401
3 420 432 434
3 431 433 432
3 425 434 433
3 432 433 434
3 420 434 436
3 425 435 434
3 421 436 435
3 434 435 436
3 420 436 438
3 421 437 436
3 427 438 437
3 436 437 438
3 420 438 440
3 427 439 438
3 430 440 439
3 438 439 440
3 420 440 432
3 430 441 440
3 431 432 441
3 440 441 432
3 421 435 443
3 425 442 435
3 429 443 442
3 435 442 443
3 425 433 445
3 431 444 433
3 424 445 444
3 433 444 445
3 431 441 447
3 430 446 441
3 422 447 446
3 441 446 447
3 430 439 449
3 427 448 439
3 426 449 448
3 439 448 449
3 427 437 451
3 421 450 437
3 428 451 450
3 437 450 451
3 423 452 454
3 429 453 452
3 424 454 453
3 452 453 454
3 423 454 456
3 424 455 454
3 422 456 455
3 454 455 456
3 423 456 458
3 422 457 456
3 426 458 457
3 456 457 458
3 423 458 460
3 426 459 458
3 428 460 459
3 458 459 460
3 423 460 452
3 428 461 460
3 429 452 461
3 460 461 452
3 424 453 445
3 429 442 453
3 425 445 442
3 453 442 445
3 422 455 447
3 424 444 455
3 431 447 444
3 455 444 447
3 426 457 449
3 422 446 457
3 430 449 446
3 457 446 449
3 428 459 451
3 426 448 459
3 427 451 448
3 459 448 451
3 429 461 443
3 428 450 461
3 421 443 450
3 461 450 443
3 462 474 476
3 473 475 474
3 467 476 475
3 474 475 476
3 462 476 478
3 467 477 476
3 463 478 477
3 476 477 478
3 462 478 480
3 463 479 478
3 469 480 479
3 478 479 480
3 462 480 482
3 469 481 480
3 472 482 481
3 480 481 482
3 462 482 474
3 472 483 482
3 473 474 483
3 482 483 474
3 463 477 485
3 467 484 477
3 471 485 484
3 477 484 485
3 467 475 487
3 473 486 475
3 466 487 486
3 475 486 487
3 473 483 489
3 472 488 483
3 464 489 488
3 483 488 489
3 472 481 491
3 469 490 481
3 468 491 490
3 481 490 491
3 469 479 493
3 463 492 479
3 470 493 492
3 479 492 493
3 465 494 496
3 471 495 494
3 466 496 495
3 494 495 496
3 465 496 498
3 466 497 496
3 464 498 497
3 496 497 498
3 465 498 500
3 464 499 498
3 468 500 499
3 498 499 500
3 465 500 502
3 468 501 500
3 470 502 501
3 500 501 502
3 465 502 494
3 470 503 502
3 471 494 503
3 502 503 494
3 466 495 487
3 471 484 495
3 467 487 484
3 495 484 487
3 464 497 489
3 466 486 497
3 473 489 486
3 497 486 489
3 468 499 491
3 464 488 499
3 472 491 488
3 499 488 491
3 470 501 493
3 468 490 501
3 469 493 490
3 501 490 493
3 471 503 485
3 470 492 503
3 463 485 492
3 503 492 485
3 504 516 518
3 515 517 516
3 509 518 517
3 516 517 518
3 504 518 520
3 509 519 518
3 505 520 519
3 518 519 520
3 504 520 522
3 505 521 520
3 511 522 521
3 520 521 522
3 504 522 524
3 511 523 522
3 514 524 523
3 522 523 524
3 504 524 516
3 514 525 524
3 515 516 525
3 524 525 516
3 505 519 527
3 509 526 519
3 513 527 526
3 519 526 527
3 509 517 529
3 515 528 517
3 508 529 528
3 517 528 529
3 515 525 531
3 514 530 525
3 506 531 530
3 525 530 531
3 514 523 533
3 511 532 523
3 510 533 532
3 523 532 533
3 511 521 535
3 505 534 521
3 512 535 534
3 521 534 535
3 507 536 538
3 513 537 536
3 508 538 537
3 536 537 538
3 507 538 540
3 508 539 538
3 506 540 539
3 538 539 540
3 507 540 542
3 506 541 540
3 510 542 541
3 540 541 542
3 507 542 544
3 510 543 542
3 512 544 543
3 542 543 544
3 507 544 536
3 512 545 544
3 513 536 545
3 544 545 536
3 508 537 529
3 513 526 537
3 509 529 526
3 537 526 529
3 506 539 531
3 508 528 539
3 515 531 528
3 539 528 531
3 510 541 533
3 506 530 541
3 514 533 530
3 541 530 533
3 512 543 535
3 510 532 543
3 511 535 532
3 543 532 535
3 513 545 527
3 512 534 545
3 505 527 534
3 545 534 527
3 546 558 560
3 557 559 558
3 551 560 559
3 558 559 560
3 546 560 562
3 551 561 560
3 547 562 561
3 560 561 562
3 546 562 564
3 547 563 562
3 553 564 563
3 562 563 564
3 546 564 566
3 553 565 564
3 556 566 565
3 564 565 566
3 546 566 558
3 556 567 566
3 557 558 567
3 566 567 558
3 547 561 569
3 551 568 561
3 555 569 568
3 561 568 569
3 551 559 571
3 557 570 559
3 550 571 570
3 559 570 571
3 557 567 573
3 556 572 567
3 548 573 572
3 567 572 573
3 556 565 575
3 553 574 565
3 552 575 574
3 565 574 575
3 553 563 577
3 547 576 563
3 554 577 576
3 563 576 577
3 549 578 580
3 555 579 578
3 550 580 579
3 578 579 580
3 549 580 582
3 550 581 580
3 548 582 581
3 580 581 582
3 549 582 584
3 548 583 582
3 552 584 583
3 582 583 584
3 549 584 586
3 552 585 584
3 554 586 585
3 584 585 586
3 549 586 578
3 554 587 586
3 555 578 587
3 586 587 578
3 550 579 571
3 555 568 579
3 551 571 568
3 579 568 571
3 548 581 573
3 550 570 581
3 557 573 570
3 581 570 573
3 552 583 575
3 548 572 583
3 556 575 572
3 583 572 575
3 554 585 577
3 552 574 585
3 553 577 574
3 585 574 577
3 555 587 569
3 554 576 587
3 547 569 576
3 587 576 569
3 588 600 602
3 599 601 600
3 593 602 601
3 600 601 602
3 588 602 604
3 593 603 602
3 589 604 603
3 602 603 604
3 588 604 606
3 589 605 604
3 595 606 605
3 604 605 606
3 588 606 608
3 595 607 606
3 598 608 607
3 606 607 608
3 588 608 600
3 598 609 608
3 599 600 609
3 608 609 600
3 589 603 611
3 593 610 603
3 597 611 610
3 603 610 611
3 593 601 613
3 599 612 601
3 592 613 612
3 601 612 613
3 599 609 615
3 598 614 609
3 590 615 614
3 609 614 615
3 598 607 617
3 595 616 607
3 594 617 616
3 607 616 617
3 595 605 619
3 589 618 605
3 596 619 618
3 605 618 619
3 591 620 622
3 597 621 620
3 592 622 621
3 620 621 622
3 591 622 624
3 592 623 622
3 590 624 623
3 622 623 624
3 591 624 626
3 590 625 624
3 594 626 625
3 624 625 626
3 591 626 628
3 594 627 626
3 596 628 627
3 626 627 628
3 591 628 620
3 596 629 628
3 597 620 629
3 628 629 620
3 592 621 613
3 597 610 621
3 593 613 610
3 621 610 613
3 590 623 615
3 592 612 623
3 599 615 612
3 623 612 615
3 594 625 617
3 590 614 625
3 598 617 614
3 625 614 617
3 596 627 619
3 594 616 627
3 595 619 616
3 627 616 619
3 597 629 611
3 596 618 629
3 589 611 618
3 629 618 611
