ply
format ascii 1.0
element vertex 966
property float x
property float y
property float z
property uchar red
property uchar green
property uchar blue
element face 1840
property list uchar int vertex_indices
end_header
-0.174736 -0.062823 0.440605 255 0 0
-0.184609 -0.062914 0.449192 255 0 0
-0.176513 -0.083803 0.438341 255 0 0
-0.186386 -0.083894 0.446928 255 0 0
-0.184684 -0.079096 0.438965 255 0 0
-0.183586 -0.066130 0.440364 255 0 0
-0.177536 -0.080587 0.447168 255 0 0
-0.176438 -0.067621 0.448568 255 0 0
-0.186340 -0.073892 0.453248 255 0 0
-0.190758 -0.072971 0.448178 255 0 0
-0.170364 -0.073746 0.439354 255 0 0
-0.174782 -0.072825 0.434284 255 0 0
-0.173741 -0.066852 0.436334 255 0 0
-0.178943 -0.068796 0.436193 255 0 0
-0.178915 -0.062917 0.439908 255 0 0
-0.184719 -0.062970 0.444956 255 0 0
-0.179517 -0.061027 0.445097 255 0 0
-0.180517 -0.063847 0.449778 255 0 0
-0.174714 -0.063793 0.444730 255 0 0
-0.172144 -0.070214 0.443995 255 0 0
-0.171144 -0.067394 0.439315 255 0 0
-0.171171 -0.073272 0.435599 255 0 0
-0.188333 -0.068882 0.444360 255 0 0
-0.188934 -0.066992 0.449549 255 0 0
-0.179588 -0.076417 0.435371 255 0 0
-0.184763 -0.072482 0.438944 255 0 0
-0.172188 -0.079726 0.437984 255 0 0
-0.174785 -0.079184 0.435004 255 0 0
-0.176359 -0.074235 0.448588 255 0 0
-0.172789 -0.077835 0.443172 255 0 0
-0.186337 -0.067533 0.452529 255 0 0
-0.181534 -0.070300 0.452162 255 0 0
-0.189978 -0.079323 0.448218 255 0 0
-0.188978 -0.076503 0.443537 255 0 0
-0.186409 -0.082924 0.442802 255 0 0
-0.180605 -0.082870 0.437755 255 0 0
-0.181605 -0.085690 0.442435 255 0 0
-0.176403 -0.083747 0.442577 255 0 0
-0.182207 -0.083800 0.447624 255 0 0
-0.182179 -0.077921 0.451339 255 0 0
-0.187381 -0.079865 0.451198 255 0 0
-0.189951 -0.073445 0.451933 255 0 0
-0.144761 -0.019627 0.427850 255 0 0
-0.155104 -0.019073 0.435214 255 0 0
-0.146790 -0.040385 0.426562 255 0 0
-0.157132 -0.039831 0.433926 255 0 0
-0.154856 -0.035534 0.425833 255 0 0
-0.153603 -0.022705 0.426629 255 0 0
-0.148291 -0.036753 0.435146 255 0 0
-0.147037 -0.023924 0.435942 255 0 0
-0.157285 -0.029658 0.439723 255 0 0
-0.161343 -0.028904 0.433967 255 0 0
-0.140551 -0.030554 0.427808 255 0 0
-0.144608 -0.029800 0.422052 255 0 0
-0.143585 -0.023833 0.423909 255 0 0
-0.148782 -0.025642 0.423191 255 0 0
-0.148872 -0.019662 0.426599 255 0 0
-0.154952 -0.019337 0.430927 255 0 0
-0.149755 -0.017528 0.431645 255 0 0
-0.151092 -0.020054 0.436401 255 0 0
-0.145013 -0.020379 0.432073 255 0 0
-0.142538 -0.026802 0.432049 255 0 0
-0.141200 -0.024276 0.427292 255 0 0
-0.141110 -0.030256 0.423884 255 0 0
-0.158619 -0.025115 0.430195 255 0 0
-0.159501 -0.022981 0.435241 255 0 0
-0.149519 -0.033183 0.422723 255 0 0
-0.154806 -0.029012 0.425414 255 0 0
-0.142393 -0.036477 0.426535 255 0 0
-0.144778 -0.036034 0.423152 255 0 0
-0.147088 -0.030446 0.436362 255 0 0
-0.143275 -0.034343 0.431581 255 0 0
-0.157116 -0.023424 0.438624 255 0 0
-0.152375 -0.026275 0.439052 255 0 0
-0.160693 -0.035182 0.434484 255 0 0
-0.159356 -0.032656 0.429727 255 0 0
-0.156881 -0.039079 0.429702 255 0 0
-0.150801 -0.039405 0.425374 255 0 0
-0.152139 -0.041930 0.430131 255 0 0
-0.146942 -0.040121 0.430848 255 0 0
-0.153021 -0.039796 0.435177 255 0 0
-0.153111 -0.033816 0.438584 255 0 0
-0.158308 -0.035625 0.437867 255 0 0
-0.160783 -0.029202 0.437891 255 0 0
-0.138461 0.081505 0.422696 255 0 0
-0.147615 0.082347 0.429184 255 0 0
-0.137544 0.059344 0.426870 255 0 0
-0.146698 0.060187 0.433357 255 0 0
-0.145772 0.062956 0.424547 255 0 0
-0.146339 0.076652 0.421968 255 0 0
-0.138820 0.065040 0.434085 255 0 0
-0.139387 0.078736 0.431506 255 0 0
-0.147837 0.072172 0.436222 255 0 0
-0.152133 0.070884 0.430327 255 0 0
-0.133026 0.070808 0.425726 255 0 0
-0.137322 0.069520 0.419831 255 0 0
-0.137068 0.076332 0.420076 255 0 0
-0.141699 0.073479 0.419648 255 0 0
-0.142368 0.080524 0.421332 255 0 0
-0.147749 0.081019 0.425145 255 0 0
-0.143119 0.083872 0.425574 255 0 0
-0.143663 0.082244 0.430752 255 0 0
-0.138282 0.081749 0.426939 255 0 0
-0.135087 0.075461 0.428720 255 0 0
-0.134543 0.077089 0.423541 255 0 0
-0.133873 0.070044 0.421857 255 0 0
-0.150405 0.074281 0.425818 255 0 0
-0.151155 0.077628 0.430059 255 0 0
-0.141365 0.065429 0.421164 255 0 0
-0.146665 0.069621 0.422420 255 0 0
-0.134004 0.064063 0.425994 255 0 0
-0.136529 0.063306 0.422529 255 0 0
-0.138493 0.072071 0.433633 255 0 0
-0.134754 0.067411 0.430236 255 0 0
-0.148630 0.078386 0.433524 255 0 0
-0.143793 0.076263 0.434889 255 0 0
-0.150616 0.064603 0.432512 255 0 0
-0.150071 0.066230 0.427334 255 0 0
-0.146876 0.059943 0.429114 255 0 0
-0.141496 0.059448 0.425301 255 0 0
-0.142040 0.057820 0.430480 255 0 0
-0.137410 0.060673 0.430908 255 0 0
-0.142790 0.061168 0.434721 255 0 0
-0.143460 0.068212 0.436405 255 0 0
-0.148090 0.065360 0.435977 255 0 0
-0.151285 0.071647 0.434196 255 0 0
-0.098553 0.080348 0.418587 255 0 0
-0.106155 0.081736 0.423968 255 0 0
-0.098868 0.056661 0.424249 255 0 0
-0.106471 0.058048 0.429630 255 0 0
-0.106523 0.060682 0.420637 255 0 0
-0.106328 0.075322 0.417138 255 0 0
-0.098696 0.063074 0.431080 255 0 0
-0.098501 0.077714 0.427580 255 0 0
-0.106244 0.071060 0.431689 255 0 0
-0.111082 0.069582 0.425235 255 0 0
-0.093942 0.068815 0.422982 255 0 0
-0.098780 0.067337 0.416528 255 0 0
-0.097991 0.074658 0.416408 255 0 0
-0.102561 0.071704 0.415556 255 0 0
-0.102428 0.079352 0.416766 255 0 0
-0.106897 0.080167 0.419928 255 0 0
-0.102326 0.083121 0.420780 255 0 0
-0.102296 0.081573 0.426067 255 0 0
-0.097827 0.080758 0.422904 255 0 0
-0.095117 0.073978 0.425487 255 0 0
-0.095147 0.075527 0.420201 255 0 0
-0.095281 0.067879 0.418991 255 0 0
-0.109792 0.073023 0.420673 255 0 0
-0.109691 0.076793 0.424688 255 0 0
-0.102676 0.063099 0.417613 255 0 0
-0.107113 0.067792 0.417971 255 0 0
-0.095333 0.061604 0.423529 255 0 0
-0.098177 0.060735 0.419736 255 0 0
-0.097911 0.070604 0.430247 255 0 0
-0.095232 0.065373 0.427544 255 0 0
-0.106847 0.077662 0.428482 255 0 0
-0.102348 0.075298 0.430605 255 0 0
-0.109876 0.062870 0.428016 255 0 0
-0.109907 0.064418 0.422730 255 0 0
-0.107197 0.057639 0.425314 255 0 0
-0.102728 0.056823 0.422151 255 0 0
-0.102697 0.055275 0.427437 255 0 0
-0.098127 0.058229 0.428289 255 0 0
-0.102596 0.059045 0.431452 255 0 0
-0.102462 0.066693 0.432662 255 0 0
-0.107033 0.063739 0.431810 255 0 0
-0.109743 0.070518 0.429226 255 0 0
-0.074404 -0.061077 0.406814 255 0 0
-0.083640 -0.062072 0.414067 255 0 0
-0.075437 -0.082537 0.402554 255 0 0
-0.084674 -0.083532 0.409807 255 0 0
-0.083509 -0.077866 0.402491 255 0 0
-0.082870 -0.064604 0.405125 255 0 0
-0.076207 -0.080006 0.411497 255 0 0
-0.075568 -0.066743 0.414130 255 0 0
-0.084755 -0.073771 0.416961 255 0 0
-0.089268 -0.072448 0.411396 255 0 0
-0.069810 -0.072161 0.405226 255 0 0
-0.074322 -0.070839 0.399660 255 0 0
-0.073454 -0.064844 0.402346 255 0 0
-0.078431 -0.066916 0.401353 255 0 0
-0.078478 -0.061179 0.405558 255 0 0
-0.083908 -0.061764 0.409822 255 0 0
-0.078931 -0.059691 0.410815 255 0 0
-0.079616 -0.063021 0.415115 255 0 0
-0.074187 -0.062436 0.410851 255 0 0
-0.071487 -0.068951 0.409918 255 0 0
-0.070802 -0.065621 0.405618 255 0 0
-0.070754 -0.071358 0.401413 255 0 0
-0.087215 -0.067863 0.408251 255 0 0
-0.087668 -0.066375 0.413508 255 0 0
-0.078806 -0.074712 0.399805 255 0 0
-0.083831 -0.071047 0.403017 255 0 0
-0.071409 -0.078235 0.403114 255 0 0
-0.074062 -0.077457 0.399842 255 0 0
-0.075247 -0.073562 0.413604 255 0 0
-0.071862 -0.076747 0.408370 255 0 0
-0.085016 -0.067152 0.416779 255 0 0
-0.080271 -0.069897 0.416816 255 0 0
-0.088276 -0.078988 0.411003 255 0 0
-0.087591 -0.075658 0.406704 255 0 0
-0.084891 -0.082173 0.405770 255 0 0
-0.079462 -0.081588 0.401506 255 0 0
-0.080146 -0.084918 0.405806 255 0 0
-0.075170 -0.082846 0.406800 255 0 0
-0.080599 -0.083431 0.411063 255 0 0
-0.080647 -0.077693 0.415268 255 0 0
-0.085623 -0.079766 0.414275 255 0 0
-0.088323 -0.073251 0.415209 255 0 0
-0.057458 0.079048 0.412127 255 0 0
-0.066066 0.080442 0.418376 255 0 0
-0.057338 0.056539 0.417315 255 0 0
-0.065946 0.057933 0.423564 255 0 0
-0.065329 0.060410 0.414652 255 0 0
-0.065403 0.074321 0.411445 255 0 0
-0.058000 0.062660 0.424246 255 0 0
-0.058075 0.076572 0.421039 255 0 0
-0.066401 0.070314 0.425865 255 0 0
-0.070931 0.068923 0.419936 255 0 0
-0.052473 0.068058 0.415755 255 0 0
-0.057002 0.066667 0.409826 255 0 0
-0.056445 0.073624 0.409770 255 0 0
-0.061115 0.070846 0.409370 255 0 0
-0.061383 0.078123 0.410722 255 0 0
-0.066443 0.078943 0.414395 255 0 0
-0.061772 0.081721 0.414796 255 0 0
-0.062135 0.080266 0.420034 255 0 0
-0.057075 0.079446 0.416362 255 0 0
-0.054145 0.072986 0.418494 255 0 0
-0.053783 0.074442 0.413256 255 0 0
-0.053515 0.067165 0.411903 255 0 0
-0.069302 0.072172 0.415312 255 0 0
-0.069692 0.075770 0.419386 255 0 0
-0.061071 0.062669 0.411254 255 0 0
-0.066009 0.067168 0.412206 255 0 0
-0.053712 0.061211 0.416305 255 0 0
-0.056374 0.060394 0.412820 255 0 0
-0.057394 0.069813 0.423485 255 0 0
-0.054101 0.064809 0.420379 255 0 0
-0.067029 0.076587 0.422871 255 0 0
-0.062332 0.074312 0.424437 255 0 0
-0.069621 0.062539 0.422435 255 0 0
-0.069258 0.063995 0.417197 255 0 0
-0.066328 0.057535 0.419329 255 0 0
-0.061269 0.056716 0.415657 255 0 0
-0.061631 0.055260 0.420895 255 0 0
-0.056961 0.058038 0.421296 255 0 0
-0.062021 0.058858 0.424969 255 0 0
-0.062288 0.066135 0.426321 255 0 0
-0.066959 0.063357 0.425921 255 0 0
-0.069889 0.069817 0.423788 255 0 0
-0.180051 0.085684 0.439905 255 0 0
-0.190482 0.087668 0.447734 255 0 0
-0.180162 0.065545 0.444861 255 0 0
-0.190593 0.067530 0.452690 255 0 0
-0.188761 0.069351 0.443555 255 0 0
-0.188692 0.081797 0.440492 255 0 0
-0.181952 0.071417 0.452103 255 0 0
-0.181883 0.083863 0.449041 255 0 0
-0.191657 0.078851 0.455273 255 0 0
-0.195865 0.077574 0.449990 255 0 0
-0.174779 0.075640 0.442605 255 0 0
-0.178987 0.074363 0.437322 255 0 0
-0.178500 0.080624 0.437264 255 0 0
-0.183579 0.078339 0.437609 255 0 0
-0.184205 0.084993 0.439128 255 0 0
-0.190336 0.086159 0.443729 255 0 0
-0.185257 0.088444 0.443385 255 0 0
-0.186334 0.087374 0.448754 255 0 0
-0.180202 0.086208 0.444152 255 0 0
-0.177103 0.080304 0.445740 255 0 0
-0.176027 0.081374 0.440370 255 0 0
-0.175401 0.074720 0.438852 255 0 0
-0.193500 0.080226 0.445055 255 0 0
-0.194552 0.083677 0.449312 255 0 0
-0.183620 0.071023 0.439410 255 0 0
-0.189324 0.075392 0.441273 255 0 0
-0.176092 0.069537 0.443283 255 0 0
-0.178565 0.068786 0.440177 255 0 0
-0.181320 0.077821 0.451322 255 0 0
-0.177144 0.072988 0.447540 255 0 0
-0.192079 0.084428 0.452418 255 0 0
-0.187024 0.082191 0.453186 255 0 0
-0.194618 0.071840 0.452225 255 0 0
-0.193541 0.072910 0.446856 255 0 0
-0.190442 0.067006 0.448443 255 0 0
-0.184310 0.065840 0.443841 255 0 0
-0.185387 0.064770 0.449211 255 0 0
-0.180308 0.067055 0.448866 255 0 0
-0.186439 0.068221 0.453468 255 0 0
-0.187065 0.074875 0.454986 255 0 0
-0.192144 0.072590 0.455331 255 0 0
-0.195243 0.078494 0.453744 255 0 0
0.042732 -0.058483 0.446618 255 0 0
0.037511 -0.059675 0.450847 255 0 0
0.043927 -0.079497 0.442175 255 0 0
0.038707 -0.080688 0.446403 255 0 0
0.034439 -0.074798 0.437288 255 0 0
0.033700 -0.061811 0.440034 255 0 0
0.047739 -0.077361 0.452987 255 0 0
0.047000 -0.064374 0.455734 255 0 0
0.040605 -0.071341 0.454783 255 0 0
0.032386 -0.069757 0.445080 255 0 0
0.049053 -0.069414 0.447941 255 0 0
0.040833 -0.067830 0.438238 255 0 0
0.041969 -0.062028 0.441712 255 0 0
0.036660 -0.063984 0.437842 255 0 0
0.037776 -0.058490 0.442767 255 0 0
0.034708 -0.059190 0.445252 255 0 0
0.040017 -0.057234 0.449122 255 0 0
0.042525 -0.060696 0.454480 255 0 0
0.045594 -0.059996 0.451995 255 0 0
0.049309 -0.066421 0.452773 255 0 0
0.046801 -0.062959 0.447415 255 0 0
0.045685 -0.068453 0.442489 255 0 0
0.031695 -0.065117 0.441863 255 0 0
0.033935 -0.063861 0.448219 255 0 0
0.037094 -0.071617 0.436227 255 0 0
0.032902 -0.068079 0.437283 255 0 0
0.047503 -0.075310 0.444803 255 0 0
0.042672 -0.074379 0.439100 255 0 0
0.048537 -0.071092 0.455739 255 0 0
0.049744 -0.074055 0.451158 255 0 0
0.038767 -0.064792 0.453922 255 0 0
0.044344 -0.067554 0.456794 255 0 0
0.034638 -0.076212 0.445607 255 0 0
0.032129 -0.072750 0.440249 255 0 0
0.035845 -0.079175 0.441027 255 0 0
0.038913 -0.078475 0.438541 255 0 0
0.041422 -0.081937 0.443899 255 0 0
0.046731 -0.079981 0.447769 255 0 0
0.043662 -0.080681 0.450255 255 0 0
0.044778 -0.075188 0.455180 255 0 0
0.039469 -0.077143 0.451310 255 0 0
0.035754 -0.070718 0.450532 255 0 0
-0.167283 0.024350 0.443122 255 0 0
-0.177301 0.025900 0.451108 255 0 0
-0.169219 0.003226 0.444795 255 0 0
-0.179237 0.004777 0.452780 255 0 0
-0.177315 0.008010 0.444137 255 0 0
-0.176118 0.021065 0.443103 255 0 0
-0.170401 0.008062 0.452800 255 0 0
-0.169205 0.021117 0.451766 255 0 0
-0.179228 0.015834 0.457089 255 0 0
-0.183501 0.015802 0.451734 255 0 0
-0.163018 0.013325 0.444168 255 0 0
-0.167291 0.013293 0.438814 255 0 0
-0.166238 0.019569 0.439742 255 0 0
-0.171432 0.017638 0.439731 255 0 0
-0.171427 0.024137 0.442263 255 0 0
-0.177315 0.025048 0.446957 255 0 0
-0.172122 0.026979 0.446968 255 0 0
-0.173252 0.025079 0.452049 255 0 0
-0.167363 0.024168 0.447355 255 0 0
-0.164857 0.017688 0.447970 255 0 0
-0.163727 0.019588 0.442889 255 0 0
-0.163732 0.013089 0.440357 255 0 0
-0.180959 0.019112 0.447325 255 0 0
-0.181655 0.021955 0.452030 255 0 0
-0.172135 0.009964 0.440338 255 0 0
-0.177323 0.014533 0.442859 255 0 0
-0.164865 0.007172 0.443872 255 0 0
-0.167376 0.007153 0.440725 255 0 0
-0.169196 0.014594 0.453043 255 0 0
-0.165560 0.010014 0.448577 255 0 0
-0.179143 0.021974 0.455177 255 0 0
-0.174385 0.019162 0.455564 255 0 0
-0.182793 0.009539 0.453013 255 0 0
-0.181663 0.011439 0.447933 255 0 0
-0.179156 0.004959 0.448547 255 0 0
-0.173268 0.004047 0.443854 255 0 0
-0.174398 0.002147 0.448934 255 0 0
-0.169204 0.004078 0.448946 255 0 0
-0.175093 0.004990 0.453639 255 0 0
-0.175088 0.011489 0.456172 255 0 0
-0.180281 0.009558 0.456160 255 0 0
-0.182788 0.016038 0.455546 255 0 0
-0.098712 -0.017366 0.423539 255 0 0
-0.106353 -0.017852 0.429092 255 0 0
-0.100067 -0.041346 0.419573 255 0 0
-0.107708 -0.041833 0.425126 255 0 0
-0.107507 -0.035924 0.417867 255 0 0
-0.106669 -0.021103 0.420318 255 0 0
-0.099751 -0.038096 0.428348 255 0 0
-0.098913 -0.023275 0.430799 255 0 0
-0.106995 -0.030664 0.432064 255 0 0
-0.111788 -0.029322 0.425586 255 0 0
-0.094632 -0.029877 0.423079 255 0 0
-0.099425 -0.028535 0.416602 255 0 0
-0.098342 -0.021783 0.419322 255 0 0
-0.103018 -0.023980 0.417428 255 0 0
-0.102599 -0.017415 0.421506 255 0 0
-0.107090 -0.017701 0.424770 255 0 0
-0.102413 -0.015504 0.426664 255 0 0
-0.102532 -0.018977 0.430931 255 0 0
-0.098041 -0.018691 0.427667 255 0 0
-0.095642 -0.026045 0.427397 255 0 0
-0.095524 -0.022572 0.423130 255 0 0
-0.095943 -0.029137 0.419052 255 0 0
-0.110285 -0.024442 0.422709 255 0 0
-0.110099 -0.022532 0.427867 255 0 0
-0.103511 -0.032691 0.415988 255 0 0
-0.107769 -0.028323 0.418172 255 0 0
-0.096321 -0.036667 0.420799 255 0 0
-0.099138 -0.035878 0.416991 255 0 0
-0.098651 -0.030876 0.430494 255 0 0
-0.096135 -0.034756 0.425956 255 0 0
-0.107282 -0.023320 0.431675 255 0 0
-0.102909 -0.026508 0.432678 255 0 0
-0.110896 -0.036627 0.425536 255 0 0
-0.110777 -0.033154 0.421269 255 0 0
-0.108379 -0.040507 0.420998 255 0 0
-0.103888 -0.040222 0.417735 255 0 0
-0.104007 -0.043695 0.422002 255 0 0
-0.099330 -0.041498 0.423895 255 0 0
-0.103821 -0.041784 0.427159 255 0 0
-0.103401 -0.035219 0.431237 255 0 0
-0.108078 -0.037416 0.429343 255 0 0
-0.110477 -0.030062 0.429614 255 0 0
-0.076877 0.031578 0.424941 255 0 0
-0.085021 0.031015 0.431937 255 0 0
-0.076865 0.008869 0.423128 255 0 0
-0.085010 0.008306 0.430124 255 0 0
-0.084995 0.013297 0.422281 255 0 0
-0.085003 0.027332 0.423401 255 0 0
-0.076884 0.012552 0.431663 255 0 0
-0.076891 0.026587 0.432784 255 0 0
-0.085026 0.019256 0.436092 255 0 0
-0.090039 0.019717 0.430293 255 0 0
-0.071848 0.020167 0.424772 255 0 0
-0.076861 0.020627 0.418973 255 0 0
-0.076153 0.027184 0.420978 255 0 0
-0.080930 0.024689 0.420073 255 0 0
-0.080939 0.031125 0.423581 255 0 0
-0.085726 0.030794 0.427693 255 0 0
-0.080950 0.033290 0.428598 255 0 0
-0.080959 0.030357 0.433208 255 0 0
-0.076172 0.030687 0.429096 255 0 0
-0.073215 0.023980 0.428997 255 0 0
-0.073207 0.026914 0.424387 255 0 0
-0.073197 0.020477 0.420879 255 0 0
-0.088676 0.024153 0.426727 255 0 0
-0.088687 0.026318 0.431744 255 0 0
-0.080925 0.016439 0.419414 255 0 0
-0.085711 0.020380 0.422017 255 0 0
-0.073200 0.013566 0.423321 255 0 0
-0.076147 0.013836 0.419912 255 0 0
-0.076176 0.019504 0.433047 255 0 0
-0.073211 0.015730 0.428338 255 0 0
-0.085740 0.026048 0.435153 255 0 0
-0.080961 0.023445 0.435650 255 0 0
-0.088680 0.012970 0.430678 255 0 0
-0.088671 0.015904 0.426068 255 0 0
-0.085715 0.009196 0.425969 255 0 0
-0.080928 0.009527 0.421857 255 0 0
-0.080936 0.006594 0.426467 255 0 0
-0.076160 0.009089 0.427372 255 0 0
-0.080947 0.008759 0.431484 255 0 0
-0.080957 0.015195 0.434992 255 0 0
-0.085733 0.012699 0.434087 255 0 0
-0.088689 0.019407 0.434186 255 0 0
-0.056804 -0.015444 0.410904 255 0 0
-0.061783 -0.016813 0.417842 255 0 0
-0.055530 -0.039004 0.407170 255 0 0
-0.060509 -0.040373 0.414108 255 0 0
-0.064272 -0.034841 0.407108 255 0 0
-0.065059 -0.020280 0.409416 255 0 0
-0.052254 -0.035537 0.415596 255 0 0
-0.053041 -0.020976 0.417904 255 0 0
-0.058971 -0.029231 0.420742 255 0 0
-0.066399 -0.028801 0.415496 255 0 0
-0.050914 -0.027016 0.409516 255 0 0
-0.058342 -0.026586 0.404270 255 0 0
-0.057383 -0.019805 0.406723 255 0 0
-0.062235 -0.022647 0.405849 255 0 0
-0.061331 -0.016098 0.409748 255 0 0
-0.064258 -0.016903 0.413826 255 0 0
-0.059405 -0.014060 0.414701 255 0 0
-0.057193 -0.017311 0.418815 255 0 0
-0.054267 -0.016507 0.414737 255 0 0
-0.050805 -0.023309 0.413921 255 0 0
-0.053017 -0.020057 0.409807 255 0 0
-0.053921 -0.026606 0.405908 255 0 0
-0.066971 -0.023949 0.412447 255 0 0
-0.065045 -0.021911 0.417400 255 0 0
-0.061772 -0.031206 0.404492 255 0 0
-0.065721 -0.027499 0.407517 255 0 0
-0.052268 -0.033906 0.407612 255 0 0
-0.056634 -0.033653 0.404529 255 0 0
-0.051592 -0.028317 0.417495 255 0 0
-0.050342 -0.031868 0.412565 255 0 0
-0.060679 -0.022164 0.420484 255 0 0
-0.055540 -0.024611 0.420520 255 0 0
-0.064296 -0.035759 0.415206 255 0 0
-0.066508 -0.032508 0.411091 255 0 0
-0.063046 -0.039310 0.410275 255 0 0
-0.060120 -0.038505 0.406197 255 0 0
-0.057908 -0.041757 0.410311 255 0 0
-0.053055 -0.038914 0.411186 255 0 0
-0.055982 -0.039719 0.415264 255 0 0
-0.055078 -0.033169 0.419164 255 0 0
-0.059930 -0.036012 0.418289 255 0 0
-0.063392 -0.029210 0.419105 255 0 0
0.002272 -0.015698 0.417696 255 0 0
-0.001519 -0.016329 0.423409 255 0 0
0.006332 -0.035883 0.418159 255 0 0
0.002542 -0.036514 0.423872 255 0 0
-0.005044 -0.034232 0.414942 255 0 0
-0.007554 -0.021757 0.414656 255 0 0
0.012367 -0.030455 0.426911 255 0 0
0.009857 -0.017980 0.426626 255 0 0
0.004720 -0.025450 0.429105 255 0 0
-0.006040 -0.027784 0.421707 255 0 0
0.010853 -0.024428 0.419861 255 0 0
0.000093 -0.026762 0.412463 255 0 0
0.000967 -0.020374 0.414078 255 0 0
-0.004808 -0.023935 0.412291 255 0 0
-0.003527 -0.017432 0.415367 255 0 0
-0.005755 -0.017803 0.418725 255 0 0
0.000020 -0.014242 0.420512 255 0 0
0.004479 -0.015583 0.425761 255 0 0
0.006707 -0.015212 0.422403 255 0 0
0.011751 -0.020344 0.423675 255 0 0
0.007292 -0.019002 0.418426 255 0 0
0.006012 -0.025505 0.415350 255 0 0
-0.008413 -0.024536 0.417725 255 0 0
-0.004866 -0.021346 0.422870 255 0 0
-0.003333 -0.031268 0.412459 255 0 0
-0.007827 -0.028326 0.413749 255 0 0
0.009679 -0.030866 0.418698 255 0 0
0.003354 -0.032238 0.414350 255 0 0
0.012640 -0.023886 0.427819 255 0 0
0.013226 -0.027676 0.423843 255 0 0
0.001459 -0.019974 0.427218 255 0 0
0.008146 -0.020944 0.429108 255 0 0
-0.002479 -0.033210 0.423141 255 0 0
-0.006938 -0.031869 0.417893 255 0 0
-0.001893 -0.037000 0.419165 255 0 0
0.000335 -0.036629 0.415807 255 0 0
0.004793 -0.037971 0.421056 255 0 0
0.010568 -0.034409 0.422842 255 0 0
0.008340 -0.034780 0.426200 255 0 0
0.009621 -0.028277 0.429276 255 0 0
0.003846 -0.031838 0.427489 255 0 0
-0.001198 -0.026707 0.426217 255 0 0
-0.122995 -0.064239 0.415098 255 0 0
-0.133199 -0.063809 0.422473 255 0 0
-0.125670 -0.084968 0.412605 255 0 0
-0.135874 -0.084538 0.419980 255 0 0
-0.133546 -0.079816 0.412166 255 0 0
-0.131893 -0.067005 0.413707 255 0 0
-0.126976 -0.081771 0.421371 255 0 0
-0.125323 -0.068960 0.422912 255 0 0
-0.135660 -0.074645 0.426350 255 0 0
-0.139720 -0.073437 0.420661 255 0 0
-0.119149 -0.075340 0.414417 255 0 0
-0.123209 -0.074132 0.408728 255 0 0
-0.121990 -0.068272 0.410926 255 0 0
-0.127221 -0.069898 0.410108 255 0 0
-0.127095 -0.064083 0.413852 255 0 0
-0.133093 -0.063830 0.418187 255 0 0
-0.127862 -0.062204 0.419005 255 0 0
-0.129231 -0.064980 0.423598 255 0 0
-0.123233 -0.065232 0.419263 255 0 0
-0.120972 -0.071757 0.418863 255 0 0
-0.119604 -0.068982 0.414270 255 0 0
-0.119730 -0.074797 0.410525 255 0 0
-0.136926 -0.069489 0.417122 255 0 0
-0.137693 -0.067611 0.422274 255 0 0
-0.128192 -0.077428 0.409202 255 0 0
-0.133297 -0.073239 0.412129 255 0 0
-0.121176 -0.081166 0.412804 255 0 0
-0.123563 -0.080456 0.409460 255 0 0
-0.125573 -0.075538 0.422950 255 0 0
-0.121944 -0.079288 0.417957 255 0 0
-0.135306 -0.068321 0.425618 255 0 0
-0.130677 -0.071349 0.425876 255 0 0
-0.139266 -0.079795 0.420809 255 0 0
-0.137897 -0.077019 0.416216 255 0 0
-0.135637 -0.083545 0.415816 255 0 0
-0.129639 -0.083797 0.411481 255 0 0
-0.131007 -0.086572 0.416074 255 0 0
-0.125777 -0.084946 0.416892 255 0 0
-0.131775 -0.084694 0.421226 255 0 0
-0.131648 -0.078879 0.424971 255 0 0
-0.136879 -0.080505 0.424153 255 0 0
-0.139139 -0.073980 0.424553 255 0 0
-0.121766 0.030387 0.427931 255 0 0
-0.129605 0.029506 0.433579 255 0 0
-0.120689 0.006409 0.425686 255 0 0
-0.128528 0.005528 0.431334 255 0 0
-0.128636 0.010868 0.423684 255 0 0
-0.129302 0.025688 0.425071 255 0 0
-0.120992 0.010227 0.434193 255 0 0
-0.121657 0.025047 0.435581 255 0 0
-0.129127 0.017047 0.437450 255 0 0
-0.133851 0.017443 0.430954 255 0 0
-0.116443 0.018472 0.428310 255 0 0
-0.121167 0.018868 0.421815 255 0 0
-0.120820 0.025799 0.424037 255 0 0
-0.125250 0.023036 0.422356 255 0 0
-0.125602 0.029807 0.425951 255 0 0
-0.130210 0.029289 0.429271 255 0 0
-0.125780 0.032052 0.430952 255 0 0
-0.125716 0.028913 0.435449 255 0 0
-0.121108 0.029430 0.432129 255 0 0
-0.117979 0.022427 0.432352 255 0 0
-0.118043 0.025566 0.427855 255 0 0
-0.117691 0.018795 0.424260 255 0 0
-0.132705 0.022199 0.427728 255 0 0
-0.132884 0.024443 0.432729 255 0 0
-0.124859 0.014326 0.421541 255 0 0
-0.129640 0.018334 0.423455 255 0 0
-0.117410 0.011472 0.426535 255 0 0
-0.120187 0.011705 0.422718 255 0 0
-0.120654 0.017581 0.435810 255 0 0
-0.117588 0.013716 0.431536 255 0 0
-0.130106 0.024210 0.436547 255 0 0
-0.125435 0.021589 0.437724 255 0 0
-0.132251 0.010349 0.431410 255 0 0
-0.132314 0.013488 0.426913 255 0 0
-0.129185 0.006485 0.427136 255 0 0
-0.124578 0.007002 0.423816 255 0 0
-0.124514 0.003863 0.428313 255 0 0
-0.120084 0.006626 0.429993 255 0 0
-0.124692 0.006108 0.433313 255 0 0
-0.125044 0.012879 0.436908 255 0 0
-0.129474 0.010116 0.435227 255 0 0
-0.132602 0.017120 0.435004 255 0 0
-0.021455 0.079087 0.408329 255 0 0
-0.026215 0.080542 0.414901 255 0 0
-0.021540 0.055485 0.413493 255 0 0
-0.026299 0.056940 0.420065 255 0 0
-0.030142 0.059798 0.411480 255 0 0
-0.030089 0.074385 0.408288 255 0 0
-0.017666 0.061641 0.420107 255 0 0
-0.017613 0.076228 0.416915 255 0 0
-0.023873 0.069760 0.422180 255 0 0
-0.031583 0.068621 0.416848 255 0 0
-0.016172 0.067406 0.411546 255 0 0
-0.023882 0.066267 0.406215 255 0 0
-0.022457 0.073496 0.406056 255 0 0
-0.027532 0.070732 0.406032 255 0 0
-0.026105 0.078268 0.407275 255 0 0
-0.028903 0.079123 0.411138 255 0 0
-0.023828 0.081886 0.411162 255 0 0
-0.021569 0.080206 0.416209 255 0 0
-0.018772 0.079351 0.412346 255 0 0
-0.015666 0.072485 0.414237 255 0 0
-0.017925 0.074165 0.409190 255 0 0
-0.019351 0.066630 0.407947 255 0 0
-0.032058 0.072116 0.412282 255 0 0
-0.029781 0.075735 0.416169 255 0 0
-0.027562 0.062158 0.407908 255 0 0
-0.031211 0.066930 0.409126 255 0 0
-0.017974 0.060292 0.412225 255 0 0
-0.022506 0.059623 0.409091 255 0 0
-0.016544 0.069097 0.419268 255 0 0
-0.015697 0.063911 0.416113 255 0 0
-0.025249 0.076404 0.419303 255 0 0
-0.020193 0.073869 0.420487 255 0 0
-0.029830 0.061862 0.419205 255 0 0
-0.032089 0.063542 0.414158 255 0 0
-0.028983 0.056676 0.416049 255 0 0
-0.026185 0.055821 0.412186 255 0 0
-0.023927 0.054140 0.417233 255 0 0
-0.018852 0.056904 0.417257 255 0 0
-0.021650 0.057759 0.421120 255 0 0
-0.020223 0.065295 0.422363 255 0 0
-0.025298 0.062531 0.422339 255 0 0
-0.028404 0.069397 0.420448 255 0 0
-0.032689 -0.053814 0.403922 255 0 0
-0.037141 -0.054522 0.410432 255 0 0
-0.034765 -0.077265 0.399954 255 0 0
-0.039217 -0.077972 0.406464 255 0 0
-0.043214 -0.071812 0.399584 255 0 0
-0.041931 -0.057319 0.402037 255 0 0
-0.029975 -0.074468 0.408349 255 0 0
-0.028692 -0.059975 0.410802 255 0 0
-0.035463 -0.067286 0.413169 255 0 0
-0.043646 -0.065645 0.407752 255 0 0
-0.028260 -0.066142 0.402635 255 0 0
-0.036442 -0.064500 0.397218 255 0 0
-0.034322 -0.057975 0.399758 255 0 0
-0.039754 -0.060035 0.398650 255 0 0
-0.037548 -0.053754 0.402591 255 0 0
-0.040165 -0.054170 0.406418 255 0 0
-0.034732 -0.052110 0.407526 255 0 0
-0.032383 -0.055730 0.411569 255 0 0
-0.029766 -0.055315 0.407743 255 0 0
-0.027163 -0.062560 0.406986 255 0 0
-0.029512 -0.058939 0.402942 255 0 0
-0.031719 -0.065221 0.399001 255 0 0
-0.043988 -0.060708 0.404842 255 0 0
-0.041173 -0.059064 0.409777 255 0 0
-0.040508 -0.068554 0.397209 255 0 0
-0.043735 -0.064333 0.400041 255 0 0
-0.030733 -0.072723 0.400610 255 0 0
-0.035542 -0.071759 0.397426 255 0 0
-0.028171 -0.067454 0.410345 255 0 0
-0.027917 -0.071079 0.405544 255 0 0
-0.036363 -0.060028 0.412961 255 0 0
-0.031397 -0.063233 0.413178 255 0 0
-0.042393 -0.072847 0.407444 255 0 0
-0.044743 -0.069227 0.403400 255 0 0
-0.042139 -0.076472 0.402643 255 0 0
-0.039523 -0.076056 0.398817 255 0 0
-0.037173 -0.079677 0.402860 255 0 0
-0.031741 -0.077617 0.403969 255 0 0
-0.034358 -0.078033 0.407795 255 0 0
-0.032151 -0.071752 0.411736 255 0 0
-0.037584 -0.073812 0.410628 255 0 0
-0.040187 -0.066566 0.411385 255 0 0
-0.035020 0.022751 0.412899 255 0 0
-0.039663 0.021344 0.419599 255 0 0
-0.031924 -0.001977 0.409853 255 0 0
-0.036566 -0.003384 0.416553 255 0 0
-0.040833 0.001809 0.409581 255 0 0
-0.042747 0.017092 0.411463 255 0 0
-0.028839 0.002275 0.417988 255 0 0
-0.030753 0.017558 0.419871 255 0 0
-0.035843 0.008690 0.422744 255 0 0
-0.043255 0.008402 0.417548 255 0 0
-0.028331 0.010966 0.411903 255 0 0
-0.035744 0.010678 0.406707 255 0 0
-0.035310 0.017949 0.408939 255 0 0
-0.039851 0.014623 0.408095 255 0 0
-0.039426 0.021719 0.411734 255 0 0
-0.042155 0.020892 0.415673 255 0 0
-0.037613 0.024219 0.416516 255 0 0
-0.035105 0.021166 0.420615 255 0 0
-0.032377 0.021993 0.416676 255 0 0
-0.028445 0.015066 0.416091 255 0 0
-0.030953 0.018118 0.411993 255 0 0
-0.031378 0.011022 0.408354 255 0 0
-0.044266 0.013285 0.414467 255 0 0
-0.042454 0.015784 0.419249 255 0 0
-0.038727 0.005639 0.406988 255 0 0
-0.042843 0.009410 0.409784 255 0 0
-0.029133 0.003583 0.410202 255 0 0
-0.033490 0.003414 0.407148 255 0 0
-0.028743 0.009958 0.419668 255 0 0
-0.027320 0.006083 0.414985 255 0 0
-0.038097 0.015953 0.422303 255 0 0
-0.032860 0.013728 0.422463 255 0 0
-0.040633 0.001249 0.417459 255 0 0
-0.043142 0.004302 0.413360 255 0 0
-0.039210 -0.002626 0.412775 255 0 0
-0.036481 -0.001799 0.408837 255 0 0
-0.033973 -0.004851 0.412935 255 0 0
-0.029432 -0.001525 0.413779 255 0 0
-0.032160 -0.002352 0.417717 255 0 0
-0.031735 0.004745 0.421357 255 0 0
-0.036276 0.001419 0.420513 255 0 0
-0.040208 0.008346 0.421098 255 0 0
0.041769 0.020264 0.451062 255 0 0
0.036571 0.020734 0.455472 255 0 0
0.041446 -0.001073 0.452956 255 0 0
0.036248 -0.000603 0.457367 255 0 0
0.032163 0.002639 0.446913 255 0 0
0.032363 0.015826 0.445742 255 0 0
0.045654 0.003835 0.462686 255 0 0
0.045854 0.017022 0.461515 255 0 0
0.038972 0.010581 0.462656 255 0 0
0.030634 0.009841 0.452908 255 0 0
0.047383 0.009820 0.455520 255 0 0
0.039045 0.009080 0.445772 255 0 0
0.040653 0.015522 0.447399 255 0 0
0.035124 0.012913 0.444272 255 0 0
0.036725 0.019487 0.447382 255 0 0
0.033670 0.019763 0.449974 255 0 0
0.039199 0.022372 0.453101 255 0 0
0.041600 0.020466 0.459245 255 0 0
0.044655 0.020190 0.456653 255 0 0
0.047955 0.014051 0.459273 255 0 0
0.045554 0.015956 0.453129 255 0 0
0.043952 0.009383 0.450020 255 0 0
0.030180 0.013361 0.448467 255 0 0
0.032654 0.016246 0.454186 255 0 0
0.035007 0.005163 0.444961 255 0 0
0.031079 0.009127 0.444943 255 0 0
0.045364 0.003415 0.454242 255 0 0
0.040463 0.002981 0.448513 255 0 0
0.046939 0.010533 0.463485 255 0 0
0.047837 0.006300 0.459961 255 0 0
0.037555 0.016680 0.459916 255 0 0
0.043011 0.014498 0.463468 255 0 0
0.032464 0.003704 0.455300 255 0 0
0.030063 0.005610 0.449155 255 0 0
0.033362 -0.000529 0.451776 255 0 0
0.036418 -0.000805 0.449183 255 0 0
0.038819 -0.002711 0.455328 255 0 0
0.044348 -0.000102 0.458454 255 0 0
0.041292 0.000174 0.461047 255 0 0
0.042894 0.006747 0.464156 255 0 0
0.037365 0.004139 0.461029 255 0 0
0.034065 0.010278 0.458409 255 0 0
0.021726 0.083128 0.418054 255 0 0
0.017948 0.084311 0.423753 255 0 0
0.017614 0.062759 0.419556 255 0 0
0.013837 0.063942 0.425256 255 0 0
0.007929 0.068533 0.416163 255 0 0
0.010470 0.081122 0.415235 255 0 0
0.025092 0.065947 0.428075 255 0 0
0.027633 0.078536 0.427146 255 0 0
0.020029 0.073693 0.429947 255 0 0
0.009421 0.075291 0.422585 255 0 0
0.026141 0.071778 0.420725 255 0 0
0.015533 0.073377 0.413363 255 0 0
0.018778 0.079080 0.414664 255 0 0
0.012163 0.077902 0.413007 255 0 0
0.015802 0.083633 0.415765 255 0 0
0.013582 0.084328 0.419115 255 0 0
0.020198 0.085507 0.420772 255 0 0
0.023671 0.082808 0.426116 255 0 0
0.025891 0.082113 0.422766 255 0 0
0.028486 0.075442 0.424336 255 0 0
0.025013 0.078141 0.418992 255 0 0
0.021374 0.072410 0.416234 255 0 0
0.008570 0.079027 0.418428 255 0 0
0.012966 0.080901 0.423435 255 0 0
0.010669 0.070502 0.413553 255 0 0
0.007693 0.075055 0.414653 255 0 0
0.022597 0.066168 0.419875 255 0 0
0.016362 0.067108 0.415548 255 0 0
0.027870 0.072015 0.428656 255 0 0
0.026992 0.068043 0.424882 255 0 0
0.019201 0.079961 0.427762 255 0 0
0.024893 0.076567 0.429757 255 0 0
0.010549 0.068928 0.424318 255 0 0
0.007076 0.071627 0.418974 255 0 0
0.009672 0.064956 0.420544 255 0 0
0.011892 0.064261 0.417194 255 0 0
0.015364 0.061562 0.422538 255 0 0
0.021980 0.062741 0.424195 255 0 0
0.019760 0.063436 0.427545 255 0 0
0.023400 0.069168 0.430302 255 0 0
0.016784 0.067989 0.428645 255 0 0
0.014189 0.074660 0.427075 255 0 0
0.005914 0.038161 0.421346 255 0 0
0.001969 0.038564 0.427153 255 0 0
0.004597 0.016379 0.421962 255 0 0
0.000652 0.016782 0.427770 255 0 0
-0.005309 0.021077 0.419166 255 0 0
-0.004494 0.034539 0.418784 255 0 0
0.011060 0.020403 0.430331 255 0 0
0.011874 0.033866 0.429950 255 0 0
0.005150 0.027589 0.432706 255 0 0
-0.004967 0.028006 0.425805 255 0 0
0.011532 0.026937 0.423310 255 0 0
0.001416 0.027354 0.416409 255 0 0
0.003732 0.033685 0.417880 255 0 0
-0.002386 0.031557 0.416375 255 0 0
0.000258 0.037909 0.419276 255 0 0
-0.002061 0.038146 0.422690 255 0 0
0.004057 0.040275 0.424195 255 0 0
0.007560 0.037750 0.429253 255 0 0
0.009879 0.037513 0.425839 255 0 0
0.013182 0.030916 0.426994 255 0 0
0.009678 0.033441 0.421936 255 0 0
0.007034 0.027088 0.419035 255 0 0
-0.006137 0.031940 0.421898 255 0 0
-0.002338 0.034305 0.426817 255 0 0
-0.002864 0.023644 0.416599 255 0 0
-0.006338 0.027867 0.417995 255 0 0
0.008904 0.020637 0.422299 255 0 0
0.002958 0.020882 0.418243 255 0 0
0.012904 0.027075 0.431121 255 0 0
0.012703 0.023003 0.427218 255 0 0
0.003608 0.034061 0.430873 255 0 0
0.009430 0.031299 0.432517 255 0 0
-0.003113 0.021502 0.427179 255 0 0
-0.006616 0.024027 0.422122 255 0 0
-0.003313 0.017430 0.423276 255 0 0
-0.000995 0.017193 0.419863 255 0 0
0.002509 0.014668 0.424920 255 0 0
0.008626 0.016797 0.426426 255 0 0
0.006308 0.017034 0.429839 255 0 0
0.008951 0.023386 0.432741 255 0 0
0.002834 0.021257 0.431235 255 0 0
-0.000469 0.027855 0.430081 255 0 0
0.060165 0.086009 0.446590 255 0 0
0.054950 0.087246 0.450936 255 0 0
0.058684 0.065457 0.450665 255 0 0
0.053469 0.066695 0.455011 255 0 0
0.049523 0.068928 0.444163 255 0 0
0.050439 0.081630 0.441644 255 0 0
0.063196 0.071074 0.459956 255 0 0
0.064111 0.083775 0.457438 255 0 0
0.056823 0.078016 0.459197 255 0 0
0.048373 0.076690 0.449436 255 0 0
0.065261 0.076014 0.452165 255 0 0
0.056811 0.074687 0.442404 255 0 0
0.058781 0.081050 0.443390 255 0 0
0.053064 0.078476 0.440483 255 0 0
0.055036 0.085130 0.442944 255 0 0
0.051971 0.085858 0.445498 255 0 0
0.057688 0.088432 0.448405 255 0 0
0.060007 0.087119 0.454782 255 0 0
0.063072 0.086392 0.452227 255 0 0
0.066067 0.080517 0.455504 255 0 0
0.063748 0.081829 0.449128 255 0 0
0.061776 0.075175 0.446667 255 0 0
0.048105 0.079653 0.444617 255 0 0
0.050757 0.082954 0.450078 255 0 0
0.052526 0.071010 0.441964 255 0 0
0.048781 0.075090 0.441517 255 0 0
0.062877 0.069749 0.451523 255 0 0
0.057910 0.068970 0.445785 255 0 0
0.064854 0.077613 0.460084 255 0 0
0.065529 0.073051 0.456984 255 0 0
0.055724 0.083734 0.455815 255 0 0
0.061108 0.081694 0.459637 255 0 0
0.049886 0.070874 0.452473 255 0 0
0.047567 0.072187 0.446097 255 0 0
0.050562 0.066312 0.449374 255 0 0
0.053627 0.065585 0.446819 255 0 0
0.055946 0.064272 0.453196 255 0 0
0.061663 0.066846 0.456102 255 0 0
0.058598 0.067573 0.458657 255 0 0
0.060570 0.074228 0.461117 255 0 0
0.054853 0.071654 0.458211 255 0 0
0.051858 0.077529 0.454934 255 0 0
0.003075 -0.063115 0.411078 255 0 0
-0.000687 -0.064288 0.416771 255 0 0
0.007451 -0.083575 0.409753 255 0 0
0.003689 -0.084748 0.415446 255 0 0
-0.003790 -0.081693 0.406923 255 0 0
-0.006494 -0.069048 0.407742 255 0 0
0.013259 -0.078815 0.418783 255 0 0
0.010555 -0.066170 0.419601 255 0 0
0.005607 -0.073991 0.421532 255 0 0
-0.004930 -0.075770 0.414203 255 0 0
0.011694 -0.072093 0.412321 255 0 0
0.001157 -0.073872 0.404992 255 0 0
0.001894 -0.067539 0.407117 255 0 0
-0.003731 -0.071026 0.405156 255 0 0
-0.002603 -0.064703 0.408733 255 0 0
-0.004815 -0.065393 0.412080 255 0 0
0.000810 -0.061905 0.414041 255 0 0
0.005206 -0.063701 0.419050 255 0 0
0.007418 -0.063012 0.415704 255 0 0
0.012484 -0.068289 0.416435 255 0 0
0.008087 -0.066493 0.411425 255 0 0
0.006960 -0.072816 0.407848 255 0 0
-0.007309 -0.072142 0.410570 255 0 0
-0.003895 -0.069344 0.415877 255 0 0
-0.002141 -0.078459 0.404675 255 0 0
-0.006639 -0.075623 0.406291 255 0 0
0.010659 -0.078520 0.410647 255 0 0
0.004466 -0.079565 0.406339 255 0 0
0.013403 -0.072240 0.420233 255 0 0
0.014073 -0.075722 0.415954 255 0 0
0.002298 -0.068298 0.420186 255 0 0
0.008906 -0.069404 0.421849 255 0 0
-0.001323 -0.081370 0.415099 255 0 0
-0.005719 -0.079574 0.410089 255 0 0
-0.000653 -0.084852 0.410820 255 0 0
0.001558 -0.084162 0.407474 255 0 0
0.005954 -0.085958 0.412484 255 0 0
0.011579 -0.082471 0.414445 255 0 0
0.009368 -0.083160 0.417791 255 0 0
0.010495 -0.076837 0.421368 255 0 0
0.004870 -0.080325 0.419407 255 0 0
-0.000196 -0.075047 0.418676 255 0 0
3 0 12 14
3 11 13 12
3 5 14 13
3 12 13 14
3 0 14 16
3 5 15 14
3 1 16 15
3 14 15 16
3 0 16 18
3 1 17 16
3 7 18 17
3 16 17 18
3 0 18 20
3 7 19 18
3 10 20 19
3 18 19 20
3 0 20 12
3 10 21 20
3 11 12 21
3 20 21 12
3 1 15 23
3 5 22 15
3 9 23 22
3 15 22 23
3 5 13 25
3 11 24 13
3 4 25 24
3 13 24 25
3 11 21 27
3 10 26 21
3 2 27 26
3 21 26 27
3 10 19 29
3 7 28 19
3 6 29 28
3 19 28 29
3 7 17 31
3 1 30 17
3 8 31 30
3 17 30 31
3 3 32 34
3 9 33 32
3 4 34 33
3 32 33 34
3 3 34 36
3 4 35 34
3 2 36 35
3 34 35 36
3 3 36 38
3 2 37 36
3 6 38 37
3 36 37 38
3 3 38 40
3 6 39 38
3 8 40 39
3 38 39 40
3 3 40 32
3 8 41 40
3 9 32 41
3 40 41 32
3 4 33 25
3 9 22 33
3 5 25 22
3 33 22 25
3 2 35 27
3 4 24 35
3 11 27 24
3 35 24 27
3 6 37 29
3 2 26 37
3 10 29 26
3 37 26 29
3 8 39 31
3 6 28 39
3 7 31 28
3 39 28 31
3 9 41 23
3 8 30 41
3 1 23 30
3 41 30 23
3 42 54 56
3 53 55 54
3 47 56 55
3 54 55 56
3 42 56 58
3 47 57 56
3 43 58 57
3 56 57 58
3 42 58 60
3 43 59 58
3 49 60 59
3 58 59 60
3 42 60 62
3 49 61 60
3 52 62 61
3 60 61 62
3 42 62 54
3 52 63 62
3 53 54 63
3 62 63 54
3 43 57 65
3 47 64 57
3 51 65 64
3 57 64 65
3 47 55 67
3 53 66 55
3 46 67 66
3 55 66 67
3 53 63 69
3 52 68 63
3 44 69 68
3 63 68 69
3 52 61 71
3 49 70 61
3 48 71 70
3 61 70 71
3 49 59 73
3 43 72 59
3 50 73 72
3 59 72 73
3 45 74 76
3 51 75 74
3 46 76 75
3 74 75 76
3 45 76 78
3 46 77 76
3 44 78 77
3 76 77 78
3 45 78 80
3 44 79 78
3 48 80 79
3 78 79 80
3 45 80 82
3 48 81 80
3 50 82 81
3 80 81 82
3 45 82 74
3 50 83 82
3 51 74 83
3 82 83 74
3 46 75 67
3 51 64 75
3 47 67 64
3 75 64 67
3 44 77 69
3 46 66 77
3 53 69 66
3 77 66 69
3 48 79 71
3 44 68 79
3 52 71 68
3 79 68 71
3 50 81 73
3 48 70 81
3 49 73 70
3 81 70 73
3 51 83 65
3 50 72 83
3 43 65 72
3 83 72 65
3 84 96 98
3 95 97 96
3 89 98 97
3 96 97 98
3 84 98 100
3 89 99 98
3 85 100 99
3 98 99 100
3 84 100 102
3 85 101 100
3 91 102 101
3 100 101 102
3 84 102 104
3 91 103 102
3 94 104 103
3 102 103 104
3 84 104 96
3 94 105 104
3 95 96 105
3 104 105 96
3 85 99 107
3 89 106 99
3 93 107 106
3 99 106 107
3 89 97 109
3 95 108 97
3 88 109 108
3 97 108 109
3 95 105 111
3 94 110 105
3 86 111 110
3 105 110 111
3 94 103 113
3 91 112 103
3 90 113 112
3 103 112 113
3 91 101 115
3 85 114 101
3 92 115 114
3 101 114 115
3 87 116 118
3 93 117 116
3 88 118 117
3 116 117 118
3 87 118 120
3 88 119 118
3 86 120 119
3 118 119 120
3 87 120 122
3 86 121 120
3 90 122 121
3 120 121 122
3 87 122 124
3 90 123 122
3 92 124 123
3 122 123 124
3 87 124 116
3 92 125 124
3 93 116 125
3 124 125 116
3 88 117 109
3 93 106 117
3 89 109 106
3 117 106 109
3 86 119 111
3 88 108 119
3 95 111 108
3 119 108 111
3 90 121 113
3 86 110 121
3 94 113 110
3 121 110 113
3 92 123 115
3 90 112 123
3 91 115 112
3 123 112 115
3 93 125 107
3 92 114 125
3 85 107 114
3 125 114 107
3 126 138 140
3 137 139 138
3 131 140 139
3 138 139 140
3 126 140 142
3 131 141 140
3 127 142 141
3 140 141 142
3 126 142 144
3 127 143 142
3 133 144 143
3 142 143 144
3 126 144 146
3 133 145 144
3 136 146 145
3 144 145 146
3 126 146 138
3 136 147 146
3 137 138 147
3 146 147 138
3 127 141 149
3 131 148 141
3 135 149 148
3 141 148 149
3 131 139 151
3 137 150 139
3 130 151 150
3 139 150 151
3 137 147 153
3 136 152 147
3 128 153 152
3 147 152 153
3 136 145 155
3 133 154 145
3 132 155 154
3 145 154 155
3 133 143 157
3 127 156 143
3 134 157 156
3 143 156 157
3 129 158 160
3 135 159 158
3 130 160 159
3 158 159 160
3 129 160 162
3 130 161 160
3 128 162 161
3 160 161 162
3 129 162 164
3 128 163 162
3 132 164 163
3 162 163 164
3 129 164 166
3 132 165 164
3 134 166 165
3 164 165 166
3 129 166 158
3 134 167 166
3 135 158 167
3 166 167 158
3 130 159 151
3 135 148 159
3 131 151 148
3 159 148 151
3 128 161 153
3 130 150 161
3 137 153 150
3 161 150 153
3 132 163 155
3 128 152 163
3 136 155 152
3 163 152 155
3 134 165 157
3 132 154 165
3 133 157 154
3 165 154 157
3 135 167 149
3 134 156 167
3 127 149 156
3 167 156 149
3 168 180 182
3 179 181 180
3 173 182 181
3 180 181 182
3 168 182 184
3 173 183 182
3 169 184 183
3 182 183 184
3 168 184 186
3 169 185 184
3 175 186 185
3 184 185 186
3 168 186 188
3 175 187 186
3 178 188 187
3 186 187 188
3 168 188 180
3 178 189 188
3 179 180 189
3 188 189 180
3 169 183 191
3 173 190 183
3 177 191 190
3 183 190 191
3 173 181 193
3 179 192 181
3 172 193 192
3 181 192 193
3 179 189 195
3 178 194 189
3 170 195 194
3 189 194 195
3 178 187 197
3 175 196 187
3 174 197 196
3 187 196 197
3 175 185 199
3 169 198 185
3 176 199 198
3 185 198 199
3 171 200 202
3 177 201 200
3 172 202 201
3 200 201 202
3 171 202 204
3 172 203 202
3 170 204 203
3 202 203 204
3 171 204 206
3 170 205 204
3 174 206 205
3 204 205 206
3 171 206 208
3 174 207 206
3 176 208 207
3 206 207 208
3 171 208 200
3 176 209 208
3 177 200 209
3 208 209 200
3 172 201 193
3 177 190 201
3 173 193 190
3 201 190 193
3 170 203 195
3 172 192 203
3 179 195 192
3 203 192 195
3 174 205 197
3 170 194 205
3 178 197 194
3 205 194 197
3 176 207 199
3 174 196 207
3 175 199 196
3 207 196 199
3 177 209 191
3 176 198 209
3 169 191 198
3 209 198 191
3 210 222 224
3 221 223 222
3 215 224 223
3 222 223 224
3 210 224 226
3 215 225 224
3 211 226 225
3 224 225 226
3 210 226 228
3 211 227 226
3 217 228 227
3 226 227 228
3 210 228 230
3 217 229 228
3 220 230 229
3 228 229 230
3 210 230 222
3 220 231 230
3 221 222 231
3 230 231 222
3 211 225 233
3 215 232 225
3 219 233 232
3 225 232 233
3 215 223 235
3 221 234 223
3 214 235 234
3 223 234 235
3 221 231 237
3 220 236 231
3 212 237 236
3 231 236 237
3 220 229 239
3 217 238 229
3 216 239 238
3 229 238 239
3 217 227 241
3 211 240 227
3 218 241 240
3 227 240 241
3 213 242 244
3 219 243 242
3 214 244 243
3 242 243 244
3 213 244 246
3 214 245 244
3 212 246 245
3 244 245 246
3 213 246 248
3 212 247 246
3 216 248 247
3 246 247 248
3 213 248 250
3 216 249 248
3 218 250 249
3 248 249 250
3 213 250 242
3 218 251 250
3 219 242 251
3 250 251 242
3 214 243 235
3 219 232 243
3 215 235 232
3 243 232 235
3 212 245 237
3 214 234 245
3 221 237 234
3 245 234 237
3 216 247 239
3 212 236 247
3 220 239 236
3 247 236 239
3 218 249 241
3 216 238 249
3 217 241 238
3 249 238 241
3 219 251 233
3 218 240 251
3 211 233 240
3 251 240 233
3 252 264 266
3 263 265 264
3 257 266 265
3 264 265 266
3 252 266 268
3 257 267 266
3 253 268 267
3 266 267 268
3 252 268 270
3 253 269 268
3 259 270 269
3 268 269 270
3 252 270 272
3 259 271 270
3 262 272 271
3 270 271 272
3 252 272 264
3 262 273 272
3 263 264 273
3 272 273 264
3 253 267 275
3 257 274 267
3 261 275 274
3 267 274 275
3 257 265 277
3 263 276 265
3 256 277 276
3 265 276 277
3 263 273 279
3 262 278 273
3 254 279 278
3 273 278 279
3 262 271 281
3 259 280 271
3 258 281 280
3 271 280 281
3 259 269 283
3 253 282 269
3 260 283 282
3 269 282 283
3 255 284 286
3 261 285 284
3 256 286 285
3 284 285 286
3 255 286 288
3 256 287 286
3 254 288 287
3 286 287 288
3 255 288 290
3 254 289 288
3 258 290 289
3 288 289 290
3 255 290 292
3 258 291 290
3 260 292 291
3 290 291 292
3 255 292 284
3 260 293 292
3 261 284 293
3 292 293 284
3 256 285 277
3 261 274 285
3 257 277 274
3 285 274 277
3 254 287 279
3 256 276 287
3 263 279 276
3 287 276 279
3 258 289 281
3 254 278 289
3 262 281 278
3 289 278 281
3 260 291 283
3 258 280 291
3 259 283 280
3 291 280 283
3 261 293 275
3 260 282 293
3 253 275 282
3 293 282 275
3 294 306 308
3 305 307 306
3 299 308 307
3 306 307 308
3 294 308 310
3 299 309 308
3 295 310 309
3 308 309 310
3 294 310 312
3 295 311 310
3 301 312 311
3 310 311 312
3 294 312 314
3 301 313 312
3 304 314 313
3 312 313 314
3 294 314 306
3 304 315 314
3 305 306 315
3 314 315 306
3 295 309 317
3 299 316 309
3 303 317 316
3 309 316 317
3 299 307 319
3 305 318 307
3 298 319 318
3 307 318 319
3 305 315 321
3 304 320 315
3 296 321 320
3 315 320 321
3 304 313 323
3 301 322 313
3 300 323 322
3 313 322 323
3 301 311 325
3 295 324 311
3 302 325 324
3 311 324 325
3 297 326 328
3 303 327 326
3 298 328 327
3 326 327 328
3 297 328 330
3 298 329 328
3 296 330 329
3 328 329 330
3 297 330 332
3 296 331 330
3 300 332 331
3 330 331 332
3 297 332 334
3 300 333 332
3 302 334 333
3 332 333 334
3 297 334 326
3 302 335 334
3 303 326 335
3 334 335 326
3 298 327 319
3 303 316 327
3 299 319 316
3 327 316 319
3 296 329 321
3 298 318 329
3 305 321 318
3 329 318 321
3 300 331 323
3 296 320 331
3 304 323 320
3 331 320 323
3 302 333 325
3 300 322 333
3 301 325 322
3 333 322 325
3 303 335 317
3 302 324 335
3 295 317 324
3 335 324 317
3 336 348 350
3 347 349 348
3 341 350 349
3 348 349 350
3 336 350 352
3 341 351 350
3 337 352 351
3 350 351 352
3 336 352 354
3 337 353 352
3 343 354 353
3 352 353 354
3 336 354 356
3 343 355 354
3 346 356 355
3 354 355 356
3 336 356 348
3 346 357 356
3 347 348 357
3 356 357 348
3 337 351 359
3 341 358 351
3 345 359 358
3 351 358 359
3 341 349 361
3 347 360 349
3 340 361 360
3 349 360 361
3 347 357 363
3 346 362 357
3 338 363 362
3 357 362 363
3 346 355 365
3 343 364 355
3 342 365 364
3 355 364 365
3 343 353 367
3 337 366 353
3 344 367 366
3 353 366 367
3 339 368 370
3 345 369 368
3 340 370 369
3 368 369 370
3 339 370 372
3 340 371 370
3 338 372 371
3 370 371 372
3 339 372 374
3 338 373 372
3 342 374 373
3 372 373 374
3 339 374 376
3 342 375 374
3 344 376 375
3 374 375 376
3 339 376 368
3 344 377 376
3 345 368 377
3 376 377 368
3 340 369 361
3 345 358 369
3 341 361 358
3 369 358 361
3 338 371 363
3 340 360 371
3 347 363 360
3 371 360 363
3 342 373 365
3 338 362 373
3 346 365 362
3 373 362 365
3 344 375 367
3 342 364 375
3 343 367 364
3 375 364 367
3 345 377 359
3 344 366 377
3 337 359 366
3 377 366 359
3 378 390 392
3 389 391 390
3 383 392 391
3 390 391 392
3 378 392 394
3 383 393 392
3 379 394 393
3 392 393 394
3 378 394 396
3 379 395 394
3 385 396 395
3 394 395 396
3 378 396 398
3 385 397 396
3 388 398 397
3 396 397 398
3 378 398 390
3 388 399 398
3 389 390 399
3 398 399 390
3 379 393 401
3 383 400 393
3 387 401 400
3 393 400 401
3 383 391 403
3 389 402 391
3 382 403 402
3 391 402 403
3 389 399 405
3 388 404 399
3 380 405 404
3 399 404 405
3 388 397 407
3 385 406 397
3 384 407 406
3 397 406 407
3 385 395 409
3 379 408 395
3 386 409 408
3 395 408 409
3 381 410 412
3 387 411 410
3 382 412 411
3 410 411 412
3 381 412 414
3 382 413 412
3 380 414 413
3 412 413 414
3 381 414 416
3 380 415 414
3 384 416 415
3 414 415 416
3 381 416 418
3 384 417 416
3 386 418 417
3 416 417 418
3 381 418 410
3 386 419 418
3 387 410 419
3 418 419 410
3 382 411 403
3 387 400 411
3 383 403 400
3 411 400 403
3 380 413 405
3 382 402 413
3 389 405 402
3 413 402 405
3 384 415 407
3 380 404 415
3 388 407 404
3 415 404 407
3 386 417 409
3 384 406 417
3 385 409 406
3 417 406 409
3 387 419 401
3 386 408 419
3 379 401 408
3 419 408 401
3 420 432 434
3 431 433 432
3 425 434 433
3 432 433 434
3 420 434 436
3 425 435 434
3 421 436 435
3 434 435 436
3 420 436 438
3 421 437 436
3 427 438 437
3 436 437 438
3 420 438 440
3 427 439 438
3 430 440 439
3 438 439 440
3 420 440 432
3 430 441 440
3 431 432 441
3 440 441 432
3 421 435 443
3 425 442 435
3 429 443 442
3 435 442 443
3 425 433 445
3 431 444 433
3 424 445 444
3 433 444 445
3 431 441 447
3 430 446 441
3 422 447 446
3 441 446 447
3 430 439 449
3 427 448 439
3 426 449 448
3 439 448 449
3 427 437 451
3 421 450 437
3 428 451 450
3 437 450 451
3 423 452 454
3 429 453 452
3 424 454 453
3 452 453 454
3 423 454 456
3 424 455 454
3 422 456 455
3 454 455 456
3 423 456 458
3 422 457 456
3 426 458 457
3 456 457 458
3 423 458 460
3 426 459 458
3 428 460 459
3 458 459 460
3 423 460 452
3 428 461 460
3 429 452 461
3 460 461 452
3 424 453 445
3 429 442 453
3 425 445 442
3 453 442 445
3 422 455 447
3 424 444 455
3 431 447 444
3 455 444 447
3 426 457 449
3 422 446 457
3 430 449 446
3 457 446 449
3 428 459 451
3 426 448 459
3 427 451 448
3 459 448 451
3 429 461 443
3 428 450 461
3 421 443 450
3 461 450 443
3 462 474 476
3 473 475 474
3 467 476 475
3 474 475 476
3 462 476 478
3 467 477 476
3 463 478 477
3 476 477 478
3 462 478 480
3 463 479 478
3 469 480 479
3 478 479 480
3 462 480 482
3 469 481 480
3 472 482 481
3 480 481 482
3 462 482 474
3 472 483 482
3 473 474 483
3 482 483 474
3 463 477 485
3 467 484 477
3 471 485 484
3 477 484 485
3 467 475 487
3 473 486 475
3 466 487 486
3 475 486 487
3 473 483 489
3 472 488 483
3 464 489 488
3 483 488 489
3 472 481 491
3 469 490 481
3 468 491 490
3 481 490 491
3 469 479 493
3 463 492 479
3 470 493 492
3 479 492 493
3 465 494 496
3 471 495 494
3 466 496 495
3 494 495 496
3 465 496 498
3 466 497 496
3 464 498 497
3 496 497 498
3 465 498 500
3 464 499 498
3 468 500 499
3 498 499 500
3 465 500 502
3 468 501 500
3 470 502 501
3 500 501 502
3 465 502 494
3 470 503 502
3 471 494 503
3 502 503 494
3 466 495 487
3 471 484 495
3 467 487 484
3 495 484 487
3 464 497 489
3 466 486 497
3 473 489 486
3 497 486 489
3 468 499 491
3 464 488 499
3 472 491 488
3 499 488 491
3 470 501 493
3 468 490 501
3 469 493 490
3 501 490 493
3 471 503 485
3 470 492 503
3 463 485 492
3 503 492 485
3 504 516 518
3 515 517 516
3 509 518 517
3 516 517 518
3 504 518 520
3 509 519 518
3 505 520 519
3 518 519 520
3 504 520 522
3 505 521 520
3 511 522 521
3 520 521 522
3 504 522 524
3 511 523 522
3 514 524 523
3 522 523 524
3 504 524 516
3 514 525 524
3 515 516 525
3 524 525 516
3 505 519 527
3 509 526 519
3 513 527 526
3 519 526 527
3 509 517 529
3 515 528 517
3 508 529 528
3 517 528 529
3 515 525 531
3 514 530 525
3 506 531 530
3 525 530 531
3 514 523 533
3 511 532 523
3 510 533 532
3 523 532 533
3 511 521 535
3 505 534 521
3 512 535 534
3 521 534 535
3 507 536 538
3 513 537 536
3 508 538 537
3 536 537 538
3 507 538 540
3 508 539 538
3 506 540 539
3 538 539 540
3 507 540 542
3 506 541 540
3 510 542 541
3 540 541 542
3 507 542 544
3 510 543 542
3 512 544 543
3 542 543 544
3 507 544 536
3 512 545 544
3 513 536 545
3 544 545 536
3 508 537 529
3 513 526 537
3 509 529 526
3 537 526 529
3 506 539 531
3 508 528 539
3 515 531 528
3 539 528 531
3 510 541 533
3 506 530 541
3 514 533 530
3 541 530 533
3 512 543 535
3 510 532 543
3 511 535 532
3 543 532 535
3 513 545 527
3 512 534 545
3 505 527 534
3 545 534 527
3 546 558 560
3 557 559 558
3 551 560 559
3 558 559 560
3 546 560 562
3 551 561 560
3 547 562 561
3 560 561 562
3 546 562 564
3 547 563 562
3 553 564 563
3 562 563 564
3 546 564 566
3 553 565 564
3 556 566 565
3 564 565 566
3 546 566 558
3 556 567 566
3 557 558 567
3 566 567 558
3 547 561 569
3 551 568 561
3 555 569 568
3 561 568 569
3 551 559 571
3 557 570 559
3 550 571 570
3 559 570 571
3 557 567 573
3 556 572 567
3 548 573 572
3 567 572 573
3 556 565 575
3 553 574 565
3 552 575 574
3 565 574 575
3 553 563 577
3 547 576 563
3 554 577 576
3 563 576 577
3 549 578 580
3 555 579 578
3 550 580 579
3 578 579 580
3 549 580 582
3 550 581 580
3 548 582 581
3 580 581 582
3 549 582 584
3 548 583 582
3 552 584 583
3 582 583 584
3 549 584 586
3 552 585 584
3 554 586 585
3 584 585 586
3 549 586 578
3 554 587 586
3 555 578 587
3 586 587 578
3 550 579 571
3 555 568 579
3 551 571 568
3 579 568 571
3 548 581 573
3 550 570 581
3 557 573 570
3 581 570 573
3 552 583 575
3 548 572 583
3 556 575 572
3 583 572 575
3 554 585 577
3 552 574 585
3 553 577 574
3 585 574 577
3 555 587 569
3 554 576 587
3 547 569 576
3 587 576 569
3 588 600 602
3 599 601 600
3 593 602 601
3 600 601 602
3 588 602 604
3 593 603 602
3 589 604 603
3 602 603 604
3 588 604 606
3 589 605 604
3 595 606 605
3 604 605 606
3 588 606 608
3 595 607 606
3 598 608 607
3 606 607 608
3 588 608 600
3 598 609 608
3 599 600 609
3 608 609 600
3 589 603 611
3 593 610 603
3 597 611 610
3 603 610 611
3 593 601 613
3 599 612 601
3 592 613 612
3 601 612 613
3 599 609 615
3 598 614 609
3 590 615 614
3 609 614 615
3 598 607 617
3 595 616 607
3 594 617 616
3 607 616 617
3 595 605 619
3 589 618 605
3 596 619 618
3 605 618 619
3 591 620 622
3 597 621 620
3 592 622 621
3 620 621 622
3 591 622 624
3 592 623 622
3 590 624 623
3 622 623 624
3 591 624 626
3 590 625 624
3 594 626 625
3 624 625 626
3 591 626 628
3 594 627 626
3 596 628 627
3 626 627 628
3 591 628 620
3 596 629 628
3 597 620 629
3 628 629 620
3 592 621 613
3 597 610 621
3 593 613 610
3 621 610 613
3 590 623 615
3 592 612 623
3 599 615 612
3 623 612 615
3 594 625 617
3 590 614 625
3 598 617 614
3 625 614 617
3 596 627 619
3 594 616 627
3 595 619 616
3 627 616 619
3 597 629 611
3 596 618 629
3 589 611 618
3 629 618 611
3 630 642 644
3 641 643 642
3 635 644 643
3 642 643 644
3 630 644 646
3 635 645 644
3 631 646 645
3 644 645 646
3 630 646 648
3 631 647 646
3 637 648 647
3 646 647 648
3 630 648 650
3 637 649 648
3 640 650 649
3 648 649 650
3 630 650 642
3 640 651 650
3 641 642 651
3 650 651 642
3 631 645 653
3 635 652 645
3 639 653 652
3 645 652 653
3 635 643 655
3 641 654 643
3 634 655 654
3 643 654 655
3 641 651 657
3 640 656 651
3 632 657 656
3 651 656 657
3 640 649 659
3 637 658 649
3 636 659 658
3 649 658 659
3 637 647 661
3 631 660 647
3 638 661 660
3 647 660 661
3 633 662 664
3 639 663 662
3 634 664 663
3 662 663 664
3 633 664 666
3 634 665 664
3 632 666 665
3 664 665 666
3 633 666 668
3 632 667 666
3 636 668 667
3 666 667 668
3 633 668 670
3 636 669 668
3 638 670 669
3 668 669 670
3 633 670 662
3 638 671 670
3 639 662 671
3 670 671 662
3 634 663 655
3 639 652 663
3 635 655 652
3 663 652 655
3 632 665 657
3 634 654 665
3 641 657 654
3 665 654 657
3 636 667 659
3 632 656 667
3 640 659 656
3 667 656 659
3 638 669 661
3 636 658 669
3 637 661 658
3 669 658 661
3 639 671 653
3 638 660 671
3 631 653 660
3 671 660 653
3 672 684 686
3 683 685 684
3 677 686 685
3 684 685 686
3 672 686 688
3 677 687 686
3 673 688 687
3 686 687 688
3 672 688 690
3 673 689 688
3 679 690 689
3 688 689 690
3 672 690 692
3 679 691 690
3 682 692 691
3 690 691 692
3 672 692 684
3 682 693 692
3 683 684 693
3 692 693 684
3 673 687 695
3 677 694 687
3 681 695 694
3 687 694 695
3 677 685 697
3 683 696 685
3 676 697 696
3 685 696 697
3 683 693 699
3 682 698 693
3 674 699 698
3 693 698 699
3 682 691 701
3 679 700 691
3 678 701 700
3 691 700 701
3 679 689 703
3 673 702 689
3 680 703 702
3 689 702 703
3 675 704 706
3 681 705 704
3 676 706 705
3 704 705 706
3 675 706 708
3 676 707 706
3 674 708 707
3 706 707 708
3 675 708 710
3 674 709 708
3 678 710 709
3 708 709 710
3 675 710 712
3 678 711 710
3 680 712 711
3 710 711 712
3 675 712 704
3 680 713 712
3 681 704 713
3 712 713 704
3 676 705 697
3 681 694 705
3 677 697 694
3 705 694 697
3 674 707 699
3 676 696 707
3 683 699 696
3 707 696 699
3 678 709 701
3 674 698 709
3 682 701 698
3 709 698 701
3 680 711 703
3 678 700 711
3 679 703 700
3 711 700 703
3 681 713 695
3 680 702 713
3 673 695 702
3 713 702 695
3 714 726 728
3 725 727 726
3 719 728 727
3 726 727 728
3 714 728 730
3 719 729 728
3 715 730 729
3 728 729 730
3 714 730 732
3 715 731 730
3 721 732 731
3 730 731 732
3 714 732 734
3 721 733 732
3 724 734 733
3 732 733 734
3 714 734 726
3 724 735 734
3 725 726 735
3 734 735 726
3 715 729 737
3 719 736 729
3 723 737 736
3 729 736 737
3 719 727 739
3 725 738 727
3 718 739 738
3 727 738 739
3 725 735 741
3 724 740 735
3 716 741 740
3 735 740 741
3 724 733 743
3 721 742 733
3 720 743 742
3 733 742 743
3 721 731 745
3 715 744 731
3 722 745 744
3 731 744 745
3 717 746 748
3 723 747 746
3 718 748 747
3 746 747 748
3 717 748 750
3 718 749 748
3 716 750 749
3 748 749 750
3 717 750 752
3 716 751 750
3 720 752 751
3 750 751 752
3 717 752 754
3 720 753 752
3 722 754 753
3 752 753 754
3 717 754 746
3 722 755 754
3 723 746 755
3 754 755 746
3 718 747 739
3 723 736 747
3 719 739 736
3 747 736 739
3 716 749 741
3 718 738 749
3 725 741 738
3 749 738 741
3 720 751 743
3 716 740 751
3 724 743 740
3 751 740 743
3 722 753 745
3 720 742 753
3 721 745 742
3 753 742 745
3 723 755 737
3 722 744 755
3 715 737 744
3 755 744 737
3 756 768 770
3 767 769 768
3 761 770 769
3 768 769 770
3 756 770 772
3 761 771 770
3 757 772 771
3 770 771 772
3 756 772 774
3 757 773 772
3 763 774 773
3 772 773 774
3 756 774 776
3 763 775 774
3 766 776 775
3 774 775 776
3 756 776 768
3 766 777 776
3 767 768 777
3 776 777 768
3 757 771 779
3 761 778 771
3 765 779 778
3 771 778 779
3 761 769 781
3 767 780 769
3 760 781 780
3 769 780 781
3 767 777 783
3 766 782 777
3 758 783 782
3 777 782 783
3 766 775 785
3 763 784 775
3 762 785 784
3 775 784 785
3 763 773 787
3 757 786 773
3 764 787 786
3 773 786 787
3 759 788 790
3 765 789 788
3 760 790 789
3 788 789 790
3 759 790 792
3 760 791 790
3 758 792 791
3 790 791 792
3 759 792 794
3 758 793 792
3 762 794 793
3 792 793 794
3 759 794 796
3 762 795 794
3 764 796 795
3 794 795 796
3 759 796 788
3 764 797 796
3 765 788 797
3 796 797 788
3 760 789 781
3 765 778 789
3 761 781 778
3 789 778 781
3 758 791 783
3 760 780 791
3 767 783 780
3 791 780 783
3 762 793 785
3 758 782 793
3 766 785 782
3 793 782 785
3 764 795 787
3 762 784 795
3 763 787 784
3 795 784 787
3 765 797 779
3 764 786 797
3 757 779 786
3 797 786 779
3 798 810 812
3 809 811 810
3 803 812 811
3 810 811 812
3 798 812 814
3 803 813 812
3 799 814 813
3 812 813 814
3 798 814 816
3 799 815 814
3 805 816 815
3 814 815 816
3 798 816 818
3 805 817 816
3 808 818 817
3 816 817 818
3 798 818 810
3 808 819 818
3 809 810 819
3 818 819 810
3 799 813 821
3 803 820 813
3 807 821 820
3 813 820 821
3 803 811 823
3 809 822 811
3 802 823 822
3 811 822 823
3 809 819 825
3 808 824 819
3 800 825 824
3 819 824 825
3 808 817 827
3 805 826 817
3 804 827 826
3 817 826 827
3 805 815 829
3 799 828 815
3 806 829 828
3 815 828 829
3 801 830 832
3 807 831 830
3 802 832 831
3 830 831 832
3 801 832 834
3 802 833 832
3 800 834 833
3 832 833 834
3 801 834 836
3 800 835 834
3 804 836 835
3 834 835 836
3 801 836 838
3 804 837 836
3 806 838 837
3 836 837 838
3 801 838 830
3 806 839 838
3 807 830 839
3 838 839 830
3 802 831 823
3 807 820 831
3 803 823 820
3 831 820 823
3 800 833 825
3 802 822 833
3 809 825 822
3 833 822 825
3 804 835 827
3 800 824 835
3 808 827 824
3 835 824 827
3 806 837 829
3 804 826 837
3 805 829 826
3 837 826 829
3 807 839 821
3 806 828 839
3 799 821 828
3 839 828 821
3 840 852 854
3 851 853 852
3 845 854 853
3 852 853 854
3 840 854 856
3 845 855 854
3 841 856 855
3 854 855 856
3 840 856 858
3 841 857 856
3 847 858 857
3 856 857 858
3 840 858 860
3 847 859 858
3 850 860 859
3 858 859 860
3 840 860 852
3 850 861 860
3 851 852 861
3 860 861 852
3 841 855 863
3 845 862 855
3 849 863 862
3 855 862 863
3 845 853 865
3 851 864 853
3 844 865 864
3 853 864 865
3 851 861 867
3 850 866 861
3 842 867 866
3 861 866 867
3 850 859 869
3 847 868 859
3 846 869 868
3 859 868 869
3 847 857 871
3 841 870 857
3 848 871 870
3 857 870 871
3 843 872 874
3 849 873 872
3 844 874 873
3 872 873 874
3 843 874 876
3 844 875 874
3 842 876 875
3 874 875 876
3 843 876 878
3 842 877 876
3 846 878 877
3 876 877 878
3 843 878 880
3 846 879 878
3 848 880 879
3 878 879 880
3 843 880 872
3 848 881 880
3 849 872 881
3 880 881 872
3 844 873 865
3 849 862 873
3 845 865 862
3 873 862 865
3 842 875 867
3 844 864 875
3 851 867 864
3 875 864 867
3 846 877 869
3 842 866 877
3 850 869 866
3 877 866 869
3 848 879 871
3 846 868 879
3 847 871 868
3 879 868 871
3 849 881 863
3 848 870 881
3 841 863 870
3 881 870 863
3 882 894 896
3 893 895 894
3 887 896 895
3 894 895 896
3 882 896 898
3 887 897 896
3 883 898 897
3 896 897 898
3 882 898 900
3 883 899 898
3 889 900 899
3 898 899 900
3 882 900 902
3 889 901 900
3 892 902 901
3 900 901 902
3 882 902 894
3 892 903 902
3 893 894 903
3 902 903 894
3 883 897 905
3 887 904 897
3 891 905 904
3 897 904 905
3 887 895 907
3 893 906 895
3 886 907 906
3 895 906 907
3 893 903 909
3 892 908 903
3 884 909 908
3 903 908 909
3 892 901 911
3 889 910 901
3 888 911 910
3 901 910 911
3 889 899 913
3 883 912 899
3 890 913 912
3 899 912 913
3 885 914 916
3 891 915 914
3 886 916 915
3 914 915 916
3 885 916 918
3 886 917 916
3 884 918 917
3 916 917 918
3 885 918 920
3 884 919 918
3 888 920 919
3 918 919 920
3 885 920 922
3 888 921 920
3 890 922 921
3 920 921 922
3 885 922 914
3 890 923 922
3 891 914 923
3 922 923 914
3 886 915 907
3 891 904 915
3 887 907 904
3 915 904 907
3 884 917 909
3 886 906 917
3 893 909 906
3 917 906 909
3 888 919 911
3 884 908 919
3 892 911 908
3 919 908 911
3 890 921 913
3 888 910 921
3 889 913 910
3 921 910 913
3 891 923 905
3 890 912 923
3 883 905 912
3 923 912 905
3 924 936 938
3 935 937 936
3 929 938 937
3 936 937 938
3 924 938 940
3 929 939 938
3 925 940 939
3 938 939 940
3 924 940 942
3 925 941 940
3 931 942 941
3 940 941 942
3 924 942 944
3 931 943 942
3 934 944 943
3 942 943 944
3 924 944 936
3 934 945 944
3 935 936 945
3 944 945 936
3 925 939 947
3 929 946 939
3 933 947 946
3 939 946 947
3 929 937 949
3 935 948 937
3 928 949 948
3 937 948 949
3 935 945 951
3 934 950 945
3 926 951 950
3 945 950 951
3 934 943 953
3 931 952 943
3 930 953 952
3 943 952 953
3 931 941 955
3 925 954 941
3 932 955 954
3 941 954 955
3 927 956 958
3 933 957 956
3 928 958 957
3 956 957 958
3 927 958 960
3 928 959 958
3 926 960 959
3 958 959 960
3 927 960 962
3 926 961 960
3 930 962 961
3 960 961 962
3 927 962 964
3 930 963 962
3 932 964 963
3 962 963 964
3 927 964 956
3 932 965 964
3 933 956 965
3 964 965 956
3 928 957 949
3 933 946 957
3 929 949 946
3 957 946 949
3 926 959 951
3 928 948 959
3 935 951 948
3 959 948 951
3 930 961 953
3 926 950 961
3 934 953 950
3 961 950 953
3 932 963 955
3 930 952 963
3 931 955 952
3 963 952 955
3 933 965 947
3 932 954 965
3 925 947 954
3 965 954 947
