ply
format ascii 1.0
element vertex 966
property float x
property float y
property float z
property uchar red
property uchar green
property uchar blue
element face 1840
property list uchar int vertex_indices
end_header
-0.173501 -0.077160 0.438293 255 0 0
-0.180839 -0.077160 0.445824 255 0 0
-0.173501 -0.094173 0.438293 255 0 0
-0.180839 -0.094173 0.445824 255 0 0
-0.183263 -0.090924 0.436122 255 0 0
-0.183263 -0.080409 0.436122 255 0 0
-0.171077 -0.090924 0.447995 255 0 0
-0.171077 -0.080409 0.447995 255 0 0
-0.179341 -0.085667 0.451820 255 0 0
-0.186872 -0.085667 0.444482 255 0 0
-0.167468 -0.085667 0.439634 255 0 0
-0.174999 -0.085667 0.432297 255 0 0
-0.173738 -0.080667 0.434107 255 0 0
-0.179475 -0.082577 0.432831 255 0 0
-0.178595 -0.077577 0.436356 255 0 0
-0.182908 -0.077577 0.440782 255 0 0
-0.177170 -0.075667 0.442058 255 0 0
-0.175745 -0.077577 0.447761 255 0 0
-0.171432 -0.077577 0.443334 255 0 0
-0.167886 -0.082577 0.444123 255 0 0
-0.169311 -0.080667 0.438420 255 0 0
-0.170192 -0.085667 0.434896 255 0 0
-0.186454 -0.082577 0.439994 255 0 0
-0.185029 -0.080667 0.445696 255 0 0
-0.179475 -0.088757 0.432831 255 0 0
-0.184333 -0.085667 0.435080 255 0 0
-0.169311 -0.090667 0.438420 255 0 0
-0.173738 -0.090667 0.434107 255 0 0
-0.170008 -0.085667 0.449037 255 0 0
-0.167886 -0.088757 0.444123 255 0 0
-0.180602 -0.080667 0.450009 255 0 0
-0.174865 -0.082577 0.451285 255 0 0
-0.185029 -0.090667 0.445696 255 0 0
-0.186454 -0.088757 0.439994 255 0 0
-0.182908 -0.093757 0.440782 255 0 0
-0.178595 -0.093757 0.436356 255 0 0
-0.177170 -0.095667 0.442058 255 0 0
-0.171432 -0.093757 0.443334 255 0 0
-0.175745 -0.093757 0.447761 255 0 0
-0.174865 -0.088757 0.451285 255 0 0
-0.180602 -0.090667 0.450009 255 0 0
-0.184149 -0.085667 0.449221 255 0 0
-0.110294 -0.035975 0.408057 255 0 0
-0.117631 -0.035975 0.415588 255 0 0
-0.110294 -0.052988 0.408057 255 0 0
-0.117631 -0.052988 0.415588 255 0 0
-0.120055 -0.049739 0.405887 255 0 0
-0.120055 -0.039224 0.405887 255 0 0
-0.107870 -0.049739 0.417759 255 0 0
-0.107870 -0.039224 0.417759 255 0 0
-0.116133 -0.044481 0.421584 255 0 0
-0.123664 -0.044481 0.414247 255 0 0
-0.104261 -0.044481 0.409399 255 0 0
-0.111792 -0.044481 0.402061 255 0 0
-0.110530 -0.039481 0.403872 255 0 0
-0.116268 -0.041391 0.402596 255 0 0
-0.115387 -0.036391 0.406120 255 0 0
-0.119700 -0.036391 0.410547 255 0 0
-0.113962 -0.034481 0.411823 255 0 0
-0.112538 -0.036391 0.417526 255 0 0
-0.108225 -0.036391 0.413099 255 0 0
-0.104679 -0.041391 0.413887 255 0 0
-0.106103 -0.039481 0.408185 255 0 0
-0.106984 -0.044481 0.404660 255 0 0
-0.123246 -0.041391 0.409758 255 0 0
-0.121821 -0.039481 0.415461 255 0 0
-0.116268 -0.047571 0.402596 255 0 0
-0.121125 -0.044481 0.404844 255 0 0
-0.106103 -0.049481 0.408185 255 0 0
-0.110530 -0.049481 0.403872 255 0 0
-0.106800 -0.044481 0.418801 255 0 0
-0.104679 -0.047571 0.413887 255 0 0
-0.117395 -0.039481 0.419774 255 0 0
-0.111657 -0.041391 0.421050 255 0 0
-0.121821 -0.049481 0.415461 255 0 0
-0.123246 -0.047571 0.409758 255 0 0
-0.119700 -0.052571 0.410547 255 0 0
-0.115387 -0.052571 0.406120 255 0 0
-0.113962 -0.054481 0.411823 255 0 0
-0.108225 -0.052571 0.413099 255 0 0
-0.112538 -0.052571 0.417526 255 0 0
-0.111657 -0.047571 0.421050 255 0 0
-0.117395 -0.049481 0.419774 255 0 0
-0.120941 -0.044481 0.418985 255 0 0
-0.100998 0.049765 0.434440 255 0 0
-0.108336 0.049765 0.441971 255 0 0
-0.100998 0.032752 0.434440 255 0 0
-0.108336 0.032752 0.441971 255 0 0
-0.110759 0.036002 0.432269 255 0 0
-0.110759 0.046516 0.432269 255 0 0
-0.098574 0.036002 0.444142 255 0 0
-0.098574 0.046516 0.444142 255 0 0
-0.106837 0.041259 0.447967 255 0 0
-0.114368 0.041259 0.440630 255 0 0
-0.094965 0.041259 0.435782 255 0 0
-0.102496 0.041259 0.428444 255 0 0
-0.101234 0.046259 0.430255 255 0 0
-0.106972 0.044349 0.428979 255 0 0
-0.106091 0.049349 0.432503 255 0 0
-0.110404 0.049349 0.436930 255 0 0
-0.104667 0.051259 0.438206 255 0 0
-0.103242 0.049349 0.443908 255 0 0
-0.098929 0.049349 0.439482 255 0 0
-0.095383 0.044349 0.440270 255 0 0
-0.096808 0.046259 0.434568 255 0 0
-0.097688 0.041259 0.431043 255 0 0
-0.113950 0.044349 0.436141 255 0 0
-0.112526 0.046259 0.441844 255 0 0
-0.106972 0.038169 0.428979 255 0 0
-0.111829 0.041259 0.431227 255 0 0
-0.096808 0.036259 0.434568 255 0 0
-0.101234 0.036259 0.430255 255 0 0
-0.097504 0.041259 0.445184 255 0 0
-0.095383 0.038169 0.440270 255 0 0
-0.108099 0.046259 0.446157 255 0 0
-0.102361 0.044349 0.447433 255 0 0
-0.112526 0.036259 0.441844 255 0 0
-0.113950 0.038169 0.436141 255 0 0
-0.110404 0.033169 0.436930 255 0 0
-0.106091 0.033169 0.432503 255 0 0
-0.104667 0.031259 0.438206 255 0 0
-0.098929 0.033169 0.439482 255 0 0
-0.103242 0.033169 0.443908 255 0 0
-0.102361 0.038169 0.447433 255 0 0
-0.108099 0.036259 0.446157 255 0 0
-0.111645 0.041259 0.445368 255 0 0
-0.134039 -0.023960 0.413921 255 0 0
-0.141377 -0.023960 0.421452 255 0 0
-0.134039 -0.040973 0.413921 255 0 0
-0.141377 -0.040973 0.421452 255 0 0
-0.143801 -0.037724 0.411750 255 0 0
-0.143801 -0.027209 0.411750 255 0 0
-0.131615 -0.037724 0.423622 255 0 0
-0.131615 -0.027209 0.423622 255 0 0
-0.139879 -0.032466 0.427448 255 0 0
-0.147410 -0.032466 0.420110 255 0 0
-0.128006 -0.032466 0.415262 255 0 0
-0.135537 -0.032466 0.407925 255 0 0
-0.134275 -0.027466 0.409735 255 0 0
-0.140013 -0.029376 0.408459 255 0 0
-0.139133 -0.024376 0.411983 255 0 0
-0.143446 -0.024376 0.416410 255 0 0
-0.137708 -0.022466 0.417686 255 0 0
-0.136283 -0.024376 0.423389 255 0 0
-0.131970 -0.024376 0.418962 255 0 0
-0.128424 -0.029376 0.419751 255 0 0
-0.129849 -0.027466 0.414048 255 0 0
-0.130729 -0.032466 0.410524 255 0 0
-0.146992 -0.029376 0.415622 255 0 0
-0.145567 -0.027466 0.421324 255 0 0
-0.140013 -0.035557 0.408459 255 0 0
-0.144870 -0.032466 0.410708 255 0 0
-0.129849 -0.037466 0.414048 255 0 0
-0.134275 -0.037466 0.409735 255 0 0
-0.130545 -0.032466 0.424665 255 0 0
-0.128424 -0.035557 0.419751 255 0 0
-0.141140 -0.027466 0.425637 255 0 0
-0.135403 -0.029376 0.426913 255 0 0
-0.145567 -0.037466 0.421324 255 0 0
-0.146992 -0.035557 0.415622 255 0 0
-0.143446 -0.040557 0.416410 255 0 0
-0.139133 -0.040557 0.411983 255 0 0
-0.137708 -0.042466 0.417686 255 0 0
-0.131970 -0.040557 0.418962 255 0 0
-0.136283 -0.040557 0.423389 255 0 0
-0.135403 -0.035557 0.426913 255 0 0
-0.141140 -0.037466 0.425637 255 0 0
-0.144686 -0.032466 0.424848 255 0 0
-0.011122 -0.061520 0.409916 255 0 0
-0.018460 -0.061520 0.417447 255 0 0
-0.011122 -0.078533 0.409916 255 0 0
-0.018460 -0.078533 0.417447 255 0 0
-0.020884 -0.075283 0.407745 255 0 0
-0.020884 -0.064769 0.407745 255 0 0
-0.008698 -0.075283 0.419618 255 0 0
-0.008698 -0.064769 0.419618 255 0 0
-0.016962 -0.070026 0.423443 255 0 0
-0.024493 -0.070026 0.416105 255 0 0
-0.005089 -0.070026 0.411257 255 0 0
-0.012620 -0.070026 0.403920 255 0 0
-0.011359 -0.065026 0.405730 255 0 0
-0.017097 -0.066936 0.404454 255 0 0
-0.016216 -0.061936 0.407979 255 0 0
-0.020529 -0.061936 0.412405 255 0 0
-0.014791 -0.060026 0.413681 255 0 0
-0.013366 -0.061936 0.419384 255 0 0
-0.009054 -0.061936 0.414957 255 0 0
-0.005507 -0.066936 0.415746 255 0 0
-0.006932 -0.065026 0.410043 255 0 0
-0.007813 -0.070026 0.406519 255 0 0
-0.024075 -0.066936 0.411617 255 0 0
-0.022650 -0.065026 0.417319 255 0 0
-0.017097 -0.073116 0.404454 255 0 0
-0.021954 -0.070026 0.406703 255 0 0
-0.006932 -0.075026 0.410043 255 0 0
-0.011359 -0.075026 0.405730 255 0 0
-0.007629 -0.070026 0.420660 255 0 0
-0.005507 -0.073116 0.415746 255 0 0
-0.018224 -0.065026 0.421632 255 0 0
-0.012486 -0.066936 0.422908 255 0 0
-0.022650 -0.075026 0.417319 255 0 0
-0.024075 -0.073116 0.411617 255 0 0
-0.020529 -0.078116 0.412405 255 0 0
-0.016216 -0.078116 0.407979 255 0 0
-0.014791 -0.080026 0.413681 255 0 0
-0.009054 -0.078116 0.414957 255 0 0
-0.013366 -0.078116 0.419384 255 0 0
-0.012486 -0.073116 0.422908 255 0 0
-0.018224 -0.075026 0.421632 255 0 0
-0.021770 -0.070026 0.420844 255 0 0
-0.013836 0.047747 0.420539 255 0 0
-0.021174 0.047747 0.428070 255 0 0
-0.013836 0.030734 0.420539 255 0 0
-0.021174 0.030734 0.428070 255 0 0
-0.023598 0.033983 0.418369 255 0 0
-0.023598 0.044498 0.418369 255 0 0
-0.011412 0.033983 0.430241 255 0 0
-0.011412 0.044498 0.430241 255 0 0
-0.019676 0.039241 0.434066 255 0 0
-0.027207 0.039241 0.426729 255 0 0
-0.007803 0.039241 0.421881 255 0 0
-0.015334 0.039241 0.414543 255 0 0
-0.014072 0.044241 0.416354 255 0 0
-0.019810 0.042331 0.415078 255 0 0
-0.018930 0.047331 0.418602 255 0 0
-0.023243 0.047331 0.423029 255 0 0
-0.017505 0.049241 0.424305 255 0 0
-0.016080 0.047331 0.430007 255 0 0
-0.011767 0.047331 0.425581 255 0 0
-0.008221 0.042331 0.426369 255 0 0
-0.009646 0.044241 0.420667 255 0 0
-0.010526 0.039241 0.417142 255 0 0
-0.026789 0.042331 0.422240 255 0 0
-0.025364 0.044241 0.427943 255 0 0
-0.019810 0.036151 0.415078 255 0 0
-0.024667 0.039241 0.417326 255 0 0
-0.009646 0.034241 0.420667 255 0 0
-0.014072 0.034241 0.416354 255 0 0
-0.010342 0.039241 0.431283 255 0 0
-0.008221 0.036151 0.426369 255 0 0
-0.020937 0.044241 0.432256 255 0 0
-0.015200 0.042331 0.433532 255 0 0
-0.025364 0.034241 0.427943 255 0 0
-0.026789 0.036151 0.422240 255 0 0
-0.023243 0.031151 0.423029 255 0 0
-0.018930 0.031151 0.418602 255 0 0
-0.017505 0.029241 0.424305 255 0 0
-0.011767 0.031151 0.425581 255 0 0
-0.016080 0.031151 0.430007 255 0 0
-0.015200 0.036151 0.433532 255 0 0
-0.020937 0.034241 0.432256 255 0 0
-0.024483 0.039241 0.431467 255 0 0
-0.082589 0.100508 0.401178 255 0 0
-0.089926 0.100508 0.408709 255 0 0
-0.082589 0.083495 0.401178 255 0 0
-0.089926 0.083495 0.408709 255 0 0
-0.092350 0.086744 0.399007 255 0 0
-0.092350 0.097259 0.399007 255 0 0
-0.080165 0.086744 0.410880 255 0 0
-0.080165 0.097259 0.410880 255 0 0
-0.088428 0.092001 0.414705 255 0 0
-0.095959 0.092001 0.407367 255 0 0
-0.076556 0.092001 0.402520 255 0 0
-0.084087 0.092001 0.395182 255 0 0
-0.082825 0.097001 0.396992 255 0 0
-0.088563 0.095092 0.395717 255 0 0
-0.087682 0.100092 0.399241 255 0 0
-0.091995 0.100092 0.403668 255 0 0
-0.086257 0.102001 0.404943 255 0 0
-0.084833 0.100092 0.410646 255 0 0
-0.080520 0.100092 0.406219 255 0 0
-0.076974 0.095092 0.407008 255 0 0
-0.078398 0.097001 0.401305 255 0 0
-0.079279 0.092001 0.397781 255 0 0
-0.095541 0.095092 0.402879 255 0 0
-0.094116 0.097001 0.408582 255 0 0
-0.088563 0.088911 0.395717 255 0 0
-0.093420 0.092001 0.397965 255 0 0
-0.078398 0.087001 0.401305 255 0 0
-0.082825 0.087001 0.396992 255 0 0
-0.079095 0.092001 0.411922 255 0 0
-0.076974 0.088911 0.407008 255 0 0
-0.089690 0.097001 0.412894 255 0 0
-0.083952 0.095092 0.414170 255 0 0
-0.094116 0.087001 0.408582 255 0 0
-0.095541 0.088911 0.402879 255 0 0
-0.091995 0.083911 0.403668 255 0 0
-0.087682 0.083911 0.399241 255 0 0
-0.086257 0.082001 0.404943 255 0 0
-0.080520 0.083911 0.406219 255 0 0
-0.084833 0.083911 0.410646 255 0 0
-0.083952 0.088911 0.414170 255 0 0
-0.089690 0.087001 0.412894 255 0 0
-0.093236 0.092001 0.412106 255 0 0
0.036199 -0.081885 0.426322 255 0 0
0.028861 -0.081885 0.433853 255 0 0
0.036199 -0.098898 0.426322 255 0 0
0.028861 -0.098898 0.433853 255 0 0
0.026437 -0.095649 0.424151 255 0 0
0.026437 -0.085134 0.424151 255 0 0
0.038622 -0.095649 0.436023 255 0 0
0.038622 -0.085134 0.436023 255 0 0
0.030359 -0.090392 0.439849 255 0 0
0.022828 -0.090392 0.432511 255 0 0
0.042232 -0.090392 0.427663 255 0 0
0.034700 -0.090392 0.420325 255 0 0
0.035962 -0.085392 0.422136 255 0 0
0.030224 -0.087301 0.420860 255 0 0
0.031105 -0.082301 0.424384 255 0 0
0.026792 -0.082301 0.428811 255 0 0
0.032530 -0.080392 0.430087 255 0 0
0.033955 -0.082301 0.435790 255 0 0
0.038267 -0.082301 0.431363 255 0 0
0.041814 -0.087301 0.432152 255 0 0
0.040389 -0.085392 0.426449 255 0 0
0.039508 -0.090392 0.422925 255 0 0
0.023246 -0.087301 0.428023 255 0 0
0.024671 -0.085392 0.433725 255 0 0
0.030224 -0.093482 0.420860 255 0 0
0.025367 -0.090392 0.423109 255 0 0
0.040389 -0.095392 0.426449 255 0 0
0.035962 -0.095392 0.422136 255 0 0
0.039692 -0.090392 0.437066 255 0 0
0.041814 -0.093482 0.432152 255 0 0
0.029097 -0.085392 0.438038 255 0 0
0.034835 -0.087301 0.439314 255 0 0
0.024671 -0.095392 0.433725 255 0 0
0.023246 -0.093482 0.428023 255 0 0
0.026792 -0.098482 0.428811 255 0 0
0.031105 -0.098482 0.424384 255 0 0
0.032530 -0.100392 0.430087 255 0 0
0.038267 -0.098482 0.431363 255 0 0
0.033955 -0.098482 0.435790 255 0 0
0.034835 -0.093482 0.439314 255 0 0
0.029097 -0.095392 0.438038 255 0 0
0.025551 -0.090392 0.437249 255 0 0
-0.078715 -0.046084 0.404301 255 0 0
-0.086053 -0.046084 0.411833 255 0 0
-0.078715 -0.063097 0.404301 255 0 0
-0.086053 -0.063097 0.411833 255 0 0
-0.088477 -0.059847 0.402131 255 0 0
-0.088477 -0.049333 0.402131 255 0 0
-0.076291 -0.059847 0.414003 255 0 0
-0.076291 -0.049333 0.414003 255 0 0
-0.084555 -0.054590 0.417829 255 0 0
-0.092086 -0.054590 0.410491 255 0 0
-0.072682 -0.054590 0.405643 255 0 0
-0.080214 -0.054590 0.398305 255 0 0
-0.078952 -0.049590 0.400116 255 0 0
-0.084690 -0.051500 0.398840 255 0 0
-0.083809 -0.046500 0.402364 255 0 0
-0.088122 -0.046500 0.406791 255 0 0
-0.082384 -0.044590 0.408067 255 0 0
-0.080959 -0.046500 0.413770 255 0 0
-0.076647 -0.046500 0.409343 255 0 0
-0.073100 -0.051500 0.410131 255 0 0
-0.074525 -0.049590 0.404429 255 0 0
-0.075406 -0.054590 0.400905 255 0 0
-0.091668 -0.051500 0.406002 255 0 0
-0.090243 -0.049590 0.411705 255 0 0
-0.084690 -0.057680 0.398840 255 0 0
-0.089547 -0.054590 0.401089 255 0 0
-0.074525 -0.059590 0.404429 255 0 0
-0.078952 -0.059590 0.400116 255 0 0
-0.075222 -0.054590 0.415045 255 0 0
-0.073100 -0.057680 0.410131 255 0 0
-0.085817 -0.049590 0.416018 255 0 0
-0.080079 -0.051500 0.417294 255 0 0
-0.090243 -0.059590 0.411705 255 0 0
-0.091668 -0.057680 0.406002 255 0 0
-0.088122 -0.062680 0.406791 255 0 0
-0.083809 -0.062680 0.402364 255 0 0
-0.082384 -0.064590 0.408067 255 0 0
-0.076647 -0.062680 0.409343 255 0 0
-0.080959 -0.062680 0.413770 255 0 0
-0.080079 -0.057680 0.417294 255 0 0
-0.085817 -0.059590 0.416018 255 0 0
-0.089363 -0.054590 0.415229 255 0 0
-0.049942 -0.057327 0.405918 255 0 0
-0.057280 -0.057327 0.413449 255 0 0
-0.049942 -0.074340 0.405918 255 0 0
-0.057280 -0.074340 0.413449 255 0 0
-0.059704 -0.071091 0.403748 255 0 0
-0.059704 -0.060576 0.403748 255 0 0
-0.047518 -0.071091 0.415620 255 0 0
-0.047518 -0.060576 0.415620 255 0 0
-0.055782 -0.065834 0.419445 255 0 0
-0.063313 -0.065834 0.412108 255 0 0
-0.043909 -0.065834 0.407260 255 0 0
-0.051440 -0.065834 0.399922 255 0 0
-0.050178 -0.060834 0.401733 255 0 0
-0.055916 -0.062743 0.400457 255 0 0
-0.055036 -0.057743 0.403981 255 0 0
-0.059349 -0.057743 0.408408 255 0 0
-0.053611 -0.055834 0.409684 255 0 0
-0.052186 -0.057743 0.415386 255 0 0
-0.047873 -0.057743 0.410960 255 0 0
-0.044327 -0.062743 0.411748 255 0 0
-0.045752 -0.060834 0.406046 255 0 0
-0.046632 -0.065834 0.402521 255 0 0
-0.062895 -0.062743 0.407619 255 0 0
-0.061470 -0.060834 0.413322 255 0 0
-0.055916 -0.068924 0.400457 255 0 0
-0.060773 -0.065834 0.402705 255 0 0
-0.045752 -0.070834 0.406046 255 0 0
-0.050178 -0.070834 0.401733 255 0 0
-0.046448 -0.065834 0.416662 255 0 0
-0.044327 -0.068924 0.411748 255 0 0
-0.057043 -0.060834 0.417635 255 0 0
-0.051306 -0.062743 0.418911 255 0 0
-0.061470 -0.070834 0.413322 255 0 0
-0.062895 -0.068924 0.407619 255 0 0
-0.059349 -0.073924 0.408408 255 0 0
-0.055036 -0.073924 0.403981 255 0 0
-0.053611 -0.075834 0.409684 255 0 0
-0.047873 -0.073924 0.410960 255 0 0
-0.052186 -0.073924 0.415386 255 0 0
-0.051306 -0.068924 0.418911 255 0 0
-0.057043 -0.070834 0.417635 255 0 0
-0.060589 -0.065834 0.416846 255 0 0
0.001060 -0.023427 0.403830 255 0 0
-0.006277 -0.023427 0.411361 255 0 0
0.001060 -0.040440 0.403830 255 0 0
-0.006277 -0.040440 0.411361 255 0 0
-0.008701 -0.037191 0.401660 255 0 0
-0.008701 -0.026676 0.401660 255 0 0
0.003484 -0.037191 0.413532 255 0 0
0.003484 -0.026676 0.413532 255 0 0
-0.004779 -0.031933 0.417357 255 0 0
-0.012310 -0.031933 0.410020 255 0 0
0.007093 -0.031933 0.405172 255 0 0
-0.000438 -0.031933 0.397834 255 0 0
0.000824 -0.026933 0.399645 255 0 0
-0.004914 -0.028843 0.398369 255 0 0
-0.004033 -0.023843 0.401893 255 0 0
-0.008346 -0.023843 0.406320 255 0 0
-0.002608 -0.021933 0.407596 255 0 0
-0.001184 -0.023843 0.413298 255 0 0
0.003129 -0.023843 0.408872 255 0 0
0.006675 -0.028843 0.409660 255 0 0
0.005251 -0.026933 0.403958 255 0 0
0.004370 -0.031933 0.400433 255 0 0
-0.011892 -0.028843 0.405531 255 0 0
-0.010467 -0.026933 0.411234 255 0 0
-0.004914 -0.035023 0.398369 255 0 0
-0.009771 -0.031933 0.400617 255 0 0
0.005251 -0.036933 0.403958 255 0 0
0.000824 -0.036933 0.399645 255 0 0
0.004554 -0.031933 0.414574 255 0 0
0.006675 -0.035023 0.409660 255 0 0
-0.006041 -0.026933 0.415547 255 0 0
-0.000303 -0.028843 0.416823 255 0 0
-0.010467 -0.036933 0.411234 255 0 0
-0.011892 -0.035023 0.405531 255 0 0
-0.008346 -0.040023 0.406320 255 0 0
-0.004033 -0.040023 0.401893 255 0 0
-0.002608 -0.041933 0.407596 255 0 0
0.003129 -0.040023 0.408872 255 0 0
-0.001184 -0.040023 0.413298 255 0 0
-0.000303 -0.035023 0.416823 255 0 0
-0.006041 -0.036933 0.415547 255 0 0
-0.009587 -0.031933 0.414758 255 0 0
-0.009976 -0.065775 0.399801 255 0 0
-0.017313 -0.065775 0.407332 255 0 0
-0.009976 -0.082788 0.399801 255 0 0
-0.017313 -0.082788 0.407332 255 0 0
-0.019737 -0.079539 0.397630 255 0 0
-0.019737 -0.069024 0.397630 255 0 0
-0.007552 -0.079539 0.409503 255 0 0
-0.007552 -0.069024 0.409503 255 0 0
-0.015815 -0.074281 0.413328 255 0 0
-0.023346 -0.074281 0.405991 255 0 0
-0.003943 -0.074281 0.401143 255 0 0
-0.011474 -0.074281 0.393805 255 0 0
-0.010212 -0.069281 0.395616 255 0 0
-0.015950 -0.071191 0.394340 255 0 0
-0.015069 -0.066191 0.397864 255 0 0
-0.019382 -0.066191 0.402291 255 0 0
-0.013644 -0.064281 0.403567 255 0 0
-0.012220 -0.066191 0.409269 255 0 0
-0.007907 -0.066191 0.404843 255 0 0
-0.004361 -0.071191 0.405631 255 0 0
-0.005785 -0.069281 0.399929 255 0 0
-0.006666 -0.074281 0.396404 255 0 0
-0.022928 -0.071191 0.401502 255 0 0
-0.021503 -0.069281 0.407205 255 0 0
-0.015950 -0.077371 0.394340 255 0 0
-0.020807 -0.074281 0.396588 255 0 0
-0.005785 -0.079281 0.399929 255 0 0
-0.010212 -0.079281 0.395616 255 0 0
-0.006482 -0.074281 0.410545 255 0 0
-0.004361 -0.077371 0.405631 255 0 0
-0.017077 -0.069281 0.411518 255 0 0
-0.011339 -0.071191 0.412794 255 0 0
-0.021503 -0.079281 0.407205 255 0 0
-0.022928 -0.077371 0.401502 255 0 0
-0.019382 -0.082371 0.402291 255 0 0
-0.015069 -0.082371 0.397864 255 0 0
-0.013644 -0.084281 0.403567 255 0 0
-0.007907 -0.082371 0.404843 255 0 0
-0.012220 -0.082371 0.409269 255 0 0
-0.011339 -0.077371 0.412794 255 0 0
-0.017077 -0.079281 0.411518 255 0 0
-0.020623 -0.074281 0.410729 255 0 0
0.048219 -0.040525 0.453346 255 0 0
0.040882 -0.040525 0.460877 255 0 0
0.048219 -0.057538 0.453346 255 0 0
0.040882 -0.057538 0.460877 255 0 0
0.038458 -0.054289 0.451176 255 0 0
0.038458 -0.043775 0.451176 255 0 0
0.050643 -0.054289 0.463048 255 0 0
0.050643 -0.043775 0.463048 255 0 0
0.042380 -0.049032 0.466873 255 0 0
0.034849 -0.049032 0.459536 255 0 0
0.054252 -0.049032 0.454688 255 0 0
0.046721 -0.049032 0.447350 255 0 0
0.047983 -0.044032 0.449161 255 0 0
0.042245 -0.045942 0.447885 255 0 0
0.043126 -0.040942 0.451409 255 0 0
0.038813 -0.040942 0.455836 255 0 0
0.044551 -0.039032 0.457112 255 0 0
0.045975 -0.040942 0.462814 255 0 0
0.050288 -0.040942 0.458388 255 0 0
0.053834 -0.045942 0.459176 255 0 0
0.052410 -0.044032 0.453474 255 0 0
0.051529 -0.049032 0.449949 255 0 0
0.035267 -0.045942 0.455047 255 0 0
0.036692 -0.044032 0.460750 255 0 0
0.042245 -0.052122 0.447885 255 0 0
0.037388 -0.049032 0.450133 255 0 0
0.052410 -0.054032 0.453474 255 0 0
0.047983 -0.054032 0.449161 255 0 0
0.051713 -0.049032 0.464090 255 0 0
0.053834 -0.052122 0.459176 255 0 0
0.041118 -0.044032 0.465063 255 0 0
0.046856 -0.045942 0.466339 255 0 0
0.036692 -0.054032 0.460750 255 0 0
0.035267 -0.052122 0.455047 255 0 0
0.038813 -0.057122 0.455836 255 0 0
0.043126 -0.057122 0.451409 255 0 0
0.044551 -0.059032 0.457112 255 0 0
0.050288 -0.057122 0.458388 255 0 0
0.045975 -0.057122 0.462814 255 0 0
0.046856 -0.052122 0.466339 255 0 0
0.041118 -0.054032 0.465063 255 0 0
0.037572 -0.049032 0.464274 255 0 0
-0.029366 -0.049043 0.404502 255 0 0
-0.036703 -0.049043 0.412033 255 0 0
-0.029366 -0.066056 0.404502 255 0 0
-0.036703 -0.066056 0.412033 255 0 0
-0.039127 -0.062807 0.402331 255 0 0
-0.039127 -0.052292 0.402331 255 0 0
-0.026942 -0.062807 0.414203 255 0 0
-0.026942 -0.052292 0.414203 255 0 0
-0.035205 -0.057550 0.418029 255 0 0
-0.042736 -0.057550 0.410691 255 0 0
-0.023333 -0.057550 0.405843 255 0 0
-0.030864 -0.057550 0.398506 255 0 0
-0.029602 -0.052550 0.400316 255 0 0
-0.035340 -0.054459 0.399040 255 0 0
-0.034459 -0.049459 0.402565 255 0 0
-0.038772 -0.049459 0.406991 255 0 0
-0.033035 -0.047550 0.408267 255 0 0
-0.031610 -0.049459 0.413970 255 0 0
-0.027297 -0.049459 0.409543 255 0 0
-0.023751 -0.054459 0.410332 255 0 0
-0.025176 -0.052550 0.404629 255 0 0
-0.026056 -0.057550 0.401105 255 0 0
-0.042318 -0.054459 0.406203 255 0 0
-0.040894 -0.052550 0.411905 255 0 0
-0.035340 -0.060640 0.399040 255 0 0
-0.040197 -0.057550 0.401289 255 0 0
-0.025176 -0.062550 0.404629 255 0 0
-0.029602 -0.062550 0.400316 255 0 0
-0.025872 -0.057550 0.415246 255 0 0
-0.023751 -0.060640 0.410332 255 0 0
-0.036467 -0.052550 0.416218 255 0 0
-0.030729 -0.054459 0.417494 255 0 0
-0.040894 -0.062550 0.411905 255 0 0
-0.042318 -0.060640 0.406203 255 0 0
-0.038772 -0.065640 0.406991 255 0 0
-0.034459 -0.065640 0.402565 255 0 0
-0.033035 -0.067550 0.408267 255 0 0
-0.027297 -0.065640 0.409543 255 0 0
-0.031610 -0.065640 0.413970 255 0 0
-0.030729 -0.060640 0.417494 255 0 0
-0.036467 -0.062550 0.416218 255 0 0
-0.040013 -0.057550 0.415430 255 0 0
-0.050441 -0.026155 0.410459 255 0 0
-0.057779 -0.026155 0.417990 255 0 0
-0.050441 -0.043168 0.410459 255 0 0
-0.057779 -0.043168 0.417990 255 0 0
-0.060203 -0.039919 0.408288 255 0 0
-0.060203 -0.029404 0.408288 255 0 0
-0.048017 -0.039919 0.420161 255 0 0
-0.048017 -0.029404 0.420161 255 0 0
-0.056281 -0.034662 0.423986 255 0 0
-0.063812 -0.034662 0.416649 255 0 0
-0.044408 -0.034662 0.411801 255 0 0
-0.051939 -0.034662 0.404463 255 0 0
-0.050678 -0.029662 0.406274 255 0 0
-0.056415 -0.031571 0.404998 255 0 0
-0.055535 -0.026571 0.408522 255 0 0
-0.059848 -0.026571 0.412949 255 0 0
-0.054110 -0.024662 0.414225 255 0 0
-0.052685 -0.026571 0.419927 255 0 0
-0.048372 -0.026571 0.415501 255 0 0
-0.044826 -0.031571 0.416289 255 0 0
-0.046251 -0.029662 0.410587 255 0 0
-0.047131 -0.034662 0.407062 255 0 0
-0.063394 -0.031571 0.412160 255 0 0
-0.061969 -0.029662 0.417863 255 0 0
-0.056415 -0.037752 0.404998 255 0 0
-0.061272 -0.034662 0.407246 255 0 0
-0.046251 -0.039662 0.410587 255 0 0
-0.050678 -0.039662 0.406274 255 0 0
-0.046947 -0.034662 0.421203 255 0 0
-0.044826 -0.037752 0.416289 255 0 0
-0.057542 -0.029662 0.422176 255 0 0
-0.051805 -0.031571 0.423452 255 0 0
-0.061969 -0.039662 0.417863 255 0 0
-0.063394 -0.037752 0.412160 255 0 0
-0.059848 -0.042752 0.412949 255 0 0
-0.055535 -0.042752 0.408522 255 0 0
-0.054110 -0.044662 0.414225 255 0 0
-0.048372 -0.042752 0.415501 255 0 0
-0.052685 -0.042752 0.419927 255 0 0
-0.051805 -0.037752 0.423452 255 0 0
-0.057542 -0.039662 0.422176 255 0 0
-0.061088 -0.034662 0.421387 255 0 0
0.005679 0.082129 0.412968 255 0 0
-0.001658 0.082129 0.420499 255 0 0
0.005679 0.065116 0.412968 255 0 0
-0.001658 0.065116 0.420499 255 0 0
-0.004082 0.068365 0.410797 255 0 0
-0.004082 0.078880 0.410797 255 0 0
0.008103 0.068365 0.422670 255 0 0
0.008103 0.078880 0.422670 255 0 0
-0.000160 0.073622 0.426495 255 0 0
-0.007691 0.073622 0.419158 255 0 0
0.011712 0.073622 0.414310 255 0 0
0.004181 0.073622 0.406972 255 0 0
0.005443 0.078622 0.408783 255 0 0
-0.000295 0.076712 0.407507 255 0 0
0.000586 0.081712 0.411031 255 0 0
-0.003727 0.081712 0.415458 255 0 0
0.002011 0.083622 0.416734 255 0 0
0.003435 0.081712 0.422436 255 0 0
0.007748 0.081712 0.418010 255 0 0
0.011294 0.076712 0.418798 255 0 0
0.009870 0.078622 0.413096 255 0 0
0.008989 0.073622 0.409571 255 0 0
-0.007273 0.076712 0.414669 255 0 0
-0.005849 0.078622 0.420372 255 0 0
-0.000295 0.070532 0.407507 255 0 0
-0.005152 0.073622 0.409755 255 0 0
0.009870 0.068622 0.413096 255 0 0
0.005443 0.068622 0.408783 255 0 0
0.009173 0.073622 0.423712 255 0 0
0.011294 0.070532 0.418798 255 0 0
-0.001422 0.078622 0.424685 255 0 0
0.004316 0.076712 0.425961 255 0 0
-0.005849 0.068622 0.420372 255 0 0
-0.007273 0.070532 0.414669 255 0 0
-0.003727 0.065532 0.415458 255 0 0
0.000586 0.065532 0.411031 255 0 0
0.002011 0.063622 0.416734 255 0 0
0.007748 0.065532 0.418010 255 0 0
0.003435 0.065532 0.422436 255 0 0
0.004316 0.070532 0.425961 255 0 0
-0.001422 0.068622 0.424685 255 0 0
-0.004968 0.073622 0.423896 255 0 0
-0.013400 -0.031055 0.417603 255 0 0
-0.020738 -0.031055 0.425134 255 0 0
-0.013400 -0.048068 0.417603 255 0 0
-0.020738 -0.048068 0.425134 255 0 0
-0.023162 -0.044818 0.415432 255 0 0
-0.023162 -0.034304 0.415432 255 0 0
-0.010976 -0.044818 0.427304 255 0 0
-0.010976 -0.034304 0.427304 255 0 0
-0.019240 -0.039561 0.431130 255 0 0
-0.026771 -0.039561 0.423792 255 0 0
-0.007367 -0.039561 0.418944 255 0 0
-0.014898 -0.039561 0.411607 255 0 0
-0.013636 -0.034561 0.413417 255 0 0
-0.019374 -0.036471 0.412141 255 0 0
-0.018494 -0.031471 0.415666 255 0 0
-0.022807 -0.031471 0.420092 255 0 0
-0.017069 -0.029561 0.421368 255 0 0
-0.015644 -0.031471 0.427071 255 0 0
-0.011331 -0.031471 0.422644 255 0 0
-0.007785 -0.036471 0.423433 255 0 0
-0.009210 -0.034561 0.417730 255 0 0
-0.010090 -0.039561 0.414206 255 0 0
-0.026353 -0.036471 0.419304 255 0 0
-0.024928 -0.034561 0.425006 255 0 0
-0.019374 -0.042651 0.412141 255 0 0
-0.024231 -0.039561 0.414390 255 0 0
-0.009210 -0.044561 0.417730 255 0 0
-0.013636 -0.044561 0.413417 255 0 0
-0.009906 -0.039561 0.428347 255 0 0
-0.007785 -0.042651 0.423433 255 0 0
-0.020501 -0.034561 0.429319 255 0 0
-0.014764 -0.036471 0.430595 255 0 0
-0.024928 -0.044561 0.425006 255 0 0
-0.026353 -0.042651 0.419304 255 0 0
-0.022807 -0.047651 0.420092 255 0 0
-0.018494 -0.047651 0.415666 255 0 0
-0.017069 -0.049561 0.421368 255 0 0
-0.011331 -0.047651 0.422644 255 0 0
-0.015644 -0.047651 0.427071 255 0 0
-0.014764 -0.042651 0.430595 255 0 0
-0.020501 -0.044561 0.429319 255 0 0
-0.024047 -0.039561 0.428531 255 0 0
-0.000411 -0.040118 0.416382 255 0 0
-0.007749 -0.040118 0.423913 255 0 0
-0.000411 -0.057131 0.416382 255 0 0
-0.007749 -0.057131 0.423913 255 0 0
-0.010173 -0.053882 0.414211 255 0 0
-0.010173 -0.043367 0.414211 255 0 0
0.002013 -0.053882 0.426084 255 0 0
0.002013 -0.043367 0.426084 255 0 0
-0.006251 -0.048625 0.429909 255 0 0
-0.013782 -0.048625 0.422571 255 0 0
0.005622 -0.048625 0.417723 255 0 0
-0.001909 -0.048625 0.410386 255 0 0
-0.000648 -0.043625 0.412196 255 0 0
-0.006386 -0.045534 0.410920 255 0 0
-0.005505 -0.040534 0.414445 255 0 0
-0.009818 -0.040534 0.418871 255 0 0
-0.004080 -0.038625 0.420147 255 0 0
-0.002655 -0.040534 0.425850 255 0 0
0.001657 -0.040534 0.421423 255 0 0
0.005204 -0.045534 0.422212 255 0 0
0.003779 -0.043625 0.416509 255 0 0
0.002898 -0.048625 0.412985 255 0 0
-0.013364 -0.045534 0.418083 255 0 0
-0.011939 -0.043625 0.423785 255 0 0
-0.006386 -0.051715 0.410920 255 0 0
-0.011243 -0.048625 0.413169 255 0 0
0.003779 -0.053625 0.416509 255 0 0
-0.000648 -0.053625 0.412196 255 0 0
0.003082 -0.048625 0.427126 255 0 0
0.005204 -0.051715 0.422212 255 0 0
-0.007513 -0.043625 0.428098 255 0 0
-0.001775 -0.045534 0.429374 255 0 0
-0.011939 -0.053625 0.423785 255 0 0
-0.013364 -0.051715 0.418083 255 0 0
-0.009818 -0.056715 0.418871 255 0 0
-0.005505 -0.056715 0.414445 255 0 0
-0.004080 -0.058625 0.420147 255 0 0
0.001657 -0.056715 0.421423 255 0 0
-0.002655 -0.056715 0.425850 255 0 0
-0.001775 -0.051715 0.429374 255 0 0
-0.007513 -0.053625 0.428098 255 0 0
-0.011059 -0.048625 0.427310 255 0 0
0.049651 0.026917 0.456463 255 0 0
0.042313 0.026917 0.463994 255 0 0
0.049651 0.009904 0.456463 255 0 0
0.042313 0.009904 0.463994 255 0 0
0.039889 0.013153 0.454292 255 0 0
0.039889 0.023668 0.454292 255 0 0
0.052075 0.013153 0.466164 255 0 0
0.052075 0.023668 0.466164 255 0 0
0.043811 0.018411 0.469990 255 0 0
0.036280 0.018411 0.462652 255 0 0
0.055684 0.018411 0.457804 255 0 0
0.048153 0.018411 0.450467 255 0 0
0.049414 0.023411 0.452277 255 0 0
0.043677 0.021501 0.451001 255 0 0
0.044557 0.026501 0.454526 255 0 0
0.040244 0.026501 0.458952 255 0 0
0.045982 0.028411 0.460228 255 0 0
0.047407 0.026501 0.465931 255 0 0
0.051720 0.026501 0.461504 255 0 0
0.055266 0.021501 0.462293 255 0 0
0.053841 0.023411 0.456590 255 0 0
0.052961 0.018411 0.453066 255 0 0
0.036698 0.021501 0.458164 255 0 0
0.038123 0.023411 0.463866 255 0 0
0.043677 0.015320 0.451001 255 0 0
0.038820 0.018411 0.453250 255 0 0
0.053841 0.013411 0.456590 255 0 0
0.049414 0.013411 0.452277 255 0 0
0.053145 0.018411 0.467207 255 0 0
0.055266 0.015320 0.462293 255 0 0
0.042550 0.023411 0.468179 255 0 0
0.048287 0.021501 0.469455 255 0 0
0.038123 0.013411 0.463866 255 0 0
0.036698 0.015320 0.458164 255 0 0
0.040244 0.010320 0.458952 255 0 0
0.044557 0.010320 0.454526 255 0 0
0.045982 0.008411 0.460228 255 0 0
0.051720 0.010320 0.461504 255 0 0
0.047407 0.010320 0.465931 255 0 0
0.048287 0.015320 0.469455 255 0 0
0.042550 0.013411 0.468179 255 0 0
0.039004 0.018411 0.467391 255 0 0
0.029279 0.031786 0.437790 255 0 0
0.021942 0.031786 0.445321 255 0 0
0.029279 0.014773 0.437790 255 0 0
0.021942 0.014773 0.445321 255 0 0
0.019518 0.018022 0.435619 255 0 0
0.019518 0.028537 0.435619 255 0 0
0.031703 0.018022 0.447492 255 0 0
0.031703 0.028537 0.447492 255 0 0
0.023440 0.023279 0.451317 255 0 0
0.015909 0.023279 0.443979 255 0 0
0.035312 0.023279 0.439131 255 0 0
0.027781 0.023279 0.431794 255 0 0
0.029043 0.028279 0.433604 255 0 0
0.023305 0.026369 0.432328 255 0 0
0.024186 0.031369 0.435853 255 0 0
0.019873 0.031369 0.440279 255 0 0
0.025611 0.033279 0.441555 255 0 0
0.027035 0.031369 0.447258 255 0 0
0.031348 0.031369 0.442831 255 0 0
0.034894 0.026369 0.443620 255 0 0
0.033470 0.028279 0.437917 255 0 0
0.032589 0.023279 0.434393 255 0 0
0.016327 0.026369 0.439491 255 0 0
0.017752 0.028279 0.445193 255 0 0
0.023305 0.020189 0.432328 255 0 0
0.018448 0.023279 0.434577 255 0 0
0.033470 0.018279 0.437917 255 0 0
0.029043 0.018279 0.433604 255 0 0
0.032773 0.023279 0.448534 255 0 0
0.034894 0.020189 0.443620 255 0 0
0.022178 0.028279 0.449506 255 0 0
0.027916 0.026369 0.450782 255 0 0
0.017752 0.018279 0.445193 255 0 0
0.016327 0.020189 0.439491 255 0 0
0.019873 0.015189 0.440279 255 0 0
0.024186 0.015189 0.435853 255 0 0
0.025611 0.013279 0.441555 255 0 0
0.031348 0.015189 0.442831 255 0 0
0.027035 0.015189 0.447258 255 0 0
0.027916 0.020189 0.450782 255 0 0
0.022178 0.018279 0.449506 255 0 0
0.018632 0.023279 0.448718 255 0 0
0.006204 0.019428 0.423125 255 0 0
-0.001133 0.019428 0.430656 255 0 0
0.006204 0.002415 0.423125 255 0 0
-0.001133 0.002415 0.430656 255 0 0
-0.003557 0.005664 0.420954 255 0 0
-0.003557 0.016178 0.420954 255 0 0
0.008628 0.005664 0.432827 255 0 0
0.008628 0.016178 0.432827 255 0 0
0.000365 0.010921 0.436652 255 0 0
-0.007166 0.010921 0.429315 255 0 0
0.012237 0.010921 0.424467 255 0 0
0.004706 0.010921 0.417129 255 0 0
0.005968 0.015921 0.418940 255 0 0
0.000230 0.014011 0.417664 255 0 0
0.001111 0.019011 0.421188 255 0 0
-0.003202 0.019011 0.425615 255 0 0
0.002535 0.020921 0.426891 255 0 0
0.003960 0.019011 0.432593 255 0 0
0.008273 0.019011 0.428167 255 0 0
0.011819 0.014011 0.428955 255 0 0
0.010395 0.015921 0.423253 255 0 0
0.009514 0.010921 0.419728 255 0 0
-0.006748 0.014011 0.424826 255 0 0
-0.005324 0.015921 0.430529 255 0 0
0.000230 0.007831 0.417664 255 0 0
-0.004627 0.010921 0.419912 255 0 0
0.010395 0.005921 0.423253 255 0 0
0.005968 0.005921 0.418940 255 0 0
0.009698 0.010921 0.433869 255 0 0
0.011819 0.007831 0.428955 255 0 0
-0.000897 0.015921 0.434842 255 0 0
0.004841 0.014011 0.436118 255 0 0
-0.005324 0.005921 0.430529 255 0 0
-0.006748 0.007831 0.424826 255 0 0
-0.003202 0.002831 0.425615 255 0 0
0.001111 0.002831 0.421188 255 0 0
0.002535 0.000921 0.426891 255 0 0
0.008273 0.002831 0.428167 255 0 0
0.003960 0.002831 0.432593 255 0 0
0.004841 0.007831 0.436118 255 0 0
-0.000897 0.005921 0.434842 255 0 0
-0.004443 0.010921 0.434053 255 0 0
0.058209 0.107754 0.435333 255 0 0
0.050871 0.107754 0.442864 255 0 0
0.058209 0.090741 0.435333 255 0 0
0.050871 0.090741 0.442864 255 0 0
0.048447 0.093990 0.433162 255 0 0
0.048447 0.104505 0.433162 255 0 0
0.060633 0.093990 0.445034 255 0 0
0.060633 0.104505 0.445034 255 0 0
0.052369 0.099248 0.448860 255 0 0
0.044838 0.099248 0.441522 255 0 0
0.064242 0.099248 0.436674 255 0 0
0.056711 0.099248 0.429337 255 0 0
0.057972 0.104248 0.431147 255 0 0
0.052235 0.102338 0.429871 255 0 0
0.053115 0.107338 0.433396 255 0 0
0.048802 0.107338 0.437822 255 0 0
0.054540 0.109248 0.439098 255 0 0
0.055965 0.107338 0.444801 255 0 0
0.060278 0.107338 0.440374 255 0 0
0.063824 0.102338 0.441163 255 0 0
0.062399 0.104248 0.435460 255 0 0
0.061518 0.099248 0.431936 255 0 0
0.045256 0.102338 0.437034 255 0 0
0.046681 0.104248 0.442736 255 0 0
0.052235 0.096158 0.429871 255 0 0
0.047377 0.099248 0.432120 255 0 0
0.062399 0.094248 0.435460 255 0 0
0.057972 0.094248 0.431147 255 0 0
0.061702 0.099248 0.446077 255 0 0
0.063824 0.096158 0.441163 255 0 0
0.051107 0.104248 0.447049 255 0 0
0.056845 0.102338 0.448325 255 0 0
0.046681 0.094248 0.442736 255 0 0
0.045256 0.096158 0.437034 255 0 0
0.048802 0.091158 0.437822 255 0 0
0.053115 0.091158 0.433396 255 0 0
0.054540 0.089248 0.439098 255 0 0
0.060278 0.091158 0.440374 255 0 0
0.055965 0.091158 0.444801 255 0 0
0.056845 0.096158 0.448325 255 0 0
0.051107 0.094248 0.447049 255 0 0
0.047561 0.099248 0.446261 255 0 0
0.032764 -0.072766 0.419005 255 0 0
0.025426 -0.072766 0.426536 255 0 0
0.032764 -0.089779 0.419005 255 0 0
0.025426 -0.089779 0.426536 255 0 0
0.023002 -0.086530 0.416834 255 0 0
0.023002 -0.076016 0.416834 255 0 0
0.035188 -0.086530 0.428706 255 0 0
0.035188 -0.076016 0.428706 255 0 0
0.026924 -0.081273 0.432532 255 0 0
0.019393 -0.081273 0.425194 255 0 0
0.038797 -0.081273 0.420346 255 0 0
0.031266 -0.081273 0.413009 255 0 0
0.032528 -0.076273 0.414819 255 0 0
0.026790 -0.078183 0.413543 255 0 0
0.027670 -0.073183 0.417068 255 0 0
0.023357 -0.073183 0.421494 255 0 0
0.029095 -0.071273 0.422770 255 0 0
0.030520 -0.073183 0.428473 255 0 0
0.034833 -0.073183 0.424046 255 0 0
0.038379 -0.078183 0.424835 255 0 0
0.036954 -0.076273 0.419132 255 0 0
0.036074 -0.081273 0.415608 255 0 0
0.019811 -0.078183 0.420706 255 0 0
0.021236 -0.076273 0.426408 255 0 0
0.026790 -0.084363 0.413543 255 0 0
0.021933 -0.081273 0.415792 255 0 0
0.036954 -0.086273 0.419132 255 0 0
0.032528 -0.086273 0.414819 255 0 0
0.036258 -0.081273 0.429749 255 0 0
0.038379 -0.084363 0.424835 255 0 0
0.025663 -0.076273 0.430721 255 0 0
0.031400 -0.078183 0.431997 255 0 0
0.021236 -0.086273 0.426408 255 0 0
0.019811 -0.084363 0.420706 255 0 0
0.023357 -0.089363 0.421494 255 0 0
0.027670 -0.089363 0.417068 255 0 0
0.029095 -0.091273 0.422770 255 0 0
0.034833 -0.089363 0.424046 255 0 0
0.030520 -0.089363 0.428473 255 0 0
0.031400 -0.084363 0.431997 255 0 0
0.025663 -0.086273 0.430721 255 0 0
0.022117 -0.081273 0.429933 255 0 0
3 0 12 14
3 11 13 12
3 5 14 13
3 12 13 14
3 0 14 16
3 5 15 14
3 1 16 15
3 14 15 16
3 0 16 18
3 1 17 16
3 7 18 17
3 16 17 18
3 0 18 20
3 7 19 18
3 10 20 19
3 18 19 20
3 0 20 12
3 10 21 20
3 11 12 21
3 20 21 12
3 1 15 23
3 5 22 15
3 9 23 22
3 15 22 23
3 5 13 25
3 11 24 13
3 4 25 24
3 13 24 25
3 11 21 27
3 10 26 21
3 2 27 26
3 21 26 27
3 10 19 29
3 7 28 19
3 6 29 28
3 19 28 29
3 7 17 31
3 1 30 17
3 8 31 30
3 17 30 31
3 3 32 34
3 9 33 32
3 4 34 33
3 32 33 34
3 3 34 36
3 4 35 34
3 2 36 35
3 34 35 36
3 3 36 38
3 2 37 36
3 6 38 37
3 36 37 38
3 3 38 40
3 6 39 38
3 8 40 39
3 38 39 40
3 3 40 32
3 8 41 40
3 9 32 41
3 40 41 32
3 4 33 25
3 9 22 33
3 5 25 22
3 33 22 25
3 2 35 27
3 4 24 35
3 11 27 24
3 35 24 27
3 6 37 29
3 2 26 37
3 10 29 26
3 37 26 29
3 8 39 31
3 6 28 39
3 7 31 28
3 39 28 31
3 9 41 23
3 8 30 41
3 1 23 30
3 41 30 23
3 42 54 56
3 53 55 54
3 47 56 55
3 54 55 56
3 42 56 58
3 47 57 56
3 43 58 57
3 56 57 58
3 42 58 60
3 43 59 58
3 49 60 59
3 58 59 60
3 42 60 62
3 49 61 60
3 52 62 61
3 60 61 62
3 42 62 54
3 52 63 62
3 53 54 63
3 62 63 54
3 43 57 65
3 47 64 57
3 51 65 64
3 57 64 65
3 47 55 67
3 53 66 55
3 46 67 66
3 55 66 67
3 53 63 69
3 52 68 63
3 44 69 68
3 63 68 69
3 52 61 71
3 49 70 61
3 48 71 70
3 61 70 71
3 49 59 73
3 43 72 59
3 50 73 72
3 59 72 73
3 45 74 76
3 51 75 74
3 46 76 75
3 74 75 76
3 45 76 78
3 46 77 76
3 44 78 77
3 76 77 78
3 45 78 80
3 44 79 78
3 48 80 79
3 78 79 80
3 45 80 82
3 48 81 80
3 50 82 81
3 80 81 82
3 45 82 74
3 50 83 82
3 51 74 83
3 82 83 74
3 46 75 67
3 51 64 75
3 47 67 64
3 75 64 67
3 44 77 69
3 46 66 77
3 53 69 66
3 77 66 69
3 48 79 71
3 44 68 79
3 52 71 68
3 79 68 71
3 50 81 73
3 48 70 81
3 49 73 70
3 81 70 73
3 51 83 65
3 50 72 83
3 43 65 72
3 83 72 65
3 84 96 98
3 95 97 96
3 89 98 97
3 96 97 98
3 84 98 100
3 89 99 98
3 85 100 99
3 98 99 100
3 84 100 102
3 85 101 100
3 91 102 101
3 100 101 102
3 84 102 104
3 91 103 102
3 94 104 103
3 102 103 104
3 84 104 96
3 94 105 104
3 95 96 105
3 104 105 96
3 85 99 107
3 89 106 99
3 93 107 106
3 99 106 107
3 89 97 109
3 95 108 97
3 88 109 108
3 97 108 109
3 95 105 111
3 94 110 105
3 86 111 110
3 105 110 111
3 94 103 113
3 91 112 103
3 90 113 112
3 103 112 113
3 91 101 115
3 85 114 101
3 92 115 114
3 101 114 115
3 87 116 118
3 93 117 116
3 88 118 117
3 116 117 118
3 87 118 120
3 88 119 118
3 86 120 119
3 118 119 120
3 87 120 122
3 86 121 120
3 90 122 121
3 120 121 122
3 87 122 124
3 90 123 122
3 92 124 123
3 122 123 124
3 87 124 116
3 92 125 124
3 93 116 125
3 124 125 116
3 88 117 109
3 93 106 117
3 89 109 106
3 117 106 109
3 86 119 111
3 88 108 119
3 95 111 108
3 119 108 111
3 90 121 113
3 86 110 121
3 94 113 110
3 121 110 113
3 92 123 115
3 90 112 123
3 91 115 112
3 123 112 115
3 93 125 107
3 92 114 125
3 85 107 114
3 125 114 107
3 126 138 140
3 137 139 138
3 131 140 139
3 138 139 140
3 126 140 142
3 131 141 140
3 127 142 141
3 140 141 142
3 126 142 144
3 127 143 142
3 133 144 143
3 142 143 144
3 126 144 146
3 133 145 144
3 136 146 145
3 144 145 146
3 126 146 138
3 136 147 146
3 137 138 147
3 146 147 138
3 127 141 149
3 131 148 141
3 135 149 148
3 141 148 149
3 131 139 151
3 137 150 139
3 130 151 150
3 139 150 151
3 137 147 153
3 136 152 147
3 128 153 152
3 147 152 153
3 136 145 155
3 133 154 145
3 132 155 154
3 145 154 155
3 133 143 157
3 127 156 143
3 134 157 156
3 143 156 157
3 129 158 160
3 135 159 158
3 130 160 159
3 158 159 160
3 129 160 162
3 130 161 160
3 128 162 161
3 160 161 162
3 129 162 164
3 128 163 162
3 132 164 163
3 162 163 164
3 129 164 166
3 132 165 164
3 134 166 165
3 164 165 166
3 129 166 158
3 134 167 166
3 135 158 167
3 166 167 158
3 130 159 151
3 135 148 159
3 131 151 148
3 159 148 151
3 128 161 153
3 130 150 161
3 137 153 150
3 161 150 153
3 132 163 155
3 128 152 163
3 136 155 152
3 163 152 155
3 134 165 157
3 132 154 165
3 133 157 154
3 165 154 157
3 135 167 149
3 134 156 167
3 127 149 156
3 167 156 149
3 168 180 182
3 179 181 180
3 173 182 181
3 180 181 182
3 168 182 184
3 173 183 182
3 169 184 183
3 182 183 184
3 168 184 186
3 169 185 184
3 175 186 185
3 184 185 186
3 168 186 188
3 175 187 186
3 178 188 187
3 186 187 188
3 168 188 180
3 178 189 188
3 179 180 189
3 188 189 180
3 169 183 191
3 173 190 183
3 177 191 190
3 183 190 191
3 173 181 193
3 179 192 181
3 172 193 192
3 181 192 193
3 179 189 195
3 178 194 189
3 170 195 194
3 189 194 195
3 178 187 197
3 175 196 187
3 174 197 196
3 187 196 197
3 175 185 199
3 169 198 185
3 176 199 198
3 185 198 199
3 171 200 202
3 177 201 200
3 172 202 201
3 200 201 202
3 171 202 204
3 172 203 202
3 170 204 203
3 202 203 204
3 171 204 206
3 170 205 204
3 174 206 205
3 204 205 206
3 171 206 208
3 174 207 206
3 176 208 207
3 206 207 208
3 171 208 200
3 176 209 208
3 177 200 209
3 208 209 200
3 172 201 193
3 177 190 201
3 173 193 190
3 201 190 193
3 170 203 195
3 172 192 203
3 179 195 192
3 203 192 195
3 174 205 197
3 170 194 205
3 178 197 194
3 205 194 197
3 176 207 199
3 174 196 207
3 175 199 196
3 207 196 199
3 177 209 191
3 176 198 209
3 169 191 198
3 209 198 191
3 210 222 224
3 221 223 222
3 215 224 223
3 222 223 224
3 210 224 226
3 215 225 224
3 211 226 225
3 224 225 226
3 210 226 228
3 211 227 226
3 217 228 227
3 226 227 228
3 210 228 230
3 217 229 228
3 220 230 229
3 228 229 230
3 210 230 222
3 220 231 230
3 221 222 231
3 230 231 222
3 211 225 233
3 215 232 225
3 219 233 232
3 225 232 233
3 215 223 235
3 221 234 223
3 214 235 234
3 223 234 235
3 221 231 237
3 220 236 231
3 212 237 236
3 231 236 237
3 220 229 239
3 217 238 229
3 216 239 238
3 229 238 239
3 217 227 241
3 211 240 227
3 218 241 240
3 227 240 241
3 213 242 244
3 219 243 242
3 214 244 243
3 242 243 244
3 213 244 246
3 214 245 244
3 212 246 245
3 244 245 246
3 213 246 248
3 212 247 246
3 216 248 247
3 246 247 248
3 213 248 250
3 216 249 248
3 218 250 249
3 248 249 250
3 213 250 242
3 218 251 250
3 219 242 251
3 250 251 242
3 214 243 235
3 219 232 243
3 215 235 232
3 243 232 235
3 212 245 237
3 214 234 245
3 221 237 234
3 245 234 237
3 216 247 239
3 212 236 247
3 220 239 236
3 247 236 239
3 218 249 241
3 216 238 249
3 217 241 238
3 249 238 241
3 219 251 233
3 218 240 251
3 211 233 240
3 251 240 233
3 252 264 266
3 263 265 264
3 257 266 265
3 264 265 266
3 252 266 268
3 257 267 266
3 253 268 267
3 266 267 268
3 252 268 270
3 253 269 268
3 259 270 269
3 268 269 270
3 252 270 272
3 259 271 270
3 262 272 271
3 270 271 272
3 252 272 264
3 262 273 272
3 263 264 273
3 272 273 264
3 253 267 275
3 257 274 267
3 261 275 274
3 267 274 275
3 257 265 277
3 263 276 265
3 256 277 276
3 265 276 277
3 263 273 279
3 262 278 273
3 254 279 278
3 273 278 279
3 262 271 281
3 259 280 271
3 258 281 280
3 271 280 281
3 259 269 283
3 253 282 269
3 260 283 282
3 269 282 283
3 255 284 286
3 261 285 284
3 256 286 285
3 284 285 286
3 255 286 288
3 256 287 286
3 254 288 287
3 286 287 288
3 255 288 290
3 254 289 288
3 258 290 289
3 288 289 290
3 255 290 292
3 258 291 290
3 260 292 291
3 290 291 292
3 255 292 284
3 260 293 292
3 261 284 293
3 292 293 284
3 256 285 277
3 261 274 285
3 257 277 274
3 285 274 277
3 254 287 279
3 256 276 287
3 263 279 276
3 287 276 279
3 258 289 281
3 254 278 289
3 262 281 278
3 289 278 281
3 260 291 283
3 258 280 291
3 259 283 280
3 291 280 283
3 261 293 275
3 260 282 293
3 253 275 282
3 293 282 275
3 294 306 308
3 305 307 306
3 299 308 307
3 306 307 308
3 294 308 310
3 299 309 308
3 295 310 309
3 308 309 310
3 294 310 312
3 295 311 310
3 301 312 311
3 310 311 312
3 294 312 314
3 301 313 312
3 304 314 313
3 312 313 314
3 294 314 306
3 304 315 314
3 305 306 315
3 314 315 306
3 295 309 317
3 299 316 309
3 303 317 316
3 309 316 317
3 299 307 319
3 305 318 307
3 298 319 318
3 307 318 319
3 305 315 321
3 304 320 315
3 296 321 320
3 315 320 321
3 304 313 323
3 301 322 313
3 300 323 322
3 313 322 323
3 301 311 325
3 295 324 311
3 302 325 324
3 311 324 325
3 297 326 328
3 303 327 326
3 298 328 327
3 326 327 328
3 297 328 330
3 298 329 328
3 296 330 329
3 328 329 330
3 297 330 332
3 296 331 330
3 300 332 331
3 330 331 332
3 297 332 334
3 300 333 332
3 302 334 333
3 332 333 334
3 297 334 326
3 302 335 334
3 303 326 335
3 334 335 326
3 298 327 319
3 303 316 327
3 299 319 316
3 327 316 319
3 296 329 321
3 298 318 329
3 305 321 318
3 329 318 321
3 300 331 323
3 296 320 331
3 304 323 320
3 331 320 323
3 302 333 325
3 300 322 333
3 301 325 322
3 333 322 325
3 303 335 317
3 302 324 335
3 295 317 324
3 335 324 317
3 336 348 350
3 347 349 348
3 341 350 349
3 348 349 350
3 336 350 352
3 341 351 350
3 337 352 351
3 350 351 352
3 336 352 354
3 337 353 352
3 343 354 353
3 352 353 354
3 336 354 356
3 343 355 354
3 346 356 355
3 354 355 356
3 336 356 348
3 346 357 356
3 347 348 357
3 356 357 348
3 337 351 359
3 341 358 351
3 345 359 358
3 351 358 359
3 341 349 361
3 347 360 349
3 340 361 360
3 349 360 361
3 347 357 363
3 346 362 357
3 338 363 362
3 357 362 363
3 346 355 365
3 343 364 355
3 342 365 364
3 355 364 365
3 343 353 367
3 337 366 353
3 344 367 366
3 353 366 367
3 339 368 370
3 345 369 368
3 340 370 369
3 368 369 370
3 339 370 372
3 340 371 370
3 338 372 371
3 370 371 372
3 339 372 374
3 338 373 372
3 342 374 373
3 372 373 374
3 339 374 376
3 342 375 374
3 344 376 375
3 374 375 376
3 339 376 368
3 344 377 376
3 345 368 377
3 376 377 368
3 340 369 361
3 345 358 369
3 341 361 358
3 369 358 361
3 338 371 363
3 340 360 371
3 347 363 360
3 371 360 363
3 342 373 365
3 338 362 373
3 346 365 362
3 373 362 365
3 344 375 367
3 342 364 375
3 343 367 364
3 375 364 367
3 345 377 359
3 344 366 377
3 337 359 366
3 377 366 359
3 378 390 392
3 389 391 390
3 383 392 391
3 390 391 392
3 378 392 394
3 383 393 392
3 379 394 393
3 392 393 394
3 378 394 396
3 379 395 394
3 385 396 395
3 394 395 396
3 378 396 398
3 385 397 396
3 388 398 397
3 396 397 398
3 378 398 390
3 388 399 398
3 389 390 399
3 398 399 390
3 379 393 401
3 383 400 393
3 387 401 400
3 393 400 401
3 383 391 403
3 389 402 391
3 382 403 402
3 391 402 403
3 389 399 405
3 388 404 399
3 380 405 404
3 399 404 405
3 388 397 407
3 385 406 397
3 384 407 406
3 397 406 407
3 385 395 409
3 379 408 395
3 386 409 408
3 395 408 409
3 381 410 412
3 387 411 410
3 382 412 411
3 410 411 412
3 381 412 414
3 382 413 412
3 380 414 413
3 412 413 414
3 381 414 416
3 380 415 414
3 384 416 415
3 414 415 416
3 381 416 418
3 384 417 416
3 386 418 417
3 416 417 418
3 381 418 410
3 386 419 418
3 387 410 419
3 418 419 410
3 382 411 403
3 387 400 411
3 383 403 400
3 411 400 403
3 380 413 405
3 382 402 413
3 389 405 402
3 413 402 405
3 384 415 407
3 380 404 415
3 388 407 404
3 415 404 407
3 386 417 409
3 384 406 417
3 385 409 406
3 417 406 409
3 387 419 401
3 386 408 419
3 379 401 408
3 419 408 401
3 420 432 434
3 431 433 432
3 425 434 433
3 432 433 434
3 420 434 436
3 425 435 434
3 421 436 435
3 434 435 436
3 420 436 438
3 421 437 436
3 427 438 437
3 436 437 438
3 420 438 440
3 427 439 438
3 430 440 439
3 438 439 440
3 420 440 432
3 430 441 440
3 431 432 441
3 440 441 432
3 421 435 443
3 425 442 435
3 429 443 442
3 435 442 443
3 425 433 445
3 431 444 433
3 424 445 444
3 433 444 445
3 431 441 447
3 430 446 441
3 422 447 446
3 441 446 447
3 430 439 449
3 427 448 439
3 426 449 448
3 439 448 449
3 427 437 451
3 421 450 437
3 428 451 450
3 437 450 451
3 423 452 454
3 429 453 452
3 424 454 453
3 452 453 454
3 423 454 456
3 424 455 454
3 422 456 455
3 454 455 456
3 423 456 458
3 422 457 456
3 426 458 457
3 456 457 458
3 423 458 460
3 426 459 458
3 428 460 459
3 458 459 460
3 423 460 452
3 428 461 460
3 429 452 461
3 460 461 452
3 424 453 445
3 429 442 453
3 425 445 442
3 453 442 445
3 422 455 447
3 424 444 455
3 431 447 444
3 455 444 447
3 426 457 449
3 422 446 457
3 430 449 446
3 457 446 449
3 428 459 451
3 426 448 459
3 427 451 448
3 459 448 451
3 429 461 443
3 428 450 461
3 421 443 450
3 461 450 443
3 462 474 476
3 473 475 474
3 467 476 475
3 474 475 476
3 462 476 478
3 467 477 476
3 463 478 477
3 476 477 478
3 462 478 480
3 463 479 478
3 469 480 479
3 478 479 480
3 462 480 482
3 469 481 480
3 472 482 481
3 480 481 482
3 462 482 474
3 472 483 482
3 473 474 483
3 482 483 474
3 463 477 485
3 467 484 477
3 471 485 484
3 477 484 485
3 467 475 487
3 473 486 475
3 466 487 486
3 475 486 487
3 473 483 489
3 472 488 483
3 464 489 488
3 483 488 489
3 472 481 491
3 469 490 481
3 468 491 490
3 481 490 491
3 469 479 493
3 463 492 479
3 470 493 492
3 479 492 493
3 465 494 496
3 471 495 494
3 466 496 495
3 494 495 496
3 465 496 498
3 466 497 496
3 464 498 497
3 496 497 498
3 465 498 500
3 464 499 498
3 468 500 499
3 498 499 500
3 465 500 502
3 468 501 500
3 470 502 501
3 500 501 502
3 465 502 494
3 470 503 502
3 471 494 503
3 502 503 494
3 466 495 487
3 471 484 495
3 467 487 484
3 495 484 487
3 464 497 489
3 466 486 497
3 473 489 486
3 497 486 489
3 468 499 491
3 464 488 499
3 472 491 488
3 499 488 491
3 470 501 493
3 468 490 501
3 469 493 490
3 501 490 493
3 471 503 485
3 470 492 503
3 463 485 492
3 503 492 485
3 504 516 518
3 515 517 516
3 509 518 517
3 516 517 518
3 504 518 520
3 509 519 518
3 505 520 519
3 518 519 520
3 504 520 522
3 505 521 520
3 511 522 521
3 520 521 522
3 504 522 524
3 511 523 522
3 514 524 523
3 522 523 524
3 504 524 516
3 514 525 524
3 515 516 525
3 524 525 516
3 505 519 527
3 509 526 519
3 513 527 526
3 519 526 527
3 509 517 529
3 515 528 517
3 508 529 528
3 517 528 529
3 515 525 531
3 514 530 525
3 506 531 530
3 525 530 531
3 514 523 533
3 511 532 523
3 510 533 532
3 523 532 533
3 511 521 535
3 505 534 521
3 512 535 534
3 521 534 535
3 507 536 538
3 513 537 536
3 508 538 537
3 536 537 538
3 507 538 540
3 508 539 538
3 506 540 539
3 538 539 540
3 507 540 542
3 506 541 540
3 510 542 541
3 540 541 542
3 507 542 544
3 510 543 542
3 512 544 543
3 542 543 544
3 507 544 536
3 512 545 544
3 513 536 545
3 544 545 536
3 508 537 529
3 513 526 537
3 509 529 526
3 537 526 529
3 506 539 531
3 508 528 539
3 515 531 528
3 539 528 531
3 510 541 533
3 506 530 541
3 514 533 530
3 541 530 533
3 512 543 535
3 510 532 543
3 511 535 532
3 543 532 535
3 513 545 527
3 512 534 545
3 505 527 534
3 545 534 527
3 546 558 560
3 557 559 558
3 551 560 559
3 558 559 560
3 546 560 562
3 551 561 560
3 547 562 561
3 560 561 562
3 546 562 564
3 547 563 562
3 553 564 563
3 562 563 564
3 546 564 566
3 553 565 564
3 556 566 565
3 564 565 566
3 546 566 558
3 556 567 566
3 557 558 567
3 566 567 558
3 547 561 569
3 551 568 561
3 555 569 568
3 561 568 569
3 551 559 571
3 557 570 559
3 550 571 570
3 559 570 571
3 557 567 573
3 556 572 567
3 548 573 572
3 567 572 573
3 556 565 575
3 553 574 565
3 552 575 574
3 565 574 575
3 553 563 577
3 547 576 563
3 554 577 576
3 563 576 577
3 549 578 580
3 555 579 578
3 550 580 579
3 578 579 580
3 549 580 582
3 550 581 580
3 548 582 581
3 580 581 582
3 549 582 584
3 548 583 582
3 552 584 583
3 582 583 584
3 549 584 586
3 552 585 584
3 554 586 585
3 584 585 586
3 549 586 578
3 554 587 586
3 555 578 587
3 586 587 578
3 550 579 571
3 555 568 579
3 551 571 568
3 579 568 571
3 548 581 573
3 550 570 581
3 557 573 570
3 581 570 573
3 552 583 575
3 548 572 583
3 556 575 572
3 583 572 575
3 554 585 577
3 552 574 585
3 553 577 574
3 585 574 577
3 555 587 569
3 554 576 587
3 547 569 576
3 587 576 569
3 588 600 602
3 599 601 600
3 593 602 601
3 600 601 602
3 588 602 604
3 593 603 602
3 589 604 603
3 602 603 604
3 588 604 606
3 589 605 604
3 595 606 605
3 604 605 606
3 588 606 608
3 595 607 606
3 598 608 607
3 606 607 608
3 588 608 600
3 598 609 608
3 599 600 609
3 608 609 600
3 589 603 611
3 593 610 603
3 597 611 610
3 603 610 611
3 593 601 613
3 599 612 601
3 592 613 612
3 601 612 613
3 599 609 615
3 598 614 609
3 590 615 614
3 609 614 615
3 598 607 617
3 595 616 607
3 594 617 616
3 607 616 617
3 595 605 619
3 589 618 605
3 596 619 618
3 605 618 619
3 591 620 622
3 597 621 620
3 592 622 621
3 620 621 622
3 591 622 624
3 592 623 622
3 590 624 623
3 622 623 624
3 591 624 626
3 590 625 624
3 594 626 625
3 624 625 626
3 591 626 628
3 594 627 626
3 596 628 627
3 626 627 628
3 591 628 620
3 596 629 628
3 597 620 629
3 628 629 620
3 592 621 613
3 597 610 621
3 593 613 610
3 621 610 613
3 590 623 615
3 592 612 623
3 599 615 612
3 623 612 615
3 594 625 617
3 590 614 625
3 598 617 614
3 625 614 617
3 596 627 619
3 594 616 627
3 595 619 616
3 627 616 619
3 597 629 611
3 596 618 629
3 589 611 618
3 629 618 611
3 630 642 644
3 641 643 642
3 635 644 643
3 642 643 644
3 630 644 646
3 635 645 644
3 631 646 645
3 644 645 646
3 630 646 648
3 631 647 646
3 637 648 647
3 646 647 648
3 630 648 650
3 637 649 648
3 640 650 649
3 648 649 650
3 630 650 642
3 640 651 650
3 641 642 651
3 650 651 642
3 631 645 653
3 635 652 645
3 639 653 652
3 645 652 653
3 635 643 655
3 641 654 643
3 634 655 654
3 643 654 655
3 641 651 657
3 640 656 651
3 632 657 656
3 651 656 657
3 640 649 659
3 637 658 649
3 636 659 658
3 649 658 659
3 637 647 661
3 631 660 647
3 638 661 660
3 647 660 661
3 633 662 664
3 639 663 662
3 634 664 663
3 662 663 664
3 633 664 666
3 634 665 664
3 632 666 665
3 664 665 666
3 633 666 668
3 632 667 666
3 636 668 667
3 666 667 668
3 633 668 670
3 636 669 668
3 638 670 669
3 668 669 670
3 633 670 662
3 638 671 670
3 639 662 671
3 670 671 662
3 634 663 655
3 639 652 663
3 635 655 652
3 663 652 655
3 632 665 657
3 634 654 665
3 641 657 654
3 665 654 657
3 636 667 659
3 632 656 667
3 640 659 656
3 667 656 659
3 638 669 661
3 636 658 669
3 637 661 658
3 669 658 661
3 639 671 653
3 638 660 671
3 631 653 660
3 671 660 653
3 672 684 686
3 683 685 684
3 677 686 685
3 684 685 686
3 672 686 688
3 677 687 686
3 673 688 687
3 686 687 688
3 672 688 690
3 673 689 688
3 679 690 689
3 688 689 690
3 672 690 692
3 679 691 690
3 682 692 691
3 690 691 692
3 672 692 684
3 682 693 692
3 683 684 693
3 692 693 684
3 673 687 695
3 677 694 687
3 681 695 694
3 687 694 695
3 677 685 697
3 683 696 685
3 676 697 696
3 685 696 697
3 683 693 699
3 682 698 693
3 674 699 698
3 693 698 699
3 682 691 701
3 679 700 691
3 678 701 700
3 691 700 701
3 679 689 703
3 673 702 689
3 680 703 702
3 689 702 703
3 675 704 706
3 681 705 704
3 676 706 705
3 704 705 706
3 675 706 708
3 676 707 706
3 674 708 707
3 706 707 708
3 675 708 710
3 674 709 708
3 678 710 709
3 708 709 710
3 675 710 712
3 678 711 710
3 680 712 711
3 710 711 712
3 675 712 704
3 680 713 712
3 681 704 713
3 712 713 704
3 676 705 697
3 681 694 705
3 677 697 694
3 705 694 697
3 674 707 699
3 676 696 707
3 683 699 696
3 707 696 699
3 678 709 701
3 674 698 709
3 682 701 698
3 709 698 701
3 680 711 703
3 678 700 711
3 679 703 700
3 711 700 703
3 681 713 695
3 680 702 713
3 673 695 702
3 713 702 695
3 714 726 728
3 725 727 726
3 719 728 727
3 726 727 728
3 714 728 730
3 719 729 728
3 715 730 729
3 728 729 730
3 714 730 732
3 715 731 730
3 721 732 731
3 730 731 732
3 714 732 734
3 721 733 732
3 724 734 733
3 732 733 734
3 714 734 726
3 724 735 734
3 725 726 735
3 734 735 726
3 715 729 737
3 719 736 729
3 723 737 736
3 729 736 737
3 719 727 739
3 725 738 727
3 718 739 738
3 727 738 739
3 725 735 741
3 724 740 735
3 716 741 740
3 735 740 741
3 724 733 743
3 721 742 733
3 720 743 742
3 733 742 743
3 721 731 745
3 715 744 731
3 722 745 744
3 731 744 745
3 717 746 748
3 723 747 746
3 718 748 747
3 746 747 748
3 717 748 750
3 718 749 748
3 716 750 749
3 748 749 750
3 717 750 752
3 716 751 750
3 720 752 751
3 750 751 752
3 717 752 754
3 720 753 752
3 722 754 753
3 752 753 754
3 717 754 746
3 722 755 754
3 723 746 755
3 754 755 746
3 718 747 739
3 723 736 747
3 719 739 736
3 747 736 739
3 716 749 741
3 718 738 749
3 725 741 738
3 749 738 741
3 720 751 743
3 716 740 751
3 724 743 740
3 751 740 743
3 722 753 745
3 720 742 753
3 721 745 742
3 753 742 745
3 723 755 737
3 722 744 755
3 715 737 744
3 755 744 737
3 756 768 770
3 767 769 768
3 761 770 769
3 768 769 770
3 756 770 772
3 761 771 770
3 757 772 771
3 770 771 772
3 756 772 774
3 757 773 772
3 763 774 773
3 772 773 774
3 756 774 776
3 763 775 774
3 766 776 775
3 774 775 776
3 756 776 768
3 766 777 776
3 767 768 777
3 776 777 768
3 757 771 779
3 761 778 771
3 765 779 778
3 771 778 779
3 761 769 781
3 767 780 769
3 760 781 780
3 769 780 781
3 767 777 783
3 766 782 777
3 758 783 782
3 777 782 783
3 766 775 785
3 763 784 775
3 762 785 784
3 775 784 785
3 763 773 787
3 757 786 773
3 764 787 786
3 773 786 787
3 759 788 790
3 765 789 788
3 760 790 789
3 788 789 790
3 759 790 792
3 760 791 790
3 758 792 791
3 790 791 792
3 759 792 794
3 758 793 792
3 762 794 793
3 792 793 794
3 759 794 796
3 762 795 794
3 764 796 795
3 794 795 796
3 759 796 788
3 764 797 796
3 765 788 797
3 796 797 788
3 760 789 781
3 765 778 789
3 761 781 778
3 789 778 781
3 758 791 783
3 760 780 791
3 767 783 780
3 791 780 783
3 762 793 785
3 758 782 793
3 766 785 782
3 793 782 785
3 764 795 787
3 762 784 795
3 763 787 784
3 795 784 787
3 765 797 779
3 764 786 797
3 757 779 786
3 797 786 779
3 798 810 812
3 809 811 810
3 803 812 811
3 810 811 812
3 798 812 814
3 803 813 812
3 799 814 813
3 812 813 814
3 798 814 816
3 799 815 814
3 805 816 815
3 814 815 816
3 798 816 818
3 805 817 816
3 808 818 817
3 816 817 818
3 798 818 810
3 808 819 818
3 809 810 819
3 818 819 810
3 799 813 821
3 803 820 813
3 807 821 820
3 813 820 821
3 803 811 823
3 809 822 811
3 802 823 822
3 811 822 823
3 809 819 825
3 808 824 819
3 800 825 824
3 819 824 825
3 808 817 827
3 805 826 817
3 804 827 826
3 817 826 827
3 805 815 829
3 799 828 815
3 806 829 828
3 815 828 829
3 801 830 832
3 807 831 830
3 802 832 831
3 830 831 832
3 801 832 834
3 802 833 832
3 800 834 833
3 832 833 834
3 801 834 836
3 800 835 834
3 804 836 835
3 834 835 836
3 801 836 838
3 804 837 836
3 806 838 837
3 836 837 838
3 801 838 830
3 806 839 838
3 807 830 839
3 838 839 830
3 802 831 823
3 807 820 831
3 803 823 820
3 831 820 823
3 800 833 825
3 802 822 833
3 809 825 822
3 833 822 825
3 804 835 827
3 800 824 835
3 808 827 824
3 835 824 827
3 806 837 829
3 804 826 837
3 805 829 826
3 837 826 829
3 807 839 821
3 806 828 839
3 799 821 828
3 839 828 821
3 840 852 854
3 851 853 852
3 845 854 853
3 852 853 854
3 840 854 856
3 845 855 854
3 841 856 855
3 854 855 856
3 840 856 858
3 841 857 856
3 847 858 857
3 856 857 858
3 840 858 860
3 847 859 858
3 850 860 859
3 858 859 860
3 840 860 852
3 850 861 860
3 851 852 861
3 860 861 852
3 841 855 863
3 845 862 855
3 849 863 862
3 855 862 863
3 845 853 865
3 851 864 853
3 844 865 864
3 853 864 865
3 851 861 867
3 850 866 861
3 842 867 866
3 861 866 867
3 850 859 869
3 847 868 859
3 846 869 868
3 859 868 869
3 847 857 871
3 841 870 857
3 848 871 870
3 857 870 871
3 843 872 874
3 849 873 872
3 844 874 873
3 872 873 874
3 843 874 876
3 844 875 874
3 842 876 875
3 874 875 876
3 843 876 878
3 842 877 876
3 846 878 877
3 876 877 878
3 843 878 880
3 846 879 878
3 848 880 879
3 878 879 880
3 843 880 872
3 848 881 880
3 849 872 881
3 880 881 872
3 844 873 865
3 849 862 873
3 845 865 862
3 873 862 865
3 842 875 867
3 844 864 875
3 851 867 864
3 875 864 867
3 846 877 869
3 842 866 877
3 850 869 866
3 877 866 869
3 848 879 871
3 846 868 879
3 847 871 868
3 879 868 871
3 849 881 863
3 848 870 881
3 841 863 870
3 881 870 863
3 882 894 896
3 893 895 894
3 887 896 895
3 894 895 896
3 882 896 898
3 887 897 896
3 883 898 897
3 896 897 898
3 882 898 900
3 883 899 898
3 889 900 899
3 898 899 900
3 882 900 902
3 889 901 900
3 892 902 901
3 900 901 902
3 882 902 894
3 892 903 902
3 893 894 903
3 902 903 894
3 883 897 905
3 887 904 897
3 891 905 904
3 897 904 905
3 887 895 907
3 893 906 895
3 886 907 906
3 895 906 907
3 893 903 909
3 892 908 903
3 884 909 908
3 903 908 909
3 892 901 911
3 889 910 901
3 888 911 910
3 901 910 911
3 889 899 913
3 883 912 899
3 890 913 912
3 899 912 913
3 885 914 916
3 891 915 914
3 886 916 915
3 914 915 916
3 885 916 918
3 886 917 916
3 884 918 917
3 916 917 918
3 885 918 920
3 884 919 918
3 888 920 919
3 918 919 920
3 885 920 922
3 888 921 920
3 890 922 921
3 920 921 922
3 885 922 914
3 890 923 922
3 891 914 923
3 922 923 914
3 886 915 907
3 891 904 915
3 887 907 904
3 915 904 907
3 884 917 909
3 886 906 917
3 893 909 906
3 917 906 909
3 888 919 911
3 884 908 919
3 892 911 908
3 919 908 911
3 890 921 913
3 888 910 921
3 889 913 910
3 921 910 913
3 891 923 905
3 890 912 923
3 883 905 912
3 923 912 905
3 924 936 938
3 935 937 936
3 929 938 937
3 936 937 938
3 924 938 940
3 929 939 938
3 925 940 939
3 938 939 940
3 924 940 942
3 925 941 940
3 931 942 941
3 940 941 942
3 924 942 944
3 931 943 942
3 934 944 943
3 942 943 944
3 924 944 936
3 934 945 944
3 935 936 945
3 944 945 936
3 925 939 947
3 929 946 939
3 933 947 946
3 939 946 947
3 929 937 949
3 935 948 937
3 928 949 948
3 937 948 949
3 935 945 951
3 934 950 945
3 926 951 950
3 945 950 951
3 934 943 953
3 931 952 943
3 930 953 952
3 943 952 953
3 931 941 955
3 925 954 941
3 932 955 954
3 941 954 955
3 927 956 958
3 933 957 956
3 928 958 957
3 956 957 958
3 927 958 960
3 928 959 958
3 926 960 959
3 958 959 960
3 927 960 962
3 926 961 960
3 930 962 961
3 960 961 962
3 927 962 964
3 930 963 962
3 932 964 963
3 962 963 964
3 927 964 956
3 932 965 964
3 933 956 965
3 964 965 956
3 928 957 949
3 933 946 957
3 929 949 946
3 957 946 949
3 926 959 951
3 928 948 959
3 935 951 948
3 959 948 951
3 930 961 953
3 926 950 961
3 934 953 950
3 961 950 953
3 932 963 955
3 930 952 963
3 931 955 952
3 963 952 955
3 933 965 947
3 932 954 965
3 925 947 954
3 965 954 947
