ply
format ascii 1.0
element vertex 546
property float x
property float y
property float z
property uchar red
property uchar green
property uchar blue
element face 1040
property list uchar int vertex_indices
end_header
-0.042786 0.082754 0.412301 255 0 0
-0.050123 0.082754 0.419832 255 0 0
-0.042786 0.065741 0.412301 255 0 0
-0.050123 0.065741 0.419832 255 0 0
-0.052547 0.068990 0.410130 255 0 0
-0.052547 0.079505 0.410130 255 0 0
-0.040362 0.068990 0.422003 255 0 0
-0.040362 0.079505 0.422003 255 0 0
-0.048625 0.074247 0.425828 255 0 0
-0.056156 0.074247 0.418490 255 0 0
-0.036753 0.074247 0.413642 255 0 0
-0.044284 0.074247 0.406305 255 0 0
-0.043022 0.079247 0.408115 255 0 0
-0.048760 0.077337 0.406839 255 0 0
-0.047879 0.082337 0.410364 255 0 0
-0.052192 0.082337 0.414790 255 0 0
-0.046455 0.084247 0.416066 255 0 0
-0.045030 0.082337 0.421769 255 0 0
-0.040717 0.082337 0.417342 255 0 0
-0.037171 0.077337 0.418131 255 0 0
-0.038596 0.079247 0.412428 255 0 0
-0.039476 0.074247 0.408904 255 0 0
-0.055738 0.077337 0.414002 255 0 0
-0.054314 0.079247 0.419704 255 0 0
-0.048760 0.071157 0.406839 255 0 0
-0.053617 0.074247 0.409088 255 0 0
-0.038596 0.069247 0.412428 255 0 0
-0.043022 0.069247 0.408115 255 0 0
-0.039292 0.074247 0.423045 255 0 0
-0.037171 0.071157 0.418131 255 0 0
-0.049887 0.079247 0.424017 255 0 0
-0.044149 0.077337 0.425293 255 0 0
-0.054314 0.069247 0.419704 255 0 0
-0.055738 0.071157 0.414002 255 0 0
-0.052192 0.066157 0.414790 255 0 0
-0.047879 0.066157 0.410364 255 0 0
-0.046455 0.064247 0.416066 255 0 0
-0.040717 0.066157 0.417342 255 0 0
-0.045030 0.066157 0.421769 255 0 0
-0.044149 0.071157 0.425293 255 0 0
-0.049887 0.069247 0.424017 255 0 0
-0.053433 0.074247 0.423229 255 0 0
-0.108910 -0.003182 0.430785 255 0 0
-0.116248 -0.003182 0.438316 255 0 0
-0.108910 -0.020195 0.430785 255 0 0
-0.116248 -0.020195 0.438316 255 0 0
-0.118672 -0.016946 0.428614 255 0 0
-0.118672 -0.006431 0.428614 255 0 0
-0.106486 -0.016946 0.440487 255 0 0
-0.106486 -0.006431 0.440487 255 0 0
-0.114750 -0.011689 0.444312 255 0 0
-0.122281 -0.011689 0.436974 255 0 0
-0.102877 -0.011689 0.432126 255 0 0
-0.110408 -0.011689 0.424789 255 0 0
-0.109147 -0.006689 0.426599 255 0 0
-0.114884 -0.008598 0.425323 255 0 0
-0.114004 -0.003598 0.428848 255 0 0
-0.118317 -0.003598 0.433274 255 0 0
-0.112579 -0.001689 0.434550 255 0 0
-0.111154 -0.003598 0.440253 255 0 0
-0.106841 -0.003598 0.435826 255 0 0
-0.103295 -0.008598 0.436615 255 0 0
-0.104720 -0.006689 0.430912 255 0 0
-0.105600 -0.011689 0.427388 255 0 0
-0.121863 -0.008598 0.432486 255 0 0
-0.120438 -0.006689 0.438188 255 0 0
-0.114884 -0.014779 0.425323 255 0 0
-0.119741 -0.011689 0.427572 255 0 0
-0.104720 -0.016689 0.430912 255 0 0
-0.109147 -0.016689 0.426599 255 0 0
-0.105417 -0.011689 0.441529 255 0 0
-0.103295 -0.014779 0.436615 255 0 0
-0.116011 -0.006689 0.442501 255 0 0
-0.110274 -0.008598 0.443777 255 0 0
-0.120438 -0.016689 0.438188 255 0 0
-0.121863 -0.014779 0.432486 255 0 0
-0.118317 -0.019779 0.433274 255 0 0
-0.114004 -0.019779 0.428848 255 0 0
-0.112579 -0.021689 0.434550 255 0 0
-0.106841 -0.019779 0.435826 255 0 0
-0.111154 -0.019779 0.440253 255 0 0
-0.110274 -0.014779 0.443777 255 0 0
-0.116011 -0.016689 0.442501 255 0 0
-0.119557 -0.011689 0.441713 255 0 0
-0.047146 0.093902 0.400098 255 0 0
-0.054484 0.093902 0.407629 255 0 0
-0.047146 0.076889 0.400098 255 0 0
-0.054484 0.076889 0.407629 255 0 0
-0.056908 0.080139 0.397927 255 0 0
-0.056908 0.090653 0.397927 255 0 0
-0.044723 0.080139 0.409800 255 0 0
-0.044723 0.090653 0.409800 255 0 0
-0.052986 0.085396 0.413625 255 0 0
-0.060517 0.085396 0.406288 255 0 0
-0.041113 0.085396 0.401440 255 0 0
-0.048645 0.085396 0.394102 255 0 0
-0.047383 0.090396 0.395913 255 0 0
-0.053121 0.088486 0.394637 255 0 0
-0.052240 0.093486 0.398161 255 0 0
-0.056553 0.093486 0.402588 255 0 0
-0.050815 0.095396 0.403864 255 0 0
-0.049390 0.093486 0.409566 255 0 0
-0.045078 0.093486 0.405140 255 0 0
-0.041531 0.088486 0.405928 255 0 0
-0.042956 0.090396 0.400226 255 0 0
-0.043837 0.085396 0.396701 255 0 0
-0.060099 0.088486 0.401799 255 0 0
-0.058674 0.090396 0.407502 255 0 0
-0.053121 0.082306 0.394637 255 0 0
-0.057978 0.085396 0.396885 255 0 0
-0.042956 0.080396 0.400226 255 0 0
-0.047383 0.080396 0.395913 255 0 0
-0.043653 0.085396 0.410842 255 0 0
-0.041531 0.082306 0.405928 255 0 0
-0.054248 0.090396 0.411815 255 0 0
-0.048510 0.088486 0.413091 255 0 0
-0.058674 0.080396 0.407502 255 0 0
-0.060099 0.082306 0.401799 255 0 0
-0.056553 0.077306 0.402588 255 0 0
-0.052240 0.077306 0.398161 255 0 0
-0.050815 0.075396 0.403864 255 0 0
-0.045078 0.077306 0.405140 255 0 0
-0.049390 0.077306 0.409566 255 0 0
-0.048510 0.082306 0.413091 255 0 0
-0.054248 0.080396 0.411815 255 0 0
-0.057794 0.085396 0.411026 255 0 0
-0.047568 0.062645 0.408168 255 0 0
-0.054906 0.062645 0.415699 255 0 0
-0.047568 0.045632 0.408168 255 0 0
-0.054906 0.045632 0.415699 255 0 0
-0.057330 0.048881 0.405997 255 0 0
-0.057330 0.059395 0.405997 255 0 0
-0.045144 0.048881 0.417870 255 0 0
-0.045144 0.059395 0.417870 255 0 0
-0.053408 0.054138 0.421695 255 0 0
-0.060939 0.054138 0.414358 255 0 0
-0.041535 0.054138 0.409510 255 0 0
-0.049066 0.054138 0.402172 255 0 0
-0.047805 0.059138 0.403983 255 0 0
-0.053542 0.057228 0.402707 255 0 0
-0.052662 0.062228 0.406231 255 0 0
-0.056975 0.062228 0.410658 255 0 0
-0.051237 0.064138 0.411934 255 0 0
-0.049812 0.062228 0.417636 255 0 0
-0.045499 0.062228 0.413210 255 0 0
-0.041953 0.057228 0.413998 255 0 0
-0.043378 0.059138 0.408296 255 0 0
-0.044259 0.054138 0.404771 255 0 0
-0.060521 0.057228 0.409869 255 0 0
-0.059096 0.059138 0.415572 255 0 0
-0.053542 0.051048 0.402707 255 0 0
-0.058399 0.054138 0.404955 255 0 0
-0.043378 0.049138 0.408296 255 0 0
-0.047805 0.049138 0.403983 255 0 0
-0.044075 0.054138 0.418912 255 0 0
-0.041953 0.051048 0.413998 255 0 0
-0.054669 0.059138 0.419885 255 0 0
-0.048932 0.057228 0.421161 255 0 0
-0.059096 0.049138 0.415572 255 0 0
-0.060521 0.051048 0.409869 255 0 0
-0.056975 0.046048 0.410658 255 0 0
-0.052662 0.046048 0.406231 255 0 0
-0.051237 0.044138 0.411934 255 0 0
-0.045499 0.046048 0.413210 255 0 0
-0.049812 0.046048 0.417636 255 0 0
-0.048932 0.051048 0.421161 255 0 0
-0.054669 0.049138 0.419885 255 0 0
-0.058215 0.054138 0.419096 255 0 0
0.029581 -0.070402 0.422774 255 0 0
0.022243 -0.070402 0.430305 255 0 0
0.029581 -0.087415 0.422774 255 0 0
0.022243 -0.087415 0.430305 255 0 0
0.019819 -0.084166 0.420603 255 0 0
0.019819 -0.073651 0.420603 255 0 0
0.032005 -0.084166 0.432475 255 0 0
0.032005 -0.073651 0.432475 255 0 0
0.023741 -0.078908 0.436301 255 0 0
0.016210 -0.078908 0.428963 255 0 0
0.035614 -0.078908 0.424115 255 0 0
0.028083 -0.078908 0.416777 255 0 0
0.029344 -0.073908 0.418588 255 0 0
0.023606 -0.075818 0.417312 255 0 0
0.024487 -0.070818 0.420836 255 0 0
0.020174 -0.070818 0.425263 255 0 0
0.025912 -0.068908 0.426539 255 0 0
0.027337 -0.070818 0.432242 255 0 0
0.031650 -0.070818 0.427815 255 0 0
0.035196 -0.075818 0.428604 255 0 0
0.033771 -0.073908 0.422901 255 0 0
0.032890 -0.078908 0.419377 255 0 0
0.016628 -0.075818 0.424475 255 0 0
0.018053 -0.073908 0.430177 255 0 0
0.023606 -0.081999 0.417312 255 0 0
0.018749 -0.078908 0.419561 255 0 0
0.033771 -0.083908 0.422901 255 0 0
0.029344 -0.083908 0.418588 255 0 0
0.033074 -0.078908 0.433518 255 0 0
0.035196 -0.081999 0.428604 255 0 0
0.022479 -0.073908 0.434490 255 0 0
0.028217 -0.075818 0.435766 255 0 0
0.018053 -0.083908 0.430177 255 0 0
0.016628 -0.081999 0.424475 255 0 0
0.020174 -0.086999 0.425263 255 0 0
0.024487 -0.086999 0.420836 255 0 0
0.025912 -0.088908 0.426539 255 0 0
0.031650 -0.086999 0.427815 255 0 0
0.027337 -0.086999 0.432242 255 0 0
0.028217 -0.081999 0.435766 255 0 0
0.022479 -0.083908 0.434490 255 0 0
0.018933 -0.078908 0.433701 255 0 0
0.066607 0.070799 0.472527 255 0 0
0.059270 0.070799 0.480058 255 0 0
0.066607 0.053786 0.472527 255 0 0
0.059270 0.053786 0.480058 255 0 0
0.056846 0.057035 0.470356 255 0 0
0.056846 0.067549 0.470356 255 0 0
0.069031 0.057035 0.482228 255 0 0
0.069031 0.067549 0.482228 255 0 0
0.060768 0.062292 0.486054 255 0 0
0.053237 0.062292 0.478716 255 0 0
0.072640 0.062292 0.473868 255 0 0
0.065109 0.062292 0.466531 255 0 0
0.066371 0.067292 0.468341 255 0 0
0.060633 0.065382 0.467065 255 0 0
0.061514 0.070382 0.470589 255 0 0
0.057201 0.070382 0.475016 255 0 0
0.062939 0.072292 0.476292 255 0 0
0.064363 0.070382 0.481995 255 0 0
0.068676 0.070382 0.477568 255 0 0
0.072222 0.065382 0.478357 255 0 0
0.070798 0.067292 0.472654 255 0 0
0.069917 0.062292 0.469130 255 0 0
0.053655 0.065382 0.474228 255 0 0
0.055080 0.067292 0.479930 255 0 0
0.060633 0.059202 0.467065 255 0 0
0.055776 0.062292 0.469314 255 0 0
0.070798 0.057292 0.472654 255 0 0
0.066371 0.057292 0.468341 255 0 0
0.070101 0.062292 0.483271 255 0 0
0.072222 0.059202 0.478357 255 0 0
0.059506 0.067292 0.484243 255 0 0
0.065244 0.065382 0.485519 255 0 0
0.055080 0.057292 0.479930 255 0 0
0.053655 0.059202 0.474228 255 0 0
0.057201 0.054202 0.475016 255 0 0
0.061514 0.054202 0.470589 255 0 0
0.062939 0.052292 0.476292 255 0 0
0.068676 0.054202 0.477568 255 0 0
0.064363 0.054202 0.481995 255 0 0
0.065244 0.059202 0.485519 255 0 0
0.059506 0.057292 0.484243 255 0 0
0.055960 0.062292 0.483454 255 0 0
-0.138166 0.089497 0.415808 255 0 0
-0.145504 0.089497 0.423339 255 0 0
-0.138166 0.072484 0.415808 255 0 0
-0.145504 0.072484 0.423339 255 0 0
-0.147928 0.075734 0.413637 255 0 0
-0.147928 0.086248 0.413637 255 0 0
-0.135742 0.075734 0.425509 255 0 0
-0.135742 0.086248 0.425509 255 0 0
-0.144006 0.080991 0.429335 255 0 0
-0.151537 0.080991 0.421997 255 0 0
-0.132133 0.080991 0.417149 255 0 0
-0.139664 0.080991 0.409812 255 0 0
-0.138402 0.085991 0.411622 255 0 0
-0.144140 0.084081 0.410346 255 0 0
-0.143260 0.089081 0.413871 255 0 0
-0.147572 0.089081 0.418297 255 0 0
-0.141835 0.090991 0.419573 255 0 0
-0.140410 0.089081 0.425276 255 0 0
-0.136097 0.089081 0.420849 255 0 0
-0.132551 0.084081 0.421638 255 0 0
-0.133976 0.085991 0.415935 255 0 0
-0.134856 0.080991 0.412411 255 0 0
-0.151119 0.084081 0.417509 255 0 0
-0.149694 0.085991 0.423211 255 0 0
-0.144140 0.077901 0.410346 255 0 0
-0.148997 0.080991 0.412595 255 0 0
-0.133976 0.075991 0.415935 255 0 0
-0.138402 0.075991 0.411622 255 0 0
-0.134672 0.080991 0.426552 255 0 0
-0.132551 0.077901 0.421638 255 0 0
-0.145267 0.085991 0.427524 255 0 0
-0.139529 0.084081 0.428800 255 0 0
-0.149694 0.075991 0.423211 255 0 0
-0.151119 0.077901 0.417509 255 0 0
-0.147572 0.072901 0.418297 255 0 0
-0.143260 0.072901 0.413871 255 0 0
-0.141835 0.070991 0.419573 255 0 0
-0.136097 0.072901 0.420849 255 0 0
-0.140410 0.072901 0.425276 255 0 0
-0.139529 0.077901 0.428800 255 0 0
-0.145267 0.075991 0.427524 255 0 0
-0.148813 0.080991 0.426736 255 0 0
-0.005824 0.058305 0.412794 255 0 0
-0.013162 0.058305 0.420325 255 0 0
-0.005824 0.041292 0.412794 255 0 0
-0.013162 0.041292 0.420325 255 0 0
-0.015586 0.044541 0.410623 255 0 0
-0.015586 0.055056 0.410623 255 0 0
-0.003400 0.044541 0.422495 255 0 0
-0.003400 0.055056 0.422495 255 0 0
-0.011664 0.049799 0.426321 255 0 0
-0.019195 0.049799 0.418983 255 0 0
0.000209 0.049799 0.414135 255 0 0
-0.007322 0.049799 0.406798 255 0 0
-0.006061 0.054799 0.408608 255 0 0
-0.011799 0.052889 0.407332 255 0 0
-0.010918 0.057889 0.410857 255 0 0
-0.015231 0.057889 0.415283 255 0 0
-0.009493 0.059799 0.416559 255 0 0
-0.008068 0.057889 0.422262 255 0 0
-0.003756 0.057889 0.417835 255 0 0
-0.000209 0.052889 0.418624 255 0 0
-0.001634 0.054799 0.412921 255 0 0
-0.002515 0.049799 0.409397 255 0 0
-0.018777 0.052889 0.414495 255 0 0
-0.017352 0.054799 0.420197 255 0 0
-0.011799 0.046708 0.407332 255 0 0
-0.016656 0.049799 0.409581 255 0 0
-0.001634 0.044799 0.412921 255 0 0
-0.006061 0.044799 0.408608 255 0 0
-0.002331 0.049799 0.423538 255 0 0
-0.000209 0.046708 0.418624 255 0 0
-0.012926 0.054799 0.424510 255 0 0
-0.007188 0.052889 0.425786 255 0 0
-0.017352 0.044799 0.420197 255 0 0
-0.018777 0.046708 0.414495 255 0 0
-0.015231 0.041708 0.415283 255 0 0
-0.010918 0.041708 0.410857 255 0 0
-0.009493 0.039799 0.416559 255 0 0
-0.003756 0.041708 0.417835 255 0 0
-0.008068 0.041708 0.422262 255 0 0
-0.007188 0.046708 0.425786 255 0 0
-0.012926 0.044799 0.424510 255 0 0
-0.016472 0.049799 0.423722 255 0 0
-0.035284 -0.063423 0.392201 255 0 0
-0.042621 -0.063423 0.399732 255 0 0
-0.035284 -0.080436 0.392201 255 0 0
-0.042621 -0.080436 0.399732 255 0 0
-0.045045 -0.077187 0.390030 255 0 0
-0.045045 -0.066672 0.390030 255 0 0
-0.032860 -0.077187 0.401903 255 0 0
-0.032860 -0.066672 0.401903 255 0 0
-0.041123 -0.071930 0.405728 255 0 0
-0.048654 -0.071930 0.398391 255 0 0
-0.029251 -0.071930 0.393543 255 0 0
-0.036782 -0.071930 0.386205 255 0 0
-0.035520 -0.066930 0.388016 255 0 0
-0.041258 -0.068839 0.386740 255 0 0
-0.040377 -0.063839 0.390264 255 0 0
-0.044690 -0.063839 0.394691 255 0 0
-0.038952 -0.061930 0.395967 255 0 0
-0.037528 -0.063839 0.401669 255 0 0
-0.033215 -0.063839 0.397243 255 0 0
-0.029669 -0.068839 0.398031 255 0 0
-0.031093 -0.066930 0.392329 255 0 0
-0.031974 -0.071930 0.388804 255 0 0
-0.048236 -0.068839 0.393902 255 0 0
-0.046811 -0.066930 0.399605 255 0 0
-0.041258 -0.075020 0.386740 255 0 0
-0.046115 -0.071930 0.388988 255 0 0
-0.031093 -0.076930 0.392329 255 0 0
-0.035520 -0.076930 0.388016 255 0 0
-0.031790 -0.071930 0.402945 255 0 0
-0.029669 -0.075020 0.398031 255 0 0
-0.042385 -0.066930 0.403918 255 0 0
-0.036647 -0.068839 0.405194 255 0 0
-0.046811 -0.076930 0.399605 255 0 0
-0.048236 -0.075020 0.393902 255 0 0
-0.044690 -0.080020 0.394691 255 0 0
-0.040377 -0.080020 0.390264 255 0 0
-0.038952 -0.081930 0.395967 255 0 0
-0.033215 -0.080020 0.397243 255 0 0
-0.037528 -0.080020 0.401669 255 0 0
-0.036647 -0.075020 0.405194 255 0 0
-0.042385 -0.076930 0.403918 255 0 0
-0.045931 -0.071930 0.403129 255 0 0
-0.035031 -0.083613 0.403139 255 0 0
-0.042369 -0.083613 0.410670 255 0 0
-0.035031 -0.100626 0.403139 255 0 0
-0.042369 -0.100626 0.410670 255 0 0
-0.044793 -0.097377 0.400968 255 0 0
-0.044793 -0.086862 0.400968 255 0 0
-0.032607 -0.097377 0.412841 255 0 0
-0.032607 -0.086862 0.412841 255 0 0
-0.040871 -0.092120 0.416666 255 0 0
-0.048402 -0.092120 0.409328 255 0 0
-0.028998 -0.092120 0.404480 255 0 0
-0.036529 -0.092120 0.397143 255 0 0
-0.035268 -0.087120 0.398953 255 0 0
-0.041005 -0.089030 0.397677 255 0 0
-0.040125 -0.084030 0.401202 255 0 0
-0.044438 -0.084030 0.405628 255 0 0
-0.038700 -0.082120 0.406904 255 0 0
-0.037275 -0.084030 0.412607 255 0 0
-0.032962 -0.084030 0.408180 255 0 0
-0.029416 -0.089030 0.408969 255 0 0
-0.030841 -0.087120 0.403266 255 0 0
-0.031722 -0.092120 0.399742 255 0 0
-0.047984 -0.089030 0.404840 255 0 0
-0.046559 -0.087120 0.410542 255 0 0
-0.041005 -0.095210 0.397677 255 0 0
-0.045863 -0.092120 0.399926 255 0 0
-0.030841 -0.097120 0.403266 255 0 0
-0.035268 -0.097120 0.398953 255 0 0
-0.031538 -0.092120 0.413883 255 0 0
-0.029416 -0.095210 0.408969 255 0 0
-0.042133 -0.087120 0.414855 255 0 0
-0.036395 -0.089030 0.416131 255 0 0
-0.046559 -0.097120 0.410542 255 0 0
-0.047984 -0.095210 0.404840 255 0 0
-0.044438 -0.100210 0.405628 255 0 0
-0.040125 -0.100210 0.401202 255 0 0
-0.038700 -0.102120 0.406904 255 0 0
-0.032962 -0.100210 0.408180 255 0 0
-0.037275 -0.100210 0.412607 255 0 0
-0.036395 -0.095210 0.416131 255 0 0
-0.042133 -0.097120 0.414855 255 0 0
-0.045679 -0.092120 0.414067 255 0 0
0.000853 0.098539 0.400881 255 0 0
-0.006485 0.098539 0.408412 255 0 0
0.000853 0.081526 0.400881 255 0 0
-0.006485 0.081526 0.408412 255 0 0
-0.008909 0.084775 0.398710 255 0 0
-0.008909 0.095290 0.398710 255 0 0
0.003277 0.084775 0.410583 255 0 0
0.003277 0.095290 0.410583 255 0 0
-0.004987 0.090033 0.414408 255 0 0
-0.012518 0.090033 0.407070 255 0 0
0.006886 0.090033 0.402222 255 0 0
-0.000645 0.090033 0.394885 255 0 0
0.000617 0.095033 0.396695 255 0 0
-0.005121 0.093123 0.395419 255 0 0
-0.004241 0.098123 0.398944 255 0 0
-0.008554 0.098123 0.403370 255 0 0
-0.002816 0.100033 0.404646 255 0 0
-0.001391 0.098123 0.410349 255 0 0
0.002922 0.098123 0.405922 255 0 0
0.006468 0.093123 0.406711 255 0 0
0.005043 0.095033 0.401008 255 0 0
0.004163 0.090033 0.397484 255 0 0
-0.012100 0.093123 0.402582 255 0 0
-0.010675 0.095033 0.408284 255 0 0
-0.005121 0.086942 0.395419 255 0 0
-0.009978 0.090033 0.397668 255 0 0
0.005043 0.085033 0.401008 255 0 0
0.000617 0.085033 0.396695 255 0 0
0.004347 0.090033 0.411625 255 0 0
0.006468 0.086942 0.406711 255 0 0
-0.006248 0.095033 0.412597 255 0 0
-0.000511 0.093123 0.413873 255 0 0
-0.010675 0.085033 0.408284 255 0 0
-0.012100 0.086942 0.402582 255 0 0
-0.008554 0.081942 0.403370 255 0 0
-0.004241 0.081942 0.398944 255 0 0
-0.002816 0.080033 0.404646 255 0 0
0.002922 0.081942 0.405922 255 0 0
-0.001391 0.081942 0.410349 255 0 0
-0.000511 0.086942 0.413873 255 0 0
-0.006248 0.085033 0.412597 255 0 0
-0.009794 0.090033 0.411809 255 0 0
0.069047 0.099667 0.448331 255 0 0
0.061709 0.099667 0.455862 255 0 0
0.069047 0.082654 0.448331 255 0 0
0.061709 0.082654 0.455862 255 0 0
0.059285 0.085903 0.446160 255 0 0
0.059285 0.096418 0.446160 255 0 0
0.071471 0.085903 0.458033 255 0 0
0.071471 0.096418 0.458033 255 0 0
0.063207 0.091160 0.461858 255 0 0
0.055676 0.091160 0.454520 255 0 0
0.075080 0.091160 0.449672 255 0 0
0.067549 0.091160 0.442335 255 0 0
0.068811 0.096160 0.444145 255 0 0
0.063073 0.094250 0.442869 255 0 0
0.063953 0.099250 0.446394 255 0 0
0.059640 0.099250 0.450820 255 0 0
0.065378 0.101160 0.452096 255 0 0
0.066803 0.099250 0.457799 255 0 0
0.071116 0.099250 0.453372 255 0 0
0.074662 0.094250 0.454161 255 0 0
0.073237 0.096160 0.448458 255 0 0
0.072357 0.091160 0.444934 255 0 0
0.056094 0.094250 0.450032 255 0 0
0.057519 0.096160 0.455734 255 0 0
0.063073 0.088070 0.442869 255 0 0
0.058216 0.091160 0.445118 255 0 0
0.073237 0.086160 0.448458 255 0 0
0.068811 0.086160 0.444145 255 0 0
0.072541 0.091160 0.459075 255 0 0
0.074662 0.088070 0.454161 255 0 0
0.061946 0.096160 0.460047 255 0 0
0.067683 0.094250 0.461323 255 0 0
0.057519 0.086160 0.455734 255 0 0
0.056094 0.088070 0.450032 255 0 0
0.059640 0.083070 0.450820 255 0 0
0.063953 0.083070 0.446394 255 0 0
0.065378 0.081160 0.452096 255 0 0
0.071116 0.083070 0.453372 255 0 0
0.066803 0.083070 0.457799 255 0 0
0.067683 0.088070 0.461323 255 0 0
0.061946 0.086160 0.460047 255 0 0
0.058400 0.091160 0.459259 255 0 0
0.011002 -0.052060 0.424261 255 0 0
0.003664 -0.052060 0.431792 255 0 0
0.011002 -0.069073 0.424261 255 0 0
0.003664 -0.069073 0.431792 255 0 0
0.001240 -0.065824 0.422090 255 0 0
0.001240 -0.055310 0.422090 255 0 0
0.013425 -0.065824 0.433963 255 0 0
0.013425 -0.055310 0.433963 255 0 0
0.005162 -0.060567 0.437788 255 0 0
-0.002369 -0.060567 0.430450 255 0 0
0.017035 -0.060567 0.425602 255 0 0
0.009503 -0.060567 0.418265 255 0 0
0.010765 -0.055567 0.420075 255 0 0
0.005027 -0.057477 0.418799 255 0 0
0.005908 -0.052477 0.422324 255 0 0
0.001595 -0.052477 0.426750 255 0 0
0.007333 -0.050567 0.428026 255 0 0
0.008758 -0.052477 0.433729 255 0 0
0.013070 -0.052477 0.429302 255 0 0
0.016617 -0.057477 0.430091 255 0 0
0.015192 -0.055567 0.424388 255 0 0
0.014311 -0.060567 0.420864 255 0 0
-0.001951 -0.057477 0.425962 255 0 0
-0.000526 -0.055567 0.431664 255 0 0
0.005027 -0.063657 0.418799 255 0 0
0.000170 -0.060567 0.421048 255 0 0
0.015192 -0.065567 0.424388 255 0 0
0.010765 -0.065567 0.420075 255 0 0
0.014495 -0.060567 0.435005 255 0 0
0.016617 -0.063657 0.430091 255 0 0
0.003900 -0.055567 0.435977 255 0 0
0.009638 -0.057477 0.437253 255 0 0
-0.000526 -0.065567 0.431664 255 0 0
-0.001951 -0.063657 0.425962 255 0 0
0.001595 -0.068657 0.426750 255 0 0
0.005908 -0.068657 0.422324 255 0 0
0.007333 -0.070567 0.428026 255 0 0
0.013070 -0.068657 0.429302 255 0 0
0.008758 -0.068657 0.433729 255 0 0
0.009638 -0.063657 0.437253 255 0 0
0.003900 -0.065567 0.435977 255 0 0
0.000354 -0.060567 0.435189 255 0 0
3 0 12 14
3 11 13 12
3 5 14 13
3 12 13 14
3 0 14 16
3 5 15 14
3 1 16 15
3 14 15 16
3 0 16 18
3 1 17 16
3 7 18 17
3 16 17 18
3 0 18 20
3 7 19 18
3 10 20 19
3 18 19 20
3 0 20 12
3 10 21 20
3 11 12 21
3 20 21 12
3 1 15 23
3 5 22 15
3 9 23 22
3 15 22 23
3 5 13 25
3 11 24 13
3 4 25 24
3 13 24 25
3 11 21 27
3 10 26 21
3 2 27 26
3 21 26 27
3 10 19 29
3 7 28 19
3 6 29 28
3 19 28 29
3 7 17 31
3 1 30 17
3 8 31 30
3 17 30 31
3 3 32 34
3 9 33 32
3 4 34 33
3 32 33 34
3 3 34 36
3 4 35 34
3 2 36 35
3 34 35 36
3 3 36 38
3 2 37 36
3 6 38 37
3 36 37 38
3 3 38 40
3 6 39 38
3 8 40 39
3 38 39 40
3 3 40 32
3 8 41 40
3 9 32 41
3 40 41 32
3 4 33 25
3 9 22 33
3 5 25 22
3 33 22 25
3 2 35 27
3 4 24 35
3 11 27 24
3 35 24 27
3 6 37 29
3 2 26 37
3 10 29 26
3 37 26 29
3 8 39 31
3 6 28 39
3 7 31 28
3 39 28 31
3 9 41 23
3 8 30 41
3 1 23 30
3 41 30 23
3 42 54 56
3 53 55 54
3 47 56 55
3 54 55 56
3 42 56 58
3 47 57 56
3 43 58 57
3 56 57 58
3 42 58 60
3 43 59 58
3 49 60 59
3 58 59 60
3 42 60 62
3 49 61 60
3 52 62 61
3 60 61 62
3 42 62 54
3 52 63 62
3 53 54 63
3 62 63 54
3 43 57 65
3 47 64 57
3 51 65 64
3 57 64 65
3 47 55 67
3 53 66 55
3 46 67 66
3 55 66 67
3 53 63 69
3 52 68 63
3 44 69 68
3 63 68 69
3 52 61 71
3 49 70 61
3 48 71 70
3 61 70 71
3 49 59 73
3 43 72 59
3 50 73 72
3 59 72 73
3 45 74 76
3 51 75 74
3 46 76 75
3 74 75 76
3 45 76 78
3 46 77 76
3 44 78 77
3 76 77 78
3 45 78 80
3 44 79 78
3 48 80 79
3 78 79 80
3 45 80 82
3 48 81 80
3 50 82 81
3 80 81 82
3 45 82 74
3 50 83 82
3 51 74 83
3 82 83 74
3 46 75 67
3 51 64 75
3 47 67 64
3 75 64 67
3 44 77 69
3 46 66 77
3 53 69 66
3 77 66 69
3 48 79 71
3 44 68 79
3 52 71 68
3 79 68 71
3 50 81 73
3 48 70 81
3 49 73 70
3 81 70 73
3 51 83 65
3 50 72 83
3 43 65 72
3 83 72 65
3 84 96 98
3 95 97 96
3 89 98 97
3 96 97 98
3 84 98 100
3 89 99 98
3 85 100 99
3 98 99 100
3 84 100 102
3 85 101 100
3 91 102 101
3 100 101 102
3 84 102 104
3 91 103 102
3 94 104 103
3 102 103 104
3 84 104 96
3 94 105 104
3 95 96 105
3 104 105 96
3 85 99 107
3 89 106 99
3 93 107 106
3 99 106 107
3 89 97 109
3 95 108 97
3 88 109 108
3 97 108 109
3 95 105 111
3 94 110 105
3 86 111 110
3 105 110 111
3 94 103 113
3 91 112 103
3 90 113 112
3 103 112 113
3 91 101 115
3 85 114 101
3 92 115 114
3 101 114 115
3 87 116 118
3 93 117 116
3 88 118 117
3 116 117 118
3 87 118 120
3 88 119 118
3 86 120 119
3 118 119 120
3 87 120 122
3 86 121 120
3 90 122 121
3 120 121 122
3 87 122 124
3 90 123 122
3 92 124 123
3 122 123 124
3 87 124 116
3 92 125 124
3 93 116 125
3 124 125 116
3 88 117 109
3 93 106 117
3 89 109 106
3 117 106 109
3 86 119 111
3 88 108 119
3 95 111 108
3 119 108 111
3 90 121 113
3 86 110 121
3 94 113 110
3 121 110 113
3 92 123 115
3 90 112 123
3 91 115 112
3 123 112 115
3 93 125 107
3 92 114 125
3 85 107 114
3 125 114 107
3 126 138 140
3 137 139 138
3 131 140 139
3 138 139 140
3 126 140 142
3 131 141 140
3 127 142 141
3 140 141 142
3 126 142 144
3 127 143 142
3 133 144 143
3 142 143 144
3 126 144 146
3 133 145 144
3 136 146 145
3 144 145 146
3 126 146 138
3 136 147 146
3 137 138 147
3 146 147 138
3 127 141 149
3 131 148 141
3 135 149 148
3 141 148 149
3 131 139 151
3 137 150 139
3 130 151 150
3 139 150 151
3 137 147 153
3 136 152 147
3 128 153 152
3 147 152 153
3 136 145 155
3 133 154 145
3 132 155 154
3 145 154 155
3 133 143 157
3 127 156 143
3 134 157 156
3 143 156 157
3 129 158 160
3 135 159 158
3 130 160 159
3 158 159 160
3 129 160 162
3 130 161 160
3 128 162 161
3 160 161 162
3 129 162 164
3 128 163 162
3 132 164 163
3 162 163 164
3 129 164 166
3 132 165 164
3 134 166 165
3 164 165 166
3 129 166 158
3 134 167 166
3 135 158 167
3 166 167 158
3 130 159 151
3 135 148 159
3 131 151 148
3 159 148 151
3 128 161 153
3 130 150 161
3 137 153 150
3 161 150 153
3 132 163 155
3 128 152 163
3 136 155 152
3 163 152 155
3 134 165 157
3 132 154 165
3 133 157 154
3 165 154 157
3 135 167 149
3 134 156 167
3 127 149 156
3 167 156 149
3 168 180 182
3 179 181 180
3 173 182 181
3 180 181 182
3 168 182 184
3 173 183 182
3 169 184 183
3 182 183 184
3 168 184 186
3 169 185 184
3 175 186 185
3 184 185 186
3 168 186 188
3 175 187 186
3 178 188 187
3 186 187 188
3 168 188 180
3 178 189 188
3 179 180 189
3 188 189 180
3 169 183 191
3 173 190 183
3 177 191 190
3 183 190 191
3 173 181 193
3 179 192 181
3 172 193 192
3 181 192 193
3 179 189 195
3 178 194 189
3 170 195 194
3 189 194 195
3 178 187 197
3 175 196 187
3 174 197 196
3 187 196 197
3 175 185 199
3 169 198 185
3 176 199 198
3 185 198 199
3 171 200 202
3 177 201 200
3 172 202 201
3 200 201 202
3 171 202 204
3 172 203 202
3 170 204 203
3 202 203 204
3 171 204 206
3 170 205 204
3 174 206 205
3 204 205 206
3 171 206 208
3 174 207 206
3 176 208 207
3 206 207 208
3 171 208 200
3 176 209 208
3 177 200 209
3 208 209 200
3 172 201 193
3 177 190 201
3 173 193 190
3 201 190 193
3 170 203 195
3 172 192 203
3 179 195 192
3 203 192 195
3 174 205 197
3 170 194 205
3 178 197 194
3 205 194 197
3 176 207 199
3 174 196 207
3 175 199 196
3 207 196 199
3 177 209 191
3 176 198 209
3 169 191 198
3 209 198 191
3 210 222 224
3 221 223 222
3 215 224 223
3 222 223 224
3 210 224 226
3 215 225 224
3 211 226 225
3 224 225 226
3 210 226 228
3 211 227 226
3 217 228 227
3 226 227 228
3 210 228 230
3 217 229 228
3 220 230 229
3 228 229 230
3 210 230 222
3 220 231 230
3 221 222 231
3 230 231 222
3 211 225 233
3 215 232 225
3 219 233 232
3 225 232 233
3 215 223 235
3 221 234 223
3 214 235 234
3 223 234 235
3 221 231 237
3 220 236 231
3 212 237 236
3 231 236 237
3 220 229 239
3 217 238 229
3 216 239 238
3 229 238 239
3 217 227 241
3 211 240 227
3 218 241 240
3 227 240 241
3 213 242 244
3 219 243 242
3 214 244 243
3 242 243 244
3 213 244 246
3 214 245 244
3 212 246 245
3 244 245 246
3 213 246 248
3 212 247 246
3 216 248 247
3 246 247 248
3 213 248 250
3 216 249 248
3 218 250 249
3 248 249 250
3 213 250 242
3 218 251 250
3 219 242 251
3 250 251 242
3 214 243 235
3 219 232 243
3 215 235 232
3 243 232 235
3 212 245 237
3 214 234 245
3 221 237 234
3 245 234 237
3 216 247 239
3 212 236 247
3 220 239 236
3 247 236 239
3 218 249 241
3 216 238 249
3 217 241 238
3 249 238 241
3 219 251 233
3 218 240 251
3 211 233 240
3 251 240 233
3 252 264 266
3 263 265 264
3 257 266 265
3 264 265 266
3 252 266 268
3 257 267 266
3 253 268 267
3 266 267 268
3 252 268 270
3 253 269 268
3 259 270 269
3 268 269 270
3 252 270 272
3 259 271 270
3 262 272 271
3 270 271 272
3 252 272 264
3 262 273 272
3 263 264 273
3 272 273 264
3 253 267 275
3 257 274 267
3 261 275 274
3 267 274 275
3 257 265 277
3 263 276 265
3 256 277 276
3 265 276 277
3 263 273 279
3 262 278 273
3 254 279 278
3 273 278 279
3 262 271 281
3 259 280 271
3 258 281 280
3 271 280 281
3 259 269 283
3 253 282 269
3 260 283 282
3 269 282 283
3 255 284 286
3 261 285 284
3 256 286 285
3 284 285 286
3 255 286 288
3 256 287 286
3 254 288 287
3 286 287 288
3 255 288 290
3 254 289 288
3 258 290 289
3 288 289 290
3 255 290 292
3 258 291 290
3 260 292 291
3 290 291 292
3 255 292 284
3 260 293 292
3 261 284 293
3 292 293 284
3 256 285 277
3 261 274 285
3 257 277 274
3 285 274 277
3 254 287 279
3 256 276 287
3 263 279 276
3 287 276 279
3 258 289 281
3 254 278 289
3 262 281 278
3 289 278 281
3 260 291 283
3 258 280 291
3 259 283 280
3 291 280 283
3 261 293 275
3 260 282 293
3 253 275 282
3 293 282 275
3 294 306 308
3 305 307 306
3 299 308 307
3 306 307 308
3 294 308 310
3 299 309 308
3 295 310 309
3 308 309 310
3 294 310 312
3 295 311 310
3 301 312 311
3 310 311 312
3 294 312 314
3 301 313 312
3 304 314 313
3 312 313 314
3 294 314 306
3 304 315 314
3 305 306 315
3 314 315 306
3 295 309 317
3 299 316 309
3 303 317 316
3 309 316 317
3 299 307 319
3 305 318 307
3 298 319 318
3 307 318 319
3 305 315 321
3 304 320 315
3 296 321 320
3 315 320 321
3 304 313 323
3 301 322 313
3 300 323 322
3 313 322 323
3 301 311 325
3 295 324 311
3 302 325 324
3 311 324 325
3 297 326 328
3 303 327 326
3 298 328 327
3 326 327 328
3 297 328 330
3 298 329 328
3 296 330 329
3 328 329 330
3 297 330 332
3 296 331 330
3 300 332 331
3 330 331 332
3 297 332 334
3 300 333 332
3 302 334 333
3 332 333 334
3 297 334 326
3 302 335 334
3 303 326 335
3 334 335 326
3 298 327 319
3 303 316 327
3 299 319 316
3 327 316 319
3 296 329 321
3 298 318 329
3 305 321 318
3 329 318 321
3 300 331 323
3 296 320 331
3 304 323 320
3 331 320 323
3 302 333 325
3 300 322 333
3 301 325 322
3 333 322 325
3 303 335 317
3 302 324 335
3 295 317 324
3 335 324 317
3 336 348 350
3 347 349 348
3 341 350 349
3 348 349 350
3 336 350 352
3 341 351 350
3 337 352 351
3 350 351 352
3 336 352 354
3 337 353 352
3 343 354 353
3 352 353 354
3 336 354 356
3 343 355 354
3 346 356 355
3 354 355 356
3 336 356 348
3 346 357 356
3 347 348 357
3 356 357 348
3 337 351 359
3 341 358 351
3 345 359 358
3 351 358 359
3 341 349 361
3 347 360 349
3 340 361 360
3 349 360 361
3 347 357 363
3 346 362 357
3 338 363 362
3 357 362 363
3 346 355 365
3 343 364 355
3 342 365 364
3 355 364 365
3 343 353 367
3 337 366 353
3 344 367 366
3 353 366 367
3 339 368 370
3 345 369 368
3 340 370 369
3 368 369 370
3 339 370 372
3 340 371 370
3 338 372 371
3 370 371 372
3 339 372 374
3 338 373 372
3 342 374 373
3 372 373 374
3 339 374 376
3 342 375 374
3 344 376 375
3 374 375 376
3 339 376 368
3 344 377 376
3 345 368 377
3 376 377 368
3 340 369 361
3 345 358 369
3 341 361 358
3 369 358 361
3 338 371 363
3 340 360 371
3 347 363 360
3 371 360 363
3 342 373 365
3 338 362 373
3 346 365 362
3 373 362 365
3 344 375 367
3 342 364 375
3 343 367 364
3 375 364 367
3 345 377 359
3 344 366 377
3 337 359 366
3 377 366 359
3 378 390 392
3 389 391 390
3 383 392 391
3 390 391 392
3 378 392 394
3 383 393 392
3 379 394 393
3 392 393 394
3 378 394 396
3 379 395 394
3 385 396 395
3 394 395 396
3 378 396 398
3 385 397 396
3 388 398 397
3 396 397 398
3 378 398 390
3 388 399 398
3 389 390 399
3 398 399 390
3 379 393 401
3 383 400 393
3 387 401 400
3 393 400 401
3 383 391 403
3 389 402 391
3 382 403 402
3 391 402 403
3 389 399 405
3 388 404 399
3 380 405 404
3 399 404 405
3 388 397 407
3 385 406 397
3 384 407 406
3 397 406 407
3 385 395 409
3 379 408 395
3 386 409 408
3 395 408 409
3 381 410 412
3 387 411 410
3 382 412 411
3 410 411 412
3 381 412 414
3 382 413 412
3 380 414 413
3 412 413 414
3 381 414 416
3 380 415 414
3 384 416 415
3 414 415 416
3 381 416 418
3 384 417 416
3 386 418 417
3 416 417 418
3 381 418 410
3 386 419 418
3 387 410 419
3 418 419 410
3 382 411 403
3 387 400 411
3 383 403 400
3 411 400 403
3 380 413 405
3 382 402 413
3 389 405 402
3 413 402 405
3 384 415 407
3 380 404 415
3 388 407 404
3 415 404 407
3 386 417 409
3 384 406 417
3 385 409 406
3 417 406 409
3 387 419 401
3 386 408 419
3 379 401 408
3 419 408 401
3 420 432 434
3 431 433 432
3 425 434 433
3 432 433 434
3 420 434 436
3 425 435 434
3 421 436 435
3 434 435 436
3 420 436 438
3 421 437 436
3 427 438 437
3 436 437 438
3 420 438 440
3 427 439 438
3 430 440 439
3 438 439 440
3 420 440 432
3 430 441 440
3 431 432 441
3 440 441 432
3 421 435 443
3 425 442 435
3 429 443 442
3 435 442 443
3 425 433 445
3 431 444 433
3 424 445 444
3 433 444 445
3 431 441 447
3 430 446 441
3 422 447 446
3 441 446 447
3 430 439 449
3 427 448 439
3 426 449 448
3 439 448 449
3 427 437 451
3 421 450 437
3 428 451 450
3 437 450 451
3 423 452 454
3 429 453 452
3 424 454 453
3 452 453 454
3 423 454 456
3 424 455 454
3 422 456 455
3 454 455 456
3 423 456 458
3 422 457 456
3 426 458 457
3 456 457 458
3 423 458 460
3 426 459 458
3 428 460 459
3 458 459 460
3 423 460 452
3 428 461 460
3 429 452 461
3 460 461 452
3 424 453 445
3 429 442 453
3 425 445 442
3 453 442 445
3 422 455 447
3 424 444 455
3 431 447 444
3 455 444 447
3 426 457 449
3 422 446 457
3 430 449 446
3 457 446 449
3 428 459 451
3 426 448 459
3 427 451 448
3 459 448 451
3 429 461 443
3 428 450 461
3 421 443 450
3 461 450 443
3 462 474 476
3 473 475 474
3 467 476 475
3 474 475 476
3 462 476 478
3 467 477 476
3 463 478 477
3 476 477 478
3 462 478 480
3 463 479 478
3 469 480 479
3 478 479 480
3 462 480 482
3 469 481 480
3 472 482 481
3 480 481 482
3 462 482 474
3 472 483 482
3 473 474 483
3 482 483 474
3 463 477 485
3 467 484 477
3 471 485 484
3 477 484 485
3 467 475 487
3 473 486 475
3 466 487 486
3 475 486 487
3 473 483 489
3 472 488 483
3 464 489 488
3 483 488 489
3 472 481 491
3 469 490 481
3 468 491 490
3 481 490 491
3 469 479 493
3 463 492 479
3 470 493 492
3 479 492 493
3 465 494 496
3 471 495 494
3 466 496 495
3 494 495 496
3 465 496 498
3 466 497 496
3 464 498 497
3 496 497 498
3 465 498 500
3 464 499 498
3 468 500 499
3 498 499 500
3 465 500 502
3 468 501 500
3 470 502 501
3 500 501 502
3 465 502 494
3 470 503 502
3 471 494 503
3 502 503 494
3 466 495 487
3 471 484 495
3 467 487 484
3 495 484 487
3 464 497 489
3 466 486 497
3 473 489 486
3 497 486 489
3 468 499 491
3 464 488 499
3 472 491 488
3 499 488 491
3 470 501 493
3 468 490 501
3 469 493 490
3 501 490 493
3 471 503 485
3 470 492 503
3 463 485 492
3 503 492 485
3 504 516 518
3 515 517 516
3 509 518 517
3 516 517 518
3 504 518 520
3 509 519 518
3 505 520 519
3 518 519 520
3 504 520 522
3 505 521 520
3 511 522 521
3 520 521 522
3 504 522 524
3 511 523 522
3 514 524 523
3 522 523 524
3 504 524 516
3 514 525 524
3 515 516 525
3 524 525 516
3 505 519 527
3 509 526 519
3 513 527 526
3 519 526 527
3 509 517 529
3 515 528 517
3 508 529 528
3 517 528 529
3 515 525 531
3 514 530 525
3 506 531 530
3 525 530 531
3 514 523 533
3 511 532 523
3 510 533 532
3 523 532 533
3 511 521 535
3 505 534 521
3 512 535 534
3 521 534 535
3 507 536 538
3 513 537 536
3 508 538 537
3 536 537 538
3 507 538 540
3 508 539 538
3 506 540 539
3 538 539 540
3 507 540 542
3 506 541 540
3 510 542 541
3 540 541 542
3 507 542 544
3 510 543 542
3 512 544 543
3 542 543 544
3 507 544 536
3 512 545 544
3 513 536 545
3 544 545 536
3 508 537 529
3 513 526 537
3 509 529 526
3 537 526 529
3 506 539 531
3 508 528 539
3 515 531 528
3 539 528 531
3 510 541 533
3 506 530 541
3 514 533 530
3 541 530 533
3 512 543 535
3 510 532 543
3 511 535 532
3 543 532 535
3 513 545 527
3 512 534 545
3 505 527 534
3 545 534 527
