ply
format ascii 1.0
element vertex 546
property float x
property float y
property float z
property uchar red
property uchar green
property uchar blue
element face 1040
property list uchar int vertex_indices
end_header
-0.108064 0.009769 0.426073 255 0 0
-0.118023 0.009961 0.433107 255 0 0
-0.109665 -0.011304 0.424385 255 0 0
-0.119623 -0.011111 0.431419 255 0 0
-0.117706 -0.006544 0.423439 255 0 0
-0.116717 0.006480 0.424483 255 0 0
-0.110971 -0.007822 0.433009 255 0 0
-0.109982 0.005201 0.434053 255 0 0
-0.119819 -0.000910 0.437394 255 0 0
-0.123982 -0.000120 0.431479 255 0 0
-0.103706 -0.001222 0.426012 255 0 0
-0.107869 -0.000432 0.420098 255 0 0
-0.106935 0.005606 0.422092 255 0 0
-0.112020 0.003673 0.421157 255 0 0
-0.112136 0.009668 0.424669 255 0 0
-0.117989 0.009782 0.428804 255 0 0
-0.112903 0.011715 0.429738 255 0 0
-0.114030 0.009030 0.434429 255 0 0
-0.108177 0.008917 0.430294 255 0 0
-0.105615 0.002457 0.430259 255 0 0
-0.104488 0.005141 0.425568 255 0 0
-0.104373 -0.000854 0.422056 255 0 0
-0.121491 0.003856 0.427847 255 0 0
-0.122259 0.005902 0.432916 255 0 0
-0.112602 -0.003983 0.420543 255 0 0
-0.117803 0.000080 0.423121 255 0 0
-0.105428 -0.007245 0.424576 255 0 0
-0.107875 -0.006780 0.421099 255 0 0
-0.109885 -0.001423 0.434371 255 0 0
-0.106196 -0.005198 0.429645 255 0 0
-0.119812 0.005438 0.436393 255 0 0
-0.115086 0.002640 0.436949 255 0 0
-0.123200 -0.006484 0.431924 255 0 0
-0.122073 -0.003799 0.427233 255 0 0
-0.119511 -0.010260 0.427198 255 0 0
-0.113658 -0.010373 0.423063 255 0 0
-0.114784 -0.013057 0.427754 255 0 0
-0.109699 -0.011124 0.428688 255 0 0
-0.115552 -0.011011 0.432823 255 0 0
-0.115667 -0.005015 0.436335 255 0 0
-0.120753 -0.006948 0.435400 255 0 0
-0.123315 -0.000488 0.435436 255 0 0
-0.168758 -0.037623 0.439553 255 0 0
-0.177071 -0.036256 0.446683 255 0 0
-0.172738 -0.060639 0.439327 255 0 0
-0.181052 -0.059272 0.446457 255 0 0
-0.179884 -0.054867 0.438430 255 0 0
-0.177424 -0.040642 0.438570 255 0 0
-0.172385 -0.056253 0.447440 255 0 0
-0.169925 -0.042028 0.447580 255 0 0
-0.179313 -0.047769 0.451558 255 0 0
-0.183948 -0.046913 0.445989 255 0 0
-0.165862 -0.049982 0.440021 255 0 0
-0.170496 -0.049126 0.434453 255 0 0
-0.168700 -0.042484 0.435949 255 0 0
-0.173795 -0.044258 0.435371 255 0 0
-0.172773 -0.037497 0.438369 255 0 0
-0.177659 -0.036693 0.442560 255 0 0
-0.172565 -0.034919 0.443138 255 0 0
-0.173251 -0.037508 0.447856 255 0 0
-0.168365 -0.038312 0.443665 255 0 0
-0.166662 -0.045576 0.443940 255 0 0
-0.165976 -0.042987 0.439222 255 0 0
-0.166998 -0.049748 0.436224 255 0 0
-0.181701 -0.042958 0.442152 255 0 0
-0.181494 -0.040379 0.446921 255 0 0
-0.175241 -0.052619 0.435289 255 0 0
-0.179313 -0.047633 0.437709 255 0 0
-0.168316 -0.056516 0.439089 255 0 0
-0.171040 -0.056012 0.435816 255 0 0
-0.170497 -0.049262 0.448301 255 0 0
-0.168108 -0.053937 0.443858 255 0 0
-0.178769 -0.040883 0.450194 255 0 0
-0.174569 -0.044276 0.450721 255 0 0
-0.183833 -0.053908 0.446788 255 0 0
-0.183147 -0.051319 0.442070 255 0 0
-0.181445 -0.058583 0.442345 255 0 0
-0.176558 -0.059387 0.438154 255 0 0
-0.177245 -0.061976 0.442872 255 0 0
-0.172150 -0.060202 0.443450 255 0 0
-0.177037 -0.059398 0.447641 255 0 0
-0.176015 -0.052637 0.450639 255 0 0
-0.181109 -0.054411 0.450061 255 0 0
-0.182811 -0.047147 0.449786 255 0 0
-0.065042 0.071563 0.415261 255 0 0
-0.074017 0.073128 0.421487 255 0 0
-0.065612 0.048866 0.420146 255 0 0
-0.074587 0.050432 0.426372 255 0 0
-0.073443 0.053050 0.417585 255 0 0
-0.073090 0.067077 0.414566 255 0 0
-0.066539 0.054917 0.427067 255 0 0
-0.066187 0.068944 0.424048 255 0 0
-0.074942 0.062841 0.428783 255 0 0
-0.079209 0.061687 0.422923 255 0 0
-0.060421 0.060308 0.418709 255 0 0
-0.064687 0.059154 0.412849 255 0 0
-0.063996 0.066124 0.412868 255 0 0
-0.068726 0.063487 0.412460 255 0 0
-0.068935 0.070781 0.413877 255 0 0
-0.074210 0.071701 0.417536 255 0 0
-0.069480 0.074338 0.417945 255 0 0
-0.070152 0.072799 0.423110 255 0 0
-0.064877 0.071879 0.419450 255 0 0
-0.062161 0.065263 0.421477 255 0 0
-0.061488 0.066802 0.416312 255 0 0
-0.061279 0.059508 0.414895 255 0 0
-0.077262 0.064976 0.418381 255 0 0
-0.077806 0.068533 0.422449 255 0 0
-0.068933 0.055242 0.414234 255 0 0
-0.073872 0.059899 0.415243 255 0 0
-0.061823 0.053462 0.419184 255 0 0
-0.064331 0.052783 0.415739 255 0 0
-0.065757 0.062095 0.426390 255 0 0
-0.062368 0.057018 0.423252 255 0 0
-0.075299 0.069211 0.425893 255 0 0
-0.070696 0.066752 0.427399 255 0 0
-0.078141 0.055192 0.425320 255 0 0
-0.077469 0.056731 0.420155 255 0 0
-0.074752 0.050116 0.422183 255 0 0
-0.069477 0.049196 0.418523 255 0 0
-0.070150 0.047657 0.423688 255 0 0
-0.065419 0.050293 0.424096 255 0 0
-0.070694 0.051213 0.427756 255 0 0
-0.070903 0.058507 0.429173 255 0 0
-0.075634 0.055871 0.428765 255 0 0
-0.078350 0.062486 0.426738 255 0 0
-0.118870 0.076400 0.420944 255 0 0
-0.127100 0.077650 0.426693 255 0 0
-0.119351 0.053078 0.425328 255 0 0
-0.127581 0.054328 0.431078 255 0 0
-0.127057 0.057278 0.422285 255 0 0
-0.126760 0.071692 0.419575 255 0 0
-0.119691 0.059036 0.432446 255 0 0
-0.119394 0.073450 0.429737 255 0 0
-0.127607 0.066919 0.433803 255 0 0
-0.132160 0.065832 0.427522 255 0 0
-0.114291 0.064896 0.424499 255 0 0
-0.118844 0.063809 0.418219 255 0 0
-0.118090 0.070937 0.418452 255 0 0
-0.122728 0.068169 0.417648 255 0 0
-0.122743 0.075570 0.419250 255 0 0
-0.127581 0.076305 0.422629 255 0 0
-0.122943 0.079072 0.423434 255 0 0
-0.123251 0.077339 0.428602 255 0 0
-0.118413 0.076604 0.425222 255 0 0
-0.115722 0.069842 0.427312 255 0 0
-0.115414 0.071575 0.422144 255 0 0
-0.115398 0.064175 0.420542 255 0 0
-0.130555 0.069359 0.423116 255 0 0
-0.130755 0.072861 0.427301 255 0 0
-0.122902 0.059697 0.419241 255 0 0
-0.127555 0.064330 0.420038 255 0 0
-0.115696 0.057867 0.424721 255 0 0
-0.118372 0.057228 0.421030 255 0 0
-0.118896 0.066398 0.431984 255 0 0
-0.115896 0.061369 0.428905 255 0 0
-0.128079 0.073500 0.430992 255 0 0
-0.123549 0.071031 0.432781 255 0 0
-0.131037 0.059152 0.429878 255 0 0
-0.130729 0.060886 0.424709 255 0 0
-0.128038 0.054124 0.426799 255 0 0
-0.123200 0.053389 0.423419 255 0 0
-0.123508 0.051655 0.428588 255 0 0
-0.118870 0.054423 0.429392 255 0 0
-0.123708 0.055158 0.432772 255 0 0
-0.123723 0.062559 0.434373 255 0 0
-0.128361 0.059791 0.433569 255 0 0
-0.131053 0.066553 0.431479 255 0 0
0.032502 -0.058507 0.435435 255 0 0
0.027365 -0.059703 0.439836 255 0 0
0.034224 -0.078900 0.431903 255 0 0
0.029087 -0.080096 0.436304 255 0 0
0.024301 -0.074814 0.426792 255 0 0
0.023237 -0.062209 0.428975 255 0 0
0.038352 -0.076394 0.442764 255 0 0
0.037288 -0.063789 0.444947 255 0 0
0.030980 -0.070757 0.444366 255 0 0
0.022296 -0.069781 0.434495 255 0 0
0.039292 -0.068822 0.437245 255 0 0
0.030608 -0.067846 0.427374 255 0 0
0.031689 -0.062101 0.430621 255 0 0
0.026243 -0.064277 0.426823 255 0 0
0.027356 -0.058788 0.431562 255 0 0
0.024336 -0.059491 0.434149 255 0 0
0.029782 -0.057314 0.437946 255 0 0
0.032595 -0.060420 0.443537 255 0 0
0.035615 -0.059716 0.440950 255 0 0
0.039606 -0.065780 0.442014 255 0 0
0.036793 -0.062675 0.436423 255 0 0
0.035680 -0.068164 0.431684 255 0 0
0.021357 -0.065415 0.431009 255 0 0
0.023783 -0.063941 0.437393 255 0 0
0.026868 -0.071686 0.425540 255 0 0
0.022535 -0.068373 0.426482 255 0 0
0.037805 -0.074662 0.434346 255 0 0
0.032701 -0.074088 0.428544 255 0 0
0.039053 -0.070230 0.445258 255 0 0
0.040232 -0.073188 0.440730 255 0 0
0.028888 -0.064515 0.443195 255 0 0
0.034720 -0.066917 0.446199 255 0 0
0.024796 -0.075928 0.435317 255 0 0
0.021983 -0.072823 0.429726 255 0 0
0.025974 -0.078886 0.430789 255 0 0
0.028993 -0.078183 0.428203 255 0 0
0.031806 -0.081289 0.433793 255 0 0
0.037252 -0.079112 0.437591 255 0 0
0.034233 -0.079815 0.440177 255 0 0
0.035346 -0.074326 0.444916 255 0 0
0.029900 -0.076502 0.441119 255 0 0
0.025909 -0.070439 0.440055 255 0 0
0.021534 0.012354 0.434234 255 0 0
0.016713 0.012107 0.439366 255 0 0
0.020865 -0.008612 0.432596 255 0 0
0.016044 -0.008859 0.437728 255 0 0
0.011103 -0.003947 0.428488 255 0 0
0.011516 0.009011 0.429500 255 0 0
0.026061 -0.005515 0.442462 255 0 0
0.026474 0.007442 0.443474 255 0 0
0.019511 0.001063 0.444451 255 0 0
0.010267 0.002033 0.435815 255 0 0
0.027311 0.001463 0.436147 255 0 0
0.018066 0.002433 0.427511 255 0 0
0.019978 0.008385 0.429975 255 0 0
0.014090 0.006420 0.427193 255 0 0
0.016128 0.012251 0.431145 255 0 0
0.013294 0.012106 0.434161 255 0 0
0.019182 0.014071 0.436944 255 0 0
0.022086 0.011184 0.442375 255 0 0
0.024920 0.011329 0.439358 255 0 0
0.028315 0.004928 0.440483 255 0 0
0.025411 0.007815 0.435051 255 0 0
0.023373 0.001983 0.431100 255 0 0
0.009505 0.006185 0.432074 255 0 0
0.012559 0.008004 0.437873 255 0 0
0.013847 -0.001197 0.426598 255 0 0
0.009997 0.002670 0.427768 255 0 0
0.025018 -0.004509 0.434089 255 0 0
0.019584 -0.003939 0.429013 255 0 0
0.027581 0.000826 0.444194 255 0 0
0.028072 -0.002689 0.439888 255 0 0
0.017993 0.007435 0.442949 255 0 0
0.023731 0.004693 0.445364 255 0 0
0.012166 -0.004319 0.436911 255 0 0
0.009262 -0.001432 0.431479 255 0 0
0.012658 -0.007834 0.432604 255 0 0
0.015491 -0.007688 0.429587 255 0 0
0.018396 -0.010576 0.435018 255 0 0
0.024283 -0.008610 0.437801 255 0 0
0.021450 -0.008756 0.440817 255 0 0
0.023488 -0.002924 0.444769 255 0 0
0.017600 -0.004889 0.441987 255 0 0
0.014204 0.001513 0.440862 255 0 0
-0.172478 0.069563 0.440054 255 0 0
-0.181883 0.067637 0.447235 255 0 0
-0.167480 0.047726 0.440743 255 0 0
-0.176885 0.045800 0.447924 255 0 0
-0.176414 0.050040 0.439671 255 0 0
-0.179503 0.063536 0.439245 255 0 0
-0.169860 0.051826 0.448734 255 0 0
-0.172949 0.065323 0.448308 255 0 0
-0.180265 0.056675 0.452600 255 0 0
-0.184316 0.055571 0.446998 255 0 0
-0.165047 0.059791 0.440980 255 0 0
-0.169098 0.058687 0.435379 255 0 0
-0.170104 0.065256 0.436615 255 0 0
-0.174234 0.061714 0.436139 255 0 0
-0.176220 0.068107 0.438887 255 0 0
-0.181748 0.066975 0.443108 255 0 0
-0.177619 0.070517 0.443584 255 0 0
-0.177896 0.068025 0.448435 255 0 0
-0.172368 0.069157 0.444214 255 0 0
-0.168000 0.063413 0.444759 255 0 0
-0.167723 0.065905 0.439907 255 0 0
-0.165737 0.059513 0.437159 255 0 0
-0.183178 0.059883 0.442969 255 0 0
-0.184577 0.062293 0.447666 255 0 0
-0.172418 0.053781 0.436390 255 0 0
-0.178534 0.056631 0.438662 255 0 0
-0.164786 0.053070 0.440312 255 0 0
-0.167167 0.052421 0.437020 255 0 0
-0.170829 0.058731 0.449316 255 0 0
-0.166184 0.055480 0.445009 255 0 0
-0.182196 0.062942 0.450958 255 0 0
-0.176945 0.061581 0.451589 255 0 0
-0.181639 0.049457 0.448071 255 0 0
-0.181363 0.051950 0.443220 255 0 0
-0.176995 0.046206 0.443764 255 0 0
-0.171467 0.047338 0.439543 255 0 0
-0.171744 0.044846 0.444394 255 0 0
-0.167614 0.048388 0.444870 255 0 0
-0.173142 0.047256 0.449091 255 0 0
-0.175129 0.053649 0.451839 255 0 0
-0.179258 0.050106 0.451363 255 0 0
-0.183626 0.055850 0.450819 255 0 0
-0.037639 0.014256 0.413439 255 0 0
-0.044101 0.014049 0.419708 255 0 0
-0.040038 -0.010176 0.410156 255 0 0
-0.046500 -0.010383 0.416426 255 0 0
-0.047516 -0.004505 0.409105 255 0 0
-0.046033 0.010595 0.411133 255 0 0
-0.038106 -0.006722 0.418731 255 0 0
-0.036623 0.008378 0.420760 255 0 0
-0.044390 0.001083 0.422979 255 0 0
-0.050206 0.002454 0.417029 255 0 0
-0.033933 0.001419 0.412835 255 0 0
-0.039749 0.002790 0.406885 255 0 0
-0.038101 0.009680 0.409325 255 0 0
-0.043036 0.007528 0.407969 255 0 0
-0.041795 0.014267 0.411821 255 0 0
-0.045594 0.014145 0.415506 255 0 0
-0.040660 0.016297 0.416862 255 0 0
-0.040063 0.012842 0.421165 255 0 0
-0.036264 0.012964 0.417480 255 0 0
-0.034086 0.005419 0.417125 255 0 0
-0.034683 0.008874 0.412822 255 0 0
-0.035923 0.002134 0.408970 255 0 0
-0.049182 0.007330 0.413932 255 0 0
-0.048046 0.009360 0.418972 255 0 0
-0.043907 -0.001348 0.406777 255 0 0
-0.047601 0.003240 0.409274 255 0 0
-0.036093 -0.005487 0.410892 255 0 0
-0.039511 -0.004681 0.407395 255 0 0
-0.036538 0.000633 0.420591 255 0 0
-0.034957 -0.003457 0.415933 255 0 0
-0.044628 0.008554 0.422469 255 0 0
-0.040232 0.005221 0.423088 255 0 0
-0.049456 -0.005001 0.417043 255 0 0
-0.050053 -0.001545 0.412739 255 0 0
-0.047875 -0.009091 0.412385 255 0 0
-0.044077 -0.008969 0.408700 255 0 0
-0.043480 -0.012424 0.413003 255 0 0
-0.038546 -0.010272 0.414358 255 0 0
-0.042344 -0.010394 0.418043 255 0 0
-0.041104 -0.003654 0.421895 255 0 0
-0.046038 -0.005806 0.420540 255 0 0
-0.048216 0.001739 0.420895 255 0 0
-0.068669 -0.047394 0.409627 255 0 0
-0.077526 -0.048893 0.415764 255 0 0
-0.068339 -0.070109 0.404555 255 0 0
-0.077197 -0.071608 0.410692 255 0 0
-0.076319 -0.065503 0.403807 255 0 0
-0.076523 -0.051464 0.406941 255 0 0
-0.069343 -0.067539 0.413378 255 0 0
-0.069547 -0.053500 0.416512 255 0 0
-0.077943 -0.061343 0.418082 255 0 0
-0.082255 -0.060085 0.412167 255 0 0
-0.063611 -0.058918 0.408152 255 0 0
-0.067923 -0.057660 0.402237 255 0 0
-0.067482 -0.051303 0.405189 255 0 0
-0.072098 -0.053695 0.403611 255 0 0
-0.072537 -0.047661 0.407955 255 0 0
-0.077743 -0.048542 0.411562 255 0 0
-0.073127 -0.046150 0.413141 255 0 0
-0.073642 -0.049739 0.417188 255 0 0
-0.068436 -0.048858 0.413580 255 0 0
-0.065463 -0.055631 0.412714 255 0 0
-0.064948 -0.052042 0.408666 255 0 0
-0.064509 -0.058076 0.404323 255 0 0
-0.080522 -0.055120 0.409448 255 0 0
-0.081112 -0.053609 0.414634 255 0 0
-0.071979 -0.061946 0.401768 255 0 0
-0.077034 -0.058305 0.404534 255 0 0
-0.064754 -0.065394 0.405685 255 0 0
-0.067288 -0.064654 0.402208 255 0 0
-0.068832 -0.060698 0.415785 255 0 0
-0.065344 -0.063883 0.410871 255 0 0
-0.078578 -0.054349 0.418111 255 0 0
-0.073887 -0.057056 0.418551 255 0 0
-0.080918 -0.066961 0.411653 255 0 0
-0.080403 -0.063372 0.407605 255 0 0
-0.077430 -0.070145 0.406738 255 0 0
-0.072223 -0.069264 0.403131 255 0 0
-0.072739 -0.072853 0.407178 255 0 0
-0.068123 -0.070461 0.408757 255 0 0
-0.073329 -0.071342 0.412364 255 0 0
-0.073768 -0.065308 0.416708 255 0 0
-0.078384 -0.067700 0.415130 255 0 0
-0.081357 -0.060927 0.415996 255 0 0
-0.120597 -0.056073 0.416582 255 0 0
-0.130147 -0.055443 0.423445 255 0 0
-0.123730 -0.077733 0.414212 255 0 0
-0.133280 -0.077102 0.421075 255 0 0
-0.131239 -0.072281 0.413368 255 0 0
-0.129303 -0.058895 0.414833 255 0 0
-0.124575 -0.074280 0.422824 255 0 0
-0.122639 -0.060894 0.424289 255 0 0
-0.132605 -0.066695 0.427303 255 0 0
-0.136724 -0.065460 0.421459 255 0 0
-0.117154 -0.067715 0.416198 255 0 0
-0.121272 -0.066480 0.410354 255 0 0
-0.119881 -0.060344 0.412527 255 0 0
-0.124997 -0.062003 0.411499 255 0 0
-0.124601 -0.055886 0.415160 255 0 0
-0.130214 -0.055515 0.419194 255 0 0
-0.125097 -0.053856 0.420222 255 0 0
-0.126297 -0.056690 0.424752 255 0 0
-0.120684 -0.057061 0.420718 255 0 0
-0.118660 -0.063904 0.420492 255 0 0
-0.117460 -0.061070 0.415962 255 0 0
-0.117856 -0.067187 0.412301 255 0 0
-0.134080 -0.061403 0.418026 255 0 0
-0.134576 -0.059374 0.423088 255 0 0
-0.126136 -0.069871 0.410638 255 0 0
-0.130856 -0.065413 0.413271 255 0 0
-0.119301 -0.073801 0.414569 255 0 0
-0.121722 -0.073075 0.411134 255 0 0
-0.123022 -0.067762 0.424387 255 0 0
-0.119798 -0.071772 0.419631 255 0 0
-0.132155 -0.060100 0.426523 255 0 0
-0.127742 -0.063304 0.427019 255 0 0
-0.136418 -0.072105 0.421695 255 0 0
-0.135218 -0.069272 0.417165 255 0 0
-0.133194 -0.076115 0.416940 255 0 0
-0.127580 -0.076485 0.412906 255 0 0
-0.128780 -0.079319 0.417436 255 0 0
-0.123664 -0.077660 0.418464 255 0 0
-0.129277 -0.077289 0.422498 255 0 0
-0.128880 -0.071172 0.426158 255 0 0
-0.133997 -0.072831 0.425130 255 0 0
-0.136021 -0.065988 0.425356 255 0 0
0.049832 0.079495 0.439488 255 0 0
0.044884 0.080740 0.444043 255 0 0
0.046423 0.058921 0.441407 255 0 0
0.041475 0.060166 0.445962 255 0 0
0.037472 0.063920 0.435453 255 0 0
0.039579 0.076636 0.434267 255 0 0
0.051728 0.063025 0.451183 255 0 0
0.053835 0.075740 0.449997 255 0 0
0.046056 0.070561 0.451270 255 0 0
0.037245 0.071114 0.441549 255 0 0
0.054062 0.068547 0.443900 255 0 0
0.045251 0.069100 0.434179 255 0 0
0.047873 0.075082 0.435799 255 0 0
0.041847 0.073401 0.432730 255 0 0
0.044539 0.079511 0.435851 255 0 0
0.041631 0.080243 0.438528 255 0 0
0.047658 0.081923 0.441597 255 0 0
0.050010 0.079716 0.447774 255 0 0
0.052919 0.078985 0.445096 255 0 0
0.055405 0.072550 0.447690 255 0 0
0.053052 0.074756 0.441513 255 0 0
0.050359 0.068646 0.438393 255 0 0
0.037141 0.074585 0.437062 255 0 0
0.040259 0.076997 0.442808 255 0 0
0.040608 0.065927 0.433427 255 0 0
0.037274 0.070357 0.433479 255 0 0
0.051048 0.062663 0.442641 255 0 0
0.045869 0.062989 0.436927 255 0 0
0.054033 0.069304 0.451971 255 0 0
0.054166 0.065076 0.448387 255 0 0
0.045438 0.076672 0.448522 255 0 0
0.050699 0.073733 0.452022 255 0 0
0.038255 0.064904 0.443936 255 0 0
0.035902 0.067111 0.437759 255 0 0
0.038388 0.060676 0.440353 255 0 0
0.041297 0.059944 0.437676 255 0 0
0.043649 0.057737 0.443853 255 0 0
0.049676 0.059418 0.446921 255 0 0
0.046768 0.060150 0.449599 255 0 0
0.049460 0.066260 0.452719 255 0 0
0.043434 0.064579 0.449650 255 0 0
0.040948 0.071014 0.447057 255 0 0
-0.007558 0.074512 0.411861 255 0 0
-0.011519 0.075728 0.417768 255 0 0
-0.009614 0.052884 0.414937 255 0 0
-0.013575 0.054101 0.420844 255 0 0
-0.019185 0.057620 0.411950 255 0 0
-0.017914 0.070987 0.410049 255 0 0
-0.003218 0.057625 0.422656 255 0 0
-0.001948 0.070992 0.420755 255 0 0
-0.008837 0.065292 0.424439 255 0 0
-0.018705 0.065289 0.417823 255 0 0
-0.002428 0.063324 0.414882 255 0 0
-0.012296 0.063321 0.408265 255 0 0
-0.009815 0.069726 0.408959 255 0 0
-0.015902 0.067654 0.407894 255 0 0
-0.013117 0.074232 0.410008 255 0 0
-0.015445 0.074947 0.413480 255 0 0
-0.009358 0.077019 0.414545 255 0 0
-0.006061 0.074950 0.419772 255 0 0
-0.003732 0.074235 0.416300 255 0 0
-0.000717 0.067659 0.418076 255 0 0
-0.004015 0.069727 0.412848 255 0 0
-0.006799 0.063149 0.410735 255 0 0
-0.019669 0.068811 0.413512 255 0 0
-0.015910 0.071598 0.418049 255 0 0
-0.016649 0.059797 0.409011 255 0 0
-0.019951 0.064303 0.410060 255 0 0
-0.005223 0.057015 0.414656 255 0 0
-0.011023 0.057013 0.410767 255 0 0
-0.001181 0.064309 0.422645 255 0 0
-0.001464 0.059802 0.419193 255 0 0
-0.010110 0.071599 0.421938 255 0 0
-0.004484 0.068815 0.423693 255 0 0
-0.017118 0.058885 0.419857 255 0 0
-0.020416 0.060954 0.414629 255 0 0
-0.017400 0.054378 0.416404 255 0 0
-0.015072 0.053663 0.412932 255 0 0
-0.011774 0.051594 0.418160 255 0 0
-0.005687 0.053666 0.419225 255 0 0
-0.008015 0.054381 0.422697 255 0 0
-0.005231 0.060959 0.424811 255 0 0
-0.011318 0.058887 0.423746 255 0 0
-0.014333 0.065463 0.421970 255 0 0
-0.016665 -0.048551 0.407454 255 0 0
-0.020774 -0.049468 0.413482 255 0 0
-0.016407 -0.071182 0.404187 255 0 0
-0.020516 -0.072099 0.410215 255 0 0
-0.026016 -0.066680 0.402807 255 0 0
-0.026175 -0.052693 0.404826 255 0 0
-0.011006 -0.067957 0.412843 255 0 0
-0.011165 -0.053971 0.414862 255 0 0
-0.017276 -0.061462 0.416813 255 0 0
-0.026553 -0.060672 0.410610 255 0 0
-0.010628 -0.059978 0.407059 255 0 0
-0.019905 -0.059188 0.400856 255 0 0
-0.018231 -0.052736 0.403333 255 0 0
-0.023821 -0.055171 0.401789 255 0 0
-0.021917 -0.048919 0.405667 255 0 0
-0.024332 -0.049458 0.409210 255 0 0
-0.018742 -0.047023 0.410755 255 0 0
-0.015510 -0.050209 0.415109 255 0 0
-0.013094 -0.049669 0.411566 255 0 0
-0.009546 -0.056386 0.411334 255 0 0
-0.012779 -0.053201 0.406979 255 0 0
-0.014683 -0.059453 0.403101 255 0 0
-0.027729 -0.056043 0.407522 255 0 0
-0.024554 -0.054148 0.412610 255 0 0
-0.023727 -0.063392 0.400602 255 0 0
-0.027413 -0.059574 0.402936 255 0 0
-0.012627 -0.066503 0.405059 255 0 0
-0.018080 -0.066038 0.401413 255 0 0
-0.009768 -0.061076 0.414733 255 0 0
-0.009452 -0.064607 0.410147 255 0 0
-0.019101 -0.054612 0.416256 255 0 0
-0.013454 -0.057258 0.417067 255 0 0
-0.024402 -0.067450 0.410690 255 0 0
-0.027635 -0.064264 0.406335 255 0 0
-0.024086 -0.070981 0.406103 255 0 0
-0.021671 -0.070442 0.402560 255 0 0
-0.018439 -0.073627 0.406914 255 0 0
-0.012849 -0.071193 0.408459 255 0 0
-0.015264 -0.071732 0.412002 255 0 0
-0.013360 -0.065479 0.415880 255 0 0
-0.018949 -0.067914 0.414335 255 0 0
-0.022498 -0.061197 0.414568 255 0 0
3 0 12 14
3 11 13 12
3 5 14 13
3 12 13 14
3 0 14 16
3 5 15 14
3 1 16 15
3 14 15 16
3 0 16 18
3 1 17 16
3 7 18 17
3 16 17 18
3 0 18 20
3 7 19 18
3 10 20 19
3 18 19 20
3 0 20 12
3 10 21 20
3 11 12 21
3 20 21 12
3 1 15 23
3 5 22 15
3 9 23 22
3 15 22 23
3 5 13 25
3 11 24 13
3 4 25 24
3 13 24 25
3 11 21 27
3 10 26 21
3 2 27 26
3 21 26 27
3 10 19 29
3 7 28 19
3 6 29 28
3 19 28 29
3 7 17 31
3 1 30 17
3 8 31 30
3 17 30 31
3 3 32 34
3 9 33 32
3 4 34 33
3 32 33 34
3 3 34 36
3 4 35 34
3 2 36 35
3 34 35 36
3 3 36 38
3 2 37 36
3 6 38 37
3 36 37 38
3 3 38 40
3 6 39 38
3 8 40 39
3 38 39 40
3 3 40 32
3 8 41 40
3 9 32 41
3 40 41 32
3 4 33 25
3 9 22 33
3 5 25 22
3 33 22 25
3 2 35 27
3 4 24 35
3 11 27 24
3 35 24 27
3 6 37 29
3 2 26 37
3 10 29 26
3 37 26 29
3 8 39 31
3 6 28 39
3 7 31 28
3 39 28 31
3 9 41 23
3 8 30 41
3 1 23 30
3 41 30 23
3 42 54 56
3 53 55 54
3 47 56 55
3 54 55 56
3 42 56 58
3 47 57 56
3 43 58 57
3 56 57 58
3 42 58 60
3 43 59 58
3 49 60 59
3 58 59 60
3 42 60 62
3 49 61 60
3 52 62 61
3 60 61 62
3 42 62 54
3 52 63 62
3 53 54 63
3 62 63 54
3 43 57 65
3 47 64 57
3 51 65 64
3 57 64 65
3 47 55 67
3 53 66 55
3 46 67 66
3 55 66 67
3 53 63 69
3 52 68 63
3 44 69 68
3 63 68 69
3 52 61 71
3 49 70 61
3 48 71 70
3 61 70 71
3 49 59 73
3 43 72 59
3 50 73 72
3 59 72 73
3 45 74 76
3 51 75 74
3 46 76 75
3 74 75 76
3 45 76 78
3 46 77 76
3 44 78 77
3 76 77 78
3 45 78 80
3 44 79 78
3 48 80 79
3 78 79 80
3 45 80 82
3 48 81 80
3 50 82 81
3 80 81 82
3 45 82 74
3 50 83 82
3 51 74 83
3 82 83 74
3 46 75 67
3 51 64 75
3 47 67 64
3 75 64 67
3 44 77 69
3 46 66 77
3 53 69 66
3 77 66 69
3 48 79 71
3 44 68 79
3 52 71 68
3 79 68 71
3 50 81 73
3 48 70 81
3 49 73 70
3 81 70 73
3 51 83 65
3 50 72 83
3 43 65 72
3 83 72 65
3 84 96 98
3 95 97 96
3 89 98 97
3 96 97 98
3 84 98 100
3 89 99 98
3 85 100 99
3 98 99 100
3 84 100 102
3 85 101 100
3 91 102 101
3 100 101 102
3 84 102 104
3 91 103 102
3 94 104 103
3 102 103 104
3 84 104 96
3 94 105 104
3 95 96 105
3 104 105 96
3 85 99 107
3 89 106 99
3 93 107 106
3 99 106 107
3 89 97 109
3 95 108 97
3 88 109 108
3 97 108 109
3 95 105 111
3 94 110 105
3 86 111 110
3 105 110 111
3 94 103 113
3 91 112 103
3 90 113 112
3 103 112 113
3 91 101 115
3 85 114 101
3 92 115 114
3 101 114 115
3 87 116 118
3 93 117 116
3 88 118 117
3 116 117 118
3 87 118 120
3 88 119 118
3 86 120 119
3 118 119 120
3 87 120 122
3 86 121 120
3 90 122 121
3 120 121 122
3 87 122 124
3 90 123 122
3 92 124 123
3 122 123 124
3 87 124 116
3 92 125 124
3 93 116 125
3 124 125 116
3 88 117 109
3 93 106 117
3 89 109 106
3 117 106 109
3 86 119 111
3 88 108 119
3 95 111 108
3 119 108 111
3 90 121 113
3 86 110 121
3 94 113 110
3 121 110 113
3 92 123 115
3 90 112 123
3 91 115 112
3 123 112 115
3 93 125 107
3 92 114 125
3 85 107 114
3 125 114 107
3 126 138 140
3 137 139 138
3 131 140 139
3 138 139 140
3 126 140 142
3 131 141 140
3 127 142 141
3 140 141 142
3 126 142 144
3 127 143 142
3 133 144 143
3 142 143 144
3 126 144 146
3 133 145 144
3 136 146 145
3 144 145 146
3 126 146 138
3 136 147 146
3 137 138 147
3 146 147 138
3 127 141 149
3 131 148 141
3 135 149 148
3 141 148 149
3 131 139 151
3 137 150 139
3 130 151 150
3 139 150 151
3 137 147 153
3 136 152 147
3 128 153 152
3 147 152 153
3 136 145 155
3 133 154 145
3 132 155 154
3 145 154 155
3 133 143 157
3 127 156 143
3 134 157 156
3 143 156 157
3 129 158 160
3 135 159 158
3 130 160 159
3 158 159 160
3 129 160 162
3 130 161 160
3 128 162 161
3 160 161 162
3 129 162 164
3 128 163 162
3 132 164 163
3 162 163 164
3 129 164 166
3 132 165 164
3 134 166 165
3 164 165 166
3 129 166 158
3 134 167 166
3 135 158 167
3 166 167 158
3 130 159 151
3 135 148 159
3 131 151 148
3 159 148 151
3 128 161 153
3 130 150 161
3 137 153 150
3 161 150 153
3 132 163 155
3 128 152 163
3 136 155 152
3 163 152 155
3 134 165 157
3 132 154 165
3 133 157 154
3 165 154 157
3 135 167 149
3 134 156 167
3 127 149 156
3 167 156 149
3 168 180 182
3 179 181 180
3 173 182 181
3 180 181 182
3 168 182 184
3 173 183 182
3 169 184 183
3 182 183 184
3 168 184 186
3 169 185 184
3 175 186 185
3 184 185 186
3 168 186 188
3 175 187 186
3 178 188 187
3 186 187 188
3 168 188 180
3 178 189 188
3 179 180 189
3 188 189 180
3 169 183 191
3 173 190 183
3 177 191 190
3 183 190 191
3 173 181 193
3 179 192 181
3 172 193 192
3 181 192 193
3 179 189 195
3 178 194 189
3 170 195 194
3 189 194 195
3 178 187 197
3 175 196 187
3 174 197 196
3 187 196 197
3 175 185 199
3 169 198 185
3 176 199 198
3 185 198 199
3 171 200 202
3 177 201 200
3 172 202 201
3 200 201 202
3 171 202 204
3 172 203 202
3 170 204 203
3 202 203 204
3 171 204 206
3 170 205 204
3 174 206 205
3 204 205 206
3 171 206 208
3 174 207 206
3 176 208 207
3 206 207 208
3 171 208 200
3 176 209 208
3 177 200 209
3 208 209 200
3 172 201 193
3 177 190 201
3 173 193 190
3 201 190 193
3 170 203 195
3 172 192 203
3 179 195 192
3 203 192 195
3 174 205 197
3 170 194 205
3 178 197 194
3 205 194 197
3 176 207 199
3 174 196 207
3 175 199 196
3 207 196 199
3 177 209 191
3 176 198 209
3 169 191 198
3 209 198 191
3 210 222 224
3 221 223 222
3 215 224 223
3 222 223 224
3 210 224 226
3 215 225 224
3 211 226 225
3 224 225 226
3 210 226 228
3 211 227 226
3 217 228 227
3 226 227 228
3 210 228 230
3 217 229 228
3 220 230 229
3 228 229 230
3 210 230 222
3 220 231 230
3 221 222 231
3 230 231 222
3 211 225 233
3 215 232 225
3 219 233 232
3 225 232 233
3 215 223 235
3 221 234 223
3 214 235 234
3 223 234 235
3 221 231 237
3 220 236 231
3 212 237 236
3 231 236 237
3 220 229 239
3 217 238 229
3 216 239 238
3 229 238 239
3 217 227 241
3 211 240 227
3 218 241 240
3 227 240 241
3 213 242 244
3 219 243 242
3 214 244 243
3 242 243 244
3 213 244 246
3 214 245 244
3 212 246 245
3 244 245 246
3 213 246 248
3 212 247 246
3 216 248 247
3 246 247 248
3 213 248 250
3 216 249 248
3 218 250 249
3 248 249 250
3 213 250 242
3 218 251 250
3 219 242 251
3 250 251 242
3 214 243 235
3 219 232 243
3 215 235 232
3 243 232 235
3 212 245 237
3 214 234 245
3 221 237 234
3 245 234 237
3 216 247 239
3 212 236 247
3 220 239 236
3 247 236 239
3 218 249 241
3 216 238 249
3 217 241 238
3 249 238 241
3 219 251 233
3 218 240 251
3 211 233 240
3 251 240 233
3 252 264 266
3 263 265 264
3 257 266 265
3 264 265 266
3 252 266 268
3 257 267 266
3 253 268 267
3 266 267 268
3 252 268 270
3 253 269 268
3 259 270 269
3 268 269 270
3 252 270 272
3 259 271 270
3 262 272 271
3 270 271 272
3 252 272 264
3 262 273 272
3 263 264 273
3 272 273 264
3 253 267 275
3 257 274 267
3 261 275 274
3 267 274 275
3 257 265 277
3 263 276 265
3 256 277 276
3 265 276 277
3 263 273 279
3 262 278 273
3 254 279 278
3 273 278 279
3 262 271 281
3 259 280 271
3 258 281 280
3 271 280 281
3 259 269 283
3 253 282 269
3 260 283 282
3 269 282 283
3 255 284 286
3 261 285 284
3 256 286 285
3 284 285 286
3 255 286 288
3 256 287 286
3 254 288 287
3 286 287 288
3 255 288 290
3 254 289 288
3 258 290 289
3 288 289 290
3 255 290 292
3 258 291 290
3 260 292 291
3 290 291 292
3 255 292 284
3 260 293 292
3 261 284 293
3 292 293 284
3 256 285 277
3 261 274 285
3 257 277 274
3 285 274 277
3 254 287 279
3 256 276 287
3 263 279 276
3 287 276 279
3 258 289 281
3 254 278 289
3 262 281 278
3 289 278 281
3 260 291 283
3 258 280 291
3 259 283 280
3 291 280 283
3 261 293 275
3 260 282 293
3 253 275 282
3 293 282 275
3 294 306 308
3 305 307 306
3 299 308 307
3 306 307 308
3 294 308 310
3 299 309 308
3 295 310 309
3 308 309 310
3 294 310 312
3 295 311 310
3 301 312 311
3 310 311 312
3 294 312 314
3 301 313 312
3 304 314 313
3 312 313 314
3 294 314 306
3 304 315 314
3 305 306 315
3 314 315 306
3 295 309 317
3 299 316 309
3 303 317 316
3 309 316 317
3 299 307 319
3 305 318 307
3 298 319 318
3 307 318 319
3 305 315 321
3 304 320 315
3 296 321 320
3 315 320 321
3 304 313 323
3 301 322 313
3 300 323 322
3 313 322 323
3 301 311 325
3 295 324 311
3 302 325 324
3 311 324 325
3 297 326 328
3 303 327 326
3 298 328 327
3 326 327 328
3 297 328 330
3 298 329 328
3 296 330 329
3 328 329 330
3 297 330 332
3 296 331 330
3 300 332 331
3 330 331 332
3 297 332 334
3 300 333 332
3 302 334 333
3 332 333 334
3 297 334 326
3 302 335 334
3 303 326 335
3 334 335 326
3 298 327 319
3 303 316 327
3 299 319 316
3 327 316 319
3 296 329 321
3 298 318 329
3 305 321 318
3 329 318 321
3 300 331 323
3 296 320 331
3 304 323 320
3 331 320 323
3 302 333 325
3 300 322 333
3 301 325 322
3 333 322 325
3 303 335 317
3 302 324 335
3 295 317 324
3 335 324 317
3 336 348 350
3 347 349 348
3 341 350 349
3 348 349 350
3 336 350 352
3 341 351 350
3 337 352 351
3 350 351 352
3 336 352 354
3 337 353 352
3 343 354 353
3 352 353 354
3 336 354 356
3 343 355 354
3 346 356 355
3 354 355 356
3 336 356 348
3 346 357 356
3 347 348 357
3 356 357 348
3 337 351 359
3 341 358 351
3 345 359 358
3 351 358 359
3 341 349 361
3 347 360 349
3 340 361 360
3 349 360 361
3 347 357 363
3 346 362 357
3 338 363 362
3 357 362 363
3 346 355 365
3 343 364 355
3 342 365 364
3 355 364 365
3 343 353 367
3 337 366 353
3 344 367 366
3 353 366 367
3 339 368 370
3 345 369 368
3 340 370 369
3 368 369 370
3 339 370 372
3 340 371 370
3 338 372 371
3 370 371 372
3 339 372 374
3 338 373 372
3 342 374 373
3 372 373 374
3 339 374 376
3 342 375 374
3 344 376 375
3 374 375 376
3 339 376 368
3 344 377 376
3 345 368 377
3 376 377 368
3 340 369 361
3 345 358 369
3 341 361 358
3 369 358 361
3 338 371 363
3 340 360 371
3 347 363 360
3 371 360 363
3 342 373 365
3 338 362 373
3 346 365 362
3 373 362 365
3 344 375 367
3 342 364 375
3 343 367 364
3 375 364 367
3 345 377 359
3 344 366 377
3 337 359 366
3 377 366 359
3 378 390 392
3 389 391 390
3 383 392 391
3 390 391 392
3 378 392 394
3 383 393 392
3 379 394 393
3 392 393 394
3 378 394 396
3 379 395 394
3 385 396 395
3 394 395 396
3 378 396 398
3 385 397 396
3 388 398 397
3 396 397 398
3 378 398 390
3 388 399 398
3 389 390 399
3 398 399 390
3 379 393 401
3 383 400 393
3 387 401 400
3 393 400 401
3 383 391 403
3 389 402 391
3 382 403 402
3 391 402 403
3 389 399 405
3 388 404 399
3 380 405 404
3 399 404 405
3 388 397 407
3 385 406 397
3 384 407 406
3 397 406 407
3 385 395 409
3 379 408 395
3 386 409 408
3 395 408 409
3 381 410 412
3 387 411 410
3 382 412 411
3 410 411 412
3 381 412 414
3 382 413 412
3 380 414 413
3 412 413 414
3 381 414 416
3 380 415 414
3 384 416 415
3 414 415 416
3 381 416 418
3 384 417 416
3 386 418 417
3 416 417 418
3 381 418 410
3 386 419 418
3 387 410 419
3 418 419 410
3 382 411 403
3 387 400 411
3 383 403 400
3 411 400 403
3 380 413 405
3 382 402 413
3 389 405 402
3 413 402 405
3 384 415 407
3 380 404 415
3 388 407 404
3 415 404 407
3 386 417 409
3 384 406 417
3 385 409 406
3 417 406 409
3 387 419 401
3 386 408 419
3 379 401 408
3 419 408 401
3 420 432 434
3 431 433 432
3 425 434 433
3 432 433 434
3 420 434 436
3 425 435 434
3 421 436 435
3 434 435 436
3 420 436 438
3 421 437 436
3 427 438 437
3 436 437 438
3 420 438 440
3 427 439 438
3 430 440 439
3 438 439 440
3 420 440 432
3 430 441 440
3 431 432 441
3 440 441 432
3 421 435 443
3 425 442 435
3 429 443 442
3 435 442 443
3 425 433 445
3 431 444 433
3 424 445 444
3 433 444 445
3 431 441 447
3 430 446 441
3 422 447 446
3 441 446 447
3 430 439 449
3 427 448 439
3 426 449 448
3 439 448 449
3 427 437 451
3 421 450 437
3 428 451 450
3 437 450 451
3 423 452 454
3 429 453 452
3 424 454 453
3 452 453 454
3 423 454 456
3 424 455 454
3 422 456 455
3 454 455 456
3 423 456 458
3 422 457 456
3 426 458 457
3 456 457 458
3 423 458 460
3 426 459 458
3 428 460 459
3 458 459 460
3 423 460 452
3 428 461 460
3 429 452 461
3 460 461 452
3 424 453 445
3 429 442 453
3 425 445 442
3 453 442 445
3 422 455 447
3 424 444 455
3 431 447 444
3 455 444 447
3 426 457 449
3 422 446 457
3 430 449 446
3 457 446 449
3 428 459 451
3 426 448 459
3 427 451 448
3 459 448 451
3 429 461 443
3 428 450 461
3 421 443 450
3 461 450 443
3 462 474 476
3 473 475 474
3 467 476 475
3 474 475 476
3 462 476 478
3 467 477 476
3 463 478 477
3 476 477 478
3 462 478 480
3 463 479 478
3 469 480 479
3 478 479 480
3 462 480 482
3 469 481 480
3 472 482 481
3 480 481 482
3 462 482 474
3 472 483 482
3 473 474 483
3 482 483 474
3 463 477 485
3 467 484 477
3 471 485 484
3 477 484 485
3 467 475 487
3 473 486 475
3 466 487 486
3 475 486 487
3 473 483 489
3 472 488 483
3 464 489 488
3 483 488 489
3 472 481 491
3 469 490 481
3 468 491 490
3 481 490 491
3 469 479 493
3 463 492 479
3 470 493 492
3 479 492 493
3 465 494 496
3 471 495 494
3 466 496 495
3 494 495 496
3 465 496 498
3 466 497 496
3 464 498 497
3 496 497 498
3 465 498 500
3 464 499 498
3 468 500 499
3 498 499 500
3 465 500 502
3 468 501 500
3 470 502 501
3 500 501 502
3 465 502 494
3 470 503 502
3 471 494 503
3 502 503 494
3 466 495 487
3 471 484 495
3 467 487 484
3 495 484 487
3 464 497 489
3 466 486 497
3 473 489 486
3 497 486 489
3 468 499 491
3 464 488 499
3 472 491 488
3 499 488 491
3 470 501 493
3 468 490 501
3 469 493 490
3 501 490 493
3 471 503 485
3 470 492 503
3 463 485 492
3 503 492 485
3 504 516 518
3 515 517 516
3 509 518 517
3 516 517 518
3 504 518 520
3 509 519 518
3 505 520 519
3 518 519 520
3 504 520 522
3 505 521 520
3 511 522 521
3 520 521 522
3 504 522 524
3 511 523 522
3 514 524 523
3 522 523 524
3 504 524 516
3 514 525 524
3 515 516 525
3 524 525 516
3 505 519 527
3 509 526 519
3 513 527 526
3 519 526 527
3 509 517 529
3 515 528 517
3 508 529 528
3 517 528 529
3 515 525 531
3 514 530 525
3 506 531 530
3 525 530 531
3 514 523 533
3 511 532 523
3 510 533 532
3 523 532 533
3 511 521 535
3 505 534 521
3 512 535 534
3 521 534 535
3 507 536 538
3 513 537 536
3 508 538 537
3 536 537 538
3 507 538 540
3 508 539 538
3 506 540 539
3 538 539 540
3 507 540 542
3 506 541 540
3 510 542 541
3 540 541 542
3 507 542 544
3 510 543 542
3 512 544 543
3 542 543 544
3 507 544 536
3 512 545 544
3 513 536 545
3 544 545 536
3 508 537 529
3 513 526 537
3 509 529 526
3 537 526 529
3 506 539 531
3 508 528 539
3 515 531 528
3 539 528 531
3 510 541 533
3 506 530 541
3 514 533 530
3 541 530 533
3 512 543 535
3 510 532 543
3 511 535 532
3 543 532 535
3 513 545 527
3 512 534 545
3 505 527 534
3 545 534 527
